<svg id="layer1" xmlns="http://www.w3.org/2000/svg" viewBox="0 0 12 136"><defs><style>.cls-1{fill:none;stroke:#a59d92;stroke-miterlimit:10;}</style></defs><rect class="cls-1" x="2.46" y="4.46" width="7.07" height="7.07" transform="translate(-3.9 6.59) rotate(-45)"/><rect class="cls-1" x="2.46" y="14.46" width="7.07" height="7.07" transform="translate(-10.97 9.51) rotate(-45)"/><rect class="cls-1" x="2.46" y="24.46" width="7.07" height="7.07" transform="translate(-18.04 12.44) rotate(-45)"/><rect class="cls-1" x="2.46" y="34.46" width="7.07" height="7.07" transform="translate(-25.11 15.37) rotate(-45)"/><rect class="cls-1" x="2.46" y="44.46" width="7.07" height="7.07" transform="translate(-32.18 18.3) rotate(-45)"/><rect class="cls-1" x="2.46" y="54.46" width="7.07" height="7.07" transform="translate(-39.25 21.23) rotate(-45)"/><rect class="cls-1" x="2.46" y="64.46" width="7.07" height="7.07" transform="translate(-46.33 24.16) rotate(-45)"/><rect class="cls-1" x="2.46" y="74.46" width="7.07" height="7.07" transform="translate(-53.4 27.09) rotate(-45)"/><rect class="cls-1" x="2.46" y="84.46" width="7.07" height="7.07" transform="translate(-60.47 30.02) rotate(-45)"/><rect class="cls-1" x="2.46" y="94.46" width="7.07" height="7.07" transform="translate(-67.54 32.95) rotate(-45)"/><rect class="cls-1" x="2.46" y="104.46" width="7.07" height="7.07" transform="translate(-74.61 35.88) rotate(-45)"/><rect class="cls-1" x="2.46" y="114.46" width="7.07" height="7.07" transform="translate(-81.68 38.8) rotate(-45)"/><rect class="cls-1" x="2.46" y="124.46" width="7.07" height="7.07" transform="translate(-88.75 41.73) rotate(-45)"/></svg>