<svg id="layer1" xmlns="http://www.w3.org/2000/svg" viewBox="0 0 82 100"><defs><style>.cls-1{fill:#a59d92;}.cls-2,.cls-3{fill:none;stroke:#a59d92;stroke-miterlimit:10;}.cls-3{stroke-linecap:round;}</style></defs><path class="cls-1" d="M10,69.41V53.83h1.72v14h4.85v1.61Z"/><path class="cls-1" d="M27.32,69.7a7.76,7.76,0,0,1-3.95-1.07,8.09,8.09,0,0,1-4.05-7,7.7,7.7,0,0,1,1.11-4,8.09,8.09,0,0,1,7-4,7.89,7.89,0,0,1,4,1.07,8.15,8.15,0,0,1,2.95,2.94,8.13,8.13,0,0,1,0,8.15,8.1,8.1,0,0,1-3,2.92A8,8,0,0,1,27.32,69.7Zm0-1.63a6.38,6.38,0,0,0,6.39-6.45,6.45,6.45,0,0,0-.86-3.28A6.27,6.27,0,0,0,30.56,56a6.32,6.32,0,0,0-6.33,0,6.5,6.5,0,0,0,0,11.21A6.07,6.07,0,0,0,27.34,68.07Z"/><path class="cls-1" d="M39.59,69.41V53h.09L51.56,66.54l-.52.18V53.83h1.72V70.15H52.7L40.81,56.64l.5-.21v13Z"/><path class="cls-1" d="M64.68,69.7a7.49,7.49,0,0,1-4-1.08,7.68,7.68,0,0,1-2.82-2.92,8.18,8.18,0,0,1-1-4.06,8,8,0,0,1,8-8.1,7.76,7.76,0,0,1,2.41.35,7.15,7.15,0,0,1,2.08,1,11.07,11.07,0,0,1,1.88,1.78L70,57.88a7,7,0,0,0-2.28-2,5.84,5.84,0,0,0-2.83-.69,6.11,6.11,0,0,0-3.18.85,6.27,6.27,0,0,0-2.3,2.33,6.39,6.39,0,0,0-.86,3.29,6.58,6.58,0,0,0,.84,3.3,6.32,6.32,0,0,0,2.28,2.31,5.84,5.84,0,0,0,3,.84,5.6,5.6,0,0,0,2.69-.65,5.12,5.12,0,0,0,1.92-1.77,5,5,0,0,0,.8-2.48v0H65.66V61.56H72v.37A8.69,8.69,0,0,1,71.08,66a6.7,6.7,0,0,1-2.57,2.73A7.39,7.39,0,0,1,64.68,69.7Z"/><path class="cls-1" d="M18.27,94.42V80.52H14.5V78.91h9.2v1.61H20v13.9Z"/><path class="cls-1" d="M26.85,94.42V78.91h8.08v1.61H28.55v4.63h6.18v1.6H28.55v6.07h6.38v1.6Z"/><path class="cls-1" d="M39.37,94.42V78.91h2.27a8.75,8.75,0,0,1,3,.47,4.18,4.18,0,0,1,2,1.45,4.12,4.12,0,0,1,.7,2.42,4.36,4.36,0,0,1-.52,2.13,4,4,0,0,1-1.48,1.53,6.67,6.67,0,0,1-2.3.85H41.08v6.66Zm2.51-8.14a5.5,5.5,0,0,0,2-.34,2.63,2.63,0,0,0,1.75-2.65,2.62,2.62,0,0,0-.44-1.54,2.74,2.74,0,0,0-1.29-.93,6,6,0,0,0-2-.3h-.82v5.76Zm4.49,8.14-5.06-7.28L43,86.77l5.52,7.65Z"/><path class="cls-1" d="M59,95,54.29,83.25l-2,11.17H50.51L53.69,78h.05L59,91.09,64.5,78h.06L67.5,94.42H65.75L63.84,83.27,59,95Z"/><rect class="cls-2" x="30.5" y="12" width="21" height="30" rx="3"/><circle class="cls-1" cx="48" cy="45.5" r="1.5"/><circle class="cls-1" cx="34" cy="45.5" r="1.5"/><line class="cls-3" x1="35" y1="17" x2="35" y2="37"/><line class="cls-3" x1="38" y1="17" x2="38" y2="37"/><line class="cls-3" x1="41" y1="17" x2="41" y2="37"/><line class="cls-3" x1="44" y1="17" x2="44" y2="37"/><line class="cls-3" x1="47" y1="17" x2="47" y2="37"/><path class="cls-2" d="M46,10V6a1,1,0,0,0-1-1H37a1,1,0,0,0-1,1v4"/></svg>