<svg id="layer1" xmlns="http://www.w3.org/2000/svg" viewBox="0 0 500 250"><defs><style>.cls-1{fill:#fff;}.cls-2{fill:none;stroke:#fff;stroke-miterlimit:10;stroke-width:2px;}</style></defs><path class="cls-1" d="M191.26,155.63l7.57,7.36a13.78,13.78,0,0,0,3.18,2.48,6.93,6.93,0,0,0,2.64.75v.55h-9.77v-.55a2.14,2.14,0,0,0,1.26-.29.81.81,0,0,0,.39-.64,1.47,1.47,0,0,0-.14-.64,5.94,5.94,0,0,0-.95-1.05l-7.09-6.86v6.47a6.67,6.67,0,0,0,.19,2,1.39,1.39,0,0,0,.64.63,2.79,2.79,0,0,0,1.38.36h.7v.55H182.5v-.55h.73a2.19,2.19,0,0,0,1.84-.73,4.29,4.29,0,0,0,.37-2.28v-13a6.69,6.69,0,0,0-.2-2,1.37,1.37,0,0,0-.62-.62,2.88,2.88,0,0,0-1.39-.36h-.73v-.54h8.76v.54h-.7a3.06,3.06,0,0,0-1.38.34,1.31,1.31,0,0,0-.65.72,6.61,6.61,0,0,0-.18,2v6.15c.2-.19.89-.82,2.07-1.88a44.7,44.7,0,0,0,5.44-5.38,1.87,1.87,0,0,0,.41-1,.76.76,0,0,0-.32-.6,1.73,1.73,0,0,0-1.07-.26h-.47v-.54H202v.54a4.52,4.52,0,0,0-1.21.18,6.36,6.36,0,0,0-1.33.63,12.84,12.84,0,0,0-1.94,1.5q-.33.3-3.08,3Z"/><path class="cls-1" d="M226,146.69h7.16v.54h-.39a3.27,3.27,0,0,0-1.15.34,4.53,4.53,0,0,0-1.38,1,14.2,14.2,0,0,0-1.53,2.08l-5,7.62v5a3.94,3.94,0,0,0,.43,2.31,2.38,2.38,0,0,0,1.82.62h.66v.55H218v-.55h.72a2.11,2.11,0,0,0,1.85-.77,4.42,4.42,0,0,0,.34-2.16v-4.76l-5.64-8.41a17.67,17.67,0,0,0-1.36-1.85,5.3,5.3,0,0,0-1.47-.89,2.08,2.08,0,0,0-.88-.15v-.54h8.79v.54h-.46a2.68,2.68,0,0,0-1.31.33,1.05,1.05,0,0,0-.6,1,4.65,4.65,0,0,0,.93,1.92l4.28,6.47,4-6.19a4.46,4.46,0,0,0,.91-2.07,1.26,1.26,0,0,0-.22-.74,1.35,1.35,0,0,0-.63-.51,3.13,3.13,0,0,0-1.22-.19Z"/><path class="cls-1" d="M251.8,146.23a9.44,9.44,0,0,1,6.94,3,10.14,10.14,0,0,1,2.93,7.41,10.45,10.45,0,0,1-3,7.6,10,10,0,0,1-14.28.07,10.47,10.47,0,0,1-2.88-7.63,10.14,10.14,0,0,1,10.25-10.42Zm-.28,1.08a5.46,5.46,0,0,0-4.43,2c-1.38,1.66-2.07,4.08-2.07,7.28s.71,5.8,2.15,7.57a5.37,5.37,0,0,0,4.36,2,6,6,0,0,0,4.78-2.21q1.89-2.21,1.89-7,0-5.16-2.08-7.69A5.64,5.64,0,0,0,251.52,147.31Z"/><path class="cls-1" d="M288.46,146.69l.23,4.71h-.58a5.6,5.6,0,0,0-.45-1.78,3,3,0,0,0-1.25-1.27,4.47,4.47,0,0,0-2.05-.41h-2.9v15.35a4.07,4.07,0,0,0,.41,2.31,2.34,2.34,0,0,0,1.77.62h.72v.55h-8.72v-.55h.73a2.11,2.11,0,0,0,1.85-.77,4.46,4.46,0,0,0,.33-2.16V147.94h-2.47a6.89,6.89,0,0,0-2,.21,2.79,2.79,0,0,0-1.35,1.08,4.39,4.39,0,0,0-.67,2.17h-.57l.24-4.71Z"/><path class="cls-1" d="M307.64,146.23a9.43,9.43,0,0,1,6.93,3,10.14,10.14,0,0,1,2.93,7.41,10.44,10.44,0,0,1-2.95,7.6,10,10,0,0,1-14.28.07,10.43,10.43,0,0,1-2.89-7.63,10.14,10.14,0,0,1,10.26-10.42Zm-.29,1.08a5.44,5.44,0,0,0-4.42,2c-1.39,1.66-2.08,4.08-2.08,7.28s.72,5.8,2.15,7.57a5.38,5.38,0,0,0,4.36,2,6,6,0,0,0,4.79-2.21q1.88-2.21,1.88-7,0-5.16-2.07-7.69A5.68,5.68,0,0,0,307.35,147.31Z"/><path class="cls-1" d="M30.78,112.38a9.41,9.41,0,0,1-8.15-3.95c-.9-1.3-1.95-4-1.95-9.47V65.58h1.85V99c0,5.46,1.13,7.68,1.61,8.38a7.46,7.46,0,0,0,6.64,3.17,7.52,7.52,0,0,0,6.7-3.2c.48-.66,1.59-2.79,1.59-8.35V65.58h1.85V99c0,5.59-1.06,8.23-1.94,9.45A9.43,9.43,0,0,1,30.78,112.38Z"/><path class="cls-1" d="M30.78,122.58a20.41,20.41,0,0,1-15.26-6.46c-3.66-3.84-5.52-8.81-5.52-14.76V65.58h7.7V99c0,5.06.85,8.83,2.51,11.21a12.34,12.34,0,0,0,10.57,5.2,12.39,12.39,0,0,0,10.6-5.19c1.67-2.31,2.51-6.08,2.51-11.22V65.58H51.6v35.78a20.47,20.47,0,0,1-20.82,21.22Z"/><polygon class="cls-1" points="73.26 122.58 73.26 65.58 113.73 103.6 113.73 65.58 121.44 65.58 121.44 122.58 80.96 84.66 80.96 122.58 73.26 122.58"/><polygon class="cls-1" points="441.82 122.58 441.82 65.58 482.3 103.6 482.3 65.58 490 65.58 490 122.58 449.52 84.66 449.52 122.58 441.82 122.58"/><polygon class="cls-1" points="175.05 122.58 154.15 96.53 151.84 98.87 151.84 122.58 144.14 122.58 144.14 65.58 151.84 65.58 151.84 89.42 174.92 65.58 185.12 65.58 159.64 91.3 185.4 122.58 175.05 122.58"/><path class="cls-1" d="M308.18,112.67a17.23,17.23,0,0,1-12.47-5.28A17.75,17.75,0,0,1,290.3,94a17.71,17.71,0,0,1,5.25-13.09,18.09,18.09,0,0,1,25.67,0,18,18,0,0,1,5.2,13.23,18.07,18.07,0,0,1-5.27,13.23A17.35,17.35,0,0,1,308.18,112.67Zm.22-35.28a15.39,15.39,0,0,0-11.54,4.78A15.93,15.93,0,0,0,292.15,94,15.94,15.94,0,0,0,297,106a16,16,0,0,0,22.83,0,16.26,16.26,0,0,0,4.74-11.91,16.2,16.2,0,0,0-4.68-11.92A15.21,15.21,0,0,0,308.4,77.39Z"/><path class="cls-1" d="M308.07,122.58a28.15,28.15,0,0,1-19-7.38c-6.14-5.41-9.25-12.59-9.25-21.36a27.14,27.14,0,0,1,8.44-19.93,27.79,27.79,0,0,1,20.2-8.33,27.24,27.24,0,0,1,20,8.4,27.73,27.73,0,0,1,8.37,20.19,27.27,27.27,0,0,1-8.4,20.11A28.17,28.17,0,0,1,308.07,122.58Zm.33-50.06a20.25,20.25,0,0,0-15,6.23,20.84,20.84,0,0,0-6.1,15.2,20.85,20.85,0,0,0,6.33,15.6,20.82,20.82,0,0,0,29.59-.12,22.34,22.34,0,0,0,.08-30.68A20.07,20.07,0,0,0,308.4,72.52Z"/><polygon class="cls-1" points="347.82 65.58 356.18 65.58 371.46 102.06 387.32 66.3 402.07 102.07 418.31 65.58 426.66 65.58 401.73 122.53 387.17 87.26 371.53 122.58 347.82 65.58"/><polygon class="cls-1" points="382.35 65.58 371.59 89.34 361.44 65.58 359.42 65.58 371.54 93.94 384.39 65.58 382.35 65.58"/><polygon class="cls-1" points="413 65.58 402.24 89.28 392.26 65.58 390.25 65.58 402.18 93.91 415.04 65.58 413 65.58"/><polygon class="cls-1" points="477.47 65.58 477.47 92.1 449.23 65.58 446.51 65.58 479.32 96.4 479.32 65.58 477.47 65.58"/><polygon class="cls-1" points="252.44 65.58 224.2 92.1 224.2 65.58 222.35 65.58 222.35 96.4 255.16 65.58 252.44 65.58"/><polygon class="cls-1" points="108.91 65.58 108.91 92.1 80.67 65.58 77.95 65.58 110.76 96.4 110.76 65.58 108.91 65.58"/><polygon class="cls-1" points="85.79 122.58 85.79 96.14 114.01 122.58 116.74 122.58 83.93 91.85 83.93 122.58 85.79 122.58"/><polygon class="cls-1" points="191.68 122.58 166.16 91.61 191.94 65.58 189.32 65.58 163.65 91.49 189.27 122.58 191.68 122.58"/><polygon class="cls-1" points="376.81 122.58 387.01 99.55 396.52 122.58 398.53 122.58 387.07 94.83 374.78 122.58 376.81 122.58"/><polygon class="cls-1" points="454.35 122.58 454.35 96.14 482.58 122.58 485.3 122.58 452.5 91.85 452.5 122.58 454.35 122.58"/><polygon class="cls-1" points="168.17 65.58 156.66 77.47 156.66 65.58 154.81 65.58 154.81 82.06 170.76 65.58 168.17 65.58"/><polygon class="cls-1" points="156.66 122.58 156.66 107.4 168.85 122.58 171.23 122.58 154.81 102.12 154.81 122.58 156.66 122.58"/><polygon class="cls-1" points="219.09 122.58 247.32 96.14 247.32 122.58 249.17 122.58 249.17 91.85 216.37 122.58 219.09 122.58"/><polygon class="cls-1" points="213.52 118.29 213.52 65.58 211.67 65.58 211.67 122.58 252.15 84.66 252.15 122.58 254 122.58 254 84.66 254 80.38 250.88 83.3 213.52 118.29"/><polygon class="cls-1" points="219.37 65.58 217.52 65.58 217.52 103.6 217.52 107.9 220.64 104.97 258 69.87 258 122.58 259.85 122.58 259.85 65.58 219.37 103.6 219.37 65.58"/><path class="cls-1" d="M211.19,228.09H186.42l-.34-.64H192L194,216.58H189l-.33-.61h5.37l1.41-8H188l-.33-.64h16.85l1.86-2.13c.14-.17.22-.28.44-.28a.78.78,0,0,1,.5.25l2.27,1.94a.66.66,0,0,1,.25.47.42.42,0,0,1-.47.39h-9.91c.17.05.47.13.47.44s0,.3-.91.75L197.85,216h4.87l1.63-1.66a.71.71,0,0,1,.61-.25,1.1,1.1,0,0,1,.66.3l1.86,1.66a1,1,0,0,1,.33.58c0,.34-.66.94-1.19,1.39l-.66,9.46h.33l2-2.43a.55.55,0,0,1,.47-.28.81.81,0,0,1,.5.28l2.16,2.18a.77.77,0,0,1,.28.5C211.69,228,211.44,228.09,211.19,228.09Zm-13.45-11.51-1.91,10.87h6.39l.78-10.87Z"/><path class="cls-1" d="M227.43,206.67a41.5,41.5,0,0,1-2.08,4.29l.42.22a.36.36,0,0,1,.25.33c0,.33-.55.61-.72.69v16.31c0,.83-1.58,1.13-2,1.13-1,0-1-.36-1-.72V215.58a15.56,15.56,0,0,1-2.74,2.8l-.19-.25a28.88,28.88,0,0,0,4-13.71l4.73,1.28c.17.05.36.11.36.33C228.48,206.42,228.07,206.53,227.43,206.67Zm18,7.94c-1.91.5-1.91,1.72-1.91,2.91,0,.27-.11.41-.36.41a8,8,0,0,1-2.13-.47,11.76,11.76,0,0,1-3.63-2.05,21,21,0,0,1-8,3.05V226c0,.8-1.83,1.11-2.35,1.11-.34,0-.75-.06-.75-.64V209.27l3.46.36c.25,0,.52.08.52.36s-.08.33-.88.72V213a9.49,9.49,0,0,0,2-4.35,27.61,27.61,0,0,0,.64-4.09l4.43.74c.11,0,.41.09.41.36s-.47.53-1,.69c-.44.89-.69,1.33-1,2h5.62l1.38-1.74a.5.5,0,0,1,.44-.25.85.85,0,0,1,.53.25l1.66,1.49a.58.58,0,0,1,.28.47c0,.31-.28.39-.47.39h-1.69a.4.4,0,0,1,0,.25c0,.5-.5.61-.88.69a15.2,15.2,0,0,1-2.13,3.57,15.07,15.07,0,0,0,5.95.89Zm-2.08,13.59c0,.17-.05.31-.22.31s-3.24-1.47-4.79-6.18v6.15c0,.8-1.85,1.05-2.18,1.05s-1,0-1-.61V224.8a17.21,17.21,0,0,1-7.86,3.95l-.08-.3a14.51,14.51,0,0,0,6.45-7.56h-3.77l-.33-.6h5.59v-3.22l3.55.31c.25,0,.49.05.49.36s-.24.41-.83.69v1.86h2.41l1.41-1.58c.2-.22.31-.25.45-.25s.27,0,.52.25l1.58,1.33a.63.63,0,0,1,.28.47c0,.3-.25.38-.47.38h-6c1.61,2.33,4.4,3.63,7.09,4.32v.28C243.93,225.79,243.6,226.82,243.37,228.2Zm-9.74-18.32a17.49,17.49,0,0,1-4.26,4.15v3.82a13.79,13.79,0,0,0,6.36-4.12A12.16,12.16,0,0,1,233.63,209.88Zm.69-1-.14.25a7.62,7.62,0,0,0,2.61,2.88,14.63,14.63,0,0,0,1.1-3.13Z"/><path class="cls-1" d="M279.63,221H269.44c1.44,2,5.34,4.13,10.55,4.74l0,.27c-2.27.83-2.33,1.22-2.41,2.88,0,.14,0,.5-.36.5-1.91,0-6.34-2.8-8.14-7.14V229c0,.47-1.74.8-2.32.8-.28,0-1-.11-1-.52V223.3c-3.52,3.63-8.11,5.79-10.49,6.17l-.09-.27a18.14,18.14,0,0,0,7.25-8.17h-7.66l-.33-.63h11.32v-2.55l3.65.19c-.08-.08-.14-.14-.14-.19v-.91h-3.68v1.16c0,.52-1.52.83-2.08.83-.22,0-1.21,0-1.21-.69v-5.48a61.09,61.09,0,0,1-4.46,5.06c-.14.72-.17,1-.53,1-.08,0-.16,0-.3-.22L254.8,215s7.33-2.82,7.56-2.91v-5.42l2.9,1a20.51,20.51,0,0,0,.56-3.32l4,.58c.14,0,.3.09.3.33,0,.45-.77.59-1.05.64-.39.28-2.13,1.66-2.49,1.94h2.63l1.08-1.16a.63.63,0,0,1,.61-.31,1.27,1.27,0,0,1,.77.25l1.8,1.5a.54.54,0,0,1,.22.41c0,.31-.08.39-1,1.25V212a17,17,0,0,0,3.13-6.25l4,1.94a.44.44,0,0,1,.19.33c0,.47-.36.47-1.19.47-3.35,2.43-3.71,2.71-5.09,3.4,3,.42,6,1.91,6,4.13a2,2,0,0,1-1.88,2c-1.53,0-1.89-1.3-2.11-2.13a5.61,5.61,0,0,0-2.71-3.69l-.28.12v5.28c0,.42-1.27.89-2.16.89a1.89,1.89,0,0,1-.6-.08c0,.44-.17.55-.89,1v1.06h6.56l1.36-1.89a.52.52,0,0,1,.47-.25.71.71,0,0,1,.47.25l1.88,1.64a.77.77,0,0,1,.25.49C280.1,220.92,279.88,221,279.63,221Zm-20.87-8.66c-1.77,0-1.86-1.58-1.88-2.58a5.61,5.61,0,0,0-1.55-3.76l.16-.28c2.3.45,5.26,2.16,5.26,4.6A2,2,0,0,1,258.76,212.37Zm10.57-3.9h-3.68V212h3.68Zm0,4.18h-3.68v3.65h3.68Z"/><path class="cls-1" d="M313,208v20.37c0,.69-1.8,1.1-2.43,1.1s-1-.11-1-.6v-1H293.63v.67c0,.63-1.36,1.05-2.38,1.05-.83,0-1-.25-1-.72V204.56l3.46,1.41h15.72l.89-1.07a.86.86,0,0,1,.72-.36.78.78,0,0,1,.55.19l2.11,1.66a.5.5,0,0,1,.22.36C313.92,207,313.7,207.36,313,208Zm-3.43,4.23H294.4l-.33-.61h6v-1.91h-5.18l-.33-.64h5.51v-2.18l3.6.33a.4.4,0,0,1,.41.39c0,.3-.25.44-.77.66v.8h1.6l1.06-1.24c.13-.17.22-.28.44-.28s.28.11.5.28l1.24,1a.55.55,0,0,1,.28.49c0,.31-.28.39-.47.39h-4.65v1.91h2.57l.92-1.27a.52.52,0,0,1,.44-.25c.11,0,.16,0,.52.22l1.83,1v-4.76H293.63v20.65h15.94Zm-2.38,13.67c-.72,0-.94-.49-1.19-1.19a6.1,6.1,0,0,0-2.68-3.12v4.12c0,1.08-2.25,1.11-2.44,1.11-.53,0-.83-.09-.83-.64v-4.43a24.46,24.46,0,0,1-6.17,3.3l-.14-.25a20.38,20.38,0,0,0,3.1-2.88,14.23,14.23,0,0,0,2.21-3.21,3.54,3.54,0,0,1-2.18.74c-.78,0-.86-.36-.86-.72v-6l3.13,1.33h5l.77-.94a.68.68,0,0,1,.58-.28.84.84,0,0,1,.61.22l1.72,1.33a.52.52,0,0,1,.25.44c0,.33-.42.75-.7,1v2.07c0,.42-.22.78-1.05,1.11l2.05,1.19a.56.56,0,0,1,.31.44c0,.14-.12.39-.59.39a2.65,2.65,0,0,1-.72-.11,6.89,6.89,0,0,1-1.16.47c.78.28,2.8,1,2.8,2.77A1.84,1.84,0,0,1,307.19,225.9Zm-3-11.23h-5.09v2.57h5.09Zm0,3.9v-.69h-.61c.17.05.28.14.28.3s-.14.42-.55.58V221l.47.05a8.76,8.76,0,0,0,1.27-1.82C304.67,219.15,304.2,219,304.2,218.57Z"/><line class="cls-2" x1="340.29" y1="207.91" x2="429.94" y2="207.91"/><line class="cls-2" x1="360.28" y1="217.75" x2="449.94" y2="217.75"/><line class="cls-2" x1="340.29" y1="227.59" x2="429.94" y2="227.59"/><rect class="cls-2" x="449.92" y="215.1" width="5.29" height="5.29" transform="translate(-21.42 383.79) rotate(-45)"/><line class="cls-2" x1="340.29" y1="217.75" x2="342.12" y2="217.75"/><line class="cls-2" x1="345.86" y1="217.75" x2="347.69" y2="217.75"/><line class="cls-2" x1="351.43" y1="217.75" x2="353.26" y2="217.75"/><line class="cls-2" x1="159.71" y1="207.91" x2="70.06" y2="207.91"/><line class="cls-2" x1="139.72" y1="217.75" x2="50.06" y2="217.75"/><line class="cls-2" x1="159.71" y1="227.59" x2="70.06" y2="227.59"/><rect class="cls-2" x="44.79" y="215.1" width="5.29" height="5.29" transform="translate(-73 405.26) rotate(-135)"/><line class="cls-2" x1="159.71" y1="217.75" x2="157.88" y2="217.75"/><line class="cls-2" x1="154.27" y1="217.75" x2="152.43" y2="217.75"/><line class="cls-2" x1="148.57" y1="217.75" x2="146.74" y2="217.75"/><path class="cls-1" d="M159.72,27.31a16.52,16.52,0,0,1,3.9,2l-1.36,2a15.68,15.68,0,0,0-3.8-2.14Zm-.56,11.54a63.29,63.29,0,0,0,3.7-6.34l1.8,1.58c-1,2.08-2.22,4.26-3.18,5.82a.65.65,0,0,1,.12.36.54.54,0,0,1-.12.34Zm4.24-12.94a15.68,15.68,0,0,0-3.74-2.24l1.3-1.78A14.8,14.8,0,0,1,164.8,24ZM173,22.63c-.06.18-.26.26-.56.26-.28.74-.66,1.66-1.08,2.52h5.24V40.53h-2.4v-1H167.7v1.14h-2.3V25.41h3.46a29.22,29.22,0,0,0,1-3.62Zm1.2,5H167.7v3.64h6.48Zm-6.48,9.68h6.48V33.49H167.7Z"/><path class="cls-1" d="M189.76,29.27a26.22,26.22,0,0,0,4.22-.68,9.2,9.2,0,0,1,0,2.46,29,29,0,0,1-4.12.56c0,.9.1,1.82.14,2.68a14.8,14.8,0,0,1,5,2.32,5.1,5.1,0,0,1-1.2,2.62,11.41,11.41,0,0,0-3.7-2.46v.28c0,1.8-1.2,3.2-4.06,3.2s-4.8-1.24-4.8-3.32c0-1.8,1.78-3.12,4.88-3.12q.69,0,1.38.06l-.1-2.12c-1.8.06-3.6,0-5,0a8.09,8.09,0,0,1-.44-2.52,29.57,29.57,0,0,0,3.44.24c.6,0,1.26,0,2,0V27c-1.62,0-3.16,0-4.2-.1a7.88,7.88,0,0,1-.42-2.38,20.41,20.41,0,0,0,3.12.24c.44,0,1,0,1.54,0l0-.52a19.29,19.29,0,0,0,0-2,10.16,10.16,0,0,1,2.64.22c-.06.68-.1,1.44-.14,2.22a21.23,21.23,0,0,0,3.38-.46,7.38,7.38,0,0,1,0,2.3,25.92,25.92,0,0,1-3.44.4c0,.62,0,1.24,0,1.88Zm-2.16,6.78a10.52,10.52,0,0,0-1.78-.16c-1.32,0-2.08.38-2.08,1s.54,1.08,2,1.08c1.18,0,1.9-.46,1.9-1.76Z"/><path class="cls-1" d="M215.16,34.55c0,3-2.44,5.7-6.94,5.7-2.86,0-4.44-1.5-4.44-3.28a2.9,2.9,0,0,1,3.08-2.82,4.09,4.09,0,0,1,4.2,3.1,3,3,0,0,0,1.56-2.72c0-1.76-1.46-2.92-3.86-2.92-3.48,0-5.42,2.46-6.86,4.54a8.07,8.07,0,0,1-1.84-2c1.36-1.52,3.7-3.92,5.06-5.28s2.46-2.42,3.06-3.1c-1.12.16-3,.4-4.86.56a11.57,11.57,0,0,1-.52-2.48,15.06,15.06,0,0,0,1.9,0c1.64-.1,5.72-.44,6.64-.64a6.83,6.83,0,0,1,1.1,1.86c-1.06.88-2.46,2.1-3.6,3.16-.8.76-1.48,1.42-1.88,1.88a5.73,5.73,0,0,1,2.52-.6C212.84,29.51,215.16,31.31,215.16,34.55Zm-6.3,3.38A1.9,1.9,0,0,0,207,36.17a.82.82,0,0,0-.92.74c0,.66.7,1.06,1.84,1.06C208.28,38,208.58,38,208.86,37.93Z"/><path class="cls-1" d="M222.88,40.67a23.63,23.63,0,0,0-4.26-4.36,10.13,10.13,0,0,1,2-1.78,22.83,22.83,0,0,1,4.32,4.36A7.44,7.44,0,0,1,222.88,40.67Z"/><path class="cls-1" d="M247.58,34.45a8.86,8.86,0,0,0,.78-.62l2,1.7a.64.64,0,0,1-.36.1.82.82,0,0,1-.22,0c-.82.54-2.06,1.28-3.2,1.88a17.06,17.06,0,0,0,4.6,1.1,8.9,8.9,0,0,0-1.44,2.1c-4.32-.72-7.24-2.48-9-5.6h-2.12V38c1.32-.08,2.72-.18,4.08-.28v2c-2.84.3-5.82.6-7.74.76a.38.38,0,0,1-.36.32l-.72-2.46,2.36-.16V28.41c-.8.46-1.62.88-2.44,1.26a9.7,9.7,0,0,0-1.38-1.92,20.93,20.93,0,0,0,8.22-6.08l3.18.16a.56.56,0,0,1-.5.36,21,21,0,0,0,8.3,5.28A12.23,12.23,0,0,0,250,29.61a26.07,26.07,0,0,1-2.46-1.26ZM243,27.75h3.54a21.71,21.71,0,0,1-4.74-3.88,21,21,0,0,1-4.6,3.88h3.34V25.69l3,.16c0,.2-.16.32-.54.38Zm-4.48,1.82v1h6.6v-1Zm0,2.64v1.06h6.6V32.21Zm4.56,2.88a8.31,8.31,0,0,0,1.44,1.32c.68-.38,1.42-.84,2.12-1.32Z"/><path class="cls-1" d="M262.38,30.11a1.46,1.46,0,0,0-1.06-.44,1.34,1.34,0,0,0-.9.48A52,52,0,0,1,256,34.89a6.15,6.15,0,0,1-2.26-2,20.34,20.34,0,0,0,2-1.56c1.24-1.12,2.36-2.44,3.42-3.56a2.92,2.92,0,0,1,2.1-1,3.25,3.25,0,0,1,2.3.9c1,.88,2,1.86,3.28,3a58.69,58.69,0,0,0,5.82,4.66,4.68,4.68,0,0,1-1.9,2.34c-1.32-1-3.28-2.74-5.06-4.42Zm7.3-2a4.32,4.32,0,0,1-1.22,1.06,17.55,17.55,0,0,0-2.18-2.22,7.43,7.43,0,0,1,1.16-1A15.35,15.35,0,0,1,269.68,28.07Zm2-1.72a5,5,0,0,1-1.22,1.08,16.1,16.1,0,0,0-2.2-2.16,6.88,6.88,0,0,1,1.18-1A14.85,14.85,0,0,1,271.7,26.35Z"/><path class="cls-1" d="M290.36,34.55c0,3-2.44,5.7-6.94,5.7-2.86,0-4.44-1.5-4.44-3.28a2.9,2.9,0,0,1,3.08-2.82,4.09,4.09,0,0,1,4.2,3.1,3,3,0,0,0,1.56-2.72c0-1.76-1.46-2.92-3.86-2.92-3.48,0-5.42,2.46-6.86,4.54a8.07,8.07,0,0,1-1.84-2c1.36-1.52,3.7-3.92,5.06-5.28s2.46-2.42,3.06-3.1c-1.12.16-3,.4-4.86.56a11.57,11.57,0,0,1-.52-2.48,15.06,15.06,0,0,0,1.9,0c1.64-.1,5.72-.44,6.64-.64a6.83,6.83,0,0,1,1.1,1.86c-1.06.88-2.46,2.1-3.6,3.16-.8.76-1.48,1.42-1.88,1.88a5.73,5.73,0,0,1,2.52-.6C288,29.51,290.36,31.31,290.36,34.55Zm-6.3,3.38a1.9,1.9,0,0,0-1.82-1.76.82.82,0,0,0-.92.74c0,.66.7,1.06,1.84,1.06C283.48,38,283.78,38,284.06,37.93Z"/><path class="cls-1" d="M298.08,40.67a23.63,23.63,0,0,0-4.26-4.36,10.13,10.13,0,0,1,2-1.78,22.83,22.83,0,0,1,4.32,4.36A7.44,7.44,0,0,1,298.08,40.67Z"/><path class="cls-1" d="M325.3,26.41l1.08,0c0,.16,0,.46,0,.7-.14,8.64-.26,11.58-.82,12.42s-1.24,1.06-3.28,1a5.66,5.66,0,0,0-.56-2.08c.62.06,1.14.08,1.46.08a.59.59,0,0,0,.58-.36c.34-.54.48-2.92.6-9.74h-1c0,3.24-.08,8.8-3.12,12.3a8.2,8.2,0,0,0-1.68-1.26v0c-2,.26-3.86.48-5.18.62a.43.43,0,0,1-.34.32l-.74-2.2,3.14-.22v-1.2h-2.62V35.05h2.62v-1H312.8v-6h2.6v-.84h-2.82V25.47h2.82v-.74c-.78.08-1.58.12-2.32.16a6.65,6.65,0,0,0-.42-1.32c-.34,1.06-.72,2.1-1.14,3.14l.68.2a.56.56,0,0,1-.52.34V40.73h-2.14V30.81a17.71,17.71,0,0,1-1.26,1.92,26.23,26.23,0,0,0-.92-2.56,26.38,26.38,0,0,0,3.48-8.28l2.56.82a.5.5,0,0,1-.54.24l-.1.3a48.54,48.54,0,0,0,6.2-.88l1.36,1.72c-.08.06-.1.06-.44.06-.7.14-1.54.26-2.46.38v.94h2.88v.94h1V21.89l2.52.14c0,.18-.16.3-.5.34v4Zm-11,3.12v.9h1.24v-.9Zm0,2.22v.9h1.24v-.9Zm2.86-1.32h1.32v-.9H317.2Zm0,2.22h1.32v-.9H317.2Zm2.94,4.06a21.93,21.93,0,0,0,1.14-7.84v-.4h-1.06V27.25h-2.8v.84h2.7v6H317.4v1h2.74Zm-2.74,1.12,2.34-.2a6,6,0,0,0,.36-.82h-2.7Z"/><path class="cls-1" d="M340.76,24.23c-1.38,1.76-4.16,4.44-5.14,5.42-.56.56-.92.94-.92,1.34,0,.58,1,1.46,2.3,2.66a34.33,34.33,0,0,1,4.54,5,6.92,6.92,0,0,1-2.34,2,28.79,28.79,0,0,0-4.1-5c-2.34-2.3-3.74-3.36-3.74-4.64,0-.68.56-1.36,1.34-2.14a45.47,45.47,0,0,0,6.06-6.76A7.06,7.06,0,0,1,340.76,24.23Z"/></svg>