<svg id="layer1" xmlns="http://www.w3.org/2000/svg" viewBox="0 0 80 80"><defs><style>.cls-1{fill:none;stroke:#000;stroke-miterlimit:10;}</style></defs><title>coworking-wifi</title><circle class="cls-1" cx="40" cy="59.42" r="3.85"/><path class="cls-1" d="M40,42.62a14.57,14.57,0,0,0-10.89,5,.83.83,0,0,0,.05,1.15l3,3a.84.84,0,0,0,1.25,0,8.49,8.49,0,0,1,13.1,0,.84.84,0,0,0,1.25,0l3-3a.83.83,0,0,0,0-1.15A14.57,14.57,0,0,0,40,42.62Z"/><path class="cls-1" d="M40,30a24,24,0,0,0-19.07,9.45.84.84,0,0,0,.09,1.1l3.08,3.08a.84.84,0,0,0,1.29-.12,18,18,0,0,1,29.22,0,.84.84,0,0,0,1.29.12L59,40.58a.84.84,0,0,0,.09-1.1A24,24,0,0,0,40,30Z"/><path class="cls-1" d="M40,16.74A37.7,37.7,0,0,0,11.44,29.89a.87.87,0,0,0,.05,1.17l3,3A.86.86,0,0,0,15.8,34a31.56,31.56,0,0,1,48.4,0,.86.86,0,0,0,1.27.07l3-3a.87.87,0,0,0,0-1.17A37.7,37.7,0,0,0,40,16.74Z"/></svg>