<svg id="layer1" xmlns="http://www.w3.org/2000/svg" viewBox="0 0 80 80"><defs><style>.cls-1,.cls-2{fill:none;stroke:#000;}.cls-1{stroke-linejoin:round;}.cls-2{stroke-miterlimit:10;}</style></defs><title>coworking-printer</title><rect class="cls-1" x="16" y="45.6" width="48" height="22.4"/><circle class="cls-2" cx="14.96" cy="34.03" r="2.34"/><path class="cls-2" d="M19,12h27.6a3,3,0,0,1,3,3V26.4a0,0,0,0,1,0,0H16a0,0,0,0,1,0,0V15A3,3,0,0,1,19,12Z"/><path class="cls-2" d="M64.22,58.4h7a2.43,2.43,0,0,0,2.4-2.46V28.86a2.43,2.43,0,0,0-2.4-2.46H8.8a2.43,2.43,0,0,0-2.4,2.46V55.94A2.43,2.43,0,0,0,8.8,58.4h7"/></svg>