<svg id="layer1" xmlns="http://www.w3.org/2000/svg" viewBox="0 0 100 100"><defs><style>.cls-1{fill:#fff;}.cls-2{fill:#3a372f;}</style></defs><title>food-spiceordie</title><circle class="cls-1" cx="50" cy="50" r="50"/><path class="cls-2" d="M15.88,29.77V70.23H84.12V29.77Zm55.57,5H78.7v1.65H73.43V38.6h4.91v1.65H73.43v2.66h5.46v1.65H71.45Zm-3.21,4.75-.93-1.39h1.46l.73,1.14a.83.83,0,0,1,0,.77l-.77,1.15H67.31l.93-1.39A.39.39,0,0,0,68.24,39.53ZM58.2,36a4.33,4.33,0,0,1,3.32-1.35,4.07,4.07,0,0,1,2.92,1.06,4,4,0,0,1,1,1.8l-2,.47a2.1,2.1,0,0,0-.72-1.2,2.06,2.06,0,0,0-1.34-.44,2.23,2.23,0,0,0-1.77.78A3.83,3.83,0,0,0,59,39.61a4.11,4.11,0,0,0,.66,2.64,2.17,2.17,0,0,0,1.74.79,2,2,0,0,0,1.35-.5A3,3,0,0,0,63.55,41l1.91.61A4.29,4.29,0,0,1,64,44a4.6,4.6,0,0,1-5.8-.55,5.11,5.11,0,0,1-1.26-3.65A5.35,5.35,0,0,1,58.2,36Zm-4.28,3.57L53,38.14h1.45l.73,1.14a.8.8,0,0,1,0,.77l-.77,1.15H53l.92-1.39A.39.39,0,0,0,53.92,39.53ZM49,34.78h2v9.78H49Zm-4.33,3.36h1.46l.72,1.14a.8.8,0,0,1,0,.77l-.77,1.15H44.65l.92-1.39a.34.34,0,0,0,0-.28Zm-9.27-3.36h3.17a11.62,11.62,0,0,1,2.36.14,2.62,2.62,0,0,1,1.4,1,3,3,0,0,1,.57,1.91,3.15,3.15,0,0,1-.33,1.51,2.61,2.61,0,0,1-.83,1,2.76,2.76,0,0,1-1,.47,11.64,11.64,0,0,1-2.05.14H37.36v3.69h-2Zm-3.1,4.75-.92-1.39h1.46l.73,1.14a.81.81,0,0,1,0,.77l-.77,1.15H31.36l.93-1.39A.36.36,0,0,0,32.28,39.53Zm-5,1.6a1.57,1.57,0,0,0-.71-.43c-.23-.08-.76-.22-1.58-.43a5.39,5.39,0,0,1-2.23-1,2.56,2.56,0,0,1-.9-2,2.52,2.52,0,0,1,.42-1.4,2.74,2.74,0,0,1,1.22-1,4.9,4.9,0,0,1,1.93-.34,4.11,4.11,0,0,1,2.77.81,2.82,2.82,0,0,1,1,2.15l-2,.09a1.67,1.67,0,0,0-.54-1.09,2,2,0,0,0-1.25-.33,2.23,2.23,0,0,0-1.35.36.7.7,0,0,0-.31.6.77.77,0,0,0,.29.6,5,5,0,0,0,1.82.65,9.29,9.29,0,0,1,2.13.71,2.72,2.72,0,0,1,1.08,1A3.09,3.09,0,0,1,29,43.29a2.85,2.85,0,0,1-1.32,1.09,5.72,5.72,0,0,1-2.13.35,4.27,4.27,0,0,1-2.85-.85,3.78,3.78,0,0,1-1.19-2.5l1.93-.19a2.33,2.33,0,0,0,.7,1.42,2.13,2.13,0,0,0,1.43.46,2.19,2.19,0,0,0,1.44-.41,1.2,1.2,0,0,0,.48-.94A.86.86,0,0,0,27.33,41.13ZM82.86,69H17.13V49.55H82.86Z"/><path class="cls-2" d="M40,39.05a1.25,1.25,0,0,0,.62-.48,1.29,1.29,0,0,0,.23-.76,1.27,1.27,0,0,0-.32-.88,1.37,1.37,0,0,0-.79-.43,8.74,8.74,0,0,0-1.43-.07h-1v2.78h1.08A4.78,4.78,0,0,0,40,39.05Z"/><path class="cls-2" d="M21.55,59.7A6.19,6.19,0,0,1,22,57.19a4.67,4.67,0,0,1,.91-1.34A3.78,3.78,0,0,1,24.18,55a5.33,5.33,0,0,1,2.11-.39,4.62,4.62,0,0,1,3.46,1.34A5.17,5.17,0,0,1,31,59.65a5.16,5.16,0,0,1-1.28,3.71,4.58,4.58,0,0,1-3.45,1.34,4.6,4.6,0,0,1-3.47-1.33A5.05,5.05,0,0,1,21.55,59.7Zm2-.07a3.67,3.67,0,0,0,.77,2.52,2.64,2.64,0,0,0,3.89,0A3.77,3.77,0,0,0,29,59.61a3.64,3.64,0,0,0-.74-2.51,2.72,2.72,0,0,0-3.92,0A3.68,3.68,0,0,0,23.59,59.63Z"/><path class="cls-2" d="M35.5,64.53V54.75h4.16a7.37,7.37,0,0,1,2.28.26,2.25,2.25,0,0,1,1.13.94,2.77,2.77,0,0,1,.43,1.54,2.63,2.63,0,0,1-.65,1.82,3.08,3.08,0,0,1-1.93.9A4.82,4.82,0,0,1,42,61a11.1,11.1,0,0,1,1.12,1.58l1.2,1.91H41.93L40.5,62.4a12.76,12.76,0,0,0-1-1.44,1.48,1.48,0,0,0-.59-.4,3.08,3.08,0,0,0-1-.11h-.4v4.08Zm2-5.64h1.47a7.57,7.57,0,0,0,1.77-.12,1,1,0,0,0,.55-.42,1.21,1.21,0,0,0,.2-.73,1.15,1.15,0,0,0-.26-.8,1.18,1.18,0,0,0-.74-.38,13,13,0,0,0-1.45,0H37.47Z"/><path class="cls-2" d="M49,54.75h3.61a6.73,6.73,0,0,1,1.86.19,3.11,3.11,0,0,1,1.48.9,4.22,4.22,0,0,1,.93,1.58,7.08,7.08,0,0,1,.32,2.31,6.5,6.5,0,0,1-.3,2.09,4.27,4.27,0,0,1-1,1.72,3.4,3.4,0,0,1-1.39.78,5.92,5.92,0,0,1-1.75.21H49Zm2,1.65v6.48H52.4a5.69,5.69,0,0,0,1.2-.09,1.81,1.81,0,0,0,.79-.41,2,2,0,0,0,.52-.94,6.54,6.54,0,0,0,.2-1.79,5.91,5.91,0,0,0-.2-1.74,2.14,2.14,0,0,0-.56-.95,1.88,1.88,0,0,0-.91-.46,8.2,8.2,0,0,0-1.63-.1Z"/><path class="cls-2" d="M63,64.53V54.75h2v9.78Z"/><path class="cls-2" d="M71.45,64.53V54.75H78.7V56.4H73.43v2.17h4.91v1.65H73.43v2.66h5.46v1.65Z"/><path class="cls-2" d="M33.46,60.23l.92,1.39H32.93l-.73-1.14a.8.8,0,0,1,0-.77L33,58.56h1.41L33.46,60A.34.34,0,0,0,33.46,60.23Z"/><path class="cls-2" d="M46.42,60.23l.93,1.39H45.89l-.73-1.14a.81.81,0,0,1,0-.77l.76-1.15h1.42L46.42,60A.39.39,0,0,0,46.42,60.23Z"/><path class="cls-2" d="M60.15,60.23l.93,1.39H59.62l-.73-1.14a.81.81,0,0,1,0-.77l.77-1.15h1.41L60.15,60A.39.39,0,0,0,60.15,60.23Z"/><path class="cls-2" d="M68.51,60.23l.93,1.39H68l-.73-1.14a.83.83,0,0,1,0-.77L68,58.56h1.42L68.51,60A.39.39,0,0,0,68.51,60.23Z"/></svg>