<svg id="layer1" xmlns="http://www.w3.org/2000/svg" viewBox="0 0 100 100"><defs><style>.cls-1{fill:#fff;}.cls-2{fill:#3a372f;}</style></defs><title>food-unknownshokudo</title><circle class="cls-1" cx="50" cy="50" r="50"/><path class="cls-2" d="M13.85,49.68a5.66,5.66,0,0,0,.89-.87,7.13,7.13,0,0,0,1-1.57c.1-.22.23-.54.39-1H8.56l-.77.15V45.12l.77.15H18.91A8.28,8.28,0,0,1,18,47.79a7.27,7.27,0,0,1-4.24,3.1,6.28,6.28,0,0,1-.33,1.25,4.43,4.43,0,0,1-1.49,1.94,7.85,7.85,0,0,1-2.19,1.14,12.57,12.57,0,0,1-1.36.34l-.3-.8A9.25,9.25,0,0,0,9.45,54a5,5,0,0,0,1.8-2.28,6.51,6.51,0,0,0,.4-2.41v-.91l-.14-.94,2.14.15a.57.57,0,0,1,.41.15.27.27,0,0,1,.06.17.88.88,0,0,1-.26.47v.77C13.86,49.28,13.86,49.46,13.85,49.68Z"/><path class="cls-2" d="M21.07,44.82a8,8,0,0,1,4.8,1.88L24,48.8a13.22,13.22,0,0,0-1.58-1.9,13.48,13.48,0,0,0-1.69-1.34Zm1.51,10.09c-.11.25-.25.37-.43.37s-.3-.12-.41-.37l-.87-2,.68-.08a16.76,16.76,0,0,0,3-.89,12.36,12.36,0,0,0,3.36-2,10.94,10.94,0,0,0,2.51-3.18l.77.32a9.15,9.15,0,0,1-3.73,5.8A13.15,13.15,0,0,1,24,54.49Z"/><path class="cls-2" d="M31.62,55.28l-.32-.9a10,10,0,0,0,2.8-1.64,10.5,10.5,0,0,0,3.13-4.52A22.82,22.82,0,0,0,38,45.6v-.93l2.22.46c.36.07.53.2.53.38s-.12.27-.36.41a16.91,16.91,0,0,1-1.11,3.62,9.29,9.29,0,0,1-2.35,3.28,10.16,10.16,0,0,1-2.73,1.67A15.24,15.24,0,0,1,31.62,55.28Z"/><path class="cls-2" d="M46.54,46.55V45.43l-.15-1.08,2.37.11a.5.5,0,0,1,.36.15.32.32,0,0,1,.08.21.71.71,0,0,1-.31.47v1.26h4.24a16.3,16.3,0,0,1-.57,4.06,9.5,9.5,0,0,1-.45,1.23,4.75,4.75,0,0,1-.56.95,5.83,5.83,0,0,1-2.49,1.85,14.82,14.82,0,0,1-4.26,1l-.24-.91a10.68,10.68,0,0,0,2.63-1,5.79,5.79,0,0,0,2.38-2.18,8.81,8.81,0,0,0,.91-4H45v3.17H42.73v-4.2Z"/><path class="cls-2" d="M55,44.82A7.92,7.92,0,0,1,59.8,46.7l-1.88,2.1a13.22,13.22,0,0,0-1.58-1.9,12.63,12.63,0,0,0-1.68-1.34Zm1.51,10.09c-.11.25-.26.37-.44.37s-.3-.12-.41-.37l-.86-2,.68-.08a16.42,16.42,0,0,0,3-.89,12.42,12.42,0,0,0,3.37-2,11.11,11.11,0,0,0,2.51-3.18l.76.32a9.18,9.18,0,0,1-3.72,5.8,13.23,13.23,0,0,1-3.49,1.66Z"/><path class="cls-2" d="M73.55,54.25a25.37,25.37,0,0,1-5.3,1.39c-.13.2-.25.29-.37.29a.32.32,0,0,1-.14,0,1.21,1.21,0,0,1-.2-.41L67,53.82l1.62-.07V48.28c-.42.17-.92.36-1.52.57l-.35-.73a15.89,15.89,0,0,0,1.63-1.06,17.29,17.29,0,0,0,2.18-2,8.55,8.55,0,0,0,.75-1l2.23.19c.17,0,.26.08.26.19s-.11.21-.33.3l0,0,0,0a8.34,8.34,0,0,0,2.18,1.06,19.74,19.74,0,0,0,3,.77c-.27.48-.43.79-.5,1s-.23.52-.44,1.06c-.41-.14-.75-.27-1-.39v3.25l1.13.69a1.81,1.81,0,0,1,.28.21.06.06,0,0,1,0,.06.26.26,0,0,1-.09.18.59.59,0,0,1-.36.08h-.06a14.93,14.93,0,0,1-1.48.67l-.42.15a22.2,22.2,0,0,0,2.94.37l-.45,1c-.06.14-.16.44-.32.89A7.66,7.66,0,0,1,73.55,54.25Zm-.67-8.84a10.55,10.55,0,0,1-3,2.25h1.86V46.54h1.79c.19,0,.28.06.28.17a.41.41,0,0,1-.15.24v.71H75.5l-.69-.44A8.53,8.53,0,0,1,72.88,45.41Zm-2.38,4h4.24V48.5H70.5Zm0,.84v1h4.24v-1Zm2.4,3.27a5.83,5.83,0,0,1-.73-1.39l0,0H70.5v1.57l.75,0Zm2.73-1.42H73.07a3.31,3.31,0,0,0,1.14.94l.37.17A11.87,11.87,0,0,0,75.63,52.08Z"/><path class="cls-2" d="M83,46a10.14,10.14,0,0,0-.6-1.55l.66-.32a4.12,4.12,0,0,1,.67.24,2.1,2.1,0,0,1,.52.34,4.51,4.51,0,0,1,.64.66L83.35,46h2V44.07h1.92c.19,0,.28.06.28.19a.24.24,0,0,1,0,.14l-.16.15V46h.79v0a15.5,15.5,0,0,0,.47-1.81l2,.44c.17,0,.25.11.25.21s-.14.26-.42.35a3.88,3.88,0,0,1-.9.84h2.75c-.09.28-.16.48-.22.63a3,3,0,0,1-.23.43,6.19,6.19,0,0,1-1.35,1.42L90,48.29v2.54H82.51V47.69H89.8c0-.2.1-.48.16-.85h-7.5a4.69,4.69,0,0,1-.12,1.1,2.35,2.35,0,0,1-.38.8l-.34.38-1.28-1.51a4.84,4.84,0,0,0,.74-1,4.21,4.21,0,0,0,.36-1h.94c0,.2,0,.34,0,.43Zm2.26,8.74V53.34h-3l-.57.11V52.39l.57.11h3V51.16H87.1c.18,0,.27.07.27.2s-.07.17-.21.28v.86h3.28l.57-.11v1.06l-.57-.11H87.16v1.39h4.32l.57-.11v1.07l-.57-.11H81.07l-.57.11V54.62l.57.11ZM84.38,50h3.78V48.53H84.38Z"/></svg>