<svg id="layer1" xmlns="http://www.w3.org/2000/svg" viewBox="0 0 100 100"><defs><style>.cls-1{fill:#fff;}.cls-2{fill:#3a372f;}</style></defs><title>food-sin</title><circle class="cls-1" cx="50" cy="50" r="50"/><path class="cls-2" d="M25.26,63.65c0,1.74-1,2.73-2.91,2.73-.43,0-.81,0-1.13,0a.15.15,0,0,1-.14-.15V61.28a.15.15,0,0,1,.14-.15c.42,0,.9-.06,1.38-.06a2.36,2.36,0,0,1,2.66,2.58m-3.35,2a3.86,3.86,0,0,0,.5,0c1.3,0,2-.64,2-2,0-1.18-.58-1.91-1.74-1.91-.3,0-.54,0-.72,0Z"/><path class="cls-2" d="M28.82,61.38a.48.48,0,0,1-.49.47.47.47,0,0,1-.47-.47.47.47,0,0,1,.47-.49.48.48,0,0,1,.49.49m-.21,1.18a.12.12,0,0,1,.14.13v3.52a.14.14,0,0,1-.14.14h-.55a.14.14,0,0,1-.14-.14V62.72a.16.16,0,0,1,.14-.15Z"/><path class="cls-2" d="M34.88,66.21a.14.14,0,0,1-.14.14h-.56a.13.13,0,0,1-.13-.14V64.14c0-.56-.16-1-.69-1a1.12,1.12,0,0,0-.94.59v2.45a.14.14,0,0,1-.14.14h-.55a.14.14,0,0,1-.14-.14V63.66c0-.35,0-.65,0-.94a.14.14,0,0,1,.14-.15h.45a.14.14,0,0,1,.15.13l.06.41a1.61,1.61,0,0,1,1.24-.61c.74,0,1.27.49,1.27,1.57Z"/><path class="cls-2" d="M38.59,61.38a.48.48,0,0,1-.49.47.47.47,0,0,1-.47-.47.47.47,0,0,1,.47-.49.48.48,0,0,1,.49.49m-.21,1.18a.12.12,0,0,1,.14.13v3.52a.13.13,0,0,1-.14.14h-.55a.14.14,0,0,1-.14-.14V62.72a.16.16,0,0,1,.14-.15Z"/><path class="cls-2" d="M44.65,66.21a.14.14,0,0,1-.14.14H44a.13.13,0,0,1-.13-.14V64.14c0-.56-.16-1-.69-1a1.14,1.14,0,0,0-.94.59v2.45a.14.14,0,0,1-.14.14H41.5a.14.14,0,0,1-.14-.14V63.66c0-.35,0-.65,0-.94a.15.15,0,0,1,.14-.15h.45a.14.14,0,0,1,.15.13l.06.41a1.61,1.61,0,0,1,1.24-.61c.74,0,1.27.49,1.27,1.57Z"/><path class="cls-2" d="M47.85,67.93a.2.2,0,0,1-.12-.19l0-.36a.11.11,0,0,1,.15-.09,2.87,2.87,0,0,0,1,.17c.63,0,1.1-.31,1.1-1.24v-.38a1.34,1.34,0,0,1-1.12.58c-.93,0-1.55-.79-1.55-1.9,0-1.35.78-2,1.63-2A1.37,1.37,0,0,1,50,63l0-.32a.16.16,0,0,1,.17-.14h.41a.14.14,0,0,1,.15.14c0,.32,0,.7,0,1.06v2.4c0,1.33-.69,1.94-1.81,1.94a3,3,0,0,1-1.11-.19m2.09-4.24a.93.93,0,0,0-.84-.54c-.53,0-1,.42-1,1.34s.39,1.28.94,1.28a.84.84,0,0,0,.87-.74Z"/><path class="cls-2" d="M57.63,66.37a2,2,0,0,1-.7-.08,1.15,1.15,0,0,1-.55-.33,1.37,1.37,0,0,1-.28-.49,1.87,1.87,0,0,1,0-.53,1.67,1.67,0,0,1,.15-.54,1.5,1.5,0,0,1,.25-.42,1.83,1.83,0,0,1,.32-.3l.31-.2a2.64,2.64,0,0,1-.32-.71,1.7,1.7,0,0,1-.07-.65,3.13,3.13,0,0,1,.1-.47A1,1,0,0,1,57,61.3a1.12,1.12,0,0,1,.38-.24,1.15,1.15,0,0,1,.48-.07,1.69,1.69,0,0,1,.49.13,1.15,1.15,0,0,1,.41.33,1.63,1.63,0,0,1,.28.44.93.93,0,0,1,.07.46.75.75,0,0,1-.09.37,1.44,1.44,0,0,1-.28.34,1.94,1.94,0,0,1-.45.35,3.28,3.28,0,0,1-.59.24l.38.56.37.5a2.69,2.69,0,0,1,.32.27,3.76,3.76,0,0,0,.36.28,1.34,1.34,0,0,0,.38-.47c0-.13.08-.21.12-.23a.16.16,0,0,1,.12,0,.3.3,0,0,1,.14,0,.35.35,0,0,1,.11.09.2.2,0,0,1,0,.13A.6.6,0,0,1,60,65a2.62,2.62,0,0,1-.43.57l.27.17a.82.82,0,0,1,.26.2l0,.17-.06.13a.25.25,0,0,1-.22.09,2.75,2.75,0,0,1-.38-.2l-.37-.24a2.17,2.17,0,0,1-.68.34,2.23,2.23,0,0,1-.78.1m.86-.71.16-.11a4.2,4.2,0,0,1-.74-.72,6.2,6.2,0,0,1-.59-.91,2,2,0,0,0-.36.29,1.14,1.14,0,0,0-.27.36,1.18,1.18,0,0,0-.11.37,1.56,1.56,0,0,0,0,.37.61.61,0,0,0,.23.34.8.8,0,0,0,.42.18,1.85,1.85,0,0,0,.47,0,1.68,1.68,0,0,0,.41-.06,1.55,1.55,0,0,0,.36-.13m-.36-2.74a1.45,1.45,0,0,0,.35-.32.55.55,0,0,0,.13-.45.62.62,0,0,0-.2-.38.88.88,0,0,0-.31-.2,1.24,1.24,0,0,0-.35,0,.44.44,0,0,0-.34.16.77.77,0,0,0-.18.33,1.21,1.21,0,0,0,0,.43,1.53,1.53,0,0,0,.11.39l.16.36Z"/><path class="cls-2" d="M68.34,62.39a1.27,1.27,0,0,1-.85,1.18,1.35,1.35,0,0,1,1,1.3c0,1.16-.89,1.51-2.4,1.51-.38,0-.7,0-1,0A.15.15,0,0,1,65,66.2V61.28a.15.15,0,0,1,.14-.15c.37,0,.82-.06,1.28-.06,1.15,0,1.89.37,1.89,1.32m-2.48.9h.63c.64,0,1-.29,1-.8s-.37-.76-.95-.76a6,6,0,0,0-.68,0Zm0,2.41a3.79,3.79,0,0,0,.51,0c.72,0,1.26-.19,1.26-.9s-.45-.88-1.08-.88h-.69Z"/><path class="cls-2" d="M73.9,66.35h-.34a.24.24,0,0,1-.2-.13l-.14-.34a1.49,1.49,0,0,1-1.19.54,1,1,0,0,1-1.08-1c0-.76.64-1.26,2.22-.83v-.65c0-.43-.07-.71-.75-.71a2.65,2.65,0,0,0-1,.18.1.1,0,0,1-.15-.08l-.09-.38a.17.17,0,0,1,.09-.19,3.2,3.2,0,0,1,1.21-.2c.91,0,1.48.37,1.48,1.21v1.71a6.52,6.52,0,0,0,0,.78.13.13,0,0,1-.13.14m-.72-1.3c-1-.33-1.4-.09-1.4.29a.5.5,0,0,0,.54.49.88.88,0,0,0,.86-.6Z"/><path class="cls-2" d="M77.66,66.21a.14.14,0,0,1-.14.14H77a.14.14,0,0,1-.14-.14V63.78c0-.4,0-.74,0-1.06a.15.15,0,0,1,.14-.15h.45a.14.14,0,0,1,.15.13l0,.52a1.29,1.29,0,0,1,1.11-.7.14.14,0,0,1,.14.13v.49a.12.12,0,0,1-.14.12,1,1,0,0,0-1,.57Z"/><rect class="cls-2" x="14.5" y="70.57" width="71" height="0.48"/><rect class="cls-2" x="14.5" y="56.72" width="71" height="0.48"/><path class="cls-2" d="M32.92,50.72c-3.81-.12-7.17-1.95-7-5.44a5.07,5.07,0,0,1,5.41-5.16c1.63.05,2.42.78,2.4,1.62a2.3,2.3,0,0,1-1.52,1.79,2.62,2.62,0,0,0-2.11-1.34c-1.77,0-2.84,1.47-2.89,3.19-.07,2.14,1.44,4.58,5.13,4.7,3.35.11,7.05-1.75,7.18-5.81S27.63,37.41,27.81,31.88C28,27.4,33.62,24.82,38.27,25a8.51,8.51,0,0,1,3.69.88,3.37,3.37,0,0,1,1.71-.46c1.3,0,2.21.61,2.2,1,0,.26-.3.45-1,.48a1.38,1.38,0,0,0-1.52-1,2.08,2.08,0,0,0-.91.23,4.24,4.24,0,0,1,1.94,3.81c-.08,2.37-1.82,3.81-3.25,3.76-1.05,0-1.92-.88-1.87-2.73A7.21,7.21,0,0,1,40.69,27a5.67,5.67,0,0,0-3.3-1c-3-.1-6.2,1.44-6.26,3.49-.15,4.68,12.7,7.09,12.51,13.15-.18,5.58-5.85,8.22-10.72,8.07m8.15-23.3a7.41,7.41,0,0,0-1.27,3.71c0,1.13.5,1.82,1.09,1.84s1.27-.69,1.32-2.36a4.14,4.14,0,0,0-1.14-3.19"/><path class="cls-2" d="M56.64,44.44c-1.75,2.91-4.23,4.55-6.24,4.49S46.82,46.55,47,42.49c0-1.33,1.6-2,2.75-2a1.63,1.63,0,0,1,1,.3c-.11.7-.25,1.9-.27,2.52-.07,2.34.55,4,1.8,4,.94,0,2.22-.85,3.82-3a15.44,15.44,0,0,0,1.07-1.84l.56.17c-.29.58-.66,1.16-1,1.77"/><path class="cls-2" d="M65.34,41a3.6,3.6,0,0,1,1.35.31c0,.33,0,.62,0,.92-.12,3.61.82,5.74,2.24,5.78,1.1,0,2.43-.93,3.82-2.84a16.15,16.15,0,0,0,1.07-1.83l.55.16a12,12,0,0,1-1,1.78C71.46,47.93,69,49.6,67,49.53s-3.69-2.27-3.88-6.78c-1.43,1.23-2.61,5.76-3.34,6.65a2.48,2.48,0,0,1-.9.15c-1.89-.06-3.08-4.75-3-6.29A3,3,0,0,1,59,40.13a4.61,4.61,0,0,1,1.33.25,26.19,26.19,0,0,0-.94,6.07c0,1.16,0,1.58.16,1.58s.48-.93.67-1.4c1.13-3,2.1-5.68,5.15-5.59"/><path class="cls-2" d="M51.31,36.6a1.88,1.88,0,1,1-1.89-1.86,1.87,1.87,0,0,1,1.89,1.86"/></svg>