<svg xmlns="http://www.w3.org/2000/svg" viewBox="0 0 440 260"><defs><style>.cls-1{fill:#fff;}</style></defs><g id="レイヤー_1" data-name="レイヤー 1"><path class="cls-1" d="M167.58,158.13l6.76,6.72a12.42,12.42,0,0,0,2.84,2.26,6,6,0,0,0,2.35.68v.5h-8.72v-.5a1.87,1.87,0,0,0,1.13-.26.74.74,0,0,0,.34-.59,1.34,1.34,0,0,0-.12-.58,5.44,5.44,0,0,0-.85-1L165,159.14v5.91a6,6,0,0,0,.18,1.84,1.22,1.22,0,0,0,.57.58,2.51,2.51,0,0,0,1.23.32h.62v.5h-7.82v-.5h.65a2,2,0,0,0,1.65-.66,4.05,4.05,0,0,0,.33-2.08V153.2a6.12,6.12,0,0,0-.18-1.85,1.29,1.29,0,0,0-.55-.57,2.64,2.64,0,0,0-1.25-.32h-.65V150h7.82v.5H167a2.55,2.55,0,0,0-1.23.31,1.12,1.12,0,0,0-.58.65,6,6,0,0,0-.17,1.78v5.62c.18-.18.8-.75,1.86-1.72a41,41,0,0,0,4.85-4.91,1.8,1.8,0,0,0,.36-.95.68.68,0,0,0-.28-.54,1.5,1.5,0,0,0-1-.24h-.42V150h6.74v.5a4.09,4.09,0,0,0-1.09.16,5.49,5.49,0,0,0-1.19.58,11.6,11.6,0,0,0-1.73,1.37c-.2.18-1.11,1.1-2.74,2.77Z"/><path class="cls-1" d="M198.59,150H205v.5h-.36a2.69,2.69,0,0,0-1,.31,4.07,4.07,0,0,0-1.23.89,12,12,0,0,0-1.37,1.9l-4.42,7v4.6a3.59,3.59,0,0,0,.38,2.11,2.11,2.11,0,0,0,1.62.56h.59v.5H191.4v-.5h.65a1.87,1.87,0,0,0,1.65-.7,4.25,4.25,0,0,0,.29-2v-4.34l-5-7.68a14.32,14.32,0,0,0-1.21-1.69,4.66,4.66,0,0,0-1.32-.82,1.8,1.8,0,0,0-.78-.13V150h7.84v.5h-.4a2.32,2.32,0,0,0-1.17.3,1,1,0,0,0-.54.89,4.36,4.36,0,0,0,.83,1.76l3.82,5.91,3.6-5.66a4.12,4.12,0,0,0,.81-1.89,1.22,1.22,0,0,0-.19-.68,1.32,1.32,0,0,0-.57-.46,2.72,2.72,0,0,0-1.09-.17Z"/><path class="cls-1" d="M221.61,149.54a8.32,8.32,0,0,1,6.19,2.71,9.37,9.37,0,0,1,2.61,6.77,9.64,9.64,0,0,1-2.63,6.93A8.82,8.82,0,0,1,215,166a9.62,9.62,0,0,1-2.57-7,9.3,9.3,0,0,1,3-7.13A8.79,8.79,0,0,1,221.61,149.54Zm-.26,1a4.87,4.87,0,0,0-3.95,1.82c-1.23,1.52-1.85,3.73-1.85,6.65s.64,5.3,1.92,6.91a4.73,4.73,0,0,0,3.9,1.84,5.31,5.31,0,0,0,4.26-2c1.12-1.34,1.69-3.46,1.69-6.36q0-4.69-1.86-7A5,5,0,0,0,221.35,150.53Z"/><path class="cls-1" d="M254.32,150l.21,4.3H254a5.2,5.2,0,0,0-.4-1.62,2.73,2.73,0,0,0-1.12-1.16,3.84,3.84,0,0,0-1.83-.37h-2.58v14a3.82,3.82,0,0,0,.36,2.11,2.05,2.05,0,0,0,1.58.56h.64v.5h-7.78v-.5h.65a1.85,1.85,0,0,0,1.65-.7,4.08,4.08,0,0,0,.3-2v-14h-2.2a6,6,0,0,0-1.83.19,2.49,2.49,0,0,0-1.2,1,4,4,0,0,0-.6,2h-.51l.22-4.3Z"/><path class="cls-1" d="M271.43,149.54a8.31,8.31,0,0,1,6.19,2.71,9.38,9.38,0,0,1,2.62,6.77A9.61,9.61,0,0,1,277.6,166a8.51,8.51,0,0,1-6.38,2.76,8.41,8.41,0,0,1-6.36-2.69,9.63,9.63,0,0,1-2.58-7,9.3,9.3,0,0,1,3-7.13A8.83,8.83,0,0,1,271.43,149.54Zm-.25,1a4.86,4.86,0,0,0-3.95,1.82c-1.24,1.52-1.85,3.73-1.85,6.65s.64,5.3,1.92,6.91a4.73,4.73,0,0,0,3.89,1.84,5.35,5.35,0,0,0,4.27-2q1.68-2,1.68-6.36,0-4.69-1.85-7A5,5,0,0,0,271.18,150.53Z"/><path class="cls-1" d="M24.38,119a8.4,8.4,0,0,1-7.27-3.49c-.81-1.15-1.75-3.53-1.75-8.39V77.57H17v29.54c0,4.84,1,6.8,1.44,7.43a6.69,6.69,0,0,0,5.93,2.79,6.7,6.7,0,0,0,6-2.83c.43-.58,1.42-2.47,1.42-7.39V77.57h1.65v29.54c0,5-.94,7.29-1.73,8.37A8.43,8.43,0,0,1,24.38,119Z"/><path class="cls-1" d="M24.38,128A18.18,18.18,0,0,1,5.83,109.24V77.57h6.88v29.54c0,4.48.75,7.82,2.24,9.93a11.05,11.05,0,0,0,9.43,4.6,11.06,11.06,0,0,0,9.45-4.6c1.49-2,2.25-5.38,2.25-9.93V77.57H43v31.67A18.14,18.14,0,0,1,38,122.3,18.37,18.37,0,0,1,24.38,128Z"/><polygon class="cls-1" points="62.28 128.02 62.28 77.57 98.4 111.22 98.4 77.57 105.27 77.57 105.27 128.02 69.16 94.46 69.16 128.02 62.28 128.02"/><polygon class="cls-1" points="391.18 128.02 391.18 77.57 427.29 111.22 427.29 77.57 434.17 77.57 434.17 128.02 398.05 94.46 398.05 128.02 391.18 128.02"/><polygon class="cls-1" points="153.12 128.02 134.47 104.97 132.41 107.03 132.41 128.02 125.53 128.02 125.53 77.57 132.41 77.57 132.41 98.68 153 77.57 162.1 77.57 139.36 100.34 162.36 128.02 153.12 128.02"/><path class="cls-1" d="M271.92,119.25a15.43,15.43,0,0,1-11.13-4.68,16.86,16.86,0,0,1-.14-23.48,16.24,16.24,0,0,1,22.9,0,17,17,0,0,1-.06,23.41A15.54,15.54,0,0,1,271.92,119.25ZM272.11,88a13.78,13.78,0,0,0-10.29,4.23,15.22,15.22,0,0,0,.12,21.12,14.39,14.39,0,0,0,20.37,0,15.34,15.34,0,0,0,.06-21.09A13.64,13.64,0,0,0,272.11,88Z"/><path class="cls-1" d="M271.82,128a25.22,25.22,0,0,1-16.92-6.53c-5.48-4.79-8.25-11.15-8.25-18.91A23.89,23.89,0,0,1,254.18,85a24.88,24.88,0,0,1,18-7.38,25.45,25.45,0,0,1,25.3,25.3,24,24,0,0,1-7.5,17.8A25.24,25.24,0,0,1,271.82,128Zm.29-44.3a18.13,18.13,0,0,0-13.35,5.51,19.51,19.51,0,0,0,.2,27.26,18.68,18.68,0,0,0,26.41-.11,19.63,19.63,0,0,0,.06-27.15A18,18,0,0,0,272.11,83.72Z"/><polygon class="cls-1" points="307.29 77.57 314.75 77.57 328.39 109.86 342.54 78.21 355.7 109.87 370.19 77.57 377.65 77.57 355.4 127.97 342.41 96.76 328.45 128.02 307.29 77.57"/><polygon class="cls-1" points="338.1 77.57 328.5 98.6 319.44 77.57 317.64 77.57 328.46 102.68 339.92 77.57 338.1 77.57"/><polygon class="cls-1" points="365.45 77.57 355.85 98.55 346.95 77.57 345.15 77.57 355.8 102.65 367.27 77.57 365.45 77.57"/><polygon class="cls-1" points="422.99 77.57 422.99 101.05 397.79 77.57 395.36 77.57 424.64 104.85 424.64 77.57 422.99 77.57"/><polygon class="cls-1" points="222.18 77.57 196.98 101.05 196.98 77.57 195.32 77.57 195.32 104.85 224.6 77.57 222.18 77.57"/><polygon class="cls-1" points="94.09 77.57 94.09 101.05 68.89 77.57 66.47 77.57 95.75 104.85 95.75 77.57 94.09 77.57"/><polygon class="cls-1" points="73.46 128.02 73.46 104.62 98.65 128.02 101.08 128.02 71.81 100.82 71.81 128.02 73.46 128.02"/><polygon class="cls-1" points="167.95 128.02 145.18 100.61 168.19 77.57 165.85 77.57 142.95 100.5 165.8 128.02 167.95 128.02"/><polygon class="cls-1" points="333.16 128.02 342.27 107.63 350.75 128.02 352.54 128.02 342.32 103.46 331.35 128.02 333.16 128.02"/><polygon class="cls-1" points="402.36 128.02 402.36 104.62 427.54 128.02 429.97 128.02 400.7 100.82 400.7 128.02 402.36 128.02"/><polygon class="cls-1" points="146.98 77.57 136.71 88.1 136.71 77.57 135.06 77.57 135.06 92.16 149.29 77.57 146.98 77.57"/><polygon class="cls-1" points="136.71 128.02 136.71 114.58 147.58 128.02 149.71 128.02 135.06 109.91 135.06 128.02 136.71 128.02"/><polygon class="cls-1" points="192.42 128.02 217.61 104.62 217.61 128.02 219.26 128.02 219.26 100.82 189.99 128.02 192.42 128.02"/><polygon class="cls-1" points="187.45 124.22 187.45 77.57 185.8 77.57 185.8 128.02 221.91 94.46 221.91 128.02 223.57 128.02 223.57 94.46 223.57 90.67 220.79 93.25 187.45 124.22"/><polygon class="cls-1" points="192.67 77.57 191.02 77.57 191.02 111.22 191.02 115.02 193.8 112.43 227.13 81.37 227.13 128.02 228.79 128.02 228.79 77.57 192.67 111.22 192.67 77.57"/><path class="cls-1" d="M188.14,231.78c-.1.55-.2,1-.44,1-1.57,0-9.35-6.46-10.95-15.2v11.63h.65l1.36-2a.62.62,0,0,1,.54-.34.83.83,0,0,1,.61.31l2,1.73a.74.74,0,0,1,.35.58c0,.38-.35.48-.58.48h-4.9v6.32c0,1.53-2.07,1.9-3.47,1.9-1.05,0-1.05-.47-1.05-1V230h-5.44l-.41-.78h5.85v-6.29c-2.58,3.67-8.29,8.7-13.7,10.43l-.2-.27c6-5.2,8.94-9.55,11.18-17.2H159l-.41-.75h13.67V207l5.07.41c.57,0,.64.24.64.44,0,.41-.1.48-1.19,1.05v6.19h7.41l2.08-2.45a.7.7,0,0,1,.54-.3.88.88,0,0,1,.61.3l2.52,2.11a.93.93,0,0,1,.34.65c0,.34-.31.44-.58.44h-11.8c.89,3.7,4.39,8.57,12.89,12.44v.34A3.72,3.72,0,0,0,188.14,231.78Z"/><path class="cls-1" d="M233.36,237H220.75c-3.47,0-4.79-1.77-4.79-4.38V221l-3.37,1.15-2,6.46a2.2,2.2,0,0,0-.1.61,3.54,3.54,0,0,0,.58,1.84c1,1.77,1.35,2.38,1.35,3.74,0,2.14-1.12,3.36-2.95,3.36a2.32,2.32,0,0,1-2.28-2.31,3.15,3.15,0,0,1,.14-.85,6.26,6.26,0,0,0,.54-2.44c0-2.76-1.33-3.06-3.57-3.57l0-.34c2,0,2.79-.14,3.44-.89s3.64-5.81,7.75-16.11l.34.17-3,9.41,3.1-1.05v-10l4.55.4c.58.07.71.17.71.45,0,.47-.2.57-1,1v6.62l2.68-.91V207.07l4.49.58c.51.06.58.34.58.4,0,.51-.71.75-1.05.85v7.52l2.14-.75,1-1.6a1,1,0,0,1,.92-.58,1.65,1.65,0,0,1,.89.31l2.17,1.46a1,1,0,0,1,.48.78c0,.65-.68,1.19-1,1.43,0,3.37.14,7.92-.61,10.44a3.68,3.68,0,0,1-3.6,2.65c-.27,0-.65,0-.65-.37,0-.07.07-.62.07-.75a2.35,2.35,0,0,0-1.83-2.21v1.53a.88.88,0,0,1-.55,1,5.61,5.61,0,0,1-2.34.65c-1.06,0-1.13-.44-1.13-.92V218.59l-2.68.92v12.21a1.41,1.41,0,0,0,1.39,1.46h9.9a1.7,1.7,0,0,0,1.25-.89,22.39,22.39,0,0,0,1.57-5.3l.34,0-.34,5.1a1.58,1.58,0,0,0,.27,1c.78,1.06.92,1.26.92,1.74A2,2,0,0,1,233.36,237ZM209,221.35c-1.53,0-1.63-.65-2.14-3.34a4.18,4.18,0,0,0-2.45-3.12l.1-.34c3.67.27,6.7,1.77,6.7,4.42A2.23,2.23,0,0,1,209,221.35Zm2.38-7.07c-1.56,0-1.8-1.16-2.07-2.49a6.16,6.16,0,0,0-3.33-4.25l.06-.34c3.1,0,7.82,1.19,7.82,4.53A2.48,2.48,0,0,1,211.33,214.28Zm18,2.1-2.41.82v9.35a6.2,6.2,0,0,0,.78,0c.44,0,1-.07,1.32-1.19a29.82,29.82,0,0,0,.48-5.64A25.35,25.35,0,0,0,229.35,216.38Z"/><path class="cls-1" d="M280.35,216.76v8.94c0,1.29-2.52,2-3.37,2a1,1,0,0,1-1.12-1v-1.6H268v11.19c0,.71-1.43,1.76-3,1.76-.82,0-1.43-.17-1.43-1.15v-11.8h-7.68v1.67c0,1.32-2.18,1.83-3.1,1.83-1.12,0-1.12-.47-1.12-1V212.37l4.42,2h7.48V206.9l4.8.41c.4,0,.68.23.68.61s-.21.51-1.09.85v5.64h7.48l1.36-1.5a1.55,1.55,0,0,1,1.22-.67,1.9,1.9,0,0,1,1,.37l2.21,1.77a.82.82,0,0,1,.37.71C281.67,215.46,281.54,215.6,280.35,216.76Zm-16.73-1.57h-7.68v9.15h7.68Zm12.24,0H268v9.15h7.85Z"/><path class="cls-1" d="M149.8,40.86a9.88,9.88,0,0,1-1.24,2.26,43.88,43.88,0,0,0-4.64-2.38,16.43,16.43,0,0,1,1.18-2.3A34.7,34.7,0,0,1,149.8,40.86Zm1.7,4.7a18.31,18.31,0,0,0,7.26-7.84,7.41,7.41,0,0,1,2,2.24,22.33,22.33,0,0,1-7.86,7.84A24.38,24.38,0,0,1,147,50.3a8.11,8.11,0,0,1-1.84-2.6A18.52,18.52,0,0,0,151.5,45.56Zm1.1-9.39a9.79,9.79,0,0,1-1.34,2.23,38.79,38.79,0,0,0-4.56-2.56A20,20,0,0,1,148,33.57,37.21,37.21,0,0,1,152.6,36.17Z"/><path class="cls-1" d="M176.06,47l4.14,0c.36,0,.88,0,1.28,0,.06.46.08,2,.08,2.36-.58,0-1.48,0-2.08,0-.78,0-8.48.06-9.68.08-.56,0-1,0-1.46,0-.06-.54-.16-1.9-.14-2.36.48,0,1.06.06,1.62.06.4,0,1.94,0,3.72,0V41.74l-2.72,0c-.54,0-1,0-1.42,0-.08-.54-.16-1.88-.16-2.36.48,0,1.06.06,1.62.06,1,0,7.4-.06,8.24-.08.42,0,.92,0,1.32,0,0,.46.06,1.94.06,2.34-.6,0-1.48,0-2.2,0-.42,0-1.26,0-2.22,0Z"/><path class="cls-1" d="M190.34,37.4a17.44,17.44,0,0,1-.32-2.71c.84.07,2,.09,2.74.09l10.84-.09c.6,0,1,0,1.52-.1a7.24,7.24,0,0,1,1.72,1.6,19.87,19.87,0,0,1-5.26,6.41,8.94,8.94,0,0,1-2.2-1.68,10.35,10.35,0,0,0,3.88-3.8c-1.08,0-10.06.18-11.3.22Zm8.6,1.4c.1,5.76-.28,9.14-5.7,11.74a9.41,9.41,0,0,1-2.26-2.2,9.3,9.3,0,0,0,1.94-.74c2.92-1.6,3.3-4,3.24-6.72A14.53,14.53,0,0,0,196,38.7,16.47,16.47,0,0,1,198.94,38.8Z"/><path class="cls-1" d="M229,36.76a11.82,11.82,0,0,1,.1,2.52c-.42,0-.86,0-1.34,0l-3.48,0c0,2.5.22,8,.24,9,0,1.34-.54,2.06-2.06,2.06a28.37,28.37,0,0,1-3.64-.28,18.86,18.86,0,0,1-.38-2.74,13.82,13.82,0,0,0,2.78.46c.52,0,.74-.14.74-.74,0,0,0-.42-.12-5.56a24.26,24.26,0,0,1-7.84,6.7A7.41,7.41,0,0,1,212,46a19,19,0,0,0,8.4-6.68c-2.36,0-4.5,0-5,.06l-2.18,0a12.39,12.39,0,0,1-.2-2.56c.62,0,1.36.08,2.08.08s3.8,0,6.64,0c0-1.27-.1-2.65-.22-3.59a14.69,14.69,0,0,1,2.78.16c0,.68,0,2,0,3.39l3.16,0Z"/><path class="cls-1" d="M248.62,44.42a16.44,16.44,0,0,1-7.86,6,7.66,7.66,0,0,1-2.36-2.44,13.21,13.21,0,0,0,7.54-4.46,12.52,12.52,0,0,0,2.42-5.6c-1.8,0-9.82.12-11.56.16a20.26,20.26,0,0,1-.26-2.8c.86.08,1.8.14,2.5.14,1.18,0,8.44-.08,9.68-.1a9,9,0,0,0,1.32-.11,7.7,7.7,0,0,1,1.64,1.27A22.7,22.7,0,0,1,248.62,44.42Z"/><path class="cls-1" d="M267.58,48.92c0,.5,0,1.3,0,1.74a20,20,0,0,1-2.68,0c0-.2.06-.94.08-1.72,0-1.34.06-2.9,0-5a27.5,27.5,0,0,1-4.16,1.82,8,8,0,0,1-1.72-2.16,16.93,16.93,0,0,0,5.8-2.3A13.17,13.17,0,0,0,269,37.36a9.29,9.29,0,0,1,1.68,1.88,16.77,16.77,0,0,1-3.12,3Z"/><path class="cls-1" d="M296.08,47.94A6.46,6.46,0,0,1,294,50a35.15,35.15,0,0,0-5-5.56,24,24,0,0,1-7.56,5.44,11.54,11.54,0,0,1-2-2.32,20.23,20.23,0,0,0,8.18-5.4,14.77,14.77,0,0,0,3.06-4.62c-2.08,0-7.64.16-9.1.22a19.92,19.92,0,0,1-.32-2.63c.62.06,1.36.11,2,.11.94,0,7.22-.11,8.42-.17.48,0,1-.08,1.28-.12a5.38,5.38,0,0,1,1.42,1.39,31.4,31.4,0,0,1-3.68,6.14A38.18,38.18,0,0,1,296.08,47.94Z"/></g></svg>