<svg xmlns="http://www.w3.org/2000/svg" viewBox="0 0 440 170"><defs><style>.cls-1{fill:#fff;}</style></defs><title>office-title</title><g id="レイヤー_1" data-name="レイヤー 1"><path class="cls-1" d="M167.62,92.43l6.76,6.71a12.13,12.13,0,0,0,2.83,2.26,6,6,0,0,0,2.35.68v.5h-8.71v-.5a1.94,1.94,0,0,0,1.13-.26.74.74,0,0,0,.34-.59,1.24,1.24,0,0,0-.13-.58,4.83,4.83,0,0,0-.84-1L165,93.44v5.9a6.05,6.05,0,0,0,.17,1.84,1.22,1.22,0,0,0,.57.58,2.56,2.56,0,0,0,1.23.32h.62v.5h-7.81v-.5h.65a2,2,0,0,0,1.65-.66,4.2,4.2,0,0,0,.32-2.08V87.52a6.49,6.49,0,0,0-.17-1.85,1.22,1.22,0,0,0-.56-.57,2.49,2.49,0,0,0-1.24-.32h-.65v-.5h7.81v.5H167a2.61,2.61,0,0,0-1.23.31,1.17,1.17,0,0,0-.58.64,6.2,6.2,0,0,0-.16,1.79v5.6l1.85-1.72a40.47,40.47,0,0,0,4.85-4.9,1.77,1.77,0,0,0,.36-.94.7.7,0,0,0-.28-.55,1.51,1.51,0,0,0-1-.23h-.42v-.5h6.73v.5a3.6,3.6,0,0,0-1.08.16,5.64,5.64,0,0,0-1.19.57,11.11,11.11,0,0,0-1.73,1.37c-.2.18-1.11,1.1-2.74,2.77Z"/><path class="cls-1" d="M198.61,84.28H205v.5h-.35a2.68,2.68,0,0,0-1,.31,3.86,3.86,0,0,0-1.23.89A12,12,0,0,0,201,87.87l-4.41,6.95v4.59a3.59,3.59,0,0,0,.38,2.11,2.11,2.11,0,0,0,1.62.56h.59v.5h-7.78v-.5h.65a1.87,1.87,0,0,0,1.65-.7,4.22,4.22,0,0,0,.29-2V95.08l-5-7.67a18.23,18.23,0,0,0-1.21-1.69,4.94,4.94,0,0,0-1.32-.81,1.8,1.8,0,0,0-.78-.13v-.5h7.83v.5h-.4a2.31,2.31,0,0,0-1.17.29,1,1,0,0,0-.53.89,4.23,4.23,0,0,0,.82,1.76l3.82,5.9,3.6-5.65a4.14,4.14,0,0,0,.81-1.88,1.21,1.21,0,0,0-.2-.68,1.37,1.37,0,0,0-.56-.47,2.78,2.78,0,0,0-1.09-.16Z"/><path class="cls-1" d="M221.61,83.86a8.31,8.31,0,0,1,6.18,2.7,9.37,9.37,0,0,1,2.61,6.76,9.62,9.62,0,0,1-2.63,6.93,8.81,8.81,0,0,1-12.73.06,9.6,9.6,0,0,1-2.58-7,9.24,9.24,0,0,1,3-7.11A8.75,8.75,0,0,1,221.61,83.86Zm-.26,1a4.82,4.82,0,0,0-3.94,1.83c-1.24,1.51-1.85,3.72-1.85,6.64s.64,5.28,1.91,6.9a4.77,4.77,0,0,0,3.9,1.83,5.31,5.31,0,0,0,4.26-2c1.12-1.34,1.68-3.46,1.68-6.34,0-3.14-.62-5.47-1.85-7A5,5,0,0,0,221.35,84.84Z"/><path class="cls-1" d="M254.3,84.28l.2,4.29H254a4.93,4.93,0,0,0-.4-1.62,2.73,2.73,0,0,0-1.12-1.16,4,4,0,0,0-1.83-.37h-2.58v14a3.79,3.79,0,0,0,.37,2.11,2.05,2.05,0,0,0,1.58.56h.63v.5h-7.76v-.5h.64a1.85,1.85,0,0,0,1.65-.7,4,4,0,0,0,.3-2v-14h-2.2a6.38,6.38,0,0,0-1.83.19,2.5,2.5,0,0,0-1.2,1,4,4,0,0,0-.59,2h-.52l.22-4.29Z"/><path class="cls-1" d="M271.39,83.86a8.31,8.31,0,0,1,6.18,2.7,9.33,9.33,0,0,1,2.62,6.76,9.63,9.63,0,0,1-2.64,6.93,8.81,8.81,0,0,1-12.73.06,9.6,9.6,0,0,1-2.57-7,9.24,9.24,0,0,1,3-7.11A8.74,8.74,0,0,1,271.39,83.86Zm-.25,1a4.84,4.84,0,0,0-3.95,1.83q-1.85,2.27-1.85,6.64c0,3,.64,5.28,1.92,6.9a4.75,4.75,0,0,0,3.89,1.83,5.31,5.31,0,0,0,4.26-2c1.12-1.34,1.68-3.46,1.68-6.34,0-3.14-.61-5.47-1.85-7A5,5,0,0,0,271.14,84.84Z"/><path class="cls-1" d="M24.53,53.35a8.4,8.4,0,0,1-7.26-3.48c-.81-1.15-1.75-3.52-1.75-8.37V12h1.65V41.5c0,4.82,1,6.79,1.44,7.41a6.67,6.67,0,0,0,5.92,2.79,6.72,6.72,0,0,0,6-2.82c.43-.59,1.42-2.47,1.42-7.38V12h1.65V41.5c0,4.94-.94,7.27-1.73,8.35A8.42,8.42,0,0,1,24.53,53.35Z"/><path class="cls-1" d="M24.53,62.37A18.17,18.17,0,0,1,6,43.62V12h6.87V41.5c0,4.47.75,7.8,2.24,9.9A11,11,0,0,0,24.53,56,11.07,11.07,0,0,0,34,51.41c1.49-2,2.24-5.37,2.24-9.91V12h6.87V43.62a18.11,18.11,0,0,1-4.93,13A18.34,18.34,0,0,1,24.53,62.37Z"/><polygon class="cls-1" points="62.4 62.37 62.4 12 98.49 45.6 98.49 12 105.36 12 105.36 62.37 69.27 28.87 69.27 62.37 62.4 62.37"/><polygon class="cls-1" points="391.04 62.37 391.04 12 427.13 45.6 427.13 12 434 12 434 62.37 397.91 28.87 397.91 62.37 391.04 62.37"/><polygon class="cls-1" points="153.17 62.37 134.53 39.36 132.47 41.42 132.47 62.37 125.61 62.37 125.61 12 132.47 12 132.47 33.07 153.05 12 162.15 12 139.43 34.73 162.4 62.37 153.17 62.37"/><path class="cls-1" d="M271.88,53.61A15.42,15.42,0,0,1,260.76,49a15.6,15.6,0,0,1-4.83-11.88,15.58,15.58,0,0,1,4.69-11.57,16.24,16.24,0,0,1,22.88,0,15.83,15.83,0,0,1,4.64,11.69,15.9,15.9,0,0,1-4.7,11.68A15.51,15.51,0,0,1,271.88,53.61Zm.19-31.17a13.74,13.74,0,0,0-10.28,4.23,14,14,0,0,0-4.2,10.4,14,14,0,0,0,4.32,10.69,14.39,14.39,0,0,0,20.36,0,14.31,14.31,0,0,0,4.22-10.52,14.22,14.22,0,0,0-4.17-10.53A13.62,13.62,0,0,0,272.07,22.44Z"/><path class="cls-1" d="M271.78,62.37a25.25,25.25,0,0,1-16.91-6.52c-5.47-4.78-8.24-11.13-8.24-18.87a23.9,23.9,0,0,1,7.52-17.62,24.94,24.94,0,0,1,18-7.36A24.42,24.42,0,0,1,290,19.43a24.34,24.34,0,0,1,7.46,17.83A24,24,0,0,1,290,55,25.21,25.21,0,0,1,271.78,62.37Zm.29-44.23a18.09,18.09,0,0,0-13.34,5.51,18.3,18.3,0,0,0-5.45,13.42,18.34,18.34,0,0,0,5.65,13.79,18.68,18.68,0,0,0,26.39-.11,18.68,18.68,0,0,0,5.47-13.55,18.59,18.59,0,0,0-5.41-13.55A17.93,17.93,0,0,0,272.07,18.14Z"/><polygon class="cls-1" points="307.22 12 314.68 12 328.3 44.24 342.45 12.64 355.6 44.25 370.07 12 377.52 12 355.29 62.33 342.31 31.16 328.36 62.37 307.22 12"/><polygon class="cls-1" points="338.01 12 328.42 33 319.36 12 317.57 12 328.37 37.07 339.83 12 338.01 12"/><polygon class="cls-1" points="365.34 12 355.75 32.95 346.85 12 345.05 12 355.69 37.04 367.16 12 365.34 12"/><polygon class="cls-1" points="422.83 12 422.83 35.44 397.65 12 395.23 12 424.48 39.24 424.48 12 422.83 12"/><polygon class="cls-1" points="222.17 12 196.99 35.44 196.99 12 195.34 12 195.34 39.24 224.6 12 222.17 12"/><polygon class="cls-1" points="94.19 12 94.19 35.44 69.01 12 66.59 12 95.84 39.24 95.84 12 94.19 12"/><polygon class="cls-1" points="73.58 62.37 73.58 39.01 98.75 62.37 101.17 62.37 71.92 35.22 71.92 62.37 73.58 62.37"/><polygon class="cls-1" points="168 62.37 145.24 35 168.23 12 165.89 12 143.01 34.9 165.85 62.37 168 62.37"/><polygon class="cls-1" points="333.07 62.37 342.17 42.02 350.65 62.37 352.44 62.37 342.23 37.85 331.26 62.37 333.07 62.37"/><polygon class="cls-1" points="402.21 62.37 402.21 39.01 427.38 62.37 429.81 62.37 400.56 35.22 400.56 62.37 402.21 62.37"/><polygon class="cls-1" points="147.04 12 136.78 22.51 136.78 12 135.12 12 135.12 26.57 149.35 12 147.04 12"/><polygon class="cls-1" points="136.78 62.37 136.78 48.96 147.64 62.37 149.76 62.37 135.12 44.29 135.12 62.37 136.78 62.37"/><polygon class="cls-1" points="192.44 62.37 217.61 39.01 217.61 62.37 219.26 62.37 219.26 35.22 190.01 62.37 192.44 62.37"/><polygon class="cls-1" points="187.47 58.58 187.47 12 185.82 12 185.82 62.37 221.91 28.87 221.91 62.37 223.57 62.37 223.57 28.87 223.57 25.08 220.79 27.66 187.47 58.58"/><polygon class="cls-1" points="192.69 12 191.04 12 191.04 45.6 191.04 49.4 193.82 46.81 227.13 15.8 227.13 62.37 228.78 62.37 228.78 12 192.69 45.6 192.69 12"/><path class="cls-1" d="M147,132.55v7.24c0,1.05-2.1,1.82-3.38,1.82-.68,0-.68-.37-.68-.7v-1.62h-2.06a.6.6,0,0,1,.17.37c0,.27-.24.44-.44.57a3,3,0,0,0-.51.3c-.1.51-.44,2.83-.51,3.31h2.88l.88-1a1.06,1.06,0,0,1,.88-.41.83.83,0,0,1,.5.17l2.51,2.09a.76.76,0,0,1,.2.54c0,.34,0,.34-1.08,1.18-.92,9.16-2.64,11.83-6.94,11.83-1,0-1.08-.14-1.11-.54-.14-2.3-.24-2.33-3.25-3.51a18.08,18.08,0,0,1-4.93,3.94l-.14-.33c4.8-5.19,5.38-12.64,5.58-15.94a4.65,4.65,0,0,1-1.12.13c-1.28,0-1.31-.6-1.31-1.18V128.57l4.22,1.86h5.48l1.28-1.18a1.06,1.06,0,0,1,.71-.31.67.67,0,0,1,.51.17l2,1.65c.07.07.44.37.44.71S147.68,131.84,147,132.55Zm-7.58,12c-.44,2-1.55,6.2-4,9.13a27.55,27.55,0,0,0,3.58.3c1.39,0,2-.23,2.74-3.2a26.13,26.13,0,0,0,.75-6.23ZM143,131.17h-5.78v7.38H143Zm9.94,3v14.73c0,1.41-2.26,1.88-2.77,1.88-.74,0-1.35-.33-1.35-1.21V132.28l4.73.47a.56.56,0,0,1,.54.57C154,133.8,153.74,133.86,152.89,134.13Zm6.83-3.91v25.07c0,2.67-1.22,3.41-4.5,3.41-.87,0-.91,0-.91-.64-.07-2.26-.81-2.5-3.95-3.51v-.33c1.21.1,3.17.26,3.65.26,1.21,0,1.65-.1,1.65-1.55V128.44l4.57.47a.6.6,0,0,1,.57.57C160.8,129.89,160.53,130,159.72,130.22Z"/><path class="cls-1" d="M195.09,135.21c-.34.2-1.86,1.25-2.16,1.45l1,.94a.71.71,0,0,1,.24.58c0,.5-.37.77-.74,1v5.12c0,1.08-2.17,1.65-2.84,1.65-.41,0-1-.33-1-.77v-.81h-4.2v3.64h4.67l.95-1a1.06,1.06,0,0,1,.94-.44,1.43,1.43,0,0,1,.85.3l2,1.72a.81.81,0,0,1,.33.71,1.88,1.88,0,0,1-.84,1.35v5.49c0,.91-2.06,1.75-2.77,1.75a1,1,0,0,1-1.15-.87V155.9h-5v1c0,1-2.23,1.48-2.63,1.48s-1.19-.17-1.19-.67V138.18a1.9,1.9,0,0,1-1.52.84,2,2,0,0,1-1.76-2.26,1.06,1.06,0,0,1-.5.1c-1.12,0-1.22-.54-1.73-2.63a4.82,4.82,0,0,0-1.79-2.73,29,29,0,0,1-2.47,3.64l4,.27c.4,0,.6.24.6.47,0,.38-.33.54-.91.85v1.58l.48-.5c.37-.38.6-.44.81-.44a1.64,1.64,0,0,1,.88.33l1.59,1.25a1,1,0,0,1,.43.81c0,.4-.2.64-.87,1.38v6.34a1,1,0,0,1-.78,1,7.24,7.24,0,0,1-2,.47c-.37,0-.91-.07-.91-.74v-.71H172.3v5.6l3.18-.41A21.53,21.53,0,0,0,173,149.8l.14-.34c5.65,1,7.1,3.68,7.1,5.67a2.5,2.5,0,0,1-2.43,2.59c-1.36,0-1.66-1.82-1.7-2.09a10.7,10.7,0,0,0-.2-1.89,56.41,56.41,0,0,1-6.25,3.74c-.14,1-.21,1.42-.75,1.42-.37,0-.54-.41-.61-.61l-1.72-4.41c.24,0,1.83-.24,1.93-.24V138.85a15.11,15.11,0,0,1-2.84,2.22l-.24-.3c3.21-4.18,4.16-7.75,4.9-12.33l5.28.87c.3,0,.37.34.37.54a1.05,1.05,0,0,1-.51.85c1.66.5,4.43,1.41,4.4,4,.81-.77,1.25-1.18,1.38-3.94l.38,0a15.52,15.52,0,0,1,.88,2h3V128.1l4.56.44c.34,0,.68.2.68.64,0,.2,0,.37-1.18.84v2.7h2l.95-1.15a1.15,1.15,0,0,1,.77-.44,1.27,1.27,0,0,1,.85.27l2.37,2.13a1.06,1.06,0,0,1,.4.84C197,135.24,196,135.24,195.09,135.21Zm-23.43.14c-.68.87-1.22,1.48-2,2.32l2,.84Zm3.42,4.11H172.3v3.23h2.78Zm0,4H172.3v3.33h2.78Zm7.6-10a6.38,6.38,0,0,1,.11,1.18,5.38,5.38,0,0,1-.11,1.08l2.88,1.65h3.72l1.15-1.41a1,1,0,0,1,.81-.38.85.85,0,0,1,.47.11,21,21,0,0,0,.31-2.23Zm6.94,4.65h-4.2v5.5h4.2Zm.81,10.65h-5v6.34h5Z"/><path class="cls-1" d="M237.94,152.66c-.1.54-.2,1-.44,1-1.56,0-9.3-6.4-10.89-15.06v11.52h.64l1.36-1.95a.62.62,0,0,1,.54-.34.85.85,0,0,1,.61.3l2,1.72a.71.71,0,0,1,.33.57.5.5,0,0,1-.57.48h-4.87v6.26c0,1.52-2.06,1.89-3.45,1.89-1,0-1-.47-1-1v-7.11H216.7l-.4-.78h5.81v-6.23c-2.57,3.64-8.25,8.62-13.62,10.34l-.21-.27c6-5.15,8.9-9.47,11.13-17H208.93l-.41-.74h13.59v-8l5,.41c.58,0,.64.23.64.43,0,.41-.1.48-1.18,1.05v6.13H234l2.06-2.43a.71.71,0,0,1,.55-.3.86.86,0,0,1,.6.3l2.51,2.09a.91.91,0,0,1,.33.64c0,.34-.3.44-.57.44H227.73c.88,3.67,4.36,8.49,12.81,12.33v.34A3.69,3.69,0,0,0,237.94,152.66Z"/><path class="cls-1" d="M272.77,157.79H260.22c-3.45,0-4.76-1.75-4.76-4.35V142l-3.35,1.15-2,6.4a2.2,2.2,0,0,0-.1.61,3.58,3.58,0,0,0,.57,1.82c1,1.75,1.36,2.36,1.36,3.7,0,2.13-1.12,3.34-2.95,3.34a2.31,2.31,0,0,1-2.26-2.29,3.44,3.44,0,0,1,.13-.84,6,6,0,0,0,.54-2.43c0-2.73-1.31-3-3.55-3.54l0-.33c2,0,2.77-.14,3.41-.88s3.62-5.76,7.71-16l.34.17-2.94,9.33,3.08-1.05v-9.9l4.53.4c.57.07.71.17.71.44,0,.47-.21.57-1,1v6.57l2.67-.91V128.17l4.46.57c.51.07.58.34.58.41,0,.5-.71.74-1.05.84v7.44l2.13-.74,1-1.58a.93.93,0,0,1,.91-.57,1.6,1.6,0,0,1,.88.3l2.16,1.45a1,1,0,0,1,.48.77c0,.64-.68,1.18-.95,1.42,0,3.34.14,7.85-.61,10.34a3.67,3.67,0,0,1-3.58,2.63c-.27,0-.64,0-.64-.37,0-.07.06-.6.06-.74a2.34,2.34,0,0,0-1.82-2.19v1.52a.88.88,0,0,1-.54,1,5.81,5.81,0,0,1-2.34.64c-1,0-1.11-.43-1.11-.91V139.59l-2.67.91v12.1a1.4,1.4,0,0,0,1.38,1.45h9.84a1.7,1.7,0,0,0,1.25-.88,21.84,21.84,0,0,0,1.56-5.26l.34,0-.34,5.05a1.55,1.55,0,0,0,.27,1c.78,1.05.91,1.25.91,1.72A2,2,0,0,1,272.77,157.79Zm-24.28-15.47c-1.52,0-1.62-.64-2.13-3.3a4.17,4.17,0,0,0-2.43-3.1l.1-.34c3.65.27,6.66,1.75,6.66,4.38A2.22,2.22,0,0,1,248.49,142.32Zm2.37-7c-1.56,0-1.79-1.14-2.07-2.46a6.06,6.06,0,0,0-3.31-4.21l.07-.34c3.08,0,7.78,1.18,7.78,4.48A2.47,2.47,0,0,1,250.86,135.31Zm17.92,2.09-2.4.81v9.27a6.2,6.2,0,0,0,.78,0c.43,0,1-.07,1.31-1.18a30.16,30.16,0,0,0,.48-5.59A24.82,24.82,0,0,0,268.78,137.4Z"/><path class="cls-1" d="M308.68,137.77v8.86c0,1.28-2.5,2-3.35,2a1,1,0,0,1-1.11-1v-1.58h-7.81v11.09c0,.7-1.42,1.75-2.94,1.75-.82,0-1.42-.17-1.42-1.15V146.06H284.4v1.65c0,1.32-2.16,1.82-3.07,1.82-1.12,0-1.12-.47-1.12-1V133.43l4.4,2h7.44V128l4.76.4c.41,0,.68.24.68.61s-.2.51-1.08.84v5.6h7.44L305.2,134a1.57,1.57,0,0,1,1.22-.67,1.87,1.87,0,0,1,1,.37l2.2,1.75a.86.86,0,0,1,.37.71C310,136.49,309.86,136.63,308.68,137.77Zm-16.63-1.55H284.4v9.07h7.65Zm12.17,0h-7.81v9.07h7.81Z"/></g></svg>