<svg xmlns="http://www.w3.org/2000/svg" viewBox="0 0 440 260"><defs><style>.cls-1{fill:#fff;}</style></defs><g id="レイヤー_1" data-name="レイヤー 1"><path class="cls-1" d="M167.58,158.13l6.76,6.72a12.42,12.42,0,0,0,2.84,2.26,6,6,0,0,0,2.35.68v.5h-8.72v-.5a1.87,1.87,0,0,0,1.13-.26.74.74,0,0,0,.34-.59,1.34,1.34,0,0,0-.12-.58,5.44,5.44,0,0,0-.85-1L165,159.14v5.91a6,6,0,0,0,.18,1.84,1.22,1.22,0,0,0,.57.58,2.51,2.51,0,0,0,1.23.32h.62v.5h-7.82v-.5h.65a2,2,0,0,0,1.65-.66,4.05,4.05,0,0,0,.33-2.08V153.2a6.12,6.12,0,0,0-.18-1.85,1.29,1.29,0,0,0-.55-.57,2.64,2.64,0,0,0-1.25-.32h-.65V150h7.82v.5H167a2.55,2.55,0,0,0-1.23.31,1.12,1.12,0,0,0-.58.65,6,6,0,0,0-.17,1.78v5.62c.18-.18.8-.75,1.86-1.72a41,41,0,0,0,4.85-4.91,1.8,1.8,0,0,0,.36-.95.68.68,0,0,0-.28-.54,1.5,1.5,0,0,0-1-.24h-.42V150h6.74v.5a4.09,4.09,0,0,0-1.09.16,5.49,5.49,0,0,0-1.19.58,11.6,11.6,0,0,0-1.73,1.37c-.2.18-1.11,1.1-2.74,2.77Z"/><path class="cls-1" d="M198.59,150H205v.5h-.36a2.69,2.69,0,0,0-1,.31,4.07,4.07,0,0,0-1.23.89,12,12,0,0,0-1.37,1.9l-4.42,7v4.6a3.59,3.59,0,0,0,.38,2.11,2.11,2.11,0,0,0,1.62.56h.59v.5H191.4v-.5h.65a1.87,1.87,0,0,0,1.65-.7,4.25,4.25,0,0,0,.29-2v-4.34l-5-7.68a14.32,14.32,0,0,0-1.21-1.69,4.66,4.66,0,0,0-1.32-.82,1.8,1.8,0,0,0-.78-.13V150h7.84v.5h-.4a2.32,2.32,0,0,0-1.17.3,1,1,0,0,0-.54.89,4.36,4.36,0,0,0,.83,1.76l3.82,5.91,3.6-5.66a4.12,4.12,0,0,0,.81-1.89,1.22,1.22,0,0,0-.19-.68,1.32,1.32,0,0,0-.57-.46,2.72,2.72,0,0,0-1.09-.17Z"/><path class="cls-1" d="M221.61,149.54a8.32,8.32,0,0,1,6.19,2.71,9.37,9.37,0,0,1,2.61,6.77,9.64,9.64,0,0,1-2.63,6.93A8.82,8.82,0,0,1,215,166a9.62,9.62,0,0,1-2.57-7,9.3,9.3,0,0,1,3-7.13A8.79,8.79,0,0,1,221.61,149.54Zm-.26,1a4.87,4.87,0,0,0-3.95,1.82c-1.23,1.52-1.85,3.73-1.85,6.65s.64,5.3,1.92,6.91a4.73,4.73,0,0,0,3.9,1.84,5.31,5.31,0,0,0,4.26-2c1.12-1.34,1.69-3.46,1.69-6.36q0-4.69-1.86-7A5,5,0,0,0,221.35,150.53Z"/><path class="cls-1" d="M254.32,150l.21,4.3H254a5.2,5.2,0,0,0-.4-1.62,2.73,2.73,0,0,0-1.12-1.16,3.84,3.84,0,0,0-1.83-.37h-2.58v14a3.82,3.82,0,0,0,.36,2.11,2.05,2.05,0,0,0,1.58.56h.64v.5h-7.78v-.5h.65a1.85,1.85,0,0,0,1.65-.7,4.08,4.08,0,0,0,.3-2v-14h-2.2a6,6,0,0,0-1.83.19,2.49,2.49,0,0,0-1.2,1,4,4,0,0,0-.6,2h-.51l.22-4.3Z"/><path class="cls-1" d="M271.43,149.54a8.31,8.31,0,0,1,6.19,2.71,9.38,9.38,0,0,1,2.62,6.77A9.61,9.61,0,0,1,277.6,166a8.51,8.51,0,0,1-6.38,2.76,8.41,8.41,0,0,1-6.36-2.69,9.63,9.63,0,0,1-2.58-7,9.3,9.3,0,0,1,3-7.13A8.83,8.83,0,0,1,271.43,149.54Zm-.25,1a4.86,4.86,0,0,0-3.95,1.82c-1.24,1.52-1.85,3.73-1.85,6.65s.64,5.3,1.92,6.91a4.73,4.73,0,0,0,3.89,1.84,5.35,5.35,0,0,0,4.27-2q1.68-2,1.68-6.36,0-4.69-1.85-7A5,5,0,0,0,271.18,150.53Z"/><path class="cls-1" d="M24.38,119a8.4,8.4,0,0,1-7.27-3.49c-.81-1.15-1.75-3.53-1.75-8.39V77.57H17v29.54c0,4.84,1,6.8,1.44,7.43a6.69,6.69,0,0,0,5.93,2.79,6.7,6.7,0,0,0,6-2.83c.43-.58,1.42-2.47,1.42-7.39V77.57h1.65v29.54c0,5-.94,7.29-1.73,8.37A8.43,8.43,0,0,1,24.38,119Z"/><path class="cls-1" d="M24.38,128A18.18,18.18,0,0,1,5.83,109.24V77.57h6.88v29.54c0,4.48.75,7.82,2.24,9.93a11.05,11.05,0,0,0,9.43,4.6,11.06,11.06,0,0,0,9.45-4.6c1.49-2,2.25-5.38,2.25-9.93V77.57H43v31.67A18.14,18.14,0,0,1,38,122.3,18.37,18.37,0,0,1,24.38,128Z"/><polygon class="cls-1" points="62.28 128.02 62.28 77.57 98.4 111.22 98.4 77.57 105.27 77.57 105.27 128.02 69.16 94.46 69.16 128.02 62.28 128.02"/><polygon class="cls-1" points="391.18 128.02 391.18 77.57 427.29 111.22 427.29 77.57 434.17 77.57 434.17 128.02 398.05 94.46 398.05 128.02 391.18 128.02"/><polygon class="cls-1" points="153.12 128.02 134.47 104.97 132.41 107.03 132.41 128.02 125.53 128.02 125.53 77.57 132.41 77.57 132.41 98.68 153 77.57 162.1 77.57 139.36 100.34 162.36 128.02 153.12 128.02"/><path class="cls-1" d="M271.92,119.25a15.43,15.43,0,0,1-11.13-4.68,16.86,16.86,0,0,1-.14-23.48,16.24,16.24,0,0,1,22.9,0,17,17,0,0,1-.06,23.41A15.54,15.54,0,0,1,271.92,119.25ZM272.11,88a13.78,13.78,0,0,0-10.29,4.23,15.22,15.22,0,0,0,.12,21.12,14.39,14.39,0,0,0,20.37,0,15.34,15.34,0,0,0,.06-21.09A13.64,13.64,0,0,0,272.11,88Z"/><path class="cls-1" d="M271.82,128a25.22,25.22,0,0,1-16.92-6.53c-5.48-4.79-8.25-11.15-8.25-18.91A23.89,23.89,0,0,1,254.18,85a24.88,24.88,0,0,1,18-7.38,25.45,25.45,0,0,1,25.3,25.3,24,24,0,0,1-7.5,17.8A25.24,25.24,0,0,1,271.82,128Zm.29-44.3a18.13,18.13,0,0,0-13.35,5.51,19.51,19.51,0,0,0,.2,27.26,18.68,18.68,0,0,0,26.41-.11,19.63,19.63,0,0,0,.06-27.15A18,18,0,0,0,272.11,83.72Z"/><polygon class="cls-1" points="307.29 77.57 314.75 77.57 328.39 109.86 342.54 78.21 355.7 109.87 370.19 77.57 377.65 77.57 355.4 127.97 342.41 96.76 328.45 128.02 307.29 77.57"/><polygon class="cls-1" points="338.1 77.57 328.5 98.6 319.44 77.57 317.64 77.57 328.46 102.68 339.92 77.57 338.1 77.57"/><polygon class="cls-1" points="365.45 77.57 355.85 98.55 346.95 77.57 345.15 77.57 355.8 102.65 367.27 77.57 365.45 77.57"/><polygon class="cls-1" points="422.99 77.57 422.99 101.05 397.79 77.57 395.36 77.57 424.64 104.85 424.64 77.57 422.99 77.57"/><polygon class="cls-1" points="222.18 77.57 196.98 101.05 196.98 77.57 195.32 77.57 195.32 104.85 224.6 77.57 222.18 77.57"/><polygon class="cls-1" points="94.09 77.57 94.09 101.05 68.89 77.57 66.47 77.57 95.75 104.85 95.75 77.57 94.09 77.57"/><polygon class="cls-1" points="73.46 128.02 73.46 104.62 98.65 128.02 101.08 128.02 71.81 100.82 71.81 128.02 73.46 128.02"/><polygon class="cls-1" points="167.95 128.02 145.18 100.61 168.19 77.57 165.85 77.57 142.95 100.5 165.8 128.02 167.95 128.02"/><polygon class="cls-1" points="333.16 128.02 342.27 107.63 350.75 128.02 352.54 128.02 342.32 103.46 331.35 128.02 333.16 128.02"/><polygon class="cls-1" points="402.36 128.02 402.36 104.62 427.54 128.02 429.97 128.02 400.7 100.82 400.7 128.02 402.36 128.02"/><polygon class="cls-1" points="146.98 77.57 136.71 88.1 136.71 77.57 135.06 77.57 135.06 92.16 149.29 77.57 146.98 77.57"/><polygon class="cls-1" points="136.71 128.02 136.71 114.58 147.58 128.02 149.71 128.02 135.06 109.91 135.06 128.02 136.71 128.02"/><polygon class="cls-1" points="192.42 128.02 217.61 104.62 217.61 128.02 219.26 128.02 219.26 100.82 189.99 128.02 192.42 128.02"/><polygon class="cls-1" points="187.45 124.22 187.45 77.57 185.8 77.57 185.8 128.02 221.91 94.46 221.91 128.02 223.57 128.02 223.57 94.46 223.57 90.67 220.79 93.25 187.45 124.22"/><polygon class="cls-1" points="192.67 77.57 191.02 77.57 191.02 111.22 191.02 115.02 193.8 112.43 227.13 81.37 227.13 128.02 228.79 128.02 228.79 77.57 192.67 111.22 192.67 77.57"/><path class="cls-1" d="M184.45,230.92c-.12.61-.23,1.07-.5,1.07-1.74,0-10.43-7.21-12.21-17v13h.72l1.51-2.2a.72.72,0,0,1,.61-.38.92.92,0,0,1,.68.34l2.2,1.94a.76.76,0,0,1,.38.64c0,.42-.38.53-.64.53h-5.46v7.06c0,1.71-2.32,2.13-3.87,2.13-1.18,0-1.18-.54-1.18-1.18v-8h-6.07l-.46-.87h6.53v-7c-2.88,4.1-9.26,9.72-15.29,11.65l-.23-.3c6.76-5.81,10-10.66,12.48-19.2H151.89l-.45-.84h15.25v-9l5.65.46c.65,0,.72.27.72.49,0,.46-.11.53-1.32,1.18v6.9H180l2.31-2.73a.8.8,0,0,1,.61-.34c.26,0,.41.12.68.34l2.81,2.35a1,1,0,0,1,.38.73c0,.38-.34.49-.65.49H173c1,4.13,4.89,9.56,14.38,13.89v.37A4.16,4.16,0,0,0,184.45,230.92Z"/><path class="cls-1" d="M234.91,236.69H220.83c-3.87,0-5.34-2-5.34-4.89V218.9l-3.76,1.29-2.28,7.2a2.86,2.86,0,0,0-.11.69,4.06,4.06,0,0,0,.64,2c1.14,2,1.52,2.65,1.52,4.17,0,2.39-1.25,3.76-3.3,3.76a2.59,2.59,0,0,1-2.54-2.58,3.71,3.71,0,0,1,.15-.95,6.86,6.86,0,0,0,.61-2.73c0-3.08-1.48-3.42-4-4l0-.38c2.24,0,3.11-.15,3.83-1s4.06-6.49,8.65-18l.38.19L212,219.16l3.46-1.17V206.83l5.08.46c.64.07.8.19.8.49,0,.53-.23.65-1.1,1.14v7.4l3-1V203.34l5,.65c.57.07.65.38.65.45,0,.57-.8.84-1.18.95v8.38l2.39-.83,1.1-1.78a1.06,1.06,0,0,1,1-.65,1.78,1.78,0,0,1,1,.34l2.43,1.63a1.16,1.16,0,0,1,.53.88c0,.72-.76,1.33-1.06,1.59,0,3.76.15,8.84-.68,11.65a4.13,4.13,0,0,1-4,3c-.3,0-.72,0-.72-.42,0-.08.08-.68.08-.84a2.63,2.63,0,0,0-2-2.46v1.71a1,1,0,0,1-.61,1.1,6.48,6.48,0,0,1-2.61.72c-1.18,0-1.26-.5-1.26-1V216.2l-3,1v13.62a1.58,1.58,0,0,0,1.55,1.63h11a1.92,1.92,0,0,0,1.41-1,24.94,24.94,0,0,0,1.74-5.92l.38,0L236,231.3a1.82,1.82,0,0,0,.3,1.14c.88,1.18,1,1.4,1,1.94A2.28,2.28,0,0,1,234.91,236.69Zm-27.24-17.41c-1.71,0-1.82-.72-2.39-3.72a4.66,4.66,0,0,0-2.73-3.49l.11-.38c4.1.3,7.48,2,7.48,4.93A2.5,2.5,0,0,1,207.67,219.28Zm2.66-7.9c-1.75,0-2-1.29-2.32-2.77a6.87,6.87,0,0,0-3.72-4.74l.08-.38c3.45,0,8.72,1.33,8.72,5A2.76,2.76,0,0,1,210.33,211.38Zm20.1,2.36-2.69.91v10.43a5.78,5.78,0,0,0,.87,0c.5,0,1.14-.08,1.48-1.33a33.38,33.38,0,0,0,.53-6.3A26.62,26.62,0,0,0,230.43,213.74Z"/><path class="cls-1" d="M287.35,214.15v10c0,1.44-2.81,2.28-3.76,2.28a1.11,1.11,0,0,1-1.25-1.14v-1.78h-8.76V236c0,.8-1.6,2-3.31,2-.91,0-1.59-.19-1.59-1.29V223.49h-8.57v1.86c0,1.48-2.43,2-3.46,2-1.25,0-1.25-.53-1.25-1.1v-17l4.93,2.28h8.35v-8.39l5.35.46c.46,0,.76.26.76.68s-.23.57-1.21,1v6.3h8.34l1.52-1.67a1.74,1.74,0,0,1,1.37-.76,2.11,2.11,0,0,1,1.13.41l2.47,2a.94.94,0,0,1,.42.79C288.83,212.71,288.68,212.86,287.35,214.15Zm-18.67-1.74h-8.57v10.2h8.57Zm13.66,0h-8.76v10.2h8.76Z"/><path class="cls-1" d="M126.44,37.58a13.1,13.1,0,0,1-1.66,3,58.67,58.67,0,0,0-6.18-3.17,22,22,0,0,1,1.57-3.07A46.31,46.31,0,0,1,126.44,37.58Zm2.27,6.26a24.37,24.37,0,0,0,9.67-10.45,9.84,9.84,0,0,1,2.64,3,29.77,29.77,0,0,1-10.48,10.45,32.12,32.12,0,0,1-7.78,3.33,10.82,10.82,0,0,1-2.45-3.46A24.83,24.83,0,0,0,128.71,43.84Zm1.46-12.5a13.19,13.19,0,0,1-1.79,3,50.42,50.42,0,0,0-6.07-3.41,25,25,0,0,1,1.68-3A48.71,48.71,0,0,1,130.17,31.34Z"/><path class="cls-1" d="M161.44,45.82l5.52-.06c.48,0,1.17,0,1.7,0,.08.61.11,2.64.11,3.15-.77,0-2-.06-2.77-.06-1,0-11.31.08-12.91.11-.74,0-1.33,0-1.94,0-.08-.72-.22-2.54-.19-3.15.64.05,1.41.08,2.16.08.53,0,2.59,0,5,0V38.75l-3.63.06c-.72,0-1.3,0-1.89,0-.11-.72-.21-2.5-.21-3.14.64.05,1.41.08,2.16.08,1.36,0,9.86-.08,11-.11.56,0,1.23,0,1.76,0,.05.61.08,2.58.08,3.12-.8,0-2,0-2.93,0-.56,0-1.68,0-3,0Z"/><path class="cls-1" d="M180.47,33a23,23,0,0,1-.43-3.6c1.12.08,2.67.1,3.65.1,1.6,0,12.83-.08,14.45-.1.8,0,1.28-.06,2-.14a9.33,9.33,0,0,1,2.29,2.14,26.53,26.53,0,0,1-7,8.53,11.85,11.85,0,0,1-2.93-2.24,13.75,13.75,0,0,0,5.17-5.07c-1.44,0-13.41.24-15.06.3Zm11.46,1.86c.14,7.68-.37,12.19-7.6,15.65a12.63,12.63,0,0,1-3-2.93,12.1,12.1,0,0,0,2.59-1c3.89-2.13,4.4-5.38,4.32-9A19.31,19.31,0,0,0,188,34.7,21.87,21.87,0,0,1,191.93,34.83Z"/><path class="cls-1" d="M232,32.11a15.16,15.16,0,0,1,.13,3.36c-.56,0-1.14,0-1.78,0l-4.64,0c0,3.34.29,10.64.32,12,0,1.79-.72,2.75-2.75,2.75a39,39,0,0,1-4.85-.37,25.23,25.23,0,0,1-.51-3.66,18.51,18.51,0,0,0,3.71.62c.69,0,1-.19,1-1,0,0,0-.56-.16-7.41A32.33,32.33,0,0,1,212,47.31a10,10,0,0,1-2.69-2.88,25.39,25.39,0,0,0,11.2-8.9c-3.15,0-6,0-6.69.08l-2.91,0a16.51,16.51,0,0,1-.27-3.41c.83.05,1.82.11,2.78.11s5.06,0,8.85-.06c-.06-1.68-.14-3.52-.3-4.77a19.62,19.62,0,0,1,3.71.21c0,.91,0,2.7,0,4.51,2.11,0,3.76,0,4.22,0Z"/><path class="cls-1" d="M258.15,42.33a22,22,0,0,1-10.48,7.94A10.11,10.11,0,0,1,244.52,47a17.64,17.64,0,0,0,10-6,16.57,16.57,0,0,0,3.23-7.46c-2.4,0-13.09.16-15.41.21a26.58,26.58,0,0,1-.35-3.73c1.15.1,2.4.18,3.33.18,1.58,0,11.26-.1,12.91-.13A14,14,0,0,0,260,30a9.7,9.7,0,0,1,2.19,1.68A30.6,30.6,0,0,1,258.15,42.33Z"/><path class="cls-1" d="M283.41,48.32c0,.67,0,1.74.06,2.32a26.57,26.57,0,0,1-3.57,0c0-.26.07-1.25.1-2.29.06-1.79.08-3.87,0-6.69a36.75,36.75,0,0,1-5.55,2.42,10.62,10.62,0,0,1-2.29-2.87,22.76,22.76,0,0,0,7.73-3.07,17.41,17.41,0,0,0,5.41-5.23,12,12,0,0,1,2.24,2.51,22.05,22.05,0,0,1-4.16,4Z"/><path class="cls-1" d="M321.4,47a8.67,8.67,0,0,1-2.72,2.74A47,47,0,0,0,312,42.35a31.79,31.79,0,0,1-10.08,7.25,15.48,15.48,0,0,1-2.72-3.09,26.87,26.87,0,0,0,10.91-7.2,19.65,19.65,0,0,0,4.08-6.16c-2.77,0-10.19.22-12.13.3a25.56,25.56,0,0,1-.43-3.5c.83.08,1.81.14,2.69.14,1.26,0,9.63-.14,11.23-.22a16,16,0,0,0,1.7-.16,7.1,7.1,0,0,1,1.9,1.84,42,42,0,0,1-4.91,8.19A50.39,50.39,0,0,1,321.4,47Z"/></g></svg>