<svg xmlns="http://www.w3.org/2000/svg" viewBox="0 0 200 94"><defs><style>.cls-1{fill:#111;stroke:#111;stroke-width:0.25px;}</style></defs><title>top-funding_1</title><g id="レイヤー_1" data-name="レイヤー 1"><g id="アートワーク_4" data-name="アートワーク 4"><g id="グループ化_152" data-name="グループ化 152"><path id="パス_11" data-name="パス 11" class="cls-1" d="M36.62,20.06H50.08L48.67,37H46.26l1.26-15H39.19L42,54.55h2.79l1.28-15h2.4L47,56.47H39.71Z"/><path id="パス_12" data-name="パス 12" class="cls-1" d="M164.92,38.42V51.67a5,5,0,0,1-4.94,5,4.91,4.91,0,0,1-5-4.57c-.13-3-.08-6-.09-9q0-8.77,0-17.53a5.1,5.1,0,0,1,3.47-5.21,5,5,0,0,1,6.36,3.16,5.28,5.28,0,0,1,.27,1.57Zm-2.22,0V25.34a2.79,2.79,0,0,0-5.57-.4,3.85,3.85,0,0,0,0,.48V51.36c0,.16,0,.32,0,.48a2.78,2.78,0,0,0,2,2.5,2.49,2.49,0,0,0,2.89-.92,4.12,4.12,0,0,0,.64-2.05C162.73,47.06,162.7,42.74,162.7,38.43Z"/><path id="パス_13" data-name="パス 13" class="cls-1" d="M115.4,38.35V51.68a5,5,0,0,1-4.8,4.94,4.88,4.88,0,0,1-5.16-4.17c-.21-2.09-.15-4.22-.16-6.33q0-10.45,0-20.94a5.07,5.07,0,0,1,9.83-1.85,5,5,0,0,1,.29,1.62C115.41,29.42,115.4,33.89,115.4,38.35Zm-2.22,0V25.45a2.87,2.87,0,1,0-5.71-.48,2.09,2.09,0,0,0,0,.5q0,11.67,0,23.32c0,.93,0,1.86,0,2.78a2.82,2.82,0,0,0,2.79,2.87,2.6,2.6,0,0,0,.92-.14,2.9,2.9,0,0,0,2-3V38.38Z"/><path id="パス_14" data-name="パス 14" class="cls-1" d="M175.46,54.18l-5.18-23.85-.18,0a.52.52,0,0,0-.07.25c.09,1.23.27,2.46.27,3.69,0,7.06,0,14.12,0,21.19v1h-2.17V22.33l.45.38-.52-2.64h2.23c.37,1.68.75,3.37,1.11,5.06q2,9.47,4.06,18.92a3.2,3.2,0,0,1,.08.54v9.6Z"/><path id="パス_15" data-name="パス 15" class="cls-1" d="M75.25,38.89l-.35-.46-.15.06,3.86,18H76.36L72.2,37.19l2.49-.12a5.42,5.42,0,0,0,.54-.89,6.14,6.14,0,0,0,.62-2c.07-3,.05-6.09,0-9.13a2.75,2.75,0,0,0-2.48-3h-.49c-1.4,0-2.8,0-4.26,0v-2a49.79,49.79,0,0,1,5.73.05,4.27,4.27,0,0,1,3.56,4.33c0,3.46,0,6.93,0,10.39A4.36,4.36,0,0,1,75.25,38.89Z"/><path id="パス_16" data-name="パス 16" class="cls-1" d="M24.89,20.05h2.4L24.2,56.48H21.79Z"/><path id="パス_17" data-name="パス 17" class="cls-1" d="M124.09,56.48h-2.41l4.16-36.42h2.4Z"/><path id="パス_18" data-name="パス 18" class="cls-1" d="M132.28,20.05h2.41l4.15,36.41h-2.4Z"/><path id="パス_19" data-name="パス 19" class="cls-1" d="M35.26,56.49H32.85L29.77,20.08h2.4Z"/><path id="パス_20" data-name="パス 20" class="cls-1" d="M100.06,20h2.26V56.46h-2.26Z"/><path id="パス_21" data-name="パス 21" class="cls-1" d="M175.93,20.06h2.28V56.48h-2.28Z"/><path id="パス_22" data-name="パス 22" class="cls-1" d="M151.53,56.5h-2.1V20.09h2.1Z"/><path id="パス_23" data-name="パス 23" class="cls-1" d="M143.75,56.49h-2.12v-34h2.12Z"/><path id="パス_24" data-name="パス 24" class="cls-1" d="M59.63,50.93H57.35V20.06h2.28Z"/><path id="パス_25" data-name="パス 25" class="cls-1" d="M117.46,20.05h2.4c.16,1.28.31,2.56.46,3.83l1.05,9.19c.34,3,.57,5.94,1,8.88.51,3.2-.16,6.3-.47,9.44a25.62,25.62,0,0,1-.51,3.37Z"/><path id="パス_26" data-name="パス 26" class="cls-1" d="M130.47,56.48h-2.4l4-34.64h.15c.37,3.23.81,6.46,1.1,9.71a16.7,16.7,0,0,1-.32,3.3c-.4,3.53-.8,7.07-1.21,10.6S130.89,52.79,130.47,56.48Z"/><path id="パス_27" data-name="パス 27" class="cls-1" d="M92.4,22.3c.3,1.4.62,2.8.91,4.2q.54,2.51,1,5a3.27,3.27,0,0,1,.08.7q0,11.94,0,23.86c0,.11,0,.21,0,.38H92.28V22.34Z"/><path id="パス_28" data-name="パス 28" class="cls-1" d="M92.25,20.1a.83.83,0,0,1,.21-.06c2.05-.12,2-.11,2.45,1.86Q97.23,33,99.59,44a3.32,3.32,0,0,1,.09.55c0,3.25,0,6.5-.06,9.76Z"/><path id="パス_29" data-name="パス 29" class="cls-1" d="M68.62,56.47V39.61h2.12V56.47Z"/><path id="パス_30" data-name="パス 30" class="cls-1" d="M83.92,37H82V20.06h2Z"/><path id="パス_31" data-name="パス 31" class="cls-1" d="M68.63,22.44h2.13V36.78H68.63Z"/><path id="パス_32" data-name="パス 32" class="cls-1" d="M82,39.59h2V54.24H82Z"/><path id="パス_33" data-name="パス 33" class="cls-1" d="M43.22,39.19V37.37H54.89v1.82Z"/><path id="パス_34" data-name="パス 34" class="cls-1" d="M147.58,20.08v1.8h-9.76v-1.8Z"/><path id="パス_35" data-name="パス 35" class="cls-1" d="M89,37.38v1.8H82v-1.8Z"/><path id="パス_36" data-name="パス 36" class="cls-1" d="M89,54.68v1.8H82v-1.8Z"/><path id="パス_37" data-name="パス 37" class="cls-1" d="M84.49,21.87V20.06H89v1.81Z"/><path id="パス_38" data-name="パス 38" class="cls-1" d="M60,55a1.59,1.59,0,1,1-1.54-1.64A1.52,1.52,0,0,1,60,54.85Z"/><path id="パス_39" data-name="パス 39" class="cls-1" d="M68.62,39.21v-2h3.25l.42,2Z"/><path id="パス_40" data-name="パス 40" class="cls-1" d="M134.68,45l.18,1.83H132l.15-1.83Z"/></g></g><path d="M26.55,66.69h1.22v1.07h0A1.22,1.22,0,0,1,28,67.4a2.06,2.06,0,0,1,.46-.41,2.8,2.8,0,0,1,.67-.34,2.57,2.57,0,0,1,.85-.13,2.47,2.47,0,0,1,1.29.31,2.42,2.42,0,0,1,.85,1,2.31,2.31,0,0,1,1-1,2.61,2.61,0,0,1,1.23-.31,2.73,2.73,0,0,1,1.3.26,2.06,2.06,0,0,1,.8.68,2.51,2.51,0,0,1,.4,1,5.83,5.83,0,0,1,.11,1.12v4H35.62V69.73a4.57,4.57,0,0,0,0-.75,1.67,1.67,0,0,0-.21-.64,1.12,1.12,0,0,0-.45-.44,1.53,1.53,0,0,0-.76-.17,1.55,1.55,0,0,0-1.35.58,2.58,2.58,0,0,0-.41,1.5v3.75h-1.3V70a8.12,8.12,0,0,0-.05-.9,2.37,2.37,0,0,0-.21-.71,1.12,1.12,0,0,0-.43-.46,1.5,1.5,0,0,0-.76-.17,1.76,1.76,0,0,0-.68.14,1.54,1.54,0,0,0-.57.41A1.87,1.87,0,0,0,28,69a3,3,0,0,0-.15,1v3.57h-1.3Z"/><path d="M38.86,70.12a3.43,3.43,0,0,1,.28-1.4,3.66,3.66,0,0,1,.78-1.15,3.46,3.46,0,0,1,1.16-.77,3.58,3.58,0,0,1,1.43-.28,3.58,3.58,0,0,1,3.37,2.2,3.43,3.43,0,0,1,.28,1.4,3.53,3.53,0,0,1-.28,1.42,3.48,3.48,0,0,1-.77,1.14,3.72,3.72,0,0,1-2.6,1.06,3.58,3.58,0,0,1-1.43-.29,3.46,3.46,0,0,1-1.16-.77,3.51,3.51,0,0,1-1.06-2.56Zm1.39,0a2.78,2.78,0,0,0,.16,1,2.09,2.09,0,0,0,.45.75,2,2,0,0,0,.71.5,2.54,2.54,0,0,0,1.88,0,2,2,0,0,0,.71-.5,2,2,0,0,0,.45-.75,3,3,0,0,0,0-1.93,2,2,0,0,0-.45-.75,2.17,2.17,0,0,0-.71-.5,2.54,2.54,0,0,0-1.88,0,2.17,2.17,0,0,0-.71.5,2.09,2.09,0,0,0-.45.75A2.76,2.76,0,0,0,40.25,70.12Z"/><path d="M47.56,66.69h1.5L51.12,72l2-5.26h1.39l-2.7,6.87H50.36Z"/><path d="M56.91,70.6a1.71,1.71,0,0,0,.19.82,2,2,0,0,0,.52.63,2.31,2.31,0,0,0,.74.41,2.56,2.56,0,0,0,.87.14,2,2,0,0,0,1.06-.28,3.55,3.55,0,0,0,.82-.74l1,.75a3.63,3.63,0,0,1-3.05,1.41,3.85,3.85,0,0,1-1.47-.28,3.13,3.13,0,0,1-1.11-.76,3.38,3.38,0,0,1-.71-1.15,4.13,4.13,0,0,1-.24-1.43,3.7,3.7,0,0,1,.27-1.42,3.52,3.52,0,0,1,.73-1.15,3.41,3.41,0,0,1,1.13-.76,3.67,3.67,0,0,1,1.42-.27,3.41,3.41,0,0,1,1.54.31,3.08,3.08,0,0,1,1,.84,3.27,3.27,0,0,1,.59,1.16,4.87,4.87,0,0,1,.18,1.31v.46Zm4.12-1a2.85,2.85,0,0,0-.14-.8,1.81,1.81,0,0,0-.37-.63,1.7,1.7,0,0,0-.62-.42,2.24,2.24,0,0,0-.86-.15,2.13,2.13,0,0,0-.88.18,2.18,2.18,0,0,0-.67.47,2,2,0,0,0-.43.65,1.76,1.76,0,0,0-.15.7Z"/><path d="M72.28,67.82H70.41v3.12c0,.19,0,.38,0,.57a1.59,1.59,0,0,0,.11.51.79.79,0,0,0,.29.36,1,1,0,0,0,.57.14,2.61,2.61,0,0,0,.48,0,1.1,1.1,0,0,0,.45-.16V73.5a1.7,1.7,0,0,1-.6.19,5.49,5.49,0,0,1-.57,0A2.6,2.6,0,0,1,70,73.53a1.43,1.43,0,0,1-.61-.55,1.69,1.69,0,0,1-.23-.75,7.56,7.56,0,0,1,0-.83V67.82H67.59V66.69H69.1V64.76h1.31v1.93h1.87Z"/><path d="M73.63,70.12a3.43,3.43,0,0,1,.28-1.4,3.8,3.8,0,0,1,.77-1.15,3.65,3.65,0,0,1,2.6-1,3.7,3.7,0,0,1,2.6,1,3.8,3.8,0,0,1,.77,1.15,3.43,3.43,0,0,1,.28,1.4,3.53,3.53,0,0,1-.28,1.42,3.54,3.54,0,0,1-1.94,1.91,3.58,3.58,0,0,1-1.43.29,3.62,3.62,0,0,1-3.37-2.2A3.53,3.53,0,0,1,73.63,70.12Zm1.39,0a2.78,2.78,0,0,0,.16,1,2,2,0,0,0,.45.75,2,2,0,0,0,.71.5,2.54,2.54,0,0,0,1.88,0,2,2,0,0,0,.71-.5,2,2,0,0,0,.45-.75,3,3,0,0,0,0-1.93,2,2,0,0,0-.45-.75,2.17,2.17,0,0,0-.71-.5,2.54,2.54,0,0,0-1.88,0,2.17,2.17,0,0,0-.71.5,2,2,0,0,0-.45.75A2.76,2.76,0,0,0,75,70.12Z"/><path d="M87.18,66.69h1.31v1h0a2.43,2.43,0,0,1,1-.86,3.28,3.28,0,0,1,1.36-.3,3.7,3.7,0,0,1,1.44.27,3.08,3.08,0,0,1,1.1.77,3.47,3.47,0,0,1,.71,1.15,4.32,4.32,0,0,1,0,2.84,3.38,3.38,0,0,1-.71,1.15,3.19,3.19,0,0,1-1.1.76,3.7,3.7,0,0,1-1.44.28,3.15,3.15,0,0,1-1.39-.32,2.32,2.32,0,0,1-1-.84h0v5.07H87.18Zm3.57,1a2.35,2.35,0,0,0-.94.18,2.17,2.17,0,0,0-.71.5,2,2,0,0,0-.45.75,3,3,0,0,0,0,1.93,2,2,0,0,0,.45.75,2,2,0,0,0,.71.5,2.54,2.54,0,0,0,1.88,0,2,2,0,0,0,.71-.5,2,2,0,0,0,.45-.75,3,3,0,0,0,0-1.93,2,2,0,0,0-.45-.75,2.17,2.17,0,0,0-.71-.5A2.35,2.35,0,0,0,90.75,67.73Z"/><path d="M96.62,66.69h1.31v1.06h0a1.7,1.7,0,0,1,.34-.5,2.34,2.34,0,0,1,1.08-.64,2.28,2.28,0,0,1,.63-.09,1.73,1.73,0,0,1,.58.08l0,1.41-.32-.07a1.73,1.73,0,0,0-.32,0,2,2,0,0,0-1.47.53,2.42,2.42,0,0,0-.5,1.67v3.45H96.62Z"/><path d="M101.94,70.12A3.67,3.67,0,0,1,103,67.57a3.67,3.67,0,0,1,1.16-.77,3.63,3.63,0,0,1,1.44-.28,3.65,3.65,0,0,1,2.59,1,3.66,3.66,0,0,1,.78,1.15,3.43,3.43,0,0,1,.28,1.4,3.51,3.51,0,0,1-1.06,2.56,3.72,3.72,0,0,1-2.59,1.06,3.63,3.63,0,0,1-1.44-.29,3.67,3.67,0,0,1-1.16-.77,3.33,3.33,0,0,1-.77-1.14A3.53,3.53,0,0,1,101.94,70.12Zm1.39,0a3,3,0,0,0,.16,1,2.24,2.24,0,0,0,.45.75,2.12,2.12,0,0,0,.71.5,2.4,2.4,0,0,0,.95.18,2.35,2.35,0,0,0,.94-.18,2,2,0,0,0,.71-.5,2.24,2.24,0,0,0,.45-.75,3,3,0,0,0,0-1.93,2.24,2.24,0,0,0-.45-.75,2.17,2.17,0,0,0-.71-.5,2.35,2.35,0,0,0-.94-.18,2.4,2.4,0,0,0-.95.18,2.28,2.28,0,0,0-.71.5,2.24,2.24,0,0,0-.45.75A3,3,0,0,0,103.33,70.12Z"/><path d="M112.59,66.69v7.86c0,.17,0,.4,0,.69a2.19,2.19,0,0,1-.23.82,1.72,1.72,0,0,1-.63.69,2.14,2.14,0,0,1-1.21.29,3,3,0,0,1-.42,0,2.13,2.13,0,0,1-.42-.1l.15-1.2.26.08.27,0a.8.8,0,0,0,.75-.34,1.87,1.87,0,0,0,.21-1v-7.8ZM111,64.22a1,1,0,0,1,1-.95.93.93,0,0,1,.68.28,1,1,0,0,1,0,1.35.93.93,0,0,1-.68.28,1,1,0,0,1-1-1Z"/><path d="M115.93,70.6a1.72,1.72,0,0,0,.2.82,2,2,0,0,0,.51.63,2.43,2.43,0,0,0,.74.41,2.56,2.56,0,0,0,.87.14,1.93,1.93,0,0,0,1.06-.28,3.59,3.59,0,0,0,.83-.74l1,.75a3.63,3.63,0,0,1-3,1.41,3.85,3.85,0,0,1-1.47-.28,3.27,3.27,0,0,1-1.12-.76,3.35,3.35,0,0,1-.7-1.15,3.91,3.91,0,0,1-.25-1.43,3.69,3.69,0,0,1,1-2.57,3.37,3.37,0,0,1,1.12-.76,3.72,3.72,0,0,1,1.43-.27,3.44,3.44,0,0,1,1.54.31,3.08,3.08,0,0,1,1,.84,3.25,3.25,0,0,1,.58,1.16,4.87,4.87,0,0,1,.18,1.31v.46Zm4.12-1a2.53,2.53,0,0,0-.14-.8,1.67,1.67,0,0,0-.37-.63,1.58,1.58,0,0,0-.61-.42,2.31,2.31,0,0,0-.86-.15,2.1,2.1,0,0,0-.88.18,2.23,2.23,0,0,0-.68.47,2.13,2.13,0,0,0-.42.65,1.78,1.78,0,0,0-.16.7Z"/><path d="M128.22,68.52a2.69,2.69,0,0,0-.77-.58,2.42,2.42,0,0,0-1.88,0,1.86,1.86,0,0,0-.67.54,2.4,2.4,0,0,0-.4.78,3.16,3.16,0,0,0-.14.92,2.53,2.53,0,0,0,.16.91,2.12,2.12,0,0,0,.45.75,2,2,0,0,0,.69.5,2.25,2.25,0,0,0,.92.18,2.1,2.1,0,0,0,.94-.2,2.38,2.38,0,0,0,.72-.57l.93.93a2.94,2.94,0,0,1-1.18.81,4.21,4.21,0,0,1-1.43.25,3.78,3.78,0,0,1-1.45-.27,3.23,3.23,0,0,1-1.14-.73,3.13,3.13,0,0,1-.74-1.13,4.23,4.23,0,0,1,0-2.92,3.21,3.21,0,0,1,1.86-1.89,3.85,3.85,0,0,1,1.47-.27,3.93,3.93,0,0,1,1.45.27,3.22,3.22,0,0,1,1.19.82Z"/><path d="M134.55,67.82h-1.87v3.12c0,.19,0,.38,0,.57a1.36,1.36,0,0,0,.11.51.73.73,0,0,0,.29.36,1,1,0,0,0,.57.14,2.8,2.8,0,0,0,.48,0,1.21,1.21,0,0,0,.45-.16V73.5a1.83,1.83,0,0,1-.61.19,5.07,5.07,0,0,1-.57,0,2.66,2.66,0,0,1-1.17-.21,1.46,1.46,0,0,1-.6-.55,1.84,1.84,0,0,1-.24-.75c0-.27,0-.55,0-.83V67.82h-1.51V66.69h1.51V64.76h1.3v1.93h1.87Z"/><path d="M140.84,66.69h1.31v1h0a2.45,2.45,0,0,1,1-.86,3.23,3.23,0,0,1,1.35-.3,3.7,3.7,0,0,1,1.44.27,3.21,3.21,0,0,1,1.11.77,3.62,3.62,0,0,1,.7,1.15,4.16,4.16,0,0,1,0,2.84,3.51,3.51,0,0,1-.7,1.15,3.32,3.32,0,0,1-1.11.76,3.7,3.7,0,0,1-1.44.28,3.15,3.15,0,0,1-1.39-.32,2.32,2.32,0,0,1-1-.84h0v5.07h-1.31Zm3.57,1a2.35,2.35,0,0,0-.94.18,2.17,2.17,0,0,0-.71.5,2.09,2.09,0,0,0-.45.75,3,3,0,0,0,0,1.93,2.09,2.09,0,0,0,.45.75,2,2,0,0,0,.71.5,2.54,2.54,0,0,0,1.88,0,2,2,0,0,0,.71-.5,2,2,0,0,0,.45-.75,3,3,0,0,0,0-1.93,2,2,0,0,0-.45-.75,2.17,2.17,0,0,0-.71-.5A2.35,2.35,0,0,0,144.41,67.73Z"/><path d="M150,67.53a3.69,3.69,0,0,1,1.28-.76,4.34,4.34,0,0,1,1.45-.25,4.21,4.21,0,0,1,1.3.18,2.63,2.63,0,0,1,.89.51,2,2,0,0,1,.51.73,2.36,2.36,0,0,1,.17.87v3.5c0,.25,0,.47,0,.67s0,.4.05.58h-1.16c0-.35-.05-.69-.05-1h0a2.52,2.52,0,0,1-1,.94,3.33,3.33,0,0,1-1.38.28,3.46,3.46,0,0,1-.92-.13,2.21,2.21,0,0,1-.76-.4,1.88,1.88,0,0,1-.51-.64,1.94,1.94,0,0,1-.19-.89,2,2,0,0,1,.3-1.12,2.29,2.29,0,0,1,.81-.73,3.77,3.77,0,0,1,1.2-.41,8.58,8.58,0,0,1,1.47-.12h1V69a1.34,1.34,0,0,0-.1-.52A1.45,1.45,0,0,0,154,68a1.52,1.52,0,0,0-.51-.34,2,2,0,0,0-.73-.12,2.62,2.62,0,0,0-.66.07,3,3,0,0,0-.51.18,1.75,1.75,0,0,0-.42.26l-.36.27Zm3.69,2.73a7.66,7.66,0,0,0-1,0,3.88,3.88,0,0,0-.89.19,1.65,1.65,0,0,0-.65.41.92.92,0,0,0-.26.67,1,1,0,0,0,.4.85,2,2,0,0,0,1.08.26,2.13,2.13,0,0,0,.92-.18A1.81,1.81,0,0,0,154,72a1.9,1.9,0,0,0,.33-.65,2.42,2.42,0,0,0,.1-.7v-.43Z"/><path d="M164.69,73.5a3.64,3.64,0,0,1-.26,1.43,3.26,3.26,0,0,1-2,1.85,4.48,4.48,0,0,1-1.54.26,5.78,5.78,0,0,1-1.81-.27,4.52,4.52,0,0,1-1.55-1l.88-1.1a3.84,3.84,0,0,0,1.1.83,3.11,3.11,0,0,0,1.35.28,3,3,0,0,0,1.2-.21,2.13,2.13,0,0,0,.77-.54,2,2,0,0,0,.39-.76,3.19,3.19,0,0,0,.12-.86v-1h0a2.29,2.29,0,0,1-1,.92,3.16,3.16,0,0,1-1.35.3,3.6,3.6,0,0,1-1.4-.27,3.43,3.43,0,0,1-1.11-.74,3.27,3.27,0,0,1-.72-1.12,3.57,3.57,0,0,1-.27-1.4,4.1,4.1,0,0,1,.25-1.41,3.45,3.45,0,0,1,.7-1.15,3.21,3.21,0,0,1,1.11-.77,3.7,3.7,0,0,1,1.44-.27,3.23,3.23,0,0,1,1.35.3,2.45,2.45,0,0,1,1,.86h0v-1h1.3Zm-3.56-5.77a2.35,2.35,0,0,0-.94.18,2.32,2.32,0,0,0-.72.5,2.07,2.07,0,0,0-.44.75,2.76,2.76,0,0,0-.16,1,2.33,2.33,0,0,0,.6,1.68,2.21,2.21,0,0,0,1.66.63,2.19,2.19,0,0,0,1.65-.63,2.3,2.3,0,0,0,.61-1.68,2.76,2.76,0,0,0-.16-1,2.24,2.24,0,0,0-.45-.75,2.17,2.17,0,0,0-.71-.5A2.35,2.35,0,0,0,161.13,67.73Z"/><path d="M167.94,70.6a1.72,1.72,0,0,0,.2.82,2,2,0,0,0,.51.63,2.43,2.43,0,0,0,.74.41,2.56,2.56,0,0,0,.87.14,1.93,1.93,0,0,0,1.06-.28,3.59,3.59,0,0,0,.83-.74l1,.75a3.62,3.62,0,0,1-3,1.41,3.85,3.85,0,0,1-1.47-.28,3.27,3.27,0,0,1-1.12-.76,3.35,3.35,0,0,1-.7-1.15,3.91,3.91,0,0,1-.25-1.43,3.7,3.7,0,0,1,.27-1.42,3.55,3.55,0,0,1,.74-1.15,3.37,3.37,0,0,1,1.12-.76,3.7,3.7,0,0,1,1.42-.27,3.45,3.45,0,0,1,1.55.31,3,3,0,0,1,1,.84,3.27,3.27,0,0,1,.59,1.16,4.87,4.87,0,0,1,.18,1.31v.46Zm4.12-1a2.85,2.85,0,0,0-.14-.8,1.7,1.7,0,0,0-1-1.05,2.33,2.33,0,0,0-.87-.15,2.08,2.08,0,0,0-.87.18,2.23,2.23,0,0,0-.68.47,2.37,2.37,0,0,0-.43.65,1.76,1.76,0,0,0-.15.7Z"/></g></svg>