<svg id="layer1" xmlns="http://www.w3.org/2000/svg" viewBox="0 0 40 40"><defs><style>.cls-1{fill:none;stroke:#3a372f;stroke-miterlimit:10;}.cls-2{fill:#3a372f;}</style></defs><title>food-dinner</title><path class="cls-1" d="M9,1H27a1,1,0,0,1,1,1V37a2,2,0,0,1-2,2H10a2,2,0,0,1-2-2V2A1,1,0,0,1,9,1Z"/><line class="cls-1" x1="8" y1="34.41" x2="28" y2="34.41"/><path class="cls-1" d="M8,20.84s4.1,1.37,4.1,7.47v6.1"/><path class="cls-1" d="M28,20.92s-4.1,1.37-4.1,7.47V34.5"/><path class="cls-1" d="M28,8.59h5a3,3,0,0,1,3,3v14a3,3,0,0,1-3,3H28"/><path class="cls-1" d="M28,11.59h4a1,1,0,0,1,1,1v12a1,1,0,0,1-1,1H28"/><rect class="cls-2" x="12" y="8.9" width="12" height="6"/></svg>