<svg id="layer1" xmlns="http://www.w3.org/2000/svg" viewBox="0 0 352 92"><defs><style>.cls-1{fill:#fff;}</style></defs><path class="cls-1" d="M136.08,72.67,141.23,78a9.91,9.91,0,0,0,2.16,1.78,4.6,4.6,0,0,0,1.8.54v.39h-6.65v-.39a1.37,1.37,0,0,0,.86-.21.58.58,0,0,0,.27-.46,1.11,1.11,0,0,0-.1-.46,4.21,4.21,0,0,0-.64-.75l-4.82-4.93v4.65a4.87,4.87,0,0,0,.13,1.44.94.94,0,0,0,.43.46,1.88,1.88,0,0,0,.94.26h.47v.39h-6v-.39h.5a1.48,1.48,0,0,0,1.25-.52,3.29,3.29,0,0,0,.25-1.64V68.8a5,5,0,0,0-.13-1.45,1,1,0,0,0-.43-.45,1.87,1.87,0,0,0-.94-.25h-.5v-.4h6v.4h-.47a2,2,0,0,0-.94.24.89.89,0,0,0-.44.51,5.18,5.18,0,0,0-.12,1.4v4.42q.19-.21,1.41-1.35A31.23,31.23,0,0,0,139.21,68a1.4,1.4,0,0,0,.28-.75.57.57,0,0,0-.21-.43,1.18,1.18,0,0,0-.74-.18h-.31v-.4h5.12v.4a3,3,0,0,0-.82.12,4.07,4.07,0,0,0-.91.46,9.24,9.24,0,0,0-1.31,1.07c-.16.15-.85.87-2.09,2.18Z"/><path class="cls-1" d="M159.7,66.25h4.87v.4h-.27a2,2,0,0,0-.78.24,3,3,0,0,0-.94.7,9.69,9.69,0,0,0-1,1.49l-3.37,5.48v3.61a3,3,0,0,0,.29,1.66,1.55,1.55,0,0,0,1.24.45h.45v.39h-5.93v-.39h.49a1.41,1.41,0,0,0,1.26-.56,3.28,3.28,0,0,0,.23-1.55V74.76l-3.83-6a14.67,14.67,0,0,0-.92-1.33,3.74,3.74,0,0,0-1-.64,1.35,1.35,0,0,0-.6-.1v-.4h6v.4h-.31a1.69,1.69,0,0,0-.89.23.77.77,0,0,0-.41.7,3.35,3.35,0,0,0,.63,1.38l2.91,4.65,2.74-4.44a3.43,3.43,0,0,0,.62-1.49.94.94,0,0,0-.15-.53,1,1,0,0,0-.43-.37,2,2,0,0,0-.83-.13Z"/><path class="cls-1" d="M177.23,65.92a6.25,6.25,0,0,1,4.71,2.13,7.56,7.56,0,0,1,2,5.33,7.71,7.71,0,0,1-2,5.45,6.56,6.56,0,0,1-9.7,0,7.71,7.71,0,0,1-2-5.47,7.39,7.39,0,0,1,2.26-5.6A6.55,6.55,0,0,1,177.23,65.92Zm-.2.78a3.66,3.66,0,0,0-3,1.43,8.35,8.35,0,0,0-1.41,5.24,8.73,8.73,0,0,0,1.47,5.43,3.56,3.56,0,0,0,3,1.45,4,4,0,0,0,3.25-1.59,8,8,0,0,0,1.28-5,8.92,8.92,0,0,0-1.41-5.51A3.75,3.75,0,0,0,177,66.7Z"/><path class="cls-1" d="M202.13,66.25l.16,3.38h-.39a4.29,4.29,0,0,0-.31-1.27,2.09,2.09,0,0,0-.85-.91,2.83,2.83,0,0,0-1.4-.29h-2v11a3,3,0,0,0,.28,1.66,1.5,1.5,0,0,0,1.2.45h.48v.39h-5.91v-.39h.49a1.41,1.41,0,0,0,1.26-.56,3.32,3.32,0,0,0,.22-1.55v-11h-1.68a4.54,4.54,0,0,0-1.39.15,1.9,1.9,0,0,0-.91.77,3.16,3.16,0,0,0-.46,1.55h-.39l.17-3.38Z"/><path class="cls-1" d="M215.16,65.92a6.22,6.22,0,0,1,4.71,2.13,7.52,7.52,0,0,1,2,5.33,7.71,7.71,0,0,1-2,5.45,6.56,6.56,0,0,1-9.7,0,7.71,7.71,0,0,1-2-5.47,7.4,7.4,0,0,1,2.27-5.6A6.55,6.55,0,0,1,215.16,65.92Zm-.19.78a3.66,3.66,0,0,0-3,1.43,8.35,8.35,0,0,0-1.41,5.24A8.8,8.8,0,0,0,212,78.8a3.59,3.59,0,0,0,3,1.45,4,4,0,0,0,3.25-1.59,8,8,0,0,0,1.28-5,8.92,8.92,0,0,0-1.41-5.51A3.75,3.75,0,0,0,215,66.7Z"/><path class="cls-1" d="M29.85,42a6.31,6.31,0,0,1-5.43-2.61c-.6-.86-1.3-2.64-1.3-6.27V11h1.23V33.07c0,3.62.75,5.09,1.08,5.55a5,5,0,0,0,4.42,2.09,5,5,0,0,0,4.47-2.11c.32-.44,1.06-1.85,1.06-5.53V11h1.23V33.07c0,3.7-.7,5.45-1.29,6.26A6.33,6.33,0,0,1,29.85,42Z"/><path class="cls-1" d="M29.85,48.69A13.57,13.57,0,0,1,16,34.66V11h5.14V33.07c0,3.35.56,5.85,1.67,7.42a8.24,8.24,0,0,0,7,3.44,8.27,8.27,0,0,0,7.07-3.44c1.11-1.52,1.67-4,1.67-7.42V11h5.14V34.66a13.57,13.57,0,0,1-3.68,9.76A13.76,13.76,0,0,1,29.85,48.69Z"/><polygon class="cls-1" points="58.17 48.69 58.17 11 85.16 36.15 85.16 11 90.29 11 90.29 48.69 63.31 23.62 63.31 48.69 58.17 48.69"/><polygon class="cls-1" points="303.88 48.69 303.88 11 330.86 36.15 330.86 11 336 11 336 48.69 309.02 23.62 309.02 48.69 303.88 48.69"/><polygon class="cls-1" points="126.04 48.69 112.1 31.47 110.56 33.01 110.56 48.69 105.42 48.69 105.42 11 110.56 11 110.56 26.77 125.94 11 132.75 11 115.76 28.01 132.94 48.69 126.04 48.69"/><path class="cls-1" d="M214.79,42.14a11.55,11.55,0,0,1-8.32-3.49,11.7,11.7,0,0,1-3.6-8.89,11.66,11.66,0,0,1,3.5-8.66,12.14,12.14,0,0,1,17.11,0A11.87,11.87,0,0,1,227,29.86a11.89,11.89,0,0,1-3.52,8.74A11.6,11.6,0,0,1,214.79,42.14Zm.14-23.33A10.31,10.31,0,0,0,207.24,22a10.49,10.49,0,0,0-3.14,7.78,10.52,10.52,0,0,0,3.23,8,10.75,10.75,0,0,0,15.22,0,10.69,10.69,0,0,0,3.16-7.87A10.69,10.69,0,0,0,222.6,22,10.21,10.21,0,0,0,214.93,18.81Z"/><path class="cls-1" d="M214.72,48.69a18.84,18.84,0,0,1-12.65-4.88,17.91,17.91,0,0,1-6.16-14.12,17.89,17.89,0,0,1,5.62-13.18A18.59,18.59,0,0,1,215,11a18.25,18.25,0,0,1,13.33,5.56,18.25,18.25,0,0,1,5.58,13.35,18,18,0,0,1-5.6,13.29A18.82,18.82,0,0,1,214.72,48.69Zm.21-33.09a13.55,13.55,0,0,0-10,4.11,13.72,13.72,0,0,0-4.06,10.05,13.78,13.78,0,0,0,4.21,10.32A14,14,0,0,0,224.84,40a14,14,0,0,0,4.09-10.14,13.91,13.91,0,0,0-4.05-10.15A13.39,13.39,0,0,0,214.93,15.6Z"/><polygon class="cls-1" points="241.21 11 246.79 11 256.98 35.13 267.55 11.48 277.38 35.13 288.2 11 293.78 11 277.15 48.66 267.45 25.34 257.02 48.69 241.21 11"/><polygon class="cls-1" points="264.23 11 257.06 26.71 250.29 11 248.95 11 257.03 29.76 265.59 11 264.23 11"/><polygon class="cls-1" points="284.67 11 277.49 26.68 270.84 11 269.5 11 277.45 29.74 286.02 11 284.67 11"/><polygon class="cls-1" points="327.65 11 327.65 28.54 308.82 11 307.01 11 328.88 31.38 328.88 11 327.65 11"/><polygon class="cls-1" points="177.63 11 158.8 28.54 158.8 11 157.56 11 157.56 31.38 179.44 11 177.63 11"/><polygon class="cls-1" points="81.94 11 81.94 28.54 63.11 11 61.3 11 83.17 31.38 83.17 11 81.94 11"/><polygon class="cls-1" points="66.52 48.69 66.52 31.21 85.34 48.69 87.16 48.69 65.29 28.37 65.29 48.69 66.52 48.69"/><polygon class="cls-1" points="137.12 48.69 120.11 28.21 137.29 11 135.54 11 118.44 28.14 135.51 48.69 137.12 48.69"/><polygon class="cls-1" points="260.54 48.69 267.34 33.46 273.68 48.69 275.02 48.69 267.38 30.34 259.19 48.69 260.54 48.69"/><polygon class="cls-1" points="312.23 48.69 312.23 31.21 331.05 48.69 332.87 48.69 311 28.37 311 48.69 312.23 48.69"/><polygon class="cls-1" points="121.45 11 113.78 18.87 113.78 11 112.54 11 112.54 21.9 123.18 11 121.45 11"/><polygon class="cls-1" points="113.78 48.69 113.78 38.66 121.9 48.69 123.49 48.69 112.54 35.16 112.54 48.69 113.78 48.69"/><polygon class="cls-1" points="155.4 48.69 174.21 31.21 174.21 48.69 175.45 48.69 175.45 28.37 153.58 48.69 155.4 48.69"/><polygon class="cls-1" points="151.68 45.86 151.68 11 150.45 11 150.45 48.69 177.43 23.62 177.43 48.69 178.67 48.69 178.67 23.62 178.67 20.79 176.59 22.72 151.68 45.86"/><polygon class="cls-1" points="155.58 11 154.35 11 154.35 36.15 154.35 38.98 156.43 37.05 181.33 13.84 181.33 48.69 182.57 48.69 182.57 11 155.58 36.15 155.58 11"/></svg>