<svg xmlns="http://www.w3.org/2000/svg" viewBox="0 0 320 80"><defs><style>.cls-1{fill:#3a372f;}</style></defs><title>footer-logo</title><g id="レイヤー_1" data-name="レイヤー 1"><path class="cls-1" d="M122.58,64.27l4.82,4.91a8.9,8.9,0,0,0,2,1.65,4.32,4.32,0,0,0,1.68.5v.36h-6.22v-.36a1.36,1.36,0,0,0,.8-.19.55.55,0,0,0,.25-.43,1,1,0,0,0-.09-.43,4.51,4.51,0,0,0-.61-.7L120.73,65v4.31a4.79,4.79,0,0,0,.12,1.35.91.91,0,0,0,.41.42,1.7,1.7,0,0,0,.87.24h.45v.36H117v-.36h.46a1.37,1.37,0,0,0,1.18-.49,3,3,0,0,0,.23-1.52V60.68a4.93,4.93,0,0,0-.12-1.36,1,1,0,0,0-.4-.41,1.78,1.78,0,0,0-.89-.24H117v-.36h5.58v.36h-.45a1.83,1.83,0,0,0-.87.23.84.84,0,0,0-.42.47,4.62,4.62,0,0,0-.11,1.31v4.09l1.32-1.25a30.14,30.14,0,0,0,3.46-3.58,1.29,1.29,0,0,0,.26-.7.51.51,0,0,0-.2-.4,1.07,1.07,0,0,0-.68-.17h-.3v-.36h4.8v.36a3,3,0,0,0-.77.12,3.85,3.85,0,0,0-.85.42,8.86,8.86,0,0,0-1.23,1c-.15.13-.8.81-2,2Z"/><path class="cls-1" d="M144.72,58.31h4.56v.36H149a1.94,1.94,0,0,0-.73.23,2.87,2.87,0,0,0-.88.65,8.43,8.43,0,0,0-1,1.38L143.29,66v3.35a2.68,2.68,0,0,0,.27,1.54,1.45,1.45,0,0,0,1.16.42h.42v.36h-5.56v-.36H140a1.32,1.32,0,0,0,1.18-.51,3.16,3.16,0,0,0,.21-1.45V66.2l-3.59-5.6a12.23,12.23,0,0,0-.86-1.24,3.57,3.57,0,0,0-.94-.59,1.22,1.22,0,0,0-.56-.1v-.36h5.6v.36h-.29a1.65,1.65,0,0,0-.84.22.7.7,0,0,0-.38.65,3.13,3.13,0,0,0,.59,1.28l2.73,4.32L145.46,61a3.06,3.06,0,0,0,.58-1.38.88.88,0,0,0-.14-.49,1,1,0,0,0-.4-.35,2,2,0,0,0-.78-.12Z"/><path class="cls-1" d="M161.15,58a5.85,5.85,0,0,1,4.41,2,6.91,6.91,0,0,1,1.87,4.94A7.14,7.14,0,0,1,165.55,70a6.21,6.21,0,0,1-9.1.05A7.18,7.18,0,0,1,154.61,65a6.82,6.82,0,0,1,2.13-5.2A6.17,6.17,0,0,1,161.15,58Zm-.18.72a3.44,3.44,0,0,0-2.82,1.33,7.69,7.69,0,0,0-1.32,4.86,8.05,8.05,0,0,0,1.37,5A3.36,3.36,0,0,0,161,71.3a3.77,3.77,0,0,0,3-1.47,7.3,7.3,0,0,0,1.2-4.64,8.28,8.28,0,0,0-1.32-5.13A3.55,3.55,0,0,0,161,58.72Z"/><path class="cls-1" d="M184.5,58.31l.15,3.14h-.37a3.91,3.91,0,0,0-.29-1.19,2,2,0,0,0-.8-.84,2.7,2.7,0,0,0-1.3-.27H180V69.37a2.8,2.8,0,0,0,.26,1.54,1.43,1.43,0,0,0,1.13.42h.46v.36h-5.55v-.36h.46a1.33,1.33,0,0,0,1.18-.51,3.16,3.16,0,0,0,.21-1.45V59.15h-1.57a4.46,4.46,0,0,0-1.31.13,1.89,1.89,0,0,0-.86.72,3,3,0,0,0-.42,1.45h-.37l.16-3.14Z"/><path class="cls-1" d="M196.72,58a5.85,5.85,0,0,1,4.41,2A6.91,6.91,0,0,1,203,64.92,7.18,7.18,0,0,1,201.12,70a6,6,0,0,1-4.56,2A6,6,0,0,1,192,70,7.18,7.18,0,0,1,190.18,65a6.82,6.82,0,0,1,2.13-5.2A6.14,6.14,0,0,1,196.72,58Zm-.19.72a3.45,3.45,0,0,0-2.82,1.33,7.69,7.69,0,0,0-1.32,4.86,8.12,8.12,0,0,0,1.37,5,3.37,3.37,0,0,0,2.78,1.34,3.77,3.77,0,0,0,3.05-1.47,7.3,7.3,0,0,0,1.2-4.64,8.28,8.28,0,0,0-1.32-5.13A3.56,3.56,0,0,0,196.53,58.72Z"/><path class="cls-1" d="M23,35.74a5.9,5.9,0,0,1-5.09-2.43c-.57-.79-1.23-2.44-1.23-5.81V7h1.16V27.5c0,3.35.71,4.72,1,5.15A4.69,4.69,0,0,0,23,34.59a4.73,4.73,0,0,0,4.18-2c.3-.41,1-1.72,1-5.13V7h1.16V27.5c0,3.43-.67,5-1.22,5.8A5.93,5.93,0,0,1,23,35.74Z"/><path class="cls-1" d="M23,42a12.84,12.84,0,0,1-9.54-4A12.51,12.51,0,0,1,10,29V7h4.81V27.5c0,3.11.53,5.42,1.57,6.88A7.77,7.77,0,0,0,23,37.58a7.8,7.8,0,0,0,6.62-3.19c1-1.42,1.57-3.74,1.57-6.89V7H36V29A12.48,12.48,0,0,1,32.54,38,12.88,12.88,0,0,1,23,42Z"/><polygon class="cls-1" points="49.54 42 49.54 7 74.83 30.35 74.83 7 79.65 7 79.65 42 54.35 18.72 54.35 42 49.54 42"/><polygon class="cls-1" points="279.89 42 279.89 7 305.19 30.35 305.19 7 310 7 310 42 284.7 18.72 284.7 42 279.89 42"/><polygon class="cls-1" points="113.16 42 100.09 26.01 98.65 27.44 98.65 42 93.83 42 93.83 7 98.65 7 98.65 21.64 113.07 7 119.45 7 103.52 22.8 119.63 42 113.16 42"/><path class="cls-1" d="M196.36,35.92a10.83,10.83,0,0,1-7.79-3.25,10.76,10.76,0,0,1-3.38-8.25A11.18,11.18,0,0,1,196.5,13.11a10.71,10.71,0,0,1,8,3.28,10.93,10.93,0,0,1,3.25,8.12,11.24,11.24,0,0,1-11.4,11.41Zm.14-21.67a10,10,0,0,0-10.15,10.17,10.14,10.14,0,0,0,17.29,7.4,9.85,9.85,0,0,0,3-7.31,9.85,9.85,0,0,0-2.92-7.32A9.59,9.59,0,0,0,196.5,14.25Z"/><path class="cls-1" d="M196.3,42a17.75,17.75,0,0,1-11.86-4.53,16.59,16.59,0,0,1-5.78-13.11,16.52,16.52,0,0,1,5.28-12.24A17.49,17.49,0,0,1,196.57,7a17.21,17.21,0,0,1,12.49,5.16,16.85,16.85,0,0,1,5.23,12.4A16.58,16.58,0,0,1,209,36.9,17.72,17.72,0,0,1,196.3,42Zm.2-30.73a13,13,0,0,0-13.17,13.15,12.66,12.66,0,0,0,4,9.58,13.16,13.16,0,0,0,18.49-.07,12.93,12.93,0,0,0,3.84-9.42,12.86,12.86,0,0,0-3.79-9.42A12.62,12.62,0,0,0,196.5,11.27Z"/><polygon class="cls-1" points="221.14 7 226.36 7 235.91 29.4 245.83 7.45 255.05 29.41 265.19 7 270.42 7 254.83 41.97 245.73 20.32 235.96 42 221.14 7"/><polygon class="cls-1" points="242.72 7 235.99 21.59 229.65 7 228.39 7 235.96 24.42 243.99 7 242.72 7"/><polygon class="cls-1" points="261.88 7 255.15 21.56 248.91 7 247.66 7 255.11 24.4 263.15 7 261.88 7"/><polygon class="cls-1" points="302.17 7 302.17 23.29 284.52 7 282.82 7 303.33 25.93 303.33 7 302.17 7"/><polygon class="cls-1" points="161.52 7 143.87 23.29 143.87 7 142.72 7 142.72 25.93 163.22 7 161.52 7"/><polygon class="cls-1" points="71.82 7 71.82 23.29 54.17 7 52.47 7 72.97 25.93 72.97 7 71.82 7"/><polygon class="cls-1" points="57.37 42 57.37 25.77 75.01 42 76.71 42 56.21 23.13 56.21 42 57.37 42"/><polygon class="cls-1" points="123.55 42 107.6 22.98 123.71 7 122.07 7 106.03 22.91 122.04 42 123.55 42"/><polygon class="cls-1" points="239.26 42 245.63 27.86 251.58 42 252.83 42 245.67 24.96 237.99 42 239.26 42"/><polygon class="cls-1" points="287.72 42 287.72 25.77 305.36 42 307.06 42 286.56 23.13 286.56 42 287.72 42"/><polygon class="cls-1" points="108.86 7 101.67 14.3 101.67 7 100.51 7 100.51 17.12 110.48 7 108.86 7"/><polygon class="cls-1" points="101.67 42 101.67 32.68 109.28 42 110.77 42 100.51 29.44 100.51 42 101.67 42"/><polygon class="cls-1" points="140.68 42 158.32 25.77 158.32 42 159.48 42 159.48 23.13 138.98 42 140.68 42"/><polygon class="cls-1" points="137.2 39.37 137.2 7 136.04 7 136.04 42 161.34 18.72 161.34 42 162.5 42 162.5 18.72 162.5 16.09 160.55 17.88 137.2 39.37"/><polygon class="cls-1" points="140.86 7 139.7 7 139.7 30.35 139.7 32.99 141.65 31.19 165 9.64 165 42 166.16 42 166.16 7 140.86 30.35 140.86 7"/></g></svg>