<svg xmlns="http://www.w3.org/2000/svg" viewBox="0 0 188 44"><defs><style>.cls-1{fill:#7e0f09;}</style></defs><title>header-logo-lower</title><g id="レイヤー_1" data-name="レイヤー 1"><path class="cls-1" d="M71.73,36.59l2.87,2.8a5.17,5.17,0,0,0,1.21.94,2.66,2.66,0,0,0,1,.29v.21H73.1v-.21a.85.85,0,0,0,.48-.11.33.33,0,0,0,.15-.25.48.48,0,0,0-.06-.24,2.32,2.32,0,0,0-.36-.4L70.62,37v2.46a2.47,2.47,0,0,0,.08.77.55.55,0,0,0,.24.24,1.07,1.07,0,0,0,.52.14h.27v.21H68.41v-.21h.27a.85.85,0,0,0,.7-.28,1.71,1.71,0,0,0,.14-.87V34.53a2.61,2.61,0,0,0-.07-.77.49.49,0,0,0-.24-.23,1,1,0,0,0-.53-.14h-.27v-.21h3.32v.21h-.27a1.08,1.08,0,0,0-.52.13.51.51,0,0,0-.25.27,2.74,2.74,0,0,0-.07.74v2.34l.79-.71a16.16,16.16,0,0,0,2.06-2,.69.69,0,0,0,.16-.39.28.28,0,0,0-.12-.23.63.63,0,0,0-.41-.1h-.18v-.21h2.86v.21a1.64,1.64,0,0,0-.46.07,2.2,2.2,0,0,0-.5.24,5.12,5.12,0,0,0-.74.57l-1.16,1.15Z"/><path class="cls-1" d="M84.9,33.18h2.72v.21h-.15a1.17,1.17,0,0,0-.44.13,1.84,1.84,0,0,0-.52.37,5.06,5.06,0,0,0-.58.79l-1.88,2.9V39.5a1.57,1.57,0,0,0,.16.88.9.9,0,0,0,.69.24h.26v.21H81.85v-.21h.27a.78.78,0,0,0,.7-.3A1.59,1.59,0,0,0,83,39.5V37.69l-2.14-3.2a7.06,7.06,0,0,0-.51-.71,2.18,2.18,0,0,0-.56-.33.77.77,0,0,0-.34-.06v-.21h3.34v.21h-.18a1,1,0,0,0-.49.12.42.42,0,0,0-.23.38,1.82,1.82,0,0,0,.35.73l1.63,2.46,1.53-2.35a1.87,1.87,0,0,0,.34-.79.57.57,0,0,0-.08-.29.65.65,0,0,0-.24-.19,1.16,1.16,0,0,0-.47-.07Z"/><path class="cls-1" d="M94.68,33a3.53,3.53,0,0,1,2.63,1.13A3.85,3.85,0,0,1,98.42,37a4,4,0,0,1-1.12,2.89,3.79,3.79,0,0,1-5.41,0,4,4,0,0,1-1.1-2.9,3.86,3.86,0,0,1,1.27-3A3.78,3.78,0,0,1,94.68,33Zm-.11.41a2.06,2.06,0,0,0-1.67.76A4.2,4.2,0,0,0,92.11,37a4.43,4.43,0,0,0,.82,2.88,2,2,0,0,0,1.65.77,2.27,2.27,0,0,0,1.81-.84,4,4,0,0,0,.72-2.65,4.55,4.55,0,0,0-.79-2.93A2.13,2.13,0,0,0,94.57,33.42Z"/><path class="cls-1" d="M108.58,33.18l.09,1.79h-.22a2.11,2.11,0,0,0-.17-.67,1.15,1.15,0,0,0-.47-.48,1.61,1.61,0,0,0-.78-.16h-1.1V39.5a1.59,1.59,0,0,0,.15.88.88.88,0,0,0,.68.24H107v.21h-3.31v-.21H104a.79.79,0,0,0,.7-.3,1.7,1.7,0,0,0,.13-.82V33.66h-.94a2.84,2.84,0,0,0-.78.08,1.1,1.1,0,0,0-.51.41,1.69,1.69,0,0,0-.25.82h-.22l.09-1.79Z"/><path class="cls-1" d="M115.85,33a3.53,3.53,0,0,1,2.63,1.13A3.85,3.85,0,0,1,119.59,37a4,4,0,0,1-1.12,2.89,3.79,3.79,0,0,1-5.41,0A4,4,0,0,1,112,37a3.86,3.86,0,0,1,1.27-3A3.78,3.78,0,0,1,115.85,33Zm-.1.41a2.06,2.06,0,0,0-1.68.76,4.2,4.2,0,0,0-.79,2.77,4.43,4.43,0,0,0,.82,2.88,2,2,0,0,0,1.65.77,2.27,2.27,0,0,0,1.81-.84,4,4,0,0,0,.72-2.65,4.55,4.55,0,0,0-.79-2.93A2.13,2.13,0,0,0,115.75,33.42Z"/><path class="cls-1" d="M10.88,20.27a3.6,3.6,0,0,1-3.09-1.46,6.06,6.06,0,0,1-.74-3.49V3h.7V15.32a5.52,5.52,0,0,0,.61,3.09,2.85,2.85,0,0,0,2.52,1.17,2.89,2.89,0,0,0,2.54-1.18,5.33,5.33,0,0,0,.6-3.08V3h.7V15.32A6,6,0,0,1,14,18.81,3.62,3.62,0,0,1,10.88,20.27Z"/><path class="cls-1" d="M10.88,24a7.85,7.85,0,0,1-5.79-2.38A7.49,7.49,0,0,1,3,16.2V3H5.92V15.32a7.15,7.15,0,0,0,1,4.13,4.72,4.72,0,0,0,4,1.92,4.74,4.74,0,0,0,4-1.91,7.1,7.1,0,0,0,.95-4.14V3h2.92V16.2a7.49,7.49,0,0,1-2.09,5.45A7.89,7.89,0,0,1,10.88,24Z"/><polygon class="cls-1" points="26.98 24.03 26.98 3 42.33 17.03 42.33 3 45.25 3 45.25 24.03 29.91 10.04 29.91 24.03 26.98 24.03"/><polygon class="cls-1" points="166.73 24.03 166.73 3 182.08 17.03 182.08 3 185 3 185 24.03 169.65 10.04 169.65 24.03 166.73 24.03"/><polygon class="cls-1" points="65.58 24.03 57.66 14.42 56.78 15.28 56.78 24.03 53.86 24.03 53.86 3 56.78 3 56.78 11.8 65.53 3 69.4 3 59.74 12.49 69.51 24.03 65.58 24.03"/><path class="cls-1" d="M116.06,20.38a6.64,6.64,0,0,1-4.73-1.95,6.45,6.45,0,0,1-2-5,6.43,6.43,0,0,1,2-4.83A6.85,6.85,0,0,1,123,13.52a6.59,6.59,0,0,1-2,4.88A6.69,6.69,0,0,1,116.06,20.38Zm.08-13a6,6,0,0,0-4.37,1.76A5.82,5.82,0,0,0,110,13.47a5.78,5.78,0,0,0,1.84,4.46,6.13,6.13,0,0,0,10.45-4.41,6,6,0,0,0-6.13-6.16Z"/><path class="cls-1" d="M116,24a10.79,10.79,0,0,1-7.19-2.72,9.91,9.91,0,0,1-3.51-7.88,9.87,9.87,0,0,1,3.2-7.35A10.65,10.65,0,0,1,116.18,3a10.48,10.48,0,0,1,7.58,3.1,10.07,10.07,0,0,1,3.17,7.45A9.93,9.93,0,0,1,123.75,21,10.85,10.85,0,0,1,116,24Zm.12-18.47a7.78,7.78,0,0,0-5.67,2.3,7.58,7.58,0,0,0-2.32,5.61,7.61,7.61,0,0,0,2.4,5.76,8.07,8.07,0,0,0,11.23-.05,7.73,7.73,0,0,0,2.32-5.66,7.86,7.86,0,0,0-8-8Z"/><polygon class="cls-1" points="131.09 3 134.26 3 140.06 16.46 146.07 3.27 151.66 16.46 157.82 3 160.99 3 151.53 24.02 146.01 11 140.08 24.03 131.09 3"/><polygon class="cls-1" points="144.18 3 140.1 11.77 136.25 3 135.49 3 140.08 13.47 144.96 3 144.18 3"/><polygon class="cls-1" points="155.8 3 151.72 11.75 147.94 3 147.18 3 151.7 13.46 156.58 3 155.8 3"/><polygon class="cls-1" points="180.25 3 180.25 12.79 169.54 3 168.51 3 180.95 14.37 180.95 3 180.25 3"/><polygon class="cls-1" points="94.92 3 84.22 12.79 84.22 3 83.51 3 83.51 14.37 95.95 3 94.92 3"/><polygon class="cls-1" points="40.5 3 40.5 12.79 29.8 3 28.76 3 41.2 14.37 41.2 3 40.5 3"/><polygon class="cls-1" points="31.73 24.03 31.73 14.28 42.44 24.03 43.47 24.03 31.03 12.7 31.03 24.03 31.73 24.03"/><polygon class="cls-1" points="71.89 24.03 62.21 12.61 71.98 3 70.99 3 61.26 12.56 70.97 24.03 71.89 24.03"/><polygon class="cls-1" points="142.08 24.03 145.95 15.53 149.56 24.03 150.32 24.03 145.97 13.79 141.31 24.03 142.08 24.03"/><polygon class="cls-1" points="171.48 24.03 171.48 14.28 182.19 24.03 183.22 24.03 170.78 12.7 170.78 24.03 171.48 24.03"/><polygon class="cls-1" points="62.97 3 58.61 7.39 58.61 3 57.91 3 57.91 9.08 63.96 3 62.97 3"/><polygon class="cls-1" points="58.61 24.03 58.61 18.43 63.23 24.03 64.13 24.03 57.91 16.48 57.91 24.03 58.61 24.03"/><polygon class="cls-1" points="82.28 24.03 92.98 14.28 92.98 24.03 93.69 24.03 93.69 12.7 81.25 24.03 82.28 24.03"/><polygon class="cls-1" points="80.17 22.45 80.17 3 79.47 3 79.47 24.03 94.81 10.04 94.81 24.03 95.52 24.03 95.52 10.04 95.52 8.46 94.33 9.54 80.17 22.45"/><polygon class="cls-1" points="82.39 3 81.69 3 81.69 17.03 81.69 18.62 82.87 17.54 97.03 4.58 97.03 24.03 97.73 24.03 97.73 3 82.39 17.03 82.39 3"/></g></svg>