<svg xmlns="http://www.w3.org/2000/svg" viewBox="0 0 160 160"><defs><style>.cls-1{fill:#d3b471;}.cls-2,.cls-3{fill:none;stroke:#fff;stroke-miterlimit:10;}.cls-3{stroke-dasharray:1 4.99;}</style></defs><title>header-funding</title><g id="レイヤー_1" data-name="レイヤー 1"><path class="cls-1" d="M0,80,80,0l80,80L80,160Z"/><line class="cls-2" x1="80.04" y1="125.56" x2="80.04" y2="139.56"/><polyline class="cls-2" points="87.25 132.32 80.04 139.53 72.83 132.32"/><line class="cls-2" x1="80.04" y1="121.56" x2="80.04" y2="120.56"/><line class="cls-2" x1="80.04" y1="117.56" x2="80.04" y2="116.56"/><line class="cls-2" x1="80.04" y1="113.56" x2="80.04" y2="112.56"/><line class="cls-2" x1="72.92" y1="41.46" x2="72.92" y2="61.12"/><polygon class="cls-2" points="89.16 52.78 72.92 52.78 72.92 41.46 89.16 41.46 85.72 47.12 89.16 52.78"/><line class="cls-2" x1="80" y1="34.7" x2="80" y2="26.35"/><line class="cls-2" x1="85" y1="36.35" x2="90.36" y2="29.95"/><line class="cls-2" x1="75" y1="36.35" x2="69.64" y2="29.95"/><line class="cls-2" x1="77.24" y1="34.93" x2="74.86" y2="30.25"/><line class="cls-2" x1="85.14" y1="30.25" x2="82.76" y2="34.93"/><polyline class="cls-2" points="8.35 80.35 8 80 8.35 79.65"/><line class="cls-3" x1="11.88" y1="76.12" x2="77.88" y2="10.12"/><polyline class="cls-2" points="79.65 8.35 80 8 80.35 8.35"/><line class="cls-3" x1="83.88" y1="11.88" x2="149.88" y2="77.88"/><polyline class="cls-2" points="151.65 79.65 152 80 151.65 80.35"/><line class="cls-3" x1="148.12" y1="83.88" x2="82.12" y2="149.88"/><polyline class="cls-2" points="80.35 151.65 80 152 79.65 151.65"/><line class="cls-3" x1="76.12" y1="148.12" x2="10.12" y2="82.12"/></g></svg>