<svg id="layer1" xmlns="http://www.w3.org/2000/svg" viewBox="0 0 333 191"><defs><style>.cls-1,.cls-4,.cls-5{font-size:15.59px;fill:#4d4d4d;font-family:YuMin-Demibold-83pv-RKSJ-H, YuMincho;}.cls-1{letter-spacing:0.04em;}.cls-2{letter-spacing:0.06em;}.cls-3,.cls-4{letter-spacing:0.02em;}.cls-5{letter-spacing:0.04em;}.cls-6{letter-spacing:0.06em;}.cls-7{letter-spacing:0.02em;}.cls-10,.cls-11,.cls-13,.cls-14,.cls-15,.cls-8,.cls-9{fill:none;}.cls-10,.cls-11,.cls-13,.cls-14,.cls-16,.cls-8,.cls-9{stroke:#ccae6d;}.cls-8{stroke-linecap:round;}.cls-10,.cls-11,.cls-8{stroke-linejoin:round;}.cls-13,.cls-14,.cls-15,.cls-16,.cls-9{stroke-miterlimit:10;}.cls-10{stroke-width:2px;}.cls-11{stroke-width:1.5px;}.cls-12{fill:#ccae6d;}.cls-13{stroke-width:3px;}.cls-14{stroke-width:0.75px;}.cls-15{stroke:#4d4d4d;}.cls-16{fill:#fff;}</style></defs><text class="cls-1" transform="translate(199.84 23.7)">s<tspan class="cls-2" x="7.21" y="0">t</tspan><tspan class="cls-3" x="13.63" y="0">ay</tspan></text><text class="cls-4" transform="translate(167.51 159.75)">eat</text><text class="cls-5" transform="translate(66.71 157.89)">w<tspan class="cls-6" x="12.16" y="0">o</tspan><tspan x="21.66" y="0">r</tspan><tspan class="cls-7" x="28.4" y="0">k</tspan></text><line class="cls-8" x1="89.06" y1="127.85" x2="255.04" y2="127.85"/><line class="cls-9" x1="143.5" y1="127.85" x2="143.5" y2="96.22"/><line class="cls-9" x1="154.81" y1="99.32" x2="154.81" y2="96.22"/><line class="cls-9" x1="177.97" y1="63.17" x2="93.69" y2="63.17"/><line class="cls-9" x1="93.55" y1="123.92" x2="143.5" y2="123.92"/><line class="cls-9" x1="93.7" y1="94.87" x2="166.12" y2="94.87"/><line class="cls-9" x1="93.7" y1="97.7" x2="177.97" y2="97.7"/><line class="cls-9" x1="93.7" y1="102.06" x2="166.07" y2="102.06"/><line class="cls-9" x1="177.97" y1="66.61" x2="93.69" y2="66.61"/><line class="cls-9" x1="177.97" y1="80.21" x2="93.69" y2="80.21"/><line class="cls-9" x1="154.81" y1="102.03" x2="154.81" y2="127.82"/><line class="cls-9" x1="205.76" y1="127.85" x2="205.76" y2="97.7"/><line class="cls-9" x1="250.4" y1="63.17" x2="177.97" y2="63.17"/><polyline class="cls-9" points="205.76 97.7 230.33 97.7 230.33 127.85"/><line class="cls-9" x1="114.76" y1="80.21" x2="114.76" y2="63.17"/><line class="cls-9" x1="135.84" y1="79.95" x2="135.84" y2="63.17"/><line class="cls-9" x1="156.9" y1="80.24" x2="156.9" y2="63.17"/><line class="cls-9" x1="177.97" y1="117.94" x2="205.76" y2="117.94"/><line class="cls-9" x1="250.4" y1="117.94" x2="230.33" y2="117.94"/><line class="cls-9" x1="177.97" y1="94.34" x2="250.4" y2="94.34"/><line class="cls-9" x1="181.27" y1="97.7" x2="181.27" y2="94.34"/><line class="cls-9" x1="184.56" y1="97.7" x2="184.56" y2="94.34"/><line class="cls-9" x1="177.97" y1="97.7" x2="250.4" y2="97.7"/><line class="cls-9" x1="187.85" y1="97.7" x2="187.85" y2="94.34"/><line class="cls-9" x1="191.14" y1="97.7" x2="191.14" y2="94.34"/><line class="cls-9" x1="194.44" y1="97.7" x2="194.44" y2="94.34"/><line class="cls-9" x1="197.73" y1="97.7" x2="197.73" y2="94.34"/><line class="cls-9" x1="201.02" y1="97.7" x2="201.02" y2="94.34"/><line class="cls-9" x1="204.31" y1="97.7" x2="204.31" y2="94.34"/><line class="cls-9" x1="207.61" y1="97.7" x2="207.61" y2="94.34"/><line class="cls-9" x1="210.9" y1="97.7" x2="210.9" y2="94.34"/><line class="cls-9" x1="214.19" y1="97.7" x2="214.19" y2="94.34"/><line class="cls-9" x1="217.48" y1="97.7" x2="217.48" y2="94.34"/><line class="cls-9" x1="220.77" y1="97.7" x2="220.77" y2="94.34"/><line class="cls-9" x1="224.07" y1="97.7" x2="224.07" y2="94.34"/><line class="cls-9" x1="227.36" y1="97.7" x2="227.36" y2="94.34"/><line class="cls-9" x1="230.65" y1="97.7" x2="230.65" y2="94.34"/><line class="cls-9" x1="233.94" y1="97.7" x2="233.94" y2="94.34"/><line class="cls-9" x1="237.23" y1="97.7" x2="237.23" y2="94.34"/><line class="cls-9" x1="240.53" y1="97.7" x2="240.53" y2="94.34"/><line class="cls-9" x1="243.82" y1="97.7" x2="243.82" y2="94.34"/><line class="cls-9" x1="247.11" y1="97.7" x2="247.11" y2="94.34"/><line class="cls-9" x1="166.12" y1="127.85" x2="166.12" y2="83.36"/><line class="cls-10" x1="177.97" y1="127.85" x2="177.97" y2="46.6"/><polyline class="cls-11" points="250.4 127.85 250.4 46.6 93.69 46.6 93.69 127.85"/><line class="cls-9" x1="214.19" y1="46.61" x2="214.19" y2="63.57"/><line class="cls-9" x1="206.95" y1="46.61" x2="206.95" y2="63.57"/><line class="cls-9" x1="199.7" y1="46.61" x2="199.7" y2="63.57"/><line class="cls-9" x1="192.46" y1="46.61" x2="192.46" y2="63.57"/><line class="cls-9" x1="185.22" y1="46.61" x2="185.22" y2="63.57"/><line class="cls-9" x1="243.16" y1="46.61" x2="243.16" y2="63.57"/><line class="cls-9" x1="235.92" y1="46.61" x2="235.92" y2="63.57"/><line class="cls-9" x1="228.67" y1="46.61" x2="228.67" y2="63.57"/><line class="cls-9" x1="221.43" y1="46.61" x2="221.43" y2="63.57"/><line class="cls-9" x1="132" y1="46.6" x2="132" y2="63.32"/><line class="cls-9" x1="124.34" y1="46.6" x2="124.34" y2="63.32"/><line class="cls-9" x1="116.68" y1="46.6" x2="116.68" y2="63.32"/><line class="cls-9" x1="109.02" y1="46.6" x2="109.02" y2="63.32"/><line class="cls-9" x1="162.65" y1="46.6" x2="162.65" y2="63.32"/><line class="cls-9" x1="154.99" y1="46.6" x2="154.99" y2="63.32"/><line class="cls-9" x1="147.33" y1="46.6" x2="147.33" y2="63.32"/><line class="cls-9" x1="139.67" y1="46.6" x2="139.67" y2="63.32"/><line class="cls-9" x1="170.31" y1="46.6" x2="170.31" y2="63.32"/><line class="cls-9" x1="101.36" y1="46.6" x2="101.36" y2="63.32"/><line class="cls-9" x1="124.58" y1="66.61" x2="124.58" y2="80.21"/><line class="cls-9" x1="105.62" y1="66.61" x2="105.62" y2="80.21"/><line class="cls-9" x1="131.3" y1="94.82" x2="131.3" y2="82.73"/><line class="cls-9" x1="143.1" y1="82.18" x2="143.1" y2="94.87"/><line class="cls-9" x1="119.51" y1="94.87" x2="119.51" y2="83.36"/><line class="cls-9" x1="107.71" y1="94.82" x2="107.71" y2="83.94"/><line class="cls-9" x1="107.4" y1="123.89" x2="107.4" y2="96.22"/><line class="cls-9" x1="119.43" y1="123.89" x2="119.43" y2="96.22"/><line class="cls-9" x1="131.46" y1="123.89" x2="131.46" y2="96.22"/><line class="cls-9" x1="154.89" y1="94.76" x2="154.89" y2="82.79"/><line class="cls-9" x1="143.1" y1="82.18" x2="154.89" y2="94.76"/><line class="cls-9" x1="154.89" y1="82.79" x2="166.12" y2="94.87"/><line class="cls-9" x1="131.3" y1="94.82" x2="143.09" y2="82.12"/><line class="cls-9" x1="119.51" y1="94.82" x2="131.3" y2="82.73"/><line class="cls-9" x1="107.71" y1="94.82" x2="119.51" y2="83.31"/><line class="cls-9" x1="95.46" y1="94.82" x2="107.71" y2="83.94"/><line class="cls-9" x1="111.41" y1="107.91" x2="111.41" y2="114.92"/><line class="cls-9" x1="115.42" y1="107.92" x2="115.42" y2="114.93"/><line class="cls-9" x1="123.44" y1="107.92" x2="123.44" y2="114.93"/><line class="cls-9" x1="127.45" y1="107.92" x2="127.45" y2="114.93"/><line class="cls-9" x1="135.47" y1="107.92" x2="135.47" y2="114.93"/><line class="cls-9" x1="139.49" y1="107.92" x2="139.49" y2="114.93"/><line class="cls-9" x1="107.81" y1="104.54" x2="143.91" y2="104.54"/><line class="cls-9" x1="107.81" y1="108.28" x2="143.91" y2="108.28"/><line class="cls-9" x1="107.81" y1="111.59" x2="143.91" y2="111.59"/><line class="cls-9" x1="107.4" y1="114.93" x2="143.5" y2="114.93"/><rect class="cls-12" x="177.97" y="77.64" width="72.43" height="3.34"/><line class="cls-9" x1="177.43" y1="89.09" x2="249.86" y2="89.09"/><line class="cls-9" x1="177.43" y1="86.14" x2="249.86" y2="86.14"/><line class="cls-13" x1="187.03" y1="80.57" x2="187.03" y2="86.77"/><line class="cls-13" x1="200.97" y1="80.26" x2="200.97" y2="86.46"/><line class="cls-13" x1="213.65" y1="80.57" x2="213.65" y2="86.77"/><line class="cls-13" x1="229.48" y1="80.26" x2="229.48" y2="86.46"/><line class="cls-13" x1="241.35" y1="80.57" x2="241.35" y2="86.77"/><line class="cls-9" x1="177.97" y1="66.61" x2="250.4" y2="66.61"/><rect class="cls-9" x="234.89" y="102.89" width="10.24" height="12.66"/><line class="cls-9" x1="237.99" y1="115.55" x2="237.99" y2="102.89"/><line class="cls-9" x1="242.03" y1="115.55" x2="242.03" y2="102.86"/><rect class="cls-9" x="183.37" y="102.89" width="17.7" height="12.65"/><line class="cls-9" x1="186.06" y1="102.89" x2="186.06" y2="115.53"/><line class="cls-9" x1="198.39" y1="102.89" x2="198.39" y2="115.53"/><line class="cls-9" x1="190.98" y1="102.88" x2="190.98" y2="115.52"/><line class="cls-9" x1="193.55" y1="102.88" x2="193.55" y2="115.52"/><line class="cls-9" x1="205.44" y1="66.61" x2="205.44" y2="89.09"/><line class="cls-9" x1="221.72" y1="63.78" x2="221.72" y2="94.19"/><line class="cls-9" x1="191.87" y1="63.57" x2="191.87" y2="94.18"/><line class="cls-9" x1="237.23" y1="63.57" x2="237.23" y2="94.34"/><line class="cls-9" x1="225.41" y1="105.24" x2="225.41" y2="127.85"/><rect class="cls-14" x="145.74" y="104.44" width="6.82" height="20.59"/><rect class="cls-14" x="157.06" y="104.44" width="6.82" height="20.59"/><polyline class="cls-14" points="215.77 105.24 215.77 125.03 208.04 125.03 208.04 105.24"/><polyline class="cls-14" points="223.32 105.24 223.32 125.03 218.04 125.03"/><rect class="cls-14" x="208.04" y="69.18" width="10.86" height="17"/><rect class="cls-14" x="224.5" y="69.18" width="9.99" height="17"/><line class="cls-9" x1="147.6" y1="66.61" x2="147.6" y2="79.81"/><line class="cls-9" x1="166.38" y1="66.61" x2="166.38" y2="80.24"/><rect class="cls-14" x="96.74" y="69.18" width="6.31" height="8.47"/><rect class="cls-14" x="126.74" y="69.18" width="6.93" height="8.47"/><polyline class="cls-14" points="105.19 69.18 112.53 69.18 112.53 77.64 105.19 77.64"/><rect class="cls-14" x="138.25" y="69.18" width="6.93" height="8.47"/><polyline class="cls-14" points="147.17 69.18 154.51 69.18 154.51 77.64 147.17 77.64"/><polyline class="cls-14" points="124.82 69.18 117.49 69.18 117.49 77.64 124.82 77.64"/><rect class="cls-14" x="168.71" y="69.18" width="6.3" height="8.47"/><polyline class="cls-14" points="166.62 69.18 159.29 69.18 159.29 77.64 166.62 77.64"/><rect class="cls-14" x="194.67" y="69.18" width="10.77" height="17"/><path class="cls-9" d="M172.8,92.43a1,1,0,0,1-1,.95h0a1,1,0,0,1-1-.95v-4.7a1,1,0,0,1,1-1h0a1,1,0,0,1,1,1Z"/><line class="cls-9" x1="205.76" y1="101.26" x2="230.33" y2="101.26"/><line class="cls-9" x1="218.04" y1="105.11" x2="218.04" y2="127.85"/><line class="cls-9" x1="210.67" y1="101.49" x2="210.67" y2="105.11"/><line class="cls-9" x1="215.59" y1="101.49" x2="215.59" y2="105.11"/><line class="cls-9" x1="220.5" y1="101.49" x2="220.5" y2="105.11"/><line class="cls-9" x1="225.41" y1="101.49" x2="225.41" y2="105.11"/><line class="cls-9" x1="205.76" y1="105.24" x2="230.33" y2="105.24"/><line class="cls-9" x1="183.37" y1="105.16" x2="186.06" y2="105.16"/><line class="cls-9" x1="183.37" y1="107.19" x2="186.06" y2="107.19"/><line class="cls-9" x1="183.37" y1="109.23" x2="186.06" y2="109.23"/><line class="cls-9" x1="183.37" y1="111.26" x2="186.06" y2="111.26"/><line class="cls-9" x1="183.37" y1="113.3" x2="186.06" y2="113.3"/><line class="cls-9" x1="198.28" y1="105.16" x2="200.97" y2="105.16"/><line class="cls-9" x1="198.28" y1="107.19" x2="200.97" y2="107.19"/><line class="cls-9" x1="198.28" y1="109.23" x2="200.97" y2="109.23"/><line class="cls-9" x1="198.28" y1="111.26" x2="200.97" y2="111.26"/><line class="cls-9" x1="198.28" y1="113.3" x2="200.97" y2="113.3"/><line class="cls-9" x1="235.12" y1="105.15" x2="237.81" y2="105.15"/><line class="cls-9" x1="235.12" y1="107.19" x2="237.81" y2="107.19"/><line class="cls-9" x1="235.12" y1="109.22" x2="237.81" y2="109.22"/><line class="cls-9" x1="235.12" y1="111.26" x2="237.81" y2="111.26"/><line class="cls-9" x1="235.12" y1="113.3" x2="237.81" y2="113.3"/><line class="cls-9" x1="242.23" y1="105.15" x2="244.92" y2="105.15"/><line class="cls-9" x1="242.23" y1="107.19" x2="244.92" y2="107.19"/><line class="cls-9" x1="242.23" y1="109.22" x2="244.92" y2="109.22"/><line class="cls-9" x1="242.23" y1="111.26" x2="244.92" y2="111.26"/><line class="cls-9" x1="242.23" y1="113.3" x2="244.92" y2="113.3"/><rect class="cls-12" x="177.98" y="84.89" width="72.43" height="5"/><line class="cls-15" x1="136.05" y1="122.9" x2="107.49" y2="151.47"/><line class="cls-15" x1="221.76" y1="122.9" x2="193.19" y2="151.47"/><line class="cls-15" x1="195.85" y1="21.5" x2="167.28" y2="50.06"/><path class="cls-12" d="M42.83,161a4.25,4.25,0,0,1,.83,2,3.5,3.5,0,0,1-.33,2,4.53,4.53,0,0,1-1.49,1.75L36,171.13l-.74-1,5.75-4.3a4,4,0,0,0,1.2-1.32,2.18,2.18,0,0,0,.27-1.39,3,3,0,0,0-.59-1.38,3,3,0,0,0-1.16-1,2.26,2.26,0,0,0-1.42-.12,4.17,4.17,0,0,0-1.63.8L32,165.72l-.75-1,5.85-4.37a4.76,4.76,0,0,1,2.11-.94,3.61,3.61,0,0,1,2,.26A4.19,4.19,0,0,1,42.83,161Z"/><path class="cls-12" d="M38.67,155.64l-10.28,6,0-.05,4.13-12.41.3.26-8.08,4.72-.62-1.07,10.23-6,0,0-4.12,12.4-.31-.23L38,154.56Z"/><path class="cls-12" d="M32.56,144.71l-10.31,4.63-.51-1.14,4.36-2-6.34-2.45-.68-1.5,7.19,2.89-.76.31,3.83-8,.69,1.51L26.61,146l-.23-.74,1,.47,4.69-2.11Z"/><path class="cls-12" d="M28.81,136.16l-11.33,3.68,0-.05,6.68-11.24.24.31-8.9,2.9-.38-1.19,11.27-3.66v0l-6.66,11.24-.26-.3,9-2.91Z"/><path class="cls-12" d="M24.34,119.13a5.62,5.62,0,0,1-.22,3,5.89,5.89,0,0,1-1.69,2.5,5.83,5.83,0,0,1-2.8,1.35,5.67,5.67,0,0,1-3-.25A5.83,5.83,0,0,1,14.12,124,5.78,5.78,0,0,1,13,118.25a6,6,0,0,1,1.69-2.5,5.74,5.74,0,0,1,2.77-1.33,5.63,5.63,0,0,1,3.05.24A5.92,5.92,0,0,1,23,116.38,5.77,5.77,0,0,1,24.34,119.13Zm-1.16.21a4.63,4.63,0,0,0-1-2.17,4.54,4.54,0,0,0-2-1.34,4.71,4.71,0,0,0-6,2.84,4.6,4.6,0,0,0,.85,4.52,4.75,4.75,0,0,0,2,1.34,4.58,4.58,0,0,0,2.44.18,4.64,4.64,0,0,0,2.24-1.07,4.75,4.75,0,0,0,1.34-2A4.37,4.37,0,0,0,23.18,119.34Z"/><path class="cls-12" d="M23.12,108.16l-11.6,5-.06-1.33,8.43-3.56-9.1-2.79v0l8.8-3.61L10.85,99l-.07-1.35,12,4.08v0l-8.76,3.57,9.06,2.77Z"/><path class="cls-12" d="M22.3,95.76l-11.86-1v-.06L21,86.93l.1.39-9.33-.81.11-1.24,11.81,1v0L13.15,94.08,13,93.71l9.38.81Z"/><path class="cls-12" d="M24.43,79l-11-2.65.29-1.21,4.66,1.12-3.53-5.81.39-1.61,3.91,6.68-.77-.22,7.89-3.94L25.88,73,19,76.34l.26-.72.5,1,5,1.21Z"/><path class="cls-12" d="M27.44,67.94l-4.71-1.58-7.19,1.48L16,66.49l5.72-1.13L17.83,61l.46-1.37,4.83,5.53,4.71,1.58Z"/><path class="cls-12" d="M31.82,57.36a5.57,5.57,0,0,1-1.9,2.27,5.83,5.83,0,0,1-5.88.53,5.6,5.6,0,0,1-2.33-1.95,6,6,0,0,1-1-2.84,5.83,5.83,0,0,1,.52-3,5.67,5.67,0,0,1,1.92-2.31A6,6,0,0,1,26,49a5.81,5.81,0,0,1,3,.52,5.67,5.67,0,0,1,2.34,2,6,6,0,0,1,1,2.85A5.83,5.83,0,0,1,31.82,57.36Zm-1.07-.51a4.58,4.58,0,0,0-.41-4.61,4.62,4.62,0,0,0-1.9-1.56,4.66,4.66,0,0,0-4.65.38,4.59,4.59,0,0,0-1.92,4.18A4.72,4.72,0,0,0,27,59.46a4.64,4.64,0,0,0,2.24-.82A4.45,4.45,0,0,0,30.75,56.85Z"/><path class="cls-12" d="M36,48.84l-8.75-5.12-1.39,2.37-1-.59,3.39-5.79,1,.59-1.38,2.36,8.75,5.12Z"/><path class="cls-12" d="M41.94,40.06a5.63,5.63,0,0,1-2.31,1.87,6,6,0,0,1-3,.48,5.86,5.86,0,0,1-2.9-1.11,5.65,5.65,0,0,1-1.9-2.38,6,6,0,0,1-.46-3,5.83,5.83,0,0,1,1.09-2.82,5.68,5.68,0,0,1,2.34-1.89,5.86,5.86,0,0,1,5.85.62,5.67,5.67,0,0,1,1.91,2.38,5.93,5.93,0,0,1,.45,3A5.82,5.82,0,0,1,41.94,40.06ZM41,39.35a4.62,4.62,0,0,0,.87-2.24,4.57,4.57,0,0,0-.38-2.36,4.73,4.73,0,0,0-6.19-2.43,4.54,4.54,0,0,0-1.86,1.51A4.44,4.44,0,0,0,32.59,36,4.58,4.58,0,0,0,33,38.4a4.64,4.64,0,0,0,1.54,1.9,4.71,4.71,0,0,0,2.32.89,4.62,4.62,0,0,0,2.36-.37A4.41,4.41,0,0,0,41,39.35Z"/><path class="cls-12" d="M298.66,43.76a4,4,0,0,1-.67-1.88,3.38,3.38,0,0,1,.42-1.85,4.35,4.35,0,0,1,1.48-1.55l5.69-3.76.64,1-5.59,3.7a3.82,3.82,0,0,0-1.2,1.16,2.1,2.1,0,0,0-.32,1.28,3,3,0,0,0,1.5,2.28,2.16,2.16,0,0,0,1.32.2,3.81,3.81,0,0,0,1.56-.66L309.05,40l.65,1L304,44.71a4.32,4.32,0,0,1-2,.76,3.38,3.38,0,0,1-1.86-.35A4,4,0,0,1,298.66,43.76Z"/><path class="cls-12" d="M302.26,49l9.87-5.11,0,0-4.44,11.36-.27-.25,7.76-4,.53,1-9.82,5.08,0,0,4.43-11.36.28.24-7.81,4Z"/><path class="cls-12" d="M307.43,59.49l9.82-3.89.43,1.08-4.16,1.65,5.82,2.54.56,1.43-6.57-3,.71-.26-3.9,7.26-.58-1.45L313,58.58l.18.69-.89-.47-4.47,1.77Z"/><path class="cls-12" d="M310.6,67.66l10.69-3,0,.05-6.62,10.25-.22-.3,8.41-2.39.31,1.12-10.64,3v0l6.61-10.24.23.28-8.46,2.4Z"/><path class="cls-12" d="M314.21,83.71a5.32,5.32,0,0,1,.3-2.76,5.45,5.45,0,0,1,1.64-2.28,5.3,5.3,0,0,1,2.65-1.18,5.22,5.22,0,0,1,2.82.31,5.54,5.54,0,0,1,2.27,1.67,5.45,5.45,0,0,1,.86,5.37,5.5,5.5,0,0,1-1.65,2.28,5.51,5.51,0,0,1-5.46.87,5.58,5.58,0,0,1-3.43-4.28Zm1.1-.16A4.31,4.31,0,0,0,318,86.91a4.55,4.55,0,0,0,4.38-.7,4.27,4.27,0,0,0,1.31-1.79,4.3,4.3,0,0,0-.67-4.24,4.38,4.38,0,0,0-1.8-1.31,4.48,4.48,0,0,0-4.39.71,4.37,4.37,0,0,0-1.31,1.8A4.13,4.13,0,0,0,315.31,83.55Z"/><path class="cls-12" d="M315.1,94,326,89.51l0,1.24-7.93,3.17,8.43,2.77v0l-8.27,3.2,8.11,2.83,0,1.26-11.15-4v0l8.25-3.17L315.1,94Z"/><path class="cls-12" d="M315.64,105.61l11.06,1.09v0l-9.92,7.12-.09-.36,8.7.85-.12,1.16-11-1.08v0l9.9-7.12.11.35-8.75-.86Z"/><path class="cls-12" d="M313.52,121.27l10.25,2.49-.27,1.13-4.34-1,3.28,5.43-.37,1.5-3.64-6.24.73.2-7.37,3.67.36-1.51,6.47-3.13-.25.68-.46-.9-4.67-1.14Z"/><path class="cls-12" d="M310.7,131.61l4.4,1.46,6.71-1.41-.42,1.26L316.06,134l3.63,4-.42,1.28-4.54-5.15-4.39-1.46Z"/><path class="cls-12" d="M306.69,141.51a5.28,5.28,0,0,1,1.74-2.15,5.51,5.51,0,0,1,2.63-1,5.4,5.4,0,0,1,2.86.46,5.2,5.2,0,0,1,2.19,1.8,5.53,5.53,0,0,1,1,2.64,5.35,5.35,0,0,1-.45,2.79,5.23,5.23,0,0,1-1.77,2.18,5.51,5.51,0,0,1-2.63,1,5.54,5.54,0,0,1-5-2.26,5.52,5.52,0,0,1-1-2.65A5.35,5.35,0,0,1,306.69,141.51Zm1,.46a4.32,4.32,0,0,0,2.22,5.74,4.38,4.38,0,0,0,2.27.37,4.3,4.3,0,0,0,2.07-.78,4.33,4.33,0,0,0,1.75-3.92,4.33,4.33,0,0,0-2.57-3.52,4.46,4.46,0,0,0-2.29-.37,4.38,4.38,0,0,0-2.08.8A4.07,4.07,0,0,0,307.69,142Z"/><path class="cls-12" d="M302.89,149.55l8.25,4.64,1.25-2.23.95.53L310.28,158l-1-.54,1.25-2.22-8.24-4.64Z"/><path class="cls-12" d="M297.49,157.86a5.34,5.34,0,0,1,2.12-1.79,5.43,5.43,0,0,1,2.76-.51,5.49,5.49,0,0,1,4.56,3.14,5.68,5.68,0,0,1,.49,2.78,5.33,5.33,0,0,1-1,2.66,5.25,5.25,0,0,1-2.14,1.82,5.47,5.47,0,0,1-2.77.51,5.48,5.48,0,0,1-4.54-3.14,5.58,5.58,0,0,1-.48-2.79A5.47,5.47,0,0,1,297.49,157.86Zm.91.64a4.33,4.33,0,0,0-.77,2.12,4.27,4.27,0,0,0,.41,2.19,4.43,4.43,0,0,0,1.49,1.74,4.36,4.36,0,0,0,2.16.78,4.27,4.27,0,0,0,2.18-.39,4.17,4.17,0,0,0,1.7-1.45,4.22,4.22,0,0,0,.74-2.08,4.35,4.35,0,0,0-1.88-3.93,4.24,4.24,0,0,0-2.18-.78,4.29,4.29,0,0,0-2.19.4A4.11,4.11,0,0,0,298.4,158.5Z"/><polygon class="cls-12" points="177.97 83.08 143.1 81.29 93.69 83.83 93.69 84.72 143.1 82.18 177.97 83.97 177.97 83.08"/><path class="cls-12" d="M97.69,109.3a.56.56,0,0,1-.55.56.56.56,0,0,1,0-1.12.56.56,0,0,1,.55.56"/><path class="cls-12" d="M101.37,109.3a.55.55,0,0,1-.54.56.56.56,0,0,1,0-1.12.55.55,0,0,1,.54.56"/><path class="cls-12" d="M105.06,109.3a.55.55,0,0,1-.54.56.56.56,0,0,1,0-1.12.55.55,0,0,1,.54.56"/><path class="cls-12" d="M99.51,111.76a.55.55,0,1,1-.54-.56.55.55,0,0,1,.54.56"/><path class="cls-12" d="M103.2,111.76a.56.56,0,0,1-.55.56.56.56,0,0,1,0-1.12.56.56,0,0,1,.55.56"/><path class="cls-12" d="M99.51,116.68a.55.55,0,1,1-1.09,0,.55.55,0,1,1,1.09,0"/><path class="cls-12" d="M103.2,116.68a.56.56,0,0,1-.55.56.55.55,0,0,1-.54-.56.56.56,0,0,1,.54-.57.57.57,0,0,1,.55.57"/><path class="cls-12" d="M97.69,114.22a.56.56,0,0,1-.55.56.55.55,0,0,1-.54-.56.56.56,0,0,1,.54-.57.57.57,0,0,1,.55.57"/><path class="cls-12" d="M101.37,114.22a.55.55,0,0,1-.54.56.56.56,0,0,1-.55-.56.57.57,0,0,1,.55-.57.56.56,0,0,1,.54.57"/><path class="cls-12" d="M105.06,114.22a.55.55,0,0,1-.54.56.56.56,0,0,1-.55-.56.57.57,0,0,1,.55-.57.56.56,0,0,1,.54.57"/><path class="cls-12" d="M97.67,104.39a.56.56,0,0,1-.55.56.57.57,0,0,1,0-1.13.57.57,0,0,1,.55.57"/><path class="cls-12" d="M101.35,104.39a.56.56,0,0,1-.54.56.57.57,0,0,1,0-1.13.56.56,0,0,1,.54.57"/><path class="cls-12" d="M105,104.39a.56.56,0,0,1-.54.56.57.57,0,0,1,0-1.13.56.56,0,0,1,.54.57"/><path class="cls-12" d="M99.51,106.84a.55.55,0,1,1-.54-.56.55.55,0,0,1,.54.56"/><path class="cls-12" d="M103.2,106.84a.56.56,0,0,1-.55.56.56.56,0,0,1,0-1.12.56.56,0,0,1,.55.56"/><path class="cls-12" d="M99.51,121.6A.55.55,0,1,1,99,121a.55.55,0,0,1,.54.57"/><path class="cls-12" d="M103.2,121.6a.56.56,0,0,1-.55.56.57.57,0,0,1,0-1.13.56.56,0,0,1,.55.57"/><path class="cls-12" d="M97.69,119.14a.56.56,0,0,1-.55.56.55.55,0,0,1-.54-.56.56.56,0,0,1,.54-.57.57.57,0,0,1,.55.57"/><path class="cls-12" d="M101.37,119.14a.55.55,0,0,1-.54.56.56.56,0,0,1-.55-.56.57.57,0,0,1,.55-.57.56.56,0,0,1,.54.57"/><path class="cls-12" d="M105.06,119.14a.55.55,0,0,1-.54.56.56.56,0,0,1-.55-.56.57.57,0,0,1,.55-.57.56.56,0,0,1,.54.57"/><path class="cls-12" d="M110.27,119.43a.55.55,0,1,1-.54-.57.56.56,0,0,1,.54.57"/><path class="cls-12" d="M114,119.43a.56.56,0,0,1-.55.56.57.57,0,1,1,.55-.56"/><path class="cls-12" d="M117.65,119.43a.55.55,0,1,1-.55-.57.56.56,0,0,1,.55.57"/><path class="cls-12" d="M112.1,121.89a.55.55,0,1,1-.55-.57.56.56,0,0,1,.55.57"/><path class="cls-12" d="M115.78,121.89a.55.55,0,1,1-1.09,0,.55.55,0,1,1,1.09,0"/><path class="cls-12" d="M112.1,117a.55.55,0,1,1-.55-.57.56.56,0,0,1,.55.57"/><path class="cls-12" d="M115.78,117a.55.55,0,1,1-.55-.57.56.56,0,0,1,.55.57"/><path class="cls-12" d="M122.31,119.43a.55.55,0,1,1-.55-.57.56.56,0,0,1,.55.57"/><path class="cls-12" d="M126,119.43a.56.56,0,0,1-.54.56.57.57,0,0,1,0-1.13.55.55,0,0,1,.54.57"/><path class="cls-12" d="M129.68,119.43a.55.55,0,1,1-1.09,0,.55.55,0,1,1,1.09,0"/><path class="cls-12" d="M124.13,121.89a.56.56,0,0,1-.55.56.57.57,0,1,1,.55-.56"/><path class="cls-12" d="M127.82,121.89a.55.55,0,1,1-.55-.57.56.56,0,0,1,.55.57"/><path class="cls-12" d="M124.13,117a.56.56,0,0,1-.55.56.57.57,0,0,1,0-1.13.57.57,0,0,1,.55.57"/><path class="cls-12" d="M127.82,117a.55.55,0,1,1-.55-.57.56.56,0,0,1,.55.57"/><path class="cls-12" d="M134.34,119.43a.56.56,0,0,1-.55.56.57.57,0,1,1,.55-.56"/><path class="cls-12" d="M138,119.43a.56.56,0,0,1-.55.56.57.57,0,1,1,.55-.56"/><path class="cls-12" d="M141.71,119.43a.55.55,0,1,1-.54-.57.56.56,0,0,1,.54.57"/><path class="cls-12" d="M136.16,121.89a.56.56,0,0,1-.54.56.57.57,0,0,1,0-1.13.55.55,0,0,1,.54.57"/><path class="cls-12" d="M139.85,121.89a.56.56,0,0,1-.55.56.57.57,0,1,1,.55-.56"/><path class="cls-12" d="M136.16,117a.56.56,0,0,1-.54.56.57.57,0,0,1,0-1.13.56.56,0,0,1,.54.57"/><path class="cls-12" d="M139.85,117a.56.56,0,0,1-.55.56.57.57,0,0,1,0-1.13.57.57,0,0,1,.55.57"/><path class="cls-12" d="M181.73,73.71a.55.55,0,1,1-1.09,0,.55.55,0,1,1,1.09,0"/><path class="cls-12" d="M185.42,73.71a.57.57,0,0,1-.55.57.56.56,0,0,1-.54-.57.55.55,0,0,1,.54-.56.56.56,0,0,1,.55.56"/><path class="cls-12" d="M189.11,73.71a.55.55,0,1,1-1.1,0,.55.55,0,1,1,1.1,0"/><path class="cls-12" d="M183.56,76.17a.56.56,0,0,1-.55.56.56.56,0,0,1,0-1.12.56.56,0,0,1,.55.56"/><path class="cls-12" d="M187.24,76.17a.55.55,0,1,1-.55-.56.55.55,0,0,1,.55.56"/><path class="cls-12" d="M181.71,68.8a.55.55,0,1,1-1.09,0,.55.55,0,1,1,1.09,0"/><path class="cls-12" d="M185.4,68.8a.56.56,0,0,1-.55.56.57.57,0,1,1,.55-.56"/><path class="cls-12" d="M189.09,68.8a.55.55,0,1,1-.55-.57.56.56,0,0,1,.55.57"/><path class="cls-12" d="M181.71,78.34a.55.55,0,1,1-.55-.56.55.55,0,0,1,.55.56"/><path class="cls-12" d="M185.4,78.34a.56.56,0,0,1-.55.56.56.56,0,0,1,0-1.12.56.56,0,0,1,.55.56"/><path class="cls-12" d="M189.09,78.34a.55.55,0,1,1-.55-.56.56.56,0,0,1,.55.56"/><path class="cls-12" d="M183.56,71.25a.57.57,0,0,1-.55.57.56.56,0,0,1-.55-.57.55.55,0,0,1,.55-.56.56.56,0,0,1,.55.56"/><path class="cls-12" d="M187.24,71.25a.55.55,0,1,1-1.09,0,.55.55,0,1,1,1.09,0"/><path class="cls-12" d="M240.69,73.71a.57.57,0,0,1-.55.57.56.56,0,0,1-.54-.57.55.55,0,0,1,.54-.56.56.56,0,0,1,.55.56"/><path class="cls-12" d="M244.38,73.71a.55.55,0,1,1-1.1,0,.55.55,0,1,1,1.1,0"/><path class="cls-12" d="M248.06,73.71a.55.55,0,1,1-1.09,0,.55.55,0,1,1,1.09,0"/><path class="cls-12" d="M242.51,76.17a.55.55,0,1,1-.54-.56.55.55,0,0,1,.54.56"/><path class="cls-12" d="M246.2,76.17a.56.56,0,0,1-.55.56.56.56,0,0,1,0-1.12.56.56,0,0,1,.55.56"/><path class="cls-12" d="M240.67,68.8a.55.55,0,1,1-.55-.57.56.56,0,0,1,.55.57"/><path class="cls-12" d="M244.36,68.8a.55.55,0,1,1-.55-.57.56.56,0,0,1,.55.57"/><path class="cls-12" d="M248,68.8a.55.55,0,1,1-1.09,0,.55.55,0,1,1,1.09,0"/><path class="cls-12" d="M240.67,78.34a.55.55,0,1,1-.55-.56.56.56,0,0,1,.55.56"/><path class="cls-12" d="M244.36,78.34a.55.55,0,1,1-.55-.56.56.56,0,0,1,.55.56"/><path class="cls-12" d="M248,78.34a.55.55,0,1,1-.55-.56.55.55,0,0,1,.55.56"/><path class="cls-12" d="M242.51,71.25a.55.55,0,1,1-1.09,0,.55.55,0,1,1,1.09,0"/><path class="cls-12" d="M246.2,71.25a.57.57,0,0,1-.55.57.56.56,0,0,1-.54-.57.55.55,0,0,1,.54-.56.56.56,0,0,1,.55.56"/><path class="cls-12" d="M181.36,125.16a.55.55,0,1,1-.55-.56.56.56,0,0,1,.55.56"/><path class="cls-12" d="M185,125.16a.55.55,0,1,1-.55-.56.55.55,0,0,1,.55.56"/><path class="cls-12" d="M188.73,125.16a.55.55,0,1,1-.55-.56.56.56,0,0,1,.55.56"/><path class="cls-12" d="M192.41,125.16a.55.55,0,0,1-.54.56.56.56,0,0,1,0-1.12.55.55,0,0,1,.54.56"/><path class="cls-12" d="M196.1,125.16a.55.55,0,1,1-.55-.56.55.55,0,0,1,.55.56"/><path class="cls-12" d="M199.79,125.16a.55.55,0,1,1-.55-.56.56.56,0,0,1,.55.56"/><path class="cls-12" d="M181.34,120.25a.55.55,0,1,1-.55-.57.56.56,0,0,1,.55.57"/><path class="cls-12" d="M185,120.25a.56.56,0,0,1-.55.56.57.57,0,0,1,0-1.13.57.57,0,0,1,.55.57"/><path class="cls-12" d="M188.71,120.25a.55.55,0,1,1-.55-.57.56.56,0,0,1,.55.57"/><path class="cls-12" d="M192.39,120.25a.56.56,0,0,1-.54.56.57.57,0,0,1,0-1.13.56.56,0,0,1,.54.57"/><path class="cls-12" d="M196.08,120.25a.55.55,0,1,1-.55-.57.56.56,0,0,1,.55.57"/><path class="cls-12" d="M199.77,120.25a.55.55,0,1,1-.55-.57.56.56,0,0,1,.55.57"/><path class="cls-12" d="M203.45,120.25a.55.55,0,1,1-.54-.57.56.56,0,0,1,.54.57"/><path class="cls-12" d="M183.18,122.71a.55.55,0,1,1-.55-.57.56.56,0,0,1,.55.57"/><path class="cls-12" d="M186.86,122.71a.55.55,0,1,1-.54-.57.56.56,0,0,1,.54.57"/><path class="cls-12" d="M190.55,122.71a.56.56,0,0,1-.55.56.57.57,0,1,1,.55-.56"/><path class="cls-12" d="M194.24,122.71a.56.56,0,0,1-.55.56.57.57,0,1,1,.55-.56"/><path class="cls-12" d="M197.92,122.71a.55.55,0,1,1-.54-.57.56.56,0,0,1,.54.57"/><path class="cls-12" d="M201.61,122.71a.56.56,0,0,1-.55.56.57.57,0,1,1,.55-.56"/><path class="cls-12" d="M203.47,125.16a.55.55,0,1,1-.54-.56.55.55,0,0,1,.54.56"/><path class="cls-12" d="M233.2,125.16a.55.55,0,1,1-.55-.56.55.55,0,0,1,.55.56"/><path class="cls-12" d="M236.89,125.16a.56.56,0,0,1-.55.56.56.56,0,0,1,0-1.12.56.56,0,0,1,.55.56"/><path class="cls-12" d="M240.57,125.16a.55.55,0,1,1-.54-.56.55.55,0,0,1,.54.56"/><path class="cls-12" d="M244.26,125.16a.56.56,0,0,1-.55.56.56.56,0,0,1,0-1.12.56.56,0,0,1,.55.56"/><path class="cls-12" d="M248,125.16a.56.56,0,0,1-.55.56.56.56,0,0,1,0-1.12.56.56,0,0,1,.55.56"/><path class="cls-12" d="M233.18,120.25a.56.56,0,0,1-.55.56.57.57,0,0,1,0-1.13.57.57,0,0,1,.55.57"/><path class="cls-12" d="M236.87,120.25a.56.56,0,0,1-.55.56.57.57,0,0,1,0-1.13.57.57,0,0,1,.55.57"/><path class="cls-12" d="M240.55,120.25a.55.55,0,1,1-.54-.57.56.56,0,0,1,.54.57"/><path class="cls-12" d="M244.24,120.25a.56.56,0,0,1-.55.56.57.57,0,0,1,0-1.13.57.57,0,0,1,.55.57"/><path class="cls-12" d="M247.93,120.25a.56.56,0,0,1-.55.56.57.57,0,0,1,0-1.13.57.57,0,0,1,.55.57"/><path class="cls-12" d="M235,122.71a.55.55,0,1,1-.55-.57.56.56,0,0,1,.55.57"/><path class="cls-12" d="M238.71,122.71a.55.55,0,1,1-1.09,0,.55.55,0,1,1,1.09,0"/><path class="cls-12" d="M242.4,122.71a.55.55,0,1,1-.55-.57.56.56,0,0,1,.55.57"/><path class="cls-12" d="M246.08,122.71a.55.55,0,1,1-.54-.57.56.56,0,0,1,.54.57"/><path class="cls-16" d="M139.05,65.5a3.22,3.22,0,1,1-3.21-3.22A3.21,3.21,0,0,1,139.05,65.5Z"/><path class="cls-16" d="M216.86,65.5a3.22,3.22,0,1,1-3.21-3.22A3.21,3.21,0,0,1,216.86,65.5Z"/><path class="cls-16" d="M246.37,65.5a3.22,3.22,0,1,1-3.22-3.22A3.22,3.22,0,0,1,246.37,65.5Z"/><path class="cls-16" d="M188.44,65.5a3.22,3.22,0,1,1-3.22-3.22A3.22,3.22,0,0,1,188.44,65.5Z"/><path class="cls-16" d="M108.84,65.5a3.22,3.22,0,1,1-3.22-3.22A3.22,3.22,0,0,1,108.84,65.5Z"/><path class="cls-16" d="M169.84,65.5a3.22,3.22,0,1,1-3.22-3.22A3.22,3.22,0,0,1,169.84,65.5Z"/><rect class="cls-9" x="45.26" y="24.45" width="3" height="3"/><rect class="cls-9" x="45.26" y="174.38" width="3" height="3"/><rect class="cls-9" x="287.56" y="24.45" width="3" height="3"/><rect class="cls-9" x="287.56" y="174.38" width="3" height="3"/></svg>