<?xml version="1.0" encoding="UTF-8"?><svg id="a" xmlns="http://www.w3.org/2000/svg" viewBox="0 0 333 191"><defs><style>.b{stroke-linecap:round;}.b,.c,.d,.e,.f,.g{stroke:#ccae6d;}.b,.c,.d,.h,.f,.g{fill:none;}.b,.c,.g{stroke-linejoin:round;}.i,.e{fill:#fff;}.j{fill:#ccae6d;}.k,.l{letter-spacing:.02em;}.m{letter-spacing:.04em;}.c{stroke-width:1.5px;}.d{stroke-width:.75px;}.d,.e,.h,.f{stroke-miterlimit:10;}.n,.l{fill:#4d4d4d;font-family:YuMin-Demibold-83pv-RKSJ-H, YuMincho;font-size:16.77px;font-weight:700;}.o{letter-spacing:.06em;}.h{stroke:#4d4d4d;}.p{letter-spacing:.02em;}.g{stroke-width:2px;}</style></defs><rect class="i" x="-53.52" y="-20.62" width="424.73" height="246.38"/><g><path class="j" d="M35.37,157.26c.48,.65,.78,1.34,.9,2.05,.12,.72,.04,1.42-.25,2.09-.29,.68-.79,1.29-1.51,1.82l-5.55,4.1-1.31-1.77,5.37-3.96c.47-.34,.79-.69,.98-1.04s.26-.7,.22-1.05-.19-.7-.45-1.05c-.26-.35-.55-.6-.87-.74s-.69-.18-1.08-.1c-.4,.08-.84,.29-1.31,.64l-5.33,3.94-1.3-1.76,5.55-4.1c.72-.53,1.45-.84,2.19-.91,.73-.07,1.42,.05,2.07,.38s1.21,.82,1.7,1.47Z"/><path class="j" d="M31.19,151.75l-9.47,5.47-.75-1.29,3.41-10.01,.47,.43-7.04,4.12-1.07-1.85,9.47-5.47,.73,1.27-3.41,9.98-.46-.39,7.04-4.1,1.07,1.85Z"/><path class="j" d="M24.76,140.1l-10.03,4.35-.87-2,4.1-1.75-5.62-1.77-1.07-2.48,7.31,2.5-1.39,.57,4.07-7.53,1.1,2.54-3.5,6.03-.18-1.14,.87,.59,4.35-1.92,.87,2Z"/><path class="j" d="M20.53,130.04l-10.46,3.17-.43-1.43,5.6-8.97,.36,.53-7.79,2.41-.62-2.04,10.46-3.17,.42,1.4-5.59,8.94-.36-.48,7.79-2.39,.62,2.04Z"/><path class="j" d="M16.31,112.7c.17,1.01,.1,1.99-.24,2.94s-.88,1.76-1.65,2.42-1.69,1.09-2.75,1.27c-1.01,.17-1.99,.08-2.93-.3-.94-.37-1.74-.95-2.38-1.74s-1.06-1.7-1.24-2.74c-.18-1.02-.09-2,.25-2.96,.35-.95,.9-1.76,1.66-2.42s1.66-1.08,2.7-1.26c1.04-.18,2.03-.08,2.96,.28,.94,.37,1.73,.95,2.37,1.75,.64,.8,1.05,1.71,1.23,2.75Zm-1.99,.33c-.11-.65-.37-1.22-.78-1.71-.41-.49-.91-.85-1.52-1.07s-1.24-.27-1.92-.15c-.67,.12-1.25,.38-1.74,.78-.49,.4-.85,.9-1.08,1.5-.23,.59-.28,1.22-.17,1.88,.11,.64,.37,1.2,.79,1.69,.41,.49,.92,.84,1.52,1.06,.6,.22,1.23,.27,1.89,.16,.69-.12,1.27-.39,1.77-.81,.49-.42,.85-.92,1.07-1.51,.22-.59,.28-1.19,.17-1.81Z"/><path class="j" d="M14.72,101.68l-10.79,4.58-.08-2.32,7-2.74-7.17-2.27-.03-.96,7.01-2.65-7.18-2.43-.08-2.33,11.07,4.03,.04,1.23-6.71,2.51,6.86,2.15,.04,1.2Z"/><path class="j" d="M14.59,88.53l-10.88-1.11,.15-1.49,8.63-6.12,.13,.62-8.11-.79,.22-2.12,10.88,1.11-.15,1.46-8.61,6.09-.14-.58,8.11,.8-.22,2.12Z"/><path class="j" d="M17,71.42l-10.58-2.75,.55-2.11,4.3,1.15-3.34-4.85,.68-2.61,4.22,6.48-1.45-.41,7.84-3.43-.7,2.68-6.47,2.59,.56-1.01,.33,1,4.61,1.17-.55,2.11Z"/><path class="j" d="M20.78,58.59l-4.43-1.65-7.08,1.24,.87-2.34,4.63-.66-3.08-3.48,.87-2.35,4.55,5.57,4.43,1.65-.75,2.03Z"/><path class="j" d="M25.81,47.36c-.46,.92-1.1,1.66-1.93,2.23-.83,.57-1.75,.89-2.76,.97-1.01,.08-2-.12-2.97-.61-.92-.46-1.65-1.12-2.18-1.97-.54-.86-.84-1.79-.89-2.81-.05-1.02,.15-2,.62-2.94,.46-.93,1.11-1.67,1.96-2.23s1.77-.88,2.78-.96c1.01-.08,1.98,.11,2.93,.58,.94,.47,1.68,1.13,2.22,1.98,.54,.85,.83,1.79,.87,2.81,.05,1.02-.17,2.01-.64,2.95Zm-1.8-.91c.29-.59,.42-1.2,.38-1.84-.04-.64-.23-1.23-.59-1.76-.36-.53-.84-.95-1.45-1.26-.61-.3-1.23-.44-1.86-.4-.64,.03-1.22,.22-1.76,.57s-.95,.81-1.25,1.41c-.29,.58-.41,1.19-.37,1.83s.24,1.22,.6,1.76c.36,.53,.83,.95,1.43,1.25,.62,.31,1.26,.44,1.9,.4,.64-.05,1.23-.24,1.76-.58s.93-.79,1.21-1.36Z"/><path class="j" d="M30.14,39.13l-7.55-4.74-1.3,2.08-1.71-1.07,3.76-5.99,1.71,1.07-1.3,2.06,7.55,4.74-1.17,1.85Z"/><path class="j" d="M36.79,29.86c-.63,.81-1.4,1.42-2.33,1.81-.92,.4-1.89,.54-2.9,.42s-1.94-.51-2.8-1.17c-.81-.63-1.4-1.41-1.76-2.36s-.47-1.92-.33-2.93c.14-1.01,.54-1.93,1.18-2.76,.63-.82,1.42-1.42,2.35-1.81,.94-.39,1.91-.52,2.91-.41s1.92,.5,2.76,1.14c.83,.65,1.43,1.44,1.79,2.38s.46,1.92,.31,2.93c-.15,1.01-.55,1.94-1.2,2.77Zm-1.59-1.25c.4-.52,.65-1.1,.74-1.73,.09-.63,0-1.25-.24-1.84-.24-.59-.64-1.1-1.18-1.52-.54-.41-1.12-.67-1.75-.76s-1.24-.02-1.83,.21c-.59,.23-1.09,.62-1.5,1.14-.4,.51-.63,1.09-.72,1.72-.08,.63,0,1.25,.25,1.84s.63,1.09,1.16,1.5c.55,.43,1.15,.68,1.79,.76s1.25,0,1.84-.23,1.07-.6,1.45-1.1Z"/></g><g><path class="j" d="M297.54,31.62c-.48-.65-.79-1.34-.91-2.05-.12-.72-.04-1.42,.25-2.09,.28-.68,.79-1.29,1.51-1.82l5.55-4.11,1.31,1.77-5.36,3.97c-.47,.35-.79,.69-.98,1.05-.18,.35-.25,.7-.21,1.05,.04,.35,.19,.7,.45,1.05s.55,.6,.88,.74c.32,.15,.68,.18,1.08,.1,.4-.08,.83-.29,1.31-.64l5.33-3.94,1.3,1.76-5.55,4.11c-.72,.54-1.45,.84-2.18,.91-.73,.07-1.42-.05-2.07-.38-.65-.33-1.22-.81-1.7-1.47Z"/><path class="j" d="M301.74,37.13l9.46-5.48,.75,1.29-3.4,10.02-.47-.43,7.03-4.12,1.07,1.84-9.46,5.48-.74-1.27,3.4-9.98,.46,.39-7.04,4.11-1.07-1.84Z"/><path class="j" d="M308.18,48.76l10.03-4.37,.87,1.99-4.09,1.75,5.62,1.76,1.08,2.47-7.32-2.49,1.39-.58-4.06,7.54-1.11-2.54,3.5-6.03,.18,1.14-.87-.58-4.35,1.93-.87-1.99Z"/><path class="j" d="M312.32,58.54l10.45-3.22,.44,1.43-5.56,9-.36-.53,7.78-2.44,.63,2.04-10.45,3.22-.43-1.4,5.56-8.96,.36,.48-7.78,2.42-.63-2.04Z"/><path class="j" d="M316.52,75.31c-.18-1.01-.12-1.99,.21-2.94,.32-.95,.86-1.76,1.63-2.44,.76-.67,1.68-1.1,2.74-1.3,1.01-.18,1.99-.09,2.93,.27,.95,.36,1.75,.93,2.4,1.71,.65,.78,1.08,1.69,1.27,2.72,.19,1.02,.11,2-.23,2.96-.34,.96-.88,1.77-1.64,2.44-.76,.67-1.65,1.1-2.69,1.29s-2.03,.11-2.97-.25c-.94-.36-1.74-.93-2.39-1.72-.65-.79-1.07-1.7-1.26-2.74Zm1.99-.35c.12,.65,.38,1.21,.8,1.71,.41,.49,.92,.84,1.53,1.05s1.24,.26,1.92,.14c.67-.12,1.24-.39,1.73-.8,.49-.41,.85-.91,1.07-1.51,.22-.6,.27-1.22,.15-1.88-.12-.64-.38-1.2-.8-1.68-.42-.48-.93-.83-1.53-1.05s-1.23-.26-1.89-.14c-.68,.13-1.27,.4-1.76,.82-.49,.42-.84,.93-1.06,1.52-.22,.59-.27,1.19-.16,1.81Z"/><path class="j" d="M318.16,85.77l10.72-4.73,.11,2.32-6.97,2.84,7.2,2.17,.05,.96-6.97,2.75,7.21,2.33,.11,2.33-11.13-3.87-.06-1.23,6.67-2.61-6.89-2.05-.06-1.2Z"/><path class="j" d="M318.49,98.62l10.9,.92-.13,1.49-8.52,6.26-.14-.62,8.12,.65-.18,2.12-10.9-.92,.12-1.46,8.5-6.24,.15,.58-8.12-.66,.18-2.12Z"/><path class="j" d="M316.39,115.76l10.63,2.56-.51,2.12-4.32-1.07,3.42,4.79-.63,2.62-4.33-6.4,1.46,.38-7.78,3.57,.65-2.69,6.42-2.7-.54,1.02-.34-.99-4.63-1.09,.51-2.12Z"/><path class="j" d="M312.92,128.4l4.46,1.56,7.05-1.38-.82,2.36-4.61,.76,3.15,3.42-.83,2.37-4.66-5.48-4.46-1.56,.71-2.04Z"/><path class="j" d="M308.24,139.46c.44-.93,1.06-1.68,1.88-2.27,.82-.59,1.73-.93,2.74-1.03s2,.08,2.98,.54c.93,.44,1.67,1.08,2.23,1.92,.56,.85,.88,1.78,.96,2.79s-.11,2-.56,2.95c-.44,.94-1.08,1.69-1.91,2.28-.83,.58-1.75,.92-2.75,1.03-1,.1-1.98-.07-2.94-.52-.95-.45-1.71-1.09-2.26-1.93-.56-.84-.87-1.77-.94-2.79-.07-1.02,.12-2.01,.57-2.96Zm1.82,.87c-.28,.59-.39,1.21-.34,1.85,.05,.64,.26,1.22,.63,1.75s.86,.93,1.48,1.23c.61,.29,1.24,.41,1.87,.36,.64-.05,1.22-.25,1.74-.61,.53-.36,.93-.84,1.21-1.44,.28-.59,.38-1.2,.33-1.83-.06-.64-.27-1.22-.64-1.74-.37-.53-.85-.93-1.46-1.21-.63-.3-1.27-.42-1.91-.35-.64,.06-1.22,.27-1.74,.62-.52,.35-.91,.82-1.18,1.38Z"/><path class="j" d="M304.1,147.8l7.66,4.57,1.26-2.1,1.73,1.03-3.63,6.08-1.73-1.03,1.25-2.09-7.66-4.57,1.12-1.88Z"/><path class="j" d="M297.66,157.21c.61-.83,1.37-1.45,2.29-1.86s1.88-.58,2.89-.48c1.01,.1,1.95,.47,2.82,1.11,.82,.61,1.43,1.38,1.81,2.32,.38,.94,.51,1.91,.39,2.92-.12,1.01-.49,1.94-1.12,2.79-.61,.83-1.38,1.45-2.31,1.86-.93,.41-1.89,.57-2.9,.47-1.01-.09-1.93-.45-2.78-1.08-.85-.63-1.46-1.4-1.85-2.33-.38-.93-.51-1.91-.38-2.92,.13-1.02,.51-1.95,1.13-2.79Zm1.61,1.21c-.39,.53-.62,1.11-.7,1.75-.07,.64,.02,1.25,.28,1.84s.66,1.08,1.21,1.49c.54,.4,1.13,.64,1.77,.72s1.24,0,1.83-.25,1.08-.64,1.47-1.18c.38-.52,.61-1.1,.68-1.74s-.03-1.25-.29-1.83-.66-1.08-1.19-1.47c-.56-.41-1.16-.65-1.8-.72s-1.25,.02-1.83,.27c-.58,.25-1.05,.62-1.43,1.13Z"/></g><rect class="f" x="38.29" y="16.29" width="3.11" height="3.11"/><rect class="f" x="38.29" y="171.61" width="3.11" height="3.11"/><rect class="f" x="289.31" y="16.29" width="3.11" height="3.11"/><rect class="f" x="289.31" y="171.61" width="3.11" height="3.11"/><g><line class="b" x1="67.66" y1="143.89" x2="265.34" y2="143.89"/><line class="f" x1="132.5" y1="143.89" x2="132.5" y2="106.22"/><line class="f" x1="145.97" y1="109.91" x2="145.97" y2="106.22"/><line class="f" x1="173.56" y1="66.85" x2="73.18" y2="66.85"/><line class="f" x1="73.01" y1="139.21" x2="132.5" y2="139.21"/><line class="f" x1="73.18" y1="104.61" x2="159.44" y2="104.61"/><line class="f" x1="73.18" y1="107.98" x2="173.56" y2="107.98"/><line class="f" x1="73.18" y1="113.18" x2="159.38" y2="113.18"/><line class="f" x1="173.56" y1="70.95" x2="73.18" y2="70.95"/><line class="f" x1="173.56" y1="87.15" x2="73.18" y2="87.15"/><line class="f" x1="145.97" y1="113.14" x2="145.97" y2="143.85"/><line class="f" x1="206.65" y1="143.89" x2="206.65" y2="107.98"/><line class="f" x1="259.82" y1="66.85" x2="173.56" y2="66.85"/><polyline class="f" points="206.65 107.98 235.91 107.98 235.91 143.89"/><line class="f" x1="98.28" y1="87.15" x2="98.28" y2="66.85"/><line class="f" x1="123.37" y1="86.84" x2="123.37" y2="66.85"/><line class="f" x1="148.47" y1="87.18" x2="148.47" y2="66.85"/><line class="f" x1="173.56" y1="132.09" x2="206.65" y2="132.09"/><line class="f" x1="259.82" y1="132.09" x2="235.91" y2="132.09"/><line class="f" x1="173.56" y1="103.98" x2="259.82" y2="103.98"/><line class="f" x1="177.48" y1="107.98" x2="177.48" y2="103.98"/><line class="f" x1="181.4" y1="107.98" x2="181.4" y2="103.98"/><line class="f" x1="173.56" y1="107.98" x2="259.82" y2="107.98"/><line class="f" x1="185.32" y1="107.98" x2="185.32" y2="103.98"/><line class="f" x1="189.24" y1="107.98" x2="189.24" y2="103.98"/><line class="f" x1="193.17" y1="107.98" x2="193.17" y2="103.98"/><line class="f" x1="197.09" y1="107.98" x2="197.09" y2="103.98"/><line class="f" x1="201.01" y1="107.98" x2="201.01" y2="103.98"/><line class="f" x1="204.93" y1="107.98" x2="204.93" y2="103.98"/><line class="f" x1="208.85" y1="107.98" x2="208.85" y2="103.98"/><line class="f" x1="212.77" y1="107.98" x2="212.77" y2="103.98"/><line class="f" x1="216.69" y1="107.98" x2="216.69" y2="103.98"/><line class="f" x1="220.61" y1="107.98" x2="220.61" y2="103.98"/><line class="f" x1="224.53" y1="107.98" x2="224.53" y2="103.98"/><line class="f" x1="228.45" y1="107.98" x2="228.45" y2="103.98"/><line class="f" x1="232.38" y1="107.98" x2="232.38" y2="103.98"/><line class="f" x1="236.3" y1="107.98" x2="236.3" y2="103.98"/><line class="f" x1="240.22" y1="107.98" x2="240.22" y2="103.98"/><line class="f" x1="244.14" y1="107.98" x2="244.14" y2="103.98"/><line class="f" x1="248.06" y1="107.98" x2="248.06" y2="103.98"/><line class="f" x1="251.98" y1="107.98" x2="251.98" y2="103.98"/><line class="f" x1="255.9" y1="107.98" x2="255.9" y2="103.98"/><line class="f" x1="159.44" y1="143.89" x2="159.44" y2="90.9"/><line class="g" x1="173.56" y1="143.89" x2="173.56" y2="47.11"/><polyline class="c" points="259.82 143.89 259.82 47.11 73.18 47.11 73.18 143.89"/><line class="f" x1="216.69" y1="47.13" x2="216.69" y2="67.33"/><line class="f" x1="208.06" y1="47.13" x2="208.06" y2="67.33"/><line class="f" x1="199.44" y1="47.13" x2="199.44" y2="67.33"/><line class="f" x1="190.81" y1="47.13" x2="190.81" y2="67.33"/><line class="f" x1="182.19" y1="47.13" x2="182.19" y2="67.33"/><line class="f" x1="251.2" y1="47.13" x2="251.2" y2="67.33"/><line class="f" x1="242.57" y1="47.13" x2="242.57" y2="67.33"/><line class="f" x1="233.94" y1="47.13" x2="233.94" y2="67.33"/><line class="f" x1="225.32" y1="47.13" x2="225.32" y2="67.33"/><line class="f" x1="118.81" y1="47.11" x2="118.81" y2="67.04"/><line class="f" x1="109.68" y1="47.11" x2="109.68" y2="67.04"/><line class="f" x1="100.56" y1="47.11" x2="100.56" y2="67.04"/><line class="f" x1="91.43" y1="47.11" x2="91.43" y2="67.04"/><line class="f" x1="155.31" y1="47.11" x2="155.31" y2="67.04"/><line class="f" x1="146.18" y1="47.11" x2="146.18" y2="67.04"/><line class="f" x1="137.06" y1="47.11" x2="137.06" y2="67.04"/><line class="f" x1="127.93" y1="47.11" x2="127.93" y2="67.04"/><line class="f" x1="164.43" y1="47.11" x2="164.43" y2="67.04"/><line class="f" x1="82.31" y1="47.11" x2="82.31" y2="67.04"/><line class="f" x1="109.96" y1="70.95" x2="109.96" y2="87.15"/><line class="f" x1="87.38" y1="70.95" x2="87.38" y2="87.15"/><line class="f" x1="117.97" y1="104.54" x2="117.97" y2="90.15"/><line class="f" x1="132.02" y1="89.49" x2="132.02" y2="104.61"/><line class="f" x1="103.93" y1="104.61" x2="103.93" y2="90.9"/><line class="f" x1="89.87" y1="104.54" x2="89.87" y2="91.59"/><line class="f" x1="89.5" y1="139.17" x2="89.5" y2="106.22"/><line class="f" x1="103.83" y1="139.17" x2="103.83" y2="106.22"/><line class="f" x1="118.17" y1="139.17" x2="118.17" y2="106.22"/><line class="f" x1="146.07" y1="104.48" x2="146.07" y2="90.22"/><line class="f" x1="132.02" y1="89.49" x2="146.07" y2="104.48"/><line class="f" x1="146.07" y1="90.22" x2="159.44" y2="104.61"/><line class="f" x1="117.97" y1="104.54" x2="132.02" y2="89.42"/><line class="f" x1="103.93" y1="104.54" x2="117.97" y2="90.15"/><line class="f" x1="89.87" y1="104.54" x2="103.93" y2="90.84"/><line class="f" x1="75.28" y1="104.54" x2="89.87" y2="91.59"/><line class="f" x1="94.28" y1="120.14" x2="94.28" y2="128.49"/><line class="f" x1="99.05" y1="120.15" x2="99.05" y2="128.5"/><line class="f" x1="108.61" y1="120.15" x2="108.61" y2="128.5"/><line class="f" x1="113.38" y1="120.15" x2="113.38" y2="128.5"/><line class="f" x1="122.94" y1="120.15" x2="122.94" y2="128.5"/><line class="f" x1="127.72" y1="120.15" x2="127.72" y2="128.5"/><line class="f" x1="89.99" y1="116.13" x2="132.99" y2="116.13"/><line class="f" x1="89.99" y1="120.58" x2="132.99" y2="120.58"/><line class="f" x1="89.99" y1="124.53" x2="132.99" y2="124.53"/><line class="f" x1="89.5" y1="128.49" x2="132.5" y2="128.49"/><line class="f" x1="172.91" y1="97.73" x2="259.17" y2="97.73"/><line class="f" x1="172.91" y1="94.21" x2="259.17" y2="94.21"/><line class="f" x1="173.56" y1="70.95" x2="259.82" y2="70.95"/><rect class="f" x="241.34" y="114.16" width="12.19" height="15.08"/><line class="f" x1="245.04" y1="129.23" x2="245.04" y2="114.16"/><line class="f" x1="249.85" y1="129.23" x2="249.85" y2="114.13"/><rect class="f" x="179.99" y="114.16" width="21.08" height="15.06"/><line class="f" x1="183.19" y1="114.16" x2="183.19" y2="129.22"/><line class="f" x1="197.87" y1="114.16" x2="197.87" y2="129.22"/><line class="f" x1="189.04" y1="114.14" x2="189.04" y2="129.21"/><line class="f" x1="192.11" y1="114.14" x2="192.11" y2="129.21"/><line class="f" x1="206.27" y1="70.95" x2="206.27" y2="97.73"/><line class="f" x1="225.66" y1="67.58" x2="225.66" y2="103.79"/><line class="f" x1="190.11" y1="67.33" x2="190.11" y2="103.79"/><line class="f" x1="244.14" y1="67.33" x2="244.14" y2="103.98"/><line class="f" x1="230.06" y1="116.96" x2="230.06" y2="143.89"/><rect class="d" x="135.17" y="116.01" width="8.12" height="24.53"/><rect class="d" x="148.65" y="116.01" width="8.12" height="24.53"/><polyline class="d" points="218.57 116.96 218.57 140.54 209.36 140.54 209.36 116.96"/><polyline class="d" points="227.56 116.96 227.56 140.54 221.28 140.54"/><rect class="d" x="209.37" y="74.01" width="12.94" height="20.25"/><rect class="d" x="228.97" y="74.01" width="11.9" height="20.25"/><line class="f" x1="137.38" y1="70.95" x2="137.38" y2="86.67"/><line class="f" x1="159.74" y1="70.95" x2="159.74" y2="87.18"/><rect class="d" x="76.8" y="74.01" width="7.51" height="10.08"/><rect class="d" x="112.54" y="74.01" width="8.25" height="10.08"/><polyline class="d" points="86.87 74.01 95.61 74.01 95.61 84.09 86.87 84.09"/><rect class="d" x="126.25" y="74.01" width="8.25" height="10.08"/><polyline class="d" points="136.87 74.01 145.61 74.01 145.61 84.09 136.87 84.09"/><polyline class="d" points="110.26 74.01 101.52 74.01 101.52 84.09 110.26 84.09"/><rect class="d" x="162.53" y="74.01" width="7.5" height="10.08"/><polyline class="d" points="160.04 74.01 151.3 74.01 151.3 84.09 160.04 84.09"/><rect class="d" x="193.44" y="74.01" width="12.83" height="20.25"/><path class="f" d="M167.39,101.7c0,.63-.51,1.14-1.14,1.14h0c-.63,0-1.14-.51-1.14-1.14v-5.6c0-.63,.51-1.14,1.14-1.14h0c.63,0,1.14,.51,1.14,1.14v5.6Z"/><line class="f" x1="206.65" y1="112.22" x2="235.91" y2="112.22"/><line class="f" x1="221.28" y1="116.8" x2="221.28" y2="143.89"/><line class="f" x1="212.5" y1="112.49" x2="212.5" y2="116.8"/><line class="f" x1="218.36" y1="112.49" x2="218.36" y2="116.8"/><line class="f" x1="224.21" y1="112.49" x2="224.21" y2="116.8"/><line class="f" x1="230.06" y1="112.49" x2="230.06" y2="116.8"/><line class="f" x1="206.65" y1="116.96" x2="235.91" y2="116.96"/><g><line class="f" x1="179.99" y1="116.86" x2="183.19" y2="116.86"/><line class="f" x1="179.99" y1="119.29" x2="183.19" y2="119.29"/><line class="f" x1="179.99" y1="121.71" x2="183.19" y2="121.71"/><line class="f" x1="179.99" y1="124.13" x2="183.19" y2="124.13"/><line class="f" x1="179.99" y1="126.55" x2="183.19" y2="126.55"/></g><g><line class="f" x1="197.74" y1="116.86" x2="200.94" y2="116.86"/><line class="f" x1="197.74" y1="119.29" x2="200.94" y2="119.29"/><line class="f" x1="197.74" y1="121.71" x2="200.94" y2="121.71"/><line class="f" x1="197.74" y1="124.13" x2="200.94" y2="124.13"/><line class="f" x1="197.74" y1="126.55" x2="200.94" y2="126.55"/></g><g><line class="f" x1="241.63" y1="116.86" x2="244.83" y2="116.86"/><line class="f" x1="241.63" y1="119.28" x2="244.83" y2="119.28"/><line class="f" x1="241.63" y1="121.7" x2="244.83" y2="121.7"/><line class="f" x1="241.63" y1="124.13" x2="244.83" y2="124.13"/><line class="f" x1="241.63" y1="126.55" x2="244.83" y2="126.55"/></g><g><line class="f" x1="250.09" y1="116.86" x2="253.29" y2="116.86"/><line class="f" x1="250.09" y1="119.28" x2="253.29" y2="119.28"/><line class="f" x1="250.09" y1="121.7" x2="253.29" y2="121.7"/><line class="f" x1="250.09" y1="124.13" x2="253.29" y2="124.13"/><line class="f" x1="250.09" y1="126.55" x2="253.29" y2="126.55"/></g><polygon class="j" points="173.56 90.57 132.02 88.44 73.18 91.47 73.18 92.52 132.02 89.49 173.56 91.62 173.56 90.57"/><g><path class="j" d="M77.94,121.8c0,.37-.29,.67-.65,.67s-.65-.3-.65-.67,.29-.67,.65-.67,.65,.3,.65,.67"/><path class="j" d="M82.33,121.8c0,.37-.29,.67-.65,.67s-.65-.3-.65-.67,.29-.67,.65-.67,.65,.3,.65,.67"/><path class="j" d="M86.72,121.8c0,.37-.3,.67-.65,.67s-.65-.3-.65-.67,.29-.67,.65-.67,.65,.3,.65,.67"/><path class="j" d="M80.11,124.73c0,.37-.29,.67-.65,.67s-.65-.3-.65-.67,.29-.67,.65-.67,.65,.3,.65,.67"/><path class="j" d="M84.5,124.73c0,.37-.29,.67-.65,.67s-.65-.3-.65-.67,.29-.67,.65-.67,.65,.3,.65,.67"/><path class="j" d="M80.11,130.58c0,.37-.29,.67-.65,.67s-.65-.3-.65-.67,.29-.67,.65-.67,.65,.3,.65,.67"/><path class="j" d="M84.5,130.58c0,.37-.29,.67-.65,.67s-.65-.3-.65-.67,.29-.67,.65-.67,.65,.3,.65,.67"/><path class="j" d="M77.94,127.65c0,.37-.29,.67-.65,.67s-.65-.3-.65-.67,.29-.67,.65-.67,.65,.3,.65,.67"/><path class="j" d="M82.33,127.65c0,.37-.29,.67-.65,.67s-.65-.3-.65-.67,.29-.67,.65-.67,.65,.3,.65,.67"/><path class="j" d="M86.72,127.65c0,.37-.3,.67-.65,.67s-.65-.3-.65-.67,.29-.67,.65-.67,.65,.3,.65,.67"/><path class="j" d="M77.92,115.94c0,.37-.29,.67-.65,.67s-.65-.3-.65-.67,.29-.67,.65-.67,.65,.3,.65,.67"/><path class="j" d="M82.3,115.94c0,.37-.29,.67-.65,.67s-.65-.3-.65-.67,.29-.67,.65-.67,.65,.3,.65,.67"/><path class="j" d="M86.7,115.94c0,.37-.29,.67-.65,.67s-.65-.3-.65-.67,.29-.67,.65-.67,.65,.3,.65,.67"/><path class="j" d="M80.11,118.87c0,.37-.29,.67-.65,.67s-.65-.3-.65-.67,.29-.67,.65-.67,.65,.3,.65,.67"/><path class="j" d="M84.5,118.87c0,.37-.29,.67-.65,.67s-.65-.3-.65-.67,.29-.67,.65-.67,.65,.3,.65,.67"/><path class="j" d="M80.11,136.44c0,.37-.29,.67-.65,.67s-.65-.3-.65-.67,.29-.67,.65-.67,.65,.3,.65,.67"/><path class="j" d="M84.5,136.44c0,.37-.29,.67-.65,.67s-.65-.3-.65-.67,.29-.67,.65-.67,.65,.3,.65,.67"/><path class="j" d="M77.94,133.51c0,.37-.29,.67-.65,.67s-.65-.3-.65-.67,.29-.67,.65-.67,.65,.3,.65,.67"/><path class="j" d="M82.33,133.51c0,.37-.29,.67-.65,.67s-.65-.3-.65-.67,.29-.67,.65-.67,.65,.3,.65,.67"/><path class="j" d="M86.72,133.51c0,.37-.3,.67-.65,.67s-.65-.3-.65-.67,.29-.67,.65-.67,.65,.3,.65,.67"/><path class="j" d="M92.93,133.86c0,.37-.29,.67-.65,.67s-.65-.3-.65-.67,.29-.67,.65-.67,.65,.3,.65,.67"/><path class="j" d="M97.32,133.86c0,.37-.29,.67-.65,.67s-.65-.3-.65-.67,.29-.67,.65-.67,.65,.3,.65,.67"/><path class="j" d="M101.71,133.86c0,.37-.29,.67-.65,.67s-.65-.3-.65-.67,.29-.67,.65-.67,.65,.3,.65,.67"/><path class="j" d="M95.1,136.78c0,.37-.29,.67-.65,.67s-.65-.3-.65-.67,.29-.67,.65-.67,.65,.3,.65,.67"/><path class="j" d="M99.49,136.78c0,.37-.29,.67-.65,.67s-.65-.3-.65-.67,.29-.67,.65-.67,.65,.3,.65,.67"/><path class="j" d="M95.1,130.93c0,.37-.29,.67-.65,.67s-.65-.3-.65-.67,.29-.67,.65-.67,.65,.3,.65,.67"/><path class="j" d="M99.49,130.93c0,.37-.29,.67-.65,.67s-.65-.3-.65-.67,.29-.67,.65-.67,.65,.3,.65,.67"/><path class="j" d="M107.26,133.86c0,.37-.29,.67-.65,.67s-.65-.3-.65-.67,.29-.67,.65-.67,.65,.3,.65,.67"/><path class="j" d="M111.65,133.86c0,.37-.3,.67-.65,.67s-.65-.3-.65-.67,.29-.67,.65-.67,.65,.3,.65,.67"/><path class="j" d="M116.04,133.86c0,.37-.29,.67-.65,.67s-.65-.3-.65-.67,.29-.67,.65-.67,.65,.3,.65,.67"/><path class="j" d="M109.43,136.78c0,.37-.3,.67-.65,.67s-.65-.3-.65-.67,.29-.67,.65-.67,.65,.3,.65,.67"/><path class="j" d="M113.82,136.78c0,.37-.29,.67-.65,.67s-.65-.3-.65-.67,.29-.67,.65-.67,.65,.3,.65,.67"/><path class="j" d="M109.43,130.93c0,.37-.3,.67-.65,.67s-.65-.3-.65-.67,.29-.67,.65-.67,.65,.3,.65,.67"/><path class="j" d="M113.82,130.93c0,.37-.29,.67-.65,.67s-.65-.3-.65-.67,.29-.67,.65-.67,.65,.3,.65,.67"/><path class="j" d="M121.59,133.86c0,.37-.29,.67-.65,.67s-.65-.3-.65-.67,.29-.67,.65-.67,.65,.3,.65,.67"/><path class="j" d="M125.98,133.86c0,.37-.29,.67-.65,.67s-.65-.3-.65-.67,.29-.67,.65-.67,.65,.3,.65,.67"/><path class="j" d="M130.37,133.86c0,.37-.29,.67-.65,.67s-.65-.3-.65-.67,.29-.67,.65-.67,.65,.3,.65,.67"/><path class="j" d="M123.76,136.78c0,.37-.3,.67-.65,.67s-.65-.3-.65-.67,.29-.67,.65-.67,.65,.3,.65,.67"/><path class="j" d="M128.15,136.78c0,.37-.29,.67-.65,.67s-.65-.3-.65-.67,.29-.67,.65-.67,.65,.3,.65,.67"/><path class="j" d="M123.76,130.93c0,.37-.3,.67-.65,.67s-.65-.3-.65-.67,.29-.67,.65-.67,.65,.3,.65,.67"/><path class="j" d="M128.15,130.93c0,.37-.29,.67-.65,.67s-.65-.3-.65-.67,.29-.67,.65-.67,.65,.3,.65,.67"/></g><g><g><path class="j" d="M178.04,79.41c0,.37-.3,.67-.65,.67s-.65-.3-.65-.67,.29-.67,.65-.67,.65,.3,.65,.67"/><path class="j" d="M182.42,79.41c0,.37-.29,.67-.65,.67s-.65-.3-.65-.67,.29-.67,.65-.67,.65,.3,.65,.67"/><path class="j" d="M186.82,79.41c0,.37-.29,.67-.65,.67s-.65-.3-.65-.67,.29-.67,.65-.67,.65,.3,.65,.67"/><path class="j" d="M180.21,82.34c0,.37-.29,.67-.65,.67s-.65-.3-.65-.67,.29-.67,.65-.67,.65,.3,.65,.67"/><path class="j" d="M184.59,82.34c0,.37-.29,.67-.65,.67s-.65-.3-.65-.67,.29-.67,.65-.67,.65,.3,.65,.67"/><path class="j" d="M178.01,73.56c0,.37-.29,.67-.65,.67s-.65-.3-.65-.67,.29-.67,.65-.67,.65,.3,.65,.67"/><path class="j" d="M182.4,73.56c0,.37-.29,.67-.65,.67s-.65-.3-.65-.67,.29-.67,.65-.67,.65,.3,.65,.67"/><path class="j" d="M186.79,73.56c0,.37-.29,.67-.65,.67s-.65-.3-.65-.67,.29-.67,.65-.67,.65,.3,.65,.67"/><path class="j" d="M178.01,84.92c0,.37-.29,.67-.65,.67s-.65-.3-.65-.67,.29-.67,.65-.67,.65,.3,.65,.67"/><path class="j" d="M182.4,84.92c0,.37-.29,.67-.65,.67s-.65-.3-.65-.67,.29-.67,.65-.67,.65,.3,.65,.67"/><path class="j" d="M186.79,84.92c0,.37-.29,.67-.65,.67s-.65-.3-.65-.67,.29-.67,.65-.67,.65,.3,.65,.67"/><path class="j" d="M180.21,76.48c0,.37-.29,.67-.65,.67s-.65-.3-.65-.67,.29-.67,.65-.67,.65,.3,.65,.67"/><path class="j" d="M184.59,76.48c0,.37-.29,.67-.65,.67s-.65-.3-.65-.67,.29-.67,.65-.67,.65,.3,.65,.67"/></g><g><path class="j" d="M248.25,79.41c0,.37-.29,.67-.65,.67s-.65-.3-.65-.67,.29-.67,.65-.67,.65,.3,.65,.67"/><path class="j" d="M252.64,79.41c0,.37-.3,.67-.65,.67s-.65-.3-.65-.67,.29-.67,.65-.67,.65,.3,.65,.67"/><path class="j" d="M257.03,79.41c0,.37-.29,.67-.65,.67s-.65-.3-.65-.67,.29-.67,.65-.67,.65,.3,.65,.67"/><path class="j" d="M250.42,82.34c0,.37-.3,.67-.65,.67s-.65-.3-.65-.67,.29-.67,.65-.67,.65,.3,.65,.67"/><path class="j" d="M254.81,82.34c0,.37-.29,.67-.65,.67s-.65-.3-.65-.67,.29-.67,.65-.67,.65,.3,.65,.67"/><path class="j" d="M248.23,73.56c0,.37-.29,.67-.65,.67s-.65-.3-.65-.67,.29-.67,.65-.67,.65,.3,.65,.67"/><path class="j" d="M252.62,73.56c0,.37-.3,.67-.65,.67s-.65-.3-.65-.67,.29-.67,.65-.67,.65,.3,.65,.67"/><path class="j" d="M257.01,73.56c0,.37-.29,.67-.65,.67s-.65-.3-.65-.67,.29-.67,.65-.67,.65,.3,.65,.67"/><path class="j" d="M248.23,84.92c0,.37-.29,.67-.65,.67s-.65-.3-.65-.67,.29-.67,.65-.67,.65,.3,.65,.67"/><path class="j" d="M252.62,84.92c0,.37-.3,.67-.65,.67s-.65-.3-.65-.67,.29-.67,.65-.67,.65,.3,.65,.67"/><path class="j" d="M257.01,84.92c0,.37-.29,.67-.65,.67s-.65-.3-.65-.67,.29-.67,.65-.67,.65,.3,.65,.67"/><path class="j" d="M250.42,76.48c0,.37-.3,.67-.65,.67s-.65-.3-.65-.67,.29-.67,.65-.67,.65,.3,.65,.67"/><path class="j" d="M254.81,76.48c0,.37-.29,.67-.65,.67s-.65-.3-.65-.67,.29-.67,.65-.67,.65,.3,.65,.67"/></g><path class="j" d="M177.59,140.69c0,.37-.29,.67-.65,.67s-.65-.3-.65-.67,.29-.67,.65-.67,.65,.3,.65,.67"/><path class="j" d="M181.98,140.69c0,.37-.29,.67-.65,.67s-.65-.3-.65-.67,.29-.67,.65-.67,.65,.3,.65,.67"/><path class="j" d="M186.37,140.69c0,.37-.29,.67-.65,.67s-.65-.3-.65-.67,.29-.67,.65-.67,.65,.3,.65,.67"/><path class="j" d="M190.76,140.69c0,.37-.29,.67-.65,.67s-.65-.3-.65-.67,.29-.67,.65-.67,.65,.3,.65,.67"/><path class="j" d="M195.15,140.69c0,.37-.29,.67-.65,.67s-.65-.3-.65-.67,.29-.67,.65-.67,.65,.3,.65,.67"/><path class="j" d="M199.54,140.69c0,.37-.29,.67-.65,.67s-.65-.3-.65-.67,.29-.67,.65-.67,.65,.3,.65,.67"/><path class="j" d="M177.56,134.83c0,.37-.3,.67-.65,.67s-.65-.3-.65-.67,.29-.67,.65-.67,.65,.3,.65,.67"/><path class="j" d="M181.95,134.83c0,.37-.29,.67-.65,.67s-.65-.3-.65-.67,.29-.67,.65-.67,.65,.3,.65,.67"/><path class="j" d="M186.34,134.83c0,.37-.29,.67-.65,.67s-.65-.3-.65-.67,.29-.67,.65-.67,.65,.3,.65,.67"/><path class="j" d="M190.73,134.83c0,.37-.29,.67-.65,.67s-.65-.3-.65-.67,.29-.67,.65-.67,.65,.3,.65,.67"/><path class="j" d="M195.12,134.83c0,.37-.29,.67-.65,.67s-.65-.3-.65-.67,.29-.67,.65-.67,.65,.3,.65,.67"/><path class="j" d="M199.51,134.83c0,.37-.29,.67-.65,.67s-.65-.3-.65-.67,.29-.67,.65-.67,.65,.3,.65,.67"/><path class="j" d="M203.91,134.83c0,.37-.29,.67-.65,.67s-.65-.3-.65-.67,.29-.67,.65-.67,.65,.3,.65,.67"/><path class="j" d="M179.76,137.76c0,.37-.3,.67-.65,.67s-.65-.3-.65-.67,.29-.67,.65-.67,.65,.3,.65,.67"/><path class="j" d="M184.15,137.76c0,.37-.29,.67-.65,.67s-.65-.3-.65-.67,.29-.67,.65-.67,.65,.3,.65,.67"/><path class="j" d="M188.54,137.76c0,.37-.29,.67-.65,.67s-.65-.3-.65-.67,.29-.67,.65-.67,.65,.3,.65,.67"/><path class="j" d="M192.93,137.76c0,.37-.29,.67-.65,.67s-.65-.3-.65-.67,.29-.67,.65-.67,.65,.3,.65,.67"/><path class="j" d="M197.32,137.76c0,.37-.29,.67-.65,.67s-.65-.3-.65-.67,.29-.67,.65-.67,.65,.3,.65,.67"/><path class="j" d="M201.71,137.76c0,.37-.3,.67-.65,.67s-.65-.3-.65-.67,.29-.67,.65-.67,.65,.3,.65,.67"/><path class="j" d="M203.93,140.69c0,.37-.29,.67-.65,.67s-.65-.3-.65-.67,.29-.67,.65-.67,.65,.3,.65,.67"/><path class="j" d="M239.33,140.69c0,.37-.29,.67-.65,.67s-.65-.3-.65-.67,.29-.67,.65-.67,.65,.3,.65,.67"/><path class="j" d="M243.73,140.69c0,.37-.29,.67-.65,.67s-.65-.3-.65-.67,.29-.67,.65-.67,.65,.3,.65,.67"/><path class="j" d="M248.11,140.69c0,.37-.29,.67-.65,.67s-.65-.3-.65-.67,.29-.67,.65-.67,.65,.3,.65,.67"/><path class="j" d="M252.51,140.69c0,.37-.3,.67-.65,.67s-.65-.3-.65-.67,.29-.67,.65-.67,.65,.3,.65,.67"/><path class="j" d="M256.9,140.69c0,.37-.29,.67-.65,.67s-.65-.3-.65-.67,.29-.67,.65-.67,.65,.3,.65,.67"/><path class="j" d="M239.31,134.83c0,.37-.29,.67-.65,.67s-.65-.3-.65-.67,.29-.67,.65-.67,.65,.3,.65,.67"/><path class="j" d="M243.7,134.83c0,.37-.29,.67-.65,.67s-.65-.3-.65-.67,.29-.67,.65-.67,.65,.3,.65,.67"/><path class="j" d="M248.09,134.83c0,.37-.29,.67-.65,.67s-.65-.3-.65-.67,.29-.67,.65-.67,.65,.3,.65,.67"/><path class="j" d="M252.48,134.83c0,.37-.29,.67-.65,.67s-.65-.3-.65-.67,.29-.67,.65-.67,.65,.3,.65,.67"/><path class="j" d="M256.87,134.83c0,.37-.29,.67-.65,.67s-.65-.3-.65-.67,.29-.67,.65-.67,.65,.3,.65,.67"/><path class="j" d="M241.51,137.76c0,.37-.3,.67-.65,.67s-.65-.3-.65-.67,.29-.67,.65-.67,.65,.3,.65,.67"/><path class="j" d="M245.9,137.76c0,.37-.29,.67-.65,.67s-.65-.3-.65-.67,.29-.67,.65-.67,.65,.3,.65,.67"/><path class="j" d="M250.29,137.76c0,.37-.29,.67-.65,.67s-.65-.3-.65-.67,.29-.67,.65-.67,.65,.3,.65,.67"/><path class="j" d="M254.68,137.76c0,.37-.29,.67-.65,.67s-.65-.3-.65-.67,.29-.67,.65-.67,.65,.3,.65,.67"/></g><path class="e" d="M127.21,69.62c0,2.12-1.71,3.83-3.83,3.83s-3.83-1.71-3.83-3.83,1.72-3.83,3.83-3.83,3.83,1.71,3.83,3.83Z"/><path class="e" d="M219.88,69.62c0,2.12-1.71,3.83-3.83,3.83s-3.83-1.71-3.83-3.83,1.72-3.83,3.83-3.83,3.83,1.71,3.83,3.83Z"/><path class="e" d="M255.02,69.62c0,2.12-1.71,3.83-3.83,3.83s-3.83-1.71-3.83-3.83,1.72-3.83,3.83-3.83,3.83,1.71,3.83,3.83Z"/><path class="e" d="M186.02,69.62c0,2.12-1.71,3.83-3.83,3.83s-3.83-1.71-3.83-3.83,1.72-3.83,3.83-3.83,3.83,1.71,3.83,3.83Z"/><path class="e" d="M91.21,69.62c0,2.12-1.71,3.83-3.83,3.83s-3.83-1.71-3.83-3.83,1.72-3.83,3.83-3.83,3.83,1.71,3.83,3.83Z"/><path class="e" d="M163.87,69.62c0,2.12-1.71,3.83-3.83,3.83s-3.83-1.71-3.83-3.83,1.72-3.83,3.83-3.83,3.83,1.71,3.83,3.83Z"/><path class="e" d="M259.82,88.46v-4.76h-86.26v4.76h9v4.26h-9v5.96h86.26v-5.96h-9v-4.26h9Zm-41.34,0h12.6v4.26h-12.6v-4.26Zm-3.57,4.26h-12.6v-4.26h12.6v4.26Zm-28.77-4.26h12.6v4.26h-12.6v-4.26Zm61.12,4.26h-12.6v-4.26h12.6v4.26Z"/></g><text class="n" transform="translate(192.45 27.11)"><tspan class="o" x="0" y="0">st</tspan><tspan class="k" x="15" y="0">ay</tspan></text><text class="l" transform="translate(164.86 173.21)"><tspan x="0" y="0">eat</tspan></text><text class="n" transform="translate(75.43 173.21)"><tspan class="m" x="0" y="0">w</tspan><tspan class="o" x="13.08" y="0">o</tspan><tspan class="m" x="23.3" y="0">r</tspan><tspan class="p" x="30.54" y="0">k</tspan></text><line class="h" x1="151.33" y1="134.49" x2="119.64" y2="166.18"/><line class="h" x1="222.46" y1="134.49" x2="190.76" y2="166.18"/><line class="h" x1="188.71" y1="24.98" x2="157.02" y2="56.67"/></svg>