<svg id="layer1" xmlns="http://www.w3.org/2000/svg" viewBox="0 0 24 24"><defs><style>.cls-1{fill:#3a372f;}</style></defs><path class="cls-1" d="M20.29,8.15A13.06,13.06,0,0,1,18.87,14a12,12,0,0,1-4.11,4.78,11.34,11.34,0,0,1-6.62,2,11.48,11.48,0,0,1-6.54-2c.3,0,.64,0,1,0A8.24,8.24,0,0,0,7.94,17a3.86,3.86,0,0,1-2.5-.87A4.38,4.38,0,0,1,4,13.9a6.93,6.93,0,0,0,.77,0,5.54,5.54,0,0,0,1.14-.13,4.29,4.29,0,0,1-2.44-1.57,4.36,4.36,0,0,1-1-2.79V9.38A4,4,0,0,0,4.36,10,4.79,4.79,0,0,1,3,8.36a4.43,4.43,0,0,1-.53-2.13A4.48,4.48,0,0,1,3.06,4,11.73,11.73,0,0,0,6.94,7.3a11.49,11.49,0,0,0,4.9,1.36,5.84,5.84,0,0,1-.08-1,4.53,4.53,0,0,1,.57-2.22,4.24,4.24,0,0,1,1.54-1.63,4.09,4.09,0,0,1,3.84-.21,4.67,4.67,0,0,1,1.4,1,8.52,8.52,0,0,0,2.72-1.06A4.36,4.36,0,0,1,20,6a8.6,8.6,0,0,0,2.44-.72A9.57,9.57,0,0,1,20.25,7.6,3.25,3.25,0,0,1,20.29,8.15Z"/></svg>