<svg id="layer1" xmlns="http://www.w3.org/2000/svg" viewBox="0 0 329 70"><defs><style>.cls-1{fill:#7e0f09;}</style></defs><path class="cls-1" d="M124.24,61.87,129.43,67a9.6,9.6,0,0,0,2.18,1.74,4.55,4.55,0,0,0,1.81.52v.39h-6.7v-.39a1.43,1.43,0,0,0,.87-.2.57.57,0,0,0,.26-.45.93.93,0,0,0-.1-.45,3.73,3.73,0,0,0-.65-.73l-4.86-4.81v4.54a4.61,4.61,0,0,0,.14,1.41.91.91,0,0,0,.43.44,1.9,1.9,0,0,0,1,.25h.48v.39h-6v-.39h.5a1.53,1.53,0,0,0,1.27-.5,3.15,3.15,0,0,0,.25-1.6v-9.1a4.69,4.69,0,0,0-.14-1.42,1,1,0,0,0-.42-.44,2,2,0,0,0-1-.25h-.5V55.6h6V56h-.48a2,2,0,0,0-1,.24.9.9,0,0,0-.44.5,4.44,4.44,0,0,0-.13,1.37V62.4l1.43-1.32a31.24,31.24,0,0,0,3.72-3.77,1.35,1.35,0,0,0,.28-.73.54.54,0,0,0-.21-.42,1.2,1.2,0,0,0-.74-.18h-.32V55.6h5.17V56a3,3,0,0,0-.83.13,3.91,3.91,0,0,0-.92.44,9.55,9.55,0,0,0-1.33,1.05q-.23.21-2.1,2.13Z"/><path class="cls-1" d="M148.06,55.6H153V56h-.27a2.08,2.08,0,0,0-.79.24,3.12,3.12,0,0,0-.95.69,9.52,9.52,0,0,0-1.05,1.45l-3.39,5.35v3.53a2.77,2.77,0,0,0,.29,1.62,1.61,1.61,0,0,0,1.25.43h.45v.39h-6v-.39h.5a1.44,1.44,0,0,0,1.27-.54,3.18,3.18,0,0,0,.22-1.51V63.9L140.66,58a12.17,12.17,0,0,0-.93-1.3,3.65,3.65,0,0,0-1-.62,1.37,1.37,0,0,0-.6-.11V55.6h6V56h-.31a1.83,1.83,0,0,0-.9.23.74.74,0,0,0-.41.69,3.32,3.32,0,0,0,.63,1.34l2.94,4.54,2.76-4.34a3.17,3.17,0,0,0,.63-1.45.91.91,0,0,0-.15-.52,1.09,1.09,0,0,0-.43-.36,2,2,0,0,0-.84-.13Z"/><path class="cls-1" d="M165.74,55.28a6.39,6.39,0,0,1,4.75,2.08,7.18,7.18,0,0,1,2,5.19,7.41,7.41,0,0,1-2,5.33,6.77,6.77,0,0,1-9.79.05,7.43,7.43,0,0,1-2-5.34A7.15,7.15,0,0,1,161,57.11,6.75,6.75,0,0,1,165.74,55.28Zm-.2.75a3.7,3.7,0,0,0-3,1.41,7.89,7.89,0,0,0-1.43,5.1,8.39,8.39,0,0,0,1.48,5.31,3.64,3.64,0,0,0,3,1.41,4.11,4.11,0,0,0,3.28-1.54,7.59,7.59,0,0,0,1.29-4.89,8.56,8.56,0,0,0-1.42-5.38A3.84,3.84,0,0,0,165.54,56Z"/><path class="cls-1" d="M190.86,55.6l.16,3.3h-.4a3.92,3.92,0,0,0-.31-1.25,2.07,2.07,0,0,0-.85-.88,3,3,0,0,0-1.41-.29h-2V67.24a2.85,2.85,0,0,0,.29,1.62,1.54,1.54,0,0,0,1.21.43h.49v.39h-6v-.39h.5a1.42,1.42,0,0,0,1.26-.54,3.14,3.14,0,0,0,.23-1.51V56.48h-1.69a4.53,4.53,0,0,0-1.4.15,2,2,0,0,0-.93.75,3.18,3.18,0,0,0-.46,1.52h-.39l.17-3.3Z"/><path class="cls-1" d="M204,55.28a6.39,6.39,0,0,1,4.75,2.08,7.18,7.18,0,0,1,2,5.19,7.41,7.41,0,0,1-2,5.33,6.77,6.77,0,0,1-9.79.05,7.39,7.39,0,0,1-2-5.34,7.16,7.16,0,0,1,2.29-5.48A6.75,6.75,0,0,1,204,55.28Zm-.2.75a3.7,3.7,0,0,0-3,1.41,7.89,7.89,0,0,0-1.43,5.1,8.33,8.33,0,0,0,1.48,5.31,3.64,3.64,0,0,0,3,1.41,4.11,4.11,0,0,0,3.28-1.54,7.59,7.59,0,0,0,1.29-4.89A8.56,8.56,0,0,0,207,57.45,3.84,3.84,0,0,0,203.81,56Z"/><path class="cls-1" d="M14.24,31.81a6.46,6.46,0,0,1-5.58-2.68c-.62-.89-1.34-2.71-1.34-6.44V0H8.59V22.69c0,3.71.77,5.22,1.1,5.7a5.15,5.15,0,0,0,4.55,2.15,5.16,5.16,0,0,0,4.59-2.17c.33-.45,1.09-1.9,1.09-5.68V0h1.27V22.69c0,3.8-.72,5.59-1.33,6.43A6.48,6.48,0,0,1,14.24,31.81Z"/><path class="cls-1" d="M14.24,38.74A14,14,0,0,1,0,24.32V0H5.28V22.69c0,3.44.58,6,1.72,7.62a8.47,8.47,0,0,0,7.24,3.54,8.5,8.5,0,0,0,7.27-3.54c1.14-1.56,1.72-4.13,1.72-7.62V0h5.28V24.32a13.89,13.89,0,0,1-3.79,10A14.07,14.07,0,0,1,14.24,38.74Z"/><polygon class="cls-1" points="43.36 38.74 43.36 0 71.1 25.85 71.1 0 76.38 0 76.38 38.74 48.64 12.97 48.64 38.74 43.36 38.74"/><polygon class="cls-1" points="295.98 38.74 295.98 0 323.72 25.85 323.72 0 329 0 329 38.74 301.26 12.97 301.26 38.74 295.98 38.74"/><polygon class="cls-1" points="113.13 38.74 98.8 21.04 97.22 22.63 97.22 38.74 91.94 38.74 91.94 0 97.22 0 97.22 16.21 113.04 0 120.03 0 102.56 17.49 120.22 38.74 113.13 38.74"/><path class="cls-1" d="M204.38,32a11.88,11.88,0,0,1-8.55-3.59,12,12,0,0,1-3.71-9.13,12,12,0,0,1,3.6-8.9,12.47,12.47,0,0,1,17.59,0,12.18,12.18,0,0,1,3.57,9,12.22,12.22,0,0,1-3.61,9A12,12,0,0,1,204.38,32Zm.15-24a10.58,10.58,0,0,0-7.91,3.25,10.8,10.8,0,0,0-3.23,8,10.79,10.79,0,0,0,3.32,8.21,11,11,0,0,0,15.65,0,11,11,0,0,0,3.25-8.1,11,11,0,0,0-3.2-8.1A10.49,10.49,0,0,0,204.53,8Z"/><path class="cls-1" d="M204.3,38.74a19.36,19.36,0,0,1-13-5A18.44,18.44,0,0,1,185,19.21a18.34,18.34,0,0,1,5.78-13.54A19.14,19.14,0,0,1,204.6,0a18.77,18.77,0,0,1,13.7,5.71A18.77,18.77,0,0,1,224,19.43a18.43,18.43,0,0,1-5.75,13.67A19.35,19.35,0,0,1,204.3,38.74Zm.23-34A13.94,13.94,0,0,0,194.27,9a14.06,14.06,0,0,0-4.18,10.33,14.1,14.1,0,0,0,4.33,10.6,14.35,14.35,0,0,0,20.29-.08,14.39,14.39,0,0,0,4.21-10.43A14.3,14.3,0,0,0,214.76,9,13.79,13.79,0,0,0,204.53,4.72Z"/><polygon class="cls-1" points="231.55 0 237.28 0 247.75 24.8 258.63 0.49 268.73 24.8 279.86 0 285.59 0 268.5 38.71 258.52 14.74 247.8 38.74 231.55 0"/><polygon class="cls-1" points="255.22 0 247.84 16.15 240.88 0 239.5 0 247.81 19.28 256.61 0 255.22 0"/><polygon class="cls-1" points="276.22 0 268.85 16.11 262.01 0 260.63 0 268.8 19.26 277.62 0 276.22 0"/><polygon class="cls-1" points="320.41 0 320.41 18.03 301.06 0 299.19 0 321.68 20.95 321.68 0 320.41 0"/><polygon class="cls-1" points="166.17 0 146.82 18.03 146.82 0 145.54 0 145.54 20.95 168.03 0 166.17 0"/><polygon class="cls-1" points="67.79 0 67.79 18.03 48.44 0 46.57 0 69.06 20.95 69.06 0 67.79 0"/><polygon class="cls-1" points="51.95 38.74 51.95 20.77 71.29 38.74 73.16 38.74 50.67 17.86 50.67 38.74 51.95 38.74"/><polygon class="cls-1" points="124.52 38.74 107.03 17.69 124.7 0 122.91 0 105.32 17.61 122.87 38.74 124.52 38.74"/><polygon class="cls-1" points="251.42 38.74 258.41 23.09 264.93 38.74 266.3 38.74 258.45 19.88 250.03 38.74 251.42 38.74"/><polygon class="cls-1" points="304.56 38.74 304.56 20.77 323.91 38.74 325.78 38.74 303.3 17.86 303.3 38.74 304.56 38.74"/><polygon class="cls-1" points="108.42 0 100.53 8.09 100.53 0 99.26 0 99.26 11.21 110.19 0 108.42 0"/><polygon class="cls-1" points="100.53 38.74 100.53 28.43 108.88 38.74 110.51 38.74 99.26 24.84 99.26 38.74 100.53 38.74"/><polygon class="cls-1" points="143.32 38.74 162.66 20.77 162.66 38.74 163.93 38.74 163.93 17.86 141.45 38.74 143.32 38.74"/><polygon class="cls-1" points="139.5 35.83 139.5 0 138.23 0 138.23 38.74 165.97 12.97 165.97 38.74 167.24 38.74 167.24 12.97 167.24 10.06 165.11 12.04 139.5 35.83"/><polygon class="cls-1" points="143.51 0 142.24 0 142.24 25.85 142.24 28.77 144.37 26.78 169.98 2.92 169.98 38.74 171.25 38.74 171.25 0 143.51 25.85 143.51 0"/></svg>