<?xml version="1.0" encoding="UTF-8"?><svg id="a" xmlns="http://www.w3.org/2000/svg" viewBox="0 0 333 191"><defs><style>.b{stroke-linecap:round;}.b,.c,.d,.e,.f,.g{stroke:#ccae6d;}.b,.c,.d,.h,.f,.g{fill:none;}.b,.c,.g{stroke-linejoin:round;}.i,.e{fill:#fff;}.j{fill:#ccae6d;}.k{fill:#4d4d4d;}.c{stroke-width:1.5px;}.d{stroke-width:.75px;}.d,.e,.h,.f{stroke-miterlimit:10;}.h{stroke:#4d4d4d;}.g{stroke-width:2px;}</style></defs><rect class="i" x="-53.52" y="-20.62" width="424.73" height="246.38"/><g><path class="j" d="M36.31,158.51c.49,.65,.8,1.33,.93,2.04,.13,.71,.06,1.41-.22,2.1-.28,.68-.77,1.3-1.49,1.84l-5.49,4.18-1.33-1.75,5.31-4.04c.46-.35,.78-.71,.96-1.06,.18-.36,.25-.71,.2-1.05s-.2-.69-.46-1.04c-.26-.35-.56-.59-.88-.73-.33-.14-.69-.17-1.08-.08s-.83,.3-1.3,.66l-5.27,4.01-1.33-1.74,5.49-4.18c.72-.54,1.44-.86,2.17-.94,.73-.08,1.43,.03,2.08,.35,.65,.32,1.23,.8,1.72,1.44Z"/><path class="j" d="M32.04,153.05l-9.39,5.61-.77-1.28,3.26-10.06,.47,.43-6.97,4.22-1.09-1.83,9.39-5.61,.75,1.26-3.27,10.03-.46-.38,6.98-4.21,1.09,1.83Z"/><path class="j" d="M25.43,141.49l-9.97,4.5-.89-1.98,4.07-1.8-5.65-1.68-1.11-2.46,7.35,2.39-1.39,.59,3.96-7.59,1.14,2.52-3.42,6.08-.19-1.14,.88,.57,4.32-1.98,.89,1.98Z"/><path class="j" d="M21.06,131.51l-10.42,3.33-.45-1.42,5.47-9.05,.37,.52-7.75,2.52-.65-2.03,10.42-3.33,.45,1.4-5.46,9.02-.37-.48,7.76-2.51,.65,2.03Z"/><path class="j" d="M16.59,114.24c.19,1.01,.13,1.99-.19,2.94s-.85,1.77-1.61,2.44-1.67,1.11-2.73,1.31c-1.01,.19-1.98,.11-2.93-.25-.95-.36-1.75-.92-2.41-1.7-.66-.78-1.08-1.68-1.28-2.72-.19-1.02-.12-2,.21-2.96,.33-.96,.87-1.77,1.63-2.45,.75-.67,1.65-1.11,2.68-1.3,1.04-.2,2.03-.12,2.97,.24,.94,.35,1.74,.92,2.4,1.71,.66,.79,1.08,1.7,1.27,2.73Zm-1.98,.36c-.12-.65-.39-1.21-.81-1.7-.42-.49-.93-.84-1.53-1.05s-1.25-.25-1.92-.12c-.67,.12-1.24,.39-1.73,.81-.49,.41-.84,.92-1.06,1.51-.22,.6-.26,1.22-.14,1.88,.12,.64,.39,1.2,.81,1.68,.42,.48,.93,.83,1.54,1.04,.61,.21,1.24,.25,1.89,.13,.68-.13,1.27-.41,1.75-.83,.49-.43,.83-.93,1.05-1.53,.21-.59,.26-1.2,.15-1.81Z"/><path class="j" d="M14.84,103.23l-10.72,4.73-.11-2.32,6.97-2.84-7.2-2.17-.05-.96,6.97-2.75-7.21-2.33-.11-2.33,11.13,3.87,.06,1.23-6.67,2.61,6.89,2.05,.06,1.2Z"/><path class="j" d="M14.52,90.07l-10.89-.96,.13-1.49,8.54-6.24,.13,.62-8.12-.67,.19-2.12,10.89,.96-.13,1.46-8.52,6.21-.15-.58,8.12,.68-.19,2.12Z"/><path class="j" d="M16.67,72.96l-10.62-2.59,.52-2.11,4.32,1.08-3.41-4.8,.64-2.62,4.32,6.41-1.46-.39,7.79-3.55-.66,2.69-6.43,2.69,.55-1.02,.34,.99,4.63,1.1-.52,2.11Z"/><path class="j" d="M20.26,60.07l-4.46-1.58-7.06,1.34,.83-2.35,4.62-.73-3.14-3.44,.84-2.36,4.63,5.51,4.46,1.58-.72,2.04Z"/><path class="j" d="M25.13,48.75c-.44,.92-1.08,1.68-1.9,2.26-.82,.58-1.74,.92-2.75,1.01-1.01,.09-2-.09-2.98-.56-.92-.44-1.66-1.09-2.21-1.94s-.86-1.78-.93-2.8c-.07-1.02,.12-2,.58-2.95,.45-.93,1.09-1.69,1.92-2.26,.83-.57,1.75-.91,2.76-1.01,1.01-.09,1.98,.09,2.93,.54,.95,.46,1.7,1.11,2.25,1.95,.55,.84,.85,1.78,.92,2.8,.06,1.02-.14,2.01-.59,2.96Zm-1.81-.89c.29-.59,.4-1.21,.36-1.85-.05-.64-.25-1.22-.61-1.75-.36-.53-.85-.94-1.47-1.24-.61-.29-1.23-.42-1.87-.38-.64,.04-1.22,.24-1.75,.59-.53,.35-.94,.83-1.23,1.43-.28,.58-.39,1.19-.34,1.83,.05,.64,.26,1.22,.62,1.75,.36,.53,.84,.94,1.45,1.23,.63,.3,1.26,.43,1.91,.37s1.23-.26,1.75-.61,.92-.81,1.19-1.37Z"/><path class="j" d="M29.34,40.46l-7.62-4.63-1.27,2.09-1.72-1.05,3.68-6.05,1.72,1.05-1.27,2.08,7.62,4.63-1.14,1.87Z"/><path class="j" d="M35.85,31.1c-.62,.82-1.38,1.43-2.3,1.85-.92,.41-1.88,.56-2.89,.46-1.01-.1-1.95-.48-2.81-1.13-.82-.62-1.42-1.39-1.79-2.33-.38-.94-.5-1.92-.37-2.93,.13-1.01,.51-1.94,1.14-2.78,.62-.83,1.4-1.44,2.33-1.84,.93-.4,1.9-.55,2.9-.45,1.01,.1,1.93,.47,2.77,1.1,.84,.63,1.45,1.42,1.83,2.35,.38,.93,.49,1.91,.35,2.92-.14,1.01-.52,1.94-1.16,2.79Zm-1.6-1.22c.39-.53,.63-1.11,.71-1.74,.08-.64,0-1.25-.26-1.84s-.65-1.09-1.2-1.5c-.54-.41-1.13-.65-1.76-.73-.63-.08-1.24,0-1.83,.24-.59,.24-1.08,.63-1.48,1.16-.39,.52-.62,1.09-.69,1.73-.07,.64,.02,1.25,.27,1.84s.65,1.08,1.18,1.48c.56,.42,1.16,.66,1.8,.73,.64,.07,1.25-.01,1.83-.26,.58-.24,1.06-.61,1.44-1.12Z"/></g><g><path class="j" d="M297.54,31.62c-.48-.65-.79-1.34-.91-2.05-.12-.72-.04-1.42,.25-2.09,.28-.68,.79-1.29,1.51-1.82l5.55-4.11,1.31,1.77-5.36,3.97c-.47,.35-.79,.69-.98,1.05-.18,.35-.25,.7-.21,1.05,.04,.35,.19,.7,.45,1.05s.55,.6,.88,.74c.32,.15,.68,.18,1.08,.1,.4-.08,.83-.29,1.31-.64l5.33-3.94,1.3,1.76-5.55,4.11c-.72,.54-1.45,.84-2.18,.91-.73,.07-1.42-.05-2.07-.38-.65-.33-1.22-.81-1.7-1.47Z"/><path class="j" d="M301.74,37.13l9.46-5.48,.75,1.29-3.4,10.02-.47-.43,7.03-4.12,1.07,1.84-9.46,5.48-.74-1.27,3.4-9.98,.46,.39-7.04,4.11-1.07-1.84Z"/><path class="j" d="M308.18,48.76l10.03-4.37,.87,1.99-4.09,1.75,5.62,1.76,1.08,2.47-7.32-2.49,1.39-.58-4.06,7.54-1.11-2.54,3.5-6.03,.18,1.14-.87-.58-4.35,1.93-.87-1.99Z"/><path class="j" d="M312.32,58.54l10.45-3.22,.44,1.43-5.56,9-.36-.53,7.78-2.44,.63,2.04-10.45,3.22-.43-1.4,5.56-8.96,.36,.48-7.78,2.42-.63-2.04Z"/><path class="j" d="M316.52,75.31c-.18-1.01-.12-1.99,.21-2.94,.32-.95,.86-1.76,1.63-2.44,.76-.67,1.68-1.1,2.74-1.3,1.01-.18,1.99-.09,2.93,.27,.95,.36,1.75,.93,2.4,1.71,.65,.78,1.08,1.69,1.27,2.72,.19,1.02,.11,2-.23,2.96-.34,.96-.88,1.77-1.64,2.44-.76,.67-1.65,1.1-2.69,1.29s-2.03,.11-2.97-.25c-.94-.36-1.74-.93-2.39-1.72-.65-.79-1.07-1.7-1.26-2.74Zm1.99-.35c.12,.65,.38,1.21,.8,1.71,.41,.49,.92,.84,1.53,1.05s1.24,.26,1.92,.14c.67-.12,1.24-.39,1.73-.8,.49-.41,.85-.91,1.07-1.51,.22-.6,.27-1.22,.15-1.88-.12-.64-.38-1.2-.8-1.68-.42-.48-.93-.83-1.53-1.05s-1.23-.26-1.89-.14c-.68,.13-1.27,.4-1.76,.82-.49,.42-.84,.93-1.06,1.52-.22,.59-.27,1.19-.16,1.81Z"/><path class="j" d="M318.16,85.77l10.72-4.73,.11,2.32-6.97,2.84,7.2,2.17,.05,.96-6.97,2.75,7.21,2.33,.11,2.33-11.13-3.87-.06-1.23,6.67-2.61-6.89-2.05-.06-1.2Z"/><path class="j" d="M318.49,98.62l10.9,.92-.13,1.49-8.52,6.26-.14-.62,8.12,.65-.18,2.12-10.9-.92,.12-1.46,8.5-6.24,.15,.58-8.12-.66,.18-2.12Z"/><path class="j" d="M316.39,115.76l10.63,2.56-.51,2.12-4.32-1.07,3.42,4.79-.63,2.62-4.33-6.4,1.46,.38-7.78,3.57,.65-2.69,6.42-2.7-.54,1.02-.34-.99-4.63-1.09,.51-2.12Z"/><path class="j" d="M312.92,128.4l4.46,1.56,7.05-1.38-.82,2.36-4.61,.76,3.15,3.42-.83,2.37-4.66-5.48-4.46-1.56,.71-2.04Z"/><path class="j" d="M308.24,139.46c.44-.93,1.06-1.68,1.88-2.27,.82-.59,1.73-.93,2.74-1.03s2,.08,2.98,.54c.93,.44,1.67,1.08,2.23,1.92,.56,.85,.88,1.78,.96,2.79s-.11,2-.56,2.95c-.44,.94-1.08,1.69-1.91,2.28-.83,.58-1.75,.92-2.75,1.03-1,.1-1.98-.07-2.94-.52-.95-.45-1.71-1.09-2.26-1.93-.56-.84-.87-1.77-.94-2.79-.07-1.02,.12-2.01,.57-2.96Zm1.82,.87c-.28,.59-.39,1.21-.34,1.85,.05,.64,.26,1.22,.63,1.75s.86,.93,1.48,1.23c.61,.29,1.24,.41,1.87,.36,.64-.05,1.22-.25,1.74-.61,.53-.36,.93-.84,1.21-1.44,.28-.59,.38-1.2,.33-1.83-.06-.64-.27-1.22-.64-1.74-.37-.53-.85-.93-1.46-1.21-.63-.3-1.27-.42-1.91-.35-.64,.06-1.22,.27-1.74,.62-.52,.35-.91,.82-1.18,1.38Z"/><path class="j" d="M304.1,147.8l7.66,4.57,1.26-2.1,1.73,1.03-3.63,6.08-1.73-1.03,1.25-2.09-7.66-4.57,1.12-1.88Z"/><path class="j" d="M297.66,157.21c.61-.83,1.37-1.45,2.29-1.86s1.88-.58,2.89-.48c1.01,.1,1.95,.47,2.82,1.11,.82,.61,1.43,1.38,1.81,2.32,.38,.94,.51,1.91,.39,2.92-.12,1.01-.49,1.94-1.12,2.79-.61,.83-1.38,1.45-2.31,1.86-.93,.41-1.89,.57-2.9,.47-1.01-.09-1.93-.45-2.78-1.08-.85-.63-1.46-1.4-1.85-2.33-.38-.93-.51-1.91-.38-2.92,.13-1.02,.51-1.95,1.13-2.79Zm1.61,1.21c-.39,.53-.62,1.11-.7,1.75-.07,.64,.02,1.25,.28,1.84s.66,1.08,1.21,1.49c.54,.4,1.13,.64,1.77,.72s1.24,0,1.83-.25,1.08-.64,1.47-1.18c.38-.52,.61-1.1,.68-1.74s-.03-1.25-.29-1.83-.66-1.08-1.19-1.47c-.56-.41-1.16-.65-1.8-.72s-1.25,.02-1.83,.27c-.58,.25-1.05,.62-1.43,1.13Z"/></g><rect class="f" x="38.29" y="16.29" width="3.11" height="3.11"/><rect class="f" x="38.29" y="171.61" width="3.11" height="3.11"/><rect class="f" x="289.31" y="16.29" width="3.11" height="3.11"/><rect class="f" x="289.31" y="171.61" width="3.11" height="3.11"/><g><line class="b" x1="67.66" y1="143.89" x2="265.34" y2="143.89"/><line class="f" x1="132.5" y1="143.89" x2="132.5" y2="106.22"/><line class="f" x1="145.97" y1="109.91" x2="145.97" y2="106.22"/><line class="f" x1="173.56" y1="66.85" x2="73.18" y2="66.85"/><line class="f" x1="73.01" y1="139.21" x2="132.5" y2="139.21"/><line class="f" x1="73.18" y1="104.61" x2="159.44" y2="104.61"/><line class="f" x1="73.18" y1="107.98" x2="173.56" y2="107.98"/><line class="f" x1="73.18" y1="113.18" x2="159.38" y2="113.18"/><line class="f" x1="173.56" y1="70.95" x2="73.18" y2="70.95"/><line class="f" x1="173.56" y1="87.15" x2="73.18" y2="87.15"/><line class="f" x1="145.97" y1="113.14" x2="145.97" y2="143.85"/><line class="f" x1="206.65" y1="143.89" x2="206.65" y2="107.98"/><line class="f" x1="259.82" y1="66.85" x2="173.56" y2="66.85"/><polyline class="f" points="206.65 107.98 235.91 107.98 235.91 143.89"/><line class="f" x1="98.28" y1="87.15" x2="98.28" y2="66.85"/><line class="f" x1="123.37" y1="86.84" x2="123.37" y2="66.85"/><line class="f" x1="148.47" y1="87.18" x2="148.47" y2="66.85"/><line class="f" x1="173.56" y1="132.09" x2="206.65" y2="132.09"/><line class="f" x1="259.82" y1="132.09" x2="235.91" y2="132.09"/><line class="f" x1="173.56" y1="103.98" x2="259.82" y2="103.98"/><line class="f" x1="177.48" y1="107.98" x2="177.48" y2="103.98"/><line class="f" x1="181.4" y1="107.98" x2="181.4" y2="103.98"/><line class="f" x1="173.56" y1="107.98" x2="259.82" y2="107.98"/><line class="f" x1="185.32" y1="107.98" x2="185.32" y2="103.98"/><line class="f" x1="189.24" y1="107.98" x2="189.24" y2="103.98"/><line class="f" x1="193.17" y1="107.98" x2="193.17" y2="103.98"/><line class="f" x1="197.09" y1="107.98" x2="197.09" y2="103.98"/><line class="f" x1="201.01" y1="107.98" x2="201.01" y2="103.98"/><line class="f" x1="204.93" y1="107.98" x2="204.93" y2="103.98"/><line class="f" x1="208.85" y1="107.98" x2="208.85" y2="103.98"/><line class="f" x1="212.77" y1="107.98" x2="212.77" y2="103.98"/><line class="f" x1="216.69" y1="107.98" x2="216.69" y2="103.98"/><line class="f" x1="220.61" y1="107.98" x2="220.61" y2="103.98"/><line class="f" x1="224.53" y1="107.98" x2="224.53" y2="103.98"/><line class="f" x1="228.45" y1="107.98" x2="228.45" y2="103.98"/><line class="f" x1="232.38" y1="107.98" x2="232.38" y2="103.98"/><line class="f" x1="236.3" y1="107.98" x2="236.3" y2="103.98"/><line class="f" x1="240.22" y1="107.98" x2="240.22" y2="103.98"/><line class="f" x1="244.14" y1="107.98" x2="244.14" y2="103.98"/><line class="f" x1="248.06" y1="107.98" x2="248.06" y2="103.98"/><line class="f" x1="251.98" y1="107.98" x2="251.98" y2="103.98"/><line class="f" x1="255.9" y1="107.98" x2="255.9" y2="103.98"/><line class="f" x1="159.44" y1="143.89" x2="159.44" y2="90.9"/><line class="g" x1="173.56" y1="143.89" x2="173.56" y2="47.11"/><polyline class="c" points="259.82 143.89 259.82 47.11 73.18 47.11 73.18 143.89"/><line class="f" x1="216.69" y1="47.13" x2="216.69" y2="67.33"/><line class="f" x1="208.06" y1="47.13" x2="208.06" y2="67.33"/><line class="f" x1="199.44" y1="47.13" x2="199.44" y2="67.33"/><line class="f" x1="190.81" y1="47.13" x2="190.81" y2="67.33"/><line class="f" x1="182.19" y1="47.13" x2="182.19" y2="67.33"/><line class="f" x1="251.2" y1="47.13" x2="251.2" y2="67.33"/><line class="f" x1="242.57" y1="47.13" x2="242.57" y2="67.33"/><line class="f" x1="233.94" y1="47.13" x2="233.94" y2="67.33"/><line class="f" x1="225.32" y1="47.13" x2="225.32" y2="67.33"/><line class="f" x1="118.81" y1="47.11" x2="118.81" y2="67.04"/><line class="f" x1="109.68" y1="47.11" x2="109.68" y2="67.04"/><line class="f" x1="100.56" y1="47.11" x2="100.56" y2="67.04"/><line class="f" x1="91.43" y1="47.11" x2="91.43" y2="67.04"/><line class="f" x1="155.31" y1="47.11" x2="155.31" y2="67.04"/><line class="f" x1="146.18" y1="47.11" x2="146.18" y2="67.04"/><line class="f" x1="137.06" y1="47.11" x2="137.06" y2="67.04"/><line class="f" x1="127.93" y1="47.11" x2="127.93" y2="67.04"/><line class="f" x1="164.43" y1="47.11" x2="164.43" y2="67.04"/><line class="f" x1="82.31" y1="47.11" x2="82.31" y2="67.04"/><line class="f" x1="109.96" y1="70.95" x2="109.96" y2="87.15"/><line class="f" x1="87.38" y1="70.95" x2="87.38" y2="87.15"/><line class="f" x1="117.97" y1="104.54" x2="117.97" y2="90.15"/><line class="f" x1="132.02" y1="89.49" x2="132.02" y2="104.61"/><line class="f" x1="103.93" y1="104.61" x2="103.93" y2="90.9"/><line class="f" x1="89.87" y1="104.54" x2="89.87" y2="91.59"/><line class="f" x1="89.5" y1="139.17" x2="89.5" y2="106.22"/><line class="f" x1="103.83" y1="139.17" x2="103.83" y2="106.22"/><line class="f" x1="118.17" y1="139.17" x2="118.17" y2="106.22"/><line class="f" x1="146.07" y1="104.48" x2="146.07" y2="90.22"/><line class="f" x1="132.02" y1="89.49" x2="146.07" y2="104.48"/><line class="f" x1="146.07" y1="90.22" x2="159.44" y2="104.61"/><line class="f" x1="117.97" y1="104.54" x2="132.02" y2="89.42"/><line class="f" x1="103.93" y1="104.54" x2="117.97" y2="90.15"/><line class="f" x1="89.87" y1="104.54" x2="103.93" y2="90.84"/><line class="f" x1="75.28" y1="104.54" x2="89.87" y2="91.59"/><line class="f" x1="94.28" y1="120.14" x2="94.28" y2="128.49"/><line class="f" x1="99.05" y1="120.15" x2="99.05" y2="128.5"/><line class="f" x1="108.61" y1="120.15" x2="108.61" y2="128.5"/><line class="f" x1="113.38" y1="120.15" x2="113.38" y2="128.5"/><line class="f" x1="122.94" y1="120.15" x2="122.94" y2="128.5"/><line class="f" x1="127.72" y1="120.15" x2="127.72" y2="128.5"/><line class="f" x1="89.99" y1="116.13" x2="132.99" y2="116.13"/><line class="f" x1="89.99" y1="120.58" x2="132.99" y2="120.58"/><line class="f" x1="89.99" y1="124.53" x2="132.99" y2="124.53"/><line class="f" x1="89.5" y1="128.49" x2="132.5" y2="128.49"/><line class="f" x1="172.91" y1="97.73" x2="259.17" y2="97.73"/><line class="f" x1="172.91" y1="94.21" x2="259.17" y2="94.21"/><line class="f" x1="173.56" y1="70.95" x2="259.82" y2="70.95"/><rect class="f" x="241.34" y="114.16" width="12.19" height="15.08"/><line class="f" x1="245.04" y1="129.23" x2="245.04" y2="114.16"/><line class="f" x1="249.85" y1="129.23" x2="249.85" y2="114.13"/><rect class="f" x="179.99" y="114.16" width="21.08" height="15.06"/><line class="f" x1="183.19" y1="114.16" x2="183.19" y2="129.22"/><line class="f" x1="197.87" y1="114.16" x2="197.87" y2="129.22"/><line class="f" x1="189.04" y1="114.14" x2="189.04" y2="129.21"/><line class="f" x1="192.11" y1="114.14" x2="192.11" y2="129.21"/><line class="f" x1="206.27" y1="70.95" x2="206.27" y2="97.73"/><line class="f" x1="225.66" y1="67.58" x2="225.66" y2="103.79"/><line class="f" x1="190.11" y1="67.33" x2="190.11" y2="103.79"/><line class="f" x1="244.14" y1="67.33" x2="244.14" y2="103.98"/><line class="f" x1="230.06" y1="116.96" x2="230.06" y2="143.89"/><rect class="d" x="135.17" y="116.01" width="8.12" height="24.53"/><rect class="d" x="148.65" y="116.01" width="8.12" height="24.53"/><polyline class="d" points="218.57 116.96 218.57 140.54 209.36 140.54 209.36 116.96"/><polyline class="d" points="227.56 116.96 227.56 140.54 221.28 140.54"/><rect class="d" x="209.37" y="74.01" width="12.94" height="20.25"/><rect class="d" x="228.97" y="74.01" width="11.9" height="20.25"/><line class="f" x1="137.38" y1="70.95" x2="137.38" y2="86.67"/><line class="f" x1="159.74" y1="70.95" x2="159.74" y2="87.18"/><rect class="d" x="76.8" y="74.01" width="7.51" height="10.08"/><rect class="d" x="112.54" y="74.01" width="8.25" height="10.08"/><polyline class="d" points="86.87 74.01 95.61 74.01 95.61 84.09 86.87 84.09"/><rect class="d" x="126.25" y="74.01" width="8.25" height="10.08"/><polyline class="d" points="136.87 74.01 145.61 74.01 145.61 84.09 136.87 84.09"/><polyline class="d" points="110.26 74.01 101.52 74.01 101.52 84.09 110.26 84.09"/><rect class="d" x="162.53" y="74.01" width="7.5" height="10.08"/><polyline class="d" points="160.04 74.01 151.3 74.01 151.3 84.09 160.04 84.09"/><rect class="d" x="193.44" y="74.01" width="12.83" height="20.25"/><path class="f" d="M167.39,101.7c0,.63-.51,1.14-1.14,1.14h0c-.63,0-1.14-.51-1.14-1.14v-5.6c0-.63,.51-1.14,1.14-1.14h0c.63,0,1.14,.51,1.14,1.14v5.6Z"/><line class="f" x1="206.65" y1="112.22" x2="235.91" y2="112.22"/><line class="f" x1="221.28" y1="116.8" x2="221.28" y2="143.89"/><line class="f" x1="212.5" y1="112.49" x2="212.5" y2="116.8"/><line class="f" x1="218.36" y1="112.49" x2="218.36" y2="116.8"/><line class="f" x1="224.21" y1="112.49" x2="224.21" y2="116.8"/><line class="f" x1="230.06" y1="112.49" x2="230.06" y2="116.8"/><line class="f" x1="206.65" y1="116.96" x2="235.91" y2="116.96"/><g><line class="f" x1="179.99" y1="116.86" x2="183.19" y2="116.86"/><line class="f" x1="179.99" y1="119.29" x2="183.19" y2="119.29"/><line class="f" x1="179.99" y1="121.71" x2="183.19" y2="121.71"/><line class="f" x1="179.99" y1="124.13" x2="183.19" y2="124.13"/><line class="f" x1="179.99" y1="126.55" x2="183.19" y2="126.55"/></g><g><line class="f" x1="197.74" y1="116.86" x2="200.94" y2="116.86"/><line class="f" x1="197.74" y1="119.29" x2="200.94" y2="119.29"/><line class="f" x1="197.74" y1="121.71" x2="200.94" y2="121.71"/><line class="f" x1="197.74" y1="124.13" x2="200.94" y2="124.13"/><line class="f" x1="197.74" y1="126.55" x2="200.94" y2="126.55"/></g><g><line class="f" x1="241.63" y1="116.86" x2="244.83" y2="116.86"/><line class="f" x1="241.63" y1="119.28" x2="244.83" y2="119.28"/><line class="f" x1="241.63" y1="121.7" x2="244.83" y2="121.7"/><line class="f" x1="241.63" y1="124.13" x2="244.83" y2="124.13"/><line class="f" x1="241.63" y1="126.55" x2="244.83" y2="126.55"/></g><g><line class="f" x1="250.09" y1="116.86" x2="253.29" y2="116.86"/><line class="f" x1="250.09" y1="119.28" x2="253.29" y2="119.28"/><line class="f" x1="250.09" y1="121.7" x2="253.29" y2="121.7"/><line class="f" x1="250.09" y1="124.13" x2="253.29" y2="124.13"/><line class="f" x1="250.09" y1="126.55" x2="253.29" y2="126.55"/></g><polygon class="j" points="173.56 90.57 132.02 88.44 73.18 91.47 73.18 92.52 132.02 89.49 173.56 91.62 173.56 90.57"/><g><path class="j" d="M77.94,121.8c0,.37-.29,.67-.65,.67s-.65-.3-.65-.67,.29-.67,.65-.67,.65,.3,.65,.67"/><path class="j" d="M82.33,121.8c0,.37-.29,.67-.65,.67s-.65-.3-.65-.67,.29-.67,.65-.67,.65,.3,.65,.67"/><path class="j" d="M86.72,121.8c0,.37-.3,.67-.65,.67s-.65-.3-.65-.67,.29-.67,.65-.67,.65,.3,.65,.67"/><path class="j" d="M80.11,124.73c0,.37-.29,.67-.65,.67s-.65-.3-.65-.67,.29-.67,.65-.67,.65,.3,.65,.67"/><path class="j" d="M84.5,124.73c0,.37-.29,.67-.65,.67s-.65-.3-.65-.67,.29-.67,.65-.67,.65,.3,.65,.67"/><path class="j" d="M80.11,130.58c0,.37-.29,.67-.65,.67s-.65-.3-.65-.67,.29-.67,.65-.67,.65,.3,.65,.67"/><path class="j" d="M84.5,130.58c0,.37-.29,.67-.65,.67s-.65-.3-.65-.67,.29-.67,.65-.67,.65,.3,.65,.67"/><path class="j" d="M77.94,127.65c0,.37-.29,.67-.65,.67s-.65-.3-.65-.67,.29-.67,.65-.67,.65,.3,.65,.67"/><path class="j" d="M82.33,127.65c0,.37-.29,.67-.65,.67s-.65-.3-.65-.67,.29-.67,.65-.67,.65,.3,.65,.67"/><path class="j" d="M86.72,127.65c0,.37-.3,.67-.65,.67s-.65-.3-.65-.67,.29-.67,.65-.67,.65,.3,.65,.67"/><path class="j" d="M77.92,115.94c0,.37-.29,.67-.65,.67s-.65-.3-.65-.67,.29-.67,.65-.67,.65,.3,.65,.67"/><path class="j" d="M82.3,115.94c0,.37-.29,.67-.65,.67s-.65-.3-.65-.67,.29-.67,.65-.67,.65,.3,.65,.67"/><path class="j" d="M86.7,115.94c0,.37-.29,.67-.65,.67s-.65-.3-.65-.67,.29-.67,.65-.67,.65,.3,.65,.67"/><path class="j" d="M80.11,118.87c0,.37-.29,.67-.65,.67s-.65-.3-.65-.67,.29-.67,.65-.67,.65,.3,.65,.67"/><path class="j" d="M84.5,118.87c0,.37-.29,.67-.65,.67s-.65-.3-.65-.67,.29-.67,.65-.67,.65,.3,.65,.67"/><path class="j" d="M80.11,136.44c0,.37-.29,.67-.65,.67s-.65-.3-.65-.67,.29-.67,.65-.67,.65,.3,.65,.67"/><path class="j" d="M84.5,136.44c0,.37-.29,.67-.65,.67s-.65-.3-.65-.67,.29-.67,.65-.67,.65,.3,.65,.67"/><path class="j" d="M77.94,133.51c0,.37-.29,.67-.65,.67s-.65-.3-.65-.67,.29-.67,.65-.67,.65,.3,.65,.67"/><path class="j" d="M82.33,133.51c0,.37-.29,.67-.65,.67s-.65-.3-.65-.67,.29-.67,.65-.67,.65,.3,.65,.67"/><path class="j" d="M86.72,133.51c0,.37-.3,.67-.65,.67s-.65-.3-.65-.67,.29-.67,.65-.67,.65,.3,.65,.67"/><path class="j" d="M92.93,133.86c0,.37-.29,.67-.65,.67s-.65-.3-.65-.67,.29-.67,.65-.67,.65,.3,.65,.67"/><path class="j" d="M97.32,133.86c0,.37-.29,.67-.65,.67s-.65-.3-.65-.67,.29-.67,.65-.67,.65,.3,.65,.67"/><path class="j" d="M101.71,133.86c0,.37-.29,.67-.65,.67s-.65-.3-.65-.67,.29-.67,.65-.67,.65,.3,.65,.67"/><path class="j" d="M95.1,136.78c0,.37-.29,.67-.65,.67s-.65-.3-.65-.67,.29-.67,.65-.67,.65,.3,.65,.67"/><path class="j" d="M99.49,136.78c0,.37-.29,.67-.65,.67s-.65-.3-.65-.67,.29-.67,.65-.67,.65,.3,.65,.67"/><path class="j" d="M95.1,130.93c0,.37-.29,.67-.65,.67s-.65-.3-.65-.67,.29-.67,.65-.67,.65,.3,.65,.67"/><path class="j" d="M99.49,130.93c0,.37-.29,.67-.65,.67s-.65-.3-.65-.67,.29-.67,.65-.67,.65,.3,.65,.67"/><path class="j" d="M107.26,133.86c0,.37-.29,.67-.65,.67s-.65-.3-.65-.67,.29-.67,.65-.67,.65,.3,.65,.67"/><path class="j" d="M111.65,133.86c0,.37-.3,.67-.65,.67s-.65-.3-.65-.67,.29-.67,.65-.67,.65,.3,.65,.67"/><path class="j" d="M116.04,133.86c0,.37-.29,.67-.65,.67s-.65-.3-.65-.67,.29-.67,.65-.67,.65,.3,.65,.67"/><path class="j" d="M109.43,136.78c0,.37-.3,.67-.65,.67s-.65-.3-.65-.67,.29-.67,.65-.67,.65,.3,.65,.67"/><path class="j" d="M113.82,136.78c0,.37-.29,.67-.65,.67s-.65-.3-.65-.67,.29-.67,.65-.67,.65,.3,.65,.67"/><path class="j" d="M109.43,130.93c0,.37-.3,.67-.65,.67s-.65-.3-.65-.67,.29-.67,.65-.67,.65,.3,.65,.67"/><path class="j" d="M113.82,130.93c0,.37-.29,.67-.65,.67s-.65-.3-.65-.67,.29-.67,.65-.67,.65,.3,.65,.67"/><path class="j" d="M121.59,133.86c0,.37-.29,.67-.65,.67s-.65-.3-.65-.67,.29-.67,.65-.67,.65,.3,.65,.67"/><path class="j" d="M125.98,133.86c0,.37-.29,.67-.65,.67s-.65-.3-.65-.67,.29-.67,.65-.67,.65,.3,.65,.67"/><path class="j" d="M130.37,133.86c0,.37-.29,.67-.65,.67s-.65-.3-.65-.67,.29-.67,.65-.67,.65,.3,.65,.67"/><path class="j" d="M123.76,136.78c0,.37-.3,.67-.65,.67s-.65-.3-.65-.67,.29-.67,.65-.67,.65,.3,.65,.67"/><path class="j" d="M128.15,136.78c0,.37-.29,.67-.65,.67s-.65-.3-.65-.67,.29-.67,.65-.67,.65,.3,.65,.67"/><path class="j" d="M123.76,130.93c0,.37-.3,.67-.65,.67s-.65-.3-.65-.67,.29-.67,.65-.67,.65,.3,.65,.67"/><path class="j" d="M128.15,130.93c0,.37-.29,.67-.65,.67s-.65-.3-.65-.67,.29-.67,.65-.67,.65,.3,.65,.67"/></g><g><g><path class="j" d="M178.04,79.41c0,.37-.3,.67-.65,.67s-.65-.3-.65-.67,.29-.67,.65-.67,.65,.3,.65,.67"/><path class="j" d="M182.42,79.41c0,.37-.29,.67-.65,.67s-.65-.3-.65-.67,.29-.67,.65-.67,.65,.3,.65,.67"/><path class="j" d="M186.82,79.41c0,.37-.29,.67-.65,.67s-.65-.3-.65-.67,.29-.67,.65-.67,.65,.3,.65,.67"/><path class="j" d="M180.21,82.34c0,.37-.29,.67-.65,.67s-.65-.3-.65-.67,.29-.67,.65-.67,.65,.3,.65,.67"/><path class="j" d="M184.59,82.34c0,.37-.29,.67-.65,.67s-.65-.3-.65-.67,.29-.67,.65-.67,.65,.3,.65,.67"/><path class="j" d="M178.01,73.56c0,.37-.29,.67-.65,.67s-.65-.3-.65-.67,.29-.67,.65-.67,.65,.3,.65,.67"/><path class="j" d="M182.4,73.56c0,.37-.29,.67-.65,.67s-.65-.3-.65-.67,.29-.67,.65-.67,.65,.3,.65,.67"/><path class="j" d="M186.79,73.56c0,.37-.29,.67-.65,.67s-.65-.3-.65-.67,.29-.67,.65-.67,.65,.3,.65,.67"/><path class="j" d="M178.01,84.92c0,.37-.29,.67-.65,.67s-.65-.3-.65-.67,.29-.67,.65-.67,.65,.3,.65,.67"/><path class="j" d="M182.4,84.92c0,.37-.29,.67-.65,.67s-.65-.3-.65-.67,.29-.67,.65-.67,.65,.3,.65,.67"/><path class="j" d="M186.79,84.92c0,.37-.29,.67-.65,.67s-.65-.3-.65-.67,.29-.67,.65-.67,.65,.3,.65,.67"/><path class="j" d="M180.21,76.48c0,.37-.29,.67-.65,.67s-.65-.3-.65-.67,.29-.67,.65-.67,.65,.3,.65,.67"/><path class="j" d="M184.59,76.48c0,.37-.29,.67-.65,.67s-.65-.3-.65-.67,.29-.67,.65-.67,.65,.3,.65,.67"/></g><g><path class="j" d="M248.25,79.41c0,.37-.29,.67-.65,.67s-.65-.3-.65-.67,.29-.67,.65-.67,.65,.3,.65,.67"/><path class="j" d="M252.64,79.41c0,.37-.3,.67-.65,.67s-.65-.3-.65-.67,.29-.67,.65-.67,.65,.3,.65,.67"/><path class="j" d="M257.03,79.41c0,.37-.29,.67-.65,.67s-.65-.3-.65-.67,.29-.67,.65-.67,.65,.3,.65,.67"/><path class="j" d="M250.42,82.34c0,.37-.3,.67-.65,.67s-.65-.3-.65-.67,.29-.67,.65-.67,.65,.3,.65,.67"/><path class="j" d="M254.81,82.34c0,.37-.29,.67-.65,.67s-.65-.3-.65-.67,.29-.67,.65-.67,.65,.3,.65,.67"/><path class="j" d="M248.23,73.56c0,.37-.29,.67-.65,.67s-.65-.3-.65-.67,.29-.67,.65-.67,.65,.3,.65,.67"/><path class="j" d="M252.62,73.56c0,.37-.3,.67-.65,.67s-.65-.3-.65-.67,.29-.67,.65-.67,.65,.3,.65,.67"/><path class="j" d="M257.01,73.56c0,.37-.29,.67-.65,.67s-.65-.3-.65-.67,.29-.67,.65-.67,.65,.3,.65,.67"/><path class="j" d="M248.23,84.92c0,.37-.29,.67-.65,.67s-.65-.3-.65-.67,.29-.67,.65-.67,.65,.3,.65,.67"/><path class="j" d="M252.62,84.92c0,.37-.3,.67-.65,.67s-.65-.3-.65-.67,.29-.67,.65-.67,.65,.3,.65,.67"/><path class="j" d="M257.01,84.92c0,.37-.29,.67-.65,.67s-.65-.3-.65-.67,.29-.67,.65-.67,.65,.3,.65,.67"/><path class="j" d="M250.42,76.48c0,.37-.3,.67-.65,.67s-.65-.3-.65-.67,.29-.67,.65-.67,.65,.3,.65,.67"/><path class="j" d="M254.81,76.48c0,.37-.29,.67-.65,.67s-.65-.3-.65-.67,.29-.67,.65-.67,.65,.3,.65,.67"/></g><path class="j" d="M177.59,140.69c0,.37-.29,.67-.65,.67s-.65-.3-.65-.67,.29-.67,.65-.67,.65,.3,.65,.67"/><path class="j" d="M181.98,140.69c0,.37-.29,.67-.65,.67s-.65-.3-.65-.67,.29-.67,.65-.67,.65,.3,.65,.67"/><path class="j" d="M186.37,140.69c0,.37-.29,.67-.65,.67s-.65-.3-.65-.67,.29-.67,.65-.67,.65,.3,.65,.67"/><path class="j" d="M190.76,140.69c0,.37-.29,.67-.65,.67s-.65-.3-.65-.67,.29-.67,.65-.67,.65,.3,.65,.67"/><path class="j" d="M195.15,140.69c0,.37-.29,.67-.65,.67s-.65-.3-.65-.67,.29-.67,.65-.67,.65,.3,.65,.67"/><path class="j" d="M199.54,140.69c0,.37-.29,.67-.65,.67s-.65-.3-.65-.67,.29-.67,.65-.67,.65,.3,.65,.67"/><path class="j" d="M177.56,134.83c0,.37-.3,.67-.65,.67s-.65-.3-.65-.67,.29-.67,.65-.67,.65,.3,.65,.67"/><path class="j" d="M181.95,134.83c0,.37-.29,.67-.65,.67s-.65-.3-.65-.67,.29-.67,.65-.67,.65,.3,.65,.67"/><path class="j" d="M186.34,134.83c0,.37-.29,.67-.65,.67s-.65-.3-.65-.67,.29-.67,.65-.67,.65,.3,.65,.67"/><path class="j" d="M190.73,134.83c0,.37-.29,.67-.65,.67s-.65-.3-.65-.67,.29-.67,.65-.67,.65,.3,.65,.67"/><path class="j" d="M195.12,134.83c0,.37-.29,.67-.65,.67s-.65-.3-.65-.67,.29-.67,.65-.67,.65,.3,.65,.67"/><path class="j" d="M199.51,134.83c0,.37-.29,.67-.65,.67s-.65-.3-.65-.67,.29-.67,.65-.67,.65,.3,.65,.67"/><path class="j" d="M203.91,134.83c0,.37-.29,.67-.65,.67s-.65-.3-.65-.67,.29-.67,.65-.67,.65,.3,.65,.67"/><path class="j" d="M179.76,137.76c0,.37-.3,.67-.65,.67s-.65-.3-.65-.67,.29-.67,.65-.67,.65,.3,.65,.67"/><path class="j" d="M184.15,137.76c0,.37-.29,.67-.65,.67s-.65-.3-.65-.67,.29-.67,.65-.67,.65,.3,.65,.67"/><path class="j" d="M188.54,137.76c0,.37-.29,.67-.65,.67s-.65-.3-.65-.67,.29-.67,.65-.67,.65,.3,.65,.67"/><path class="j" d="M192.93,137.76c0,.37-.29,.67-.65,.67s-.65-.3-.65-.67,.29-.67,.65-.67,.65,.3,.65,.67"/><path class="j" d="M197.32,137.76c0,.37-.29,.67-.65,.67s-.65-.3-.65-.67,.29-.67,.65-.67,.65,.3,.65,.67"/><path class="j" d="M201.71,137.76c0,.37-.3,.67-.65,.67s-.65-.3-.65-.67,.29-.67,.65-.67,.65,.3,.65,.67"/><path class="j" d="M203.93,140.69c0,.37-.29,.67-.65,.67s-.65-.3-.65-.67,.29-.67,.65-.67,.65,.3,.65,.67"/><path class="j" d="M239.33,140.69c0,.37-.29,.67-.65,.67s-.65-.3-.65-.67,.29-.67,.65-.67,.65,.3,.65,.67"/><path class="j" d="M243.73,140.69c0,.37-.29,.67-.65,.67s-.65-.3-.65-.67,.29-.67,.65-.67,.65,.3,.65,.67"/><path class="j" d="M248.11,140.69c0,.37-.29,.67-.65,.67s-.65-.3-.65-.67,.29-.67,.65-.67,.65,.3,.65,.67"/><path class="j" d="M252.51,140.69c0,.37-.3,.67-.65,.67s-.65-.3-.65-.67,.29-.67,.65-.67,.65,.3,.65,.67"/><path class="j" d="M256.9,140.69c0,.37-.29,.67-.65,.67s-.65-.3-.65-.67,.29-.67,.65-.67,.65,.3,.65,.67"/><path class="j" d="M239.31,134.83c0,.37-.29,.67-.65,.67s-.65-.3-.65-.67,.29-.67,.65-.67,.65,.3,.65,.67"/><path class="j" d="M243.7,134.83c0,.37-.29,.67-.65,.67s-.65-.3-.65-.67,.29-.67,.65-.67,.65,.3,.65,.67"/><path class="j" d="M248.09,134.83c0,.37-.29,.67-.65,.67s-.65-.3-.65-.67,.29-.67,.65-.67,.65,.3,.65,.67"/><path class="j" d="M252.48,134.83c0,.37-.29,.67-.65,.67s-.65-.3-.65-.67,.29-.67,.65-.67,.65,.3,.65,.67"/><path class="j" d="M256.87,134.83c0,.37-.29,.67-.65,.67s-.65-.3-.65-.67,.29-.67,.65-.67,.65,.3,.65,.67"/><path class="j" d="M241.51,137.76c0,.37-.3,.67-.65,.67s-.65-.3-.65-.67,.29-.67,.65-.67,.65,.3,.65,.67"/><path class="j" d="M245.9,137.76c0,.37-.29,.67-.65,.67s-.65-.3-.65-.67,.29-.67,.65-.67,.65,.3,.65,.67"/><path class="j" d="M250.29,137.76c0,.37-.29,.67-.65,.67s-.65-.3-.65-.67,.29-.67,.65-.67,.65,.3,.65,.67"/><path class="j" d="M254.68,137.76c0,.37-.29,.67-.65,.67s-.65-.3-.65-.67,.29-.67,.65-.67,.65,.3,.65,.67"/></g><path class="e" d="M127.21,69.62c0,2.12-1.71,3.83-3.83,3.83s-3.83-1.71-3.83-3.83,1.72-3.83,3.83-3.83,3.83,1.71,3.83,3.83Z"/><path class="e" d="M219.88,69.62c0,2.12-1.71,3.83-3.83,3.83s-3.83-1.71-3.83-3.83,1.72-3.83,3.83-3.83,3.83,1.71,3.83,3.83Z"/><path class="e" d="M255.02,69.62c0,2.12-1.71,3.83-3.83,3.83s-3.83-1.71-3.83-3.83,1.72-3.83,3.83-3.83,3.83,1.71,3.83,3.83Z"/><path class="e" d="M186.02,69.62c0,2.12-1.71,3.83-3.83,3.83s-3.83-1.71-3.83-3.83,1.72-3.83,3.83-3.83,3.83,1.71,3.83,3.83Z"/><path class="e" d="M91.21,69.62c0,2.12-1.71,3.83-3.83,3.83s-3.83-1.71-3.83-3.83,1.72-3.83,3.83-3.83,3.83,1.71,3.83,3.83Z"/><path class="e" d="M163.87,69.62c0,2.12-1.71,3.83-3.83,3.83s-3.83-1.71-3.83-3.83,1.72-3.83,3.83-3.83,3.83,1.71,3.83,3.83Z"/><path class="e" d="M259.82,88.46v-4.76h-86.26v4.76h9v4.26h-9v5.96h86.26v-5.96h-9v-4.26h9Zm-41.34,0h12.6v4.26h-12.6v-4.26Zm-3.57,4.26h-12.6v-4.26h12.6v4.26Zm-28.77-4.26h12.6v4.26h-12.6v-4.26Zm61.12,4.26h-12.6v-4.26h12.6v4.26Z"/></g><g><path class="k" d="M195.25,23.26c-1.22-.57-1.95-.97-1.95-2.41,0-.94,.79-2.01,2.65-2.01,.42,0,.91,.1,1.21,.17,.34,.07,.67,.07,1.11,.02,.03,.59,.08,1.39,.15,1.95,0,.1-.03,.13-.18,.15-.17,.03-.2-.03-.25-.12-.45-.92-1.16-1.69-1.96-1.69-.94,0-1.31,.5-1.31,1.19,0,.47,.37,.82,1.26,1.19l.59,.25c1.46,.64,2.3,1.14,2.3,2.63,0,1.16-.87,2.43-2.95,2.43-.94,0-1.69-.18-2.38-.47-.15-.52-.3-1.29-.37-1.83,0-.12,.02-.13,.17-.15,.17-.02,.18-.02,.23,.1,.55,1.09,1.48,1.86,2.35,1.86,.99,0,1.46-.62,1.46-1.49,0-.72-.57-1.02-1.54-1.49l-.57-.27Z"/><path class="k" d="M201.22,19.84c-.15,0-.18-.03-.18-.23,0-.17,.02-.22,.2-.23,.52-.07,1.11-.37,1.48-.72,.33-.29,.7-.8,.87-1.19,.05-.13,.1-.17,.29-.17,.2,0,.23,.05,.23,.17-.02,.55-.05,1.19-.05,1.71,.75,0,1.68-.02,2.38-.05,.07,0,.08,.05,.07,.12l-.18,.49c-.02,.07-.08,.12-.17,.12-.62-.03-1.41-.07-2.13-.07l-.03,4.29c0,.94,.08,1.41,.32,1.73,.32,.4,.7,.45,.91,.45,.38,0,.74-.17,1.07-.45,.08-.07,.17-.05,.27,.05s.17,.18,.03,.32c-.5,.5-1.09,.87-2.03,.87-.79,0-1.34-.17-1.76-.57-.37-.4-.57-.92-.57-1.88,0-.8,.02-1.56,.03-2.36l.03-2.4-1.07,.02Z"/><path class="k" d="M214.56,24.85c-.02,1.07,.22,1.48,.6,1.48,.2,0,.3-.02,.49-.12,.07-.03,.15-.03,.22,.08,.07,.12,.07,.17-.05,.25-.29,.22-.77,.39-1.42,.39-.72,0-1.21-.35-1.43-.91-.6,.6-1.19,.99-2.35,.99-1.64,0-2.15-1.02-2.15-1.78s.22-1.11,.57-1.49c.5-.45,1.11-.6,2.15-.92,.74-.22,1.06-.4,1.31-.6,.22-.17,.39-.42,.39-.65v-.47c0-1.26-.32-1.78-1.01-1.78-.27,0-.59,.05-.87,.34-.23,.2-.3,.52-.3,.94,0,.45-.42,.8-1.29,.8-.52,0-.65-.2-.65-.54,0-.79,1.29-2.01,3.35-2.01,2.47,0,2.5,1.19,2.48,2.5l-.03,3.5Zm-1.68-2.36c-.17,.25-.4,.39-1.34,.74-.89,.35-1.22,.91-1.22,1.76s.6,1.38,1.06,1.38c.87,0,1.49-.67,1.49-1.46l.02-2.41Z"/><path class="k" d="M221.69,24.67c-.4,1.02-.74,1.89-1.09,2.65-.96,2.06-1.91,3.45-3.49,3.45-.57,0-.72-.17-.72-.45,0-.55,.49-1.22,1.04-1.22,.39,0,.54,.22,.84,.22,.2,0,.44-.07,.65-.34,.35-.42,.62-.79,1.21-2.01-.34-.75-.59-1.32-.96-2.25l-1.27-3.19c-.42-.97-.57-1.36-.81-1.64-.18-.23-.39-.32-.89-.35-.08,0-.13-.02-.13-.22,0-.17,.03-.2,.13-.2,.64,.03,1.39,.05,1.95,.05,.59,0,1.38-.02,2.01-.05,.1,0,.15,.03,.15,.2,0,.2-.05,.22-.13,.22-.45,.03-.8,.1-.91,.3-.12,.24,.07,.77,.45,1.69l.87,2.25c.22,.55,.29,.79,.39,1.12,.13-.3,.22-.57,.45-1.17l.82-2.21c.32-.87,.34-1.36,.17-1.63-.15-.25-.39-.32-.82-.35-.12-.02-.15-.05-.15-.22s.03-.2,.17-.2c.45,.02,1.09,.05,1.54,.05,.49,0,.96-.02,1.42-.05,.12,0,.15,.02,.15,.2s-.03,.2-.15,.22c-.27,.03-.5,.1-.74,.34-.3,.25-.57,.7-.94,1.64l-1.22,3.15Z"/></g><g><path class="k" d="M167.42,169c0,2.21,1.36,3.32,2.4,3.32s1.71-.37,2.33-1.21c.05-.07,.12-.08,.17-.08s.1,.03,.15,.07c.07,.05,.13,.12,.13,.17,0,.03-.03,.1-.08,.18-.77,1.19-1.71,1.66-3.1,1.66-2.31,0-3.87-1.71-3.87-4.02s1.61-4.14,3.89-4.14,3.22,1.95,3.27,3.12c0,.13,0,.17-.08,.29-.08,.1-.15,.08-.25,.08-1.69-.05-3.39-.07-4.88-.03-.03,.15-.07,.32-.07,.6Zm3.29-1.26c.13-.02,.15-.12,.15-.27-.05-.94-.45-2.03-1.43-2.03-.91,0-1.61,.97-1.86,2.35,1.17,.03,1.96,.03,3.14-.05Z"/><path class="k" d="M180.27,170.95c-.02,1.07,.22,1.48,.6,1.48,.2,0,.3-.02,.49-.12,.07-.03,.15-.03,.22,.08,.07,.12,.07,.17-.05,.25-.29,.22-.77,.39-1.42,.39-.72,0-1.21-.35-1.43-.91-.6,.6-1.19,.99-2.35,.99-1.64,0-2.15-1.02-2.15-1.78s.22-1.11,.57-1.49c.5-.45,1.11-.6,2.15-.92,.74-.22,1.06-.4,1.31-.6,.22-.17,.39-.42,.39-.65v-.47c0-1.26-.32-1.78-1.01-1.78-.27,0-.59,.05-.87,.34-.23,.2-.3,.52-.3,.94,0,.45-.42,.8-1.29,.8-.52,0-.65-.2-.65-.54,0-.79,1.29-2.01,3.35-2.01,2.47,0,2.5,1.19,2.48,2.5l-.03,3.5Zm-1.68-2.36c-.17,.25-.4,.39-1.34,.74-.89,.35-1.22,.91-1.22,1.76s.6,1.38,1.06,1.38c.87,0,1.49-.67,1.49-1.46l.02-2.41Z"/><path class="k" d="M182.33,165.93c-.15,0-.18-.03-.18-.23,0-.17,.02-.22,.2-.23,.52-.07,1.11-.37,1.48-.72,.33-.29,.7-.8,.87-1.19,.05-.13,.1-.17,.29-.17,.2,0,.23,.05,.23,.17-.02,.55-.05,1.19-.05,1.71,.75,0,1.68-.02,2.38-.05,.07,0,.08,.05,.07,.12l-.18,.49c-.02,.07-.08,.12-.17,.12-.62-.03-1.41-.07-2.13-.07l-.03,4.29c0,.94,.08,1.41,.32,1.73,.32,.4,.7,.45,.91,.45,.38,0,.74-.17,1.07-.45,.08-.07,.17-.05,.27,.05s.17,.18,.03,.32c-.5,.5-1.09,.87-2.03,.87-.79,0-1.34-.17-1.76-.57-.37-.4-.57-.92-.57-1.88,0-.8,.02-1.56,.03-2.36l.03-2.4-1.07,.02Z"/></g><g><path class="k" d="M83.93,169.88c.18,.55,.3,.89,.44,1.38,.18-.47,.29-.89,.47-1.53l.64-2.11c.29-.94,.37-1.38,.25-1.64-.12-.24-.49-.32-.86-.35-.1-.02-.13-.03-.13-.2,0-.18,.03-.2,.13-.2,.4,.02,1.06,.05,1.53,.05s.99-.03,1.44-.05c.1,0,.12,.03,.12,.2s-.03,.18-.13,.2c-.32,.03-.65,.13-.91,.4-.3,.3-.47,.64-.79,1.59l-1.04,3.07c-.32,.96-.44,1.33-.67,2-.87,.39-.92,.4-.99,.4-.05,0-.1-.03-.13-.13-.15-.5-.29-.99-.69-2.16l-.67-1.93c-.18-.54-.25-.87-.35-1.17-.1,.3-.17,.57-.35,1.11l-.7,1.93c-.4,1.12-.49,1.44-.69,1.98-.87,.37-.94,.39-1.01,.39s-.1-.03-.13-.12c-.18-.62-.37-1.22-.69-2.18l-1.09-3.17c-.32-.94-.5-1.41-.7-1.68-.22-.25-.42-.29-.86-.32-.1,0-.13-.02-.13-.22,0-.17,.03-.18,.15-.18,.62,.02,1.31,.05,1.84,.05,.62,0,1.24-.03,1.9-.05,.08,0,.12,.02,.12,.2,0,.17-.03,.2-.1,.2-.45,.03-.77,.05-.84,.24-.1,.25,.08,.87,.39,1.76l.81,2.36c.15,.47,.25,.89,.37,1.32,.17-.44,.29-.87,.47-1.42l.6-1.76c.18-.57,.27-.75,.39-1.07-.15-.5-.32-.96-.54-1.19-.2-.18-.45-.22-.86-.24-.08,0-.12-.03-.12-.2s.03-.2,.13-.2c.62,.02,1.26,.05,1.79,.05s1.22-.03,1.83-.05c.1,0,.13,.03,.13,.2s-.03,.2-.13,.2c-.47,.03-.74,.05-.82,.24-.1,.22,.08,.84,.4,1.74l.79,2.28Z"/><path class="k" d="M96.69,169.04c0,2.25-1.56,4.08-3.92,4.08s-3.91-1.76-3.91-4.04,1.59-4.13,3.91-4.13,3.92,1.78,3.92,4.09Zm-5.87,0c0,2.1,.62,3.57,1.95,3.57s1.96-1.59,1.96-3.57c0-2.13-.62-3.59-1.96-3.59s-1.95,1.58-1.95,3.59Z"/><path class="k" d="M98.99,166.17c-.18,.02-.22,0-.23-.18s.02-.22,.2-.25c.65-.13,1.89-.47,2.68-.75,.12,0,.22,.07,.22,.15-.02,.47-.05,.97-.05,1.64,.5-.91,1.21-1.84,2.16-1.84,.57,0,.92,.22,.92,.52,0,.67-.5,1.26-.91,1.26-.37,0-.6-.37-.94-.37-.2,0-.44,.08-.77,.5-.32,.39-.47,.84-.47,1.48v2.05c0,1.01,0,1.54,.12,1.78,.13,.27,.4,.27,.99,.32,.1,0,.12,.03,.12,.22,0,.15-.03,.17-.12,.17-.64-.02-1.34-.05-1.89-.05s-1.34,.03-1.96,.05c-.1,0-.13-.02-.13-.17,0-.18,.03-.2,.13-.22,.5-.05,.77-.05,.89-.32,.15-.29,.17-.8,.17-1.78v-2.48c0-.6-.03-1.06-.13-1.38-.08-.3-.29-.39-.57-.37l-.42,.03Z"/><path class="k" d="M108.84,168.75c.3-.27,.54-.5,.89-.85l.87-.91c.52-.55,.74-.86,.65-1.11-.07-.2-.4-.22-.74-.24-.1,0-.13-.02-.13-.22,0-.15,.03-.18,.13-.18,.54,.02,1.16,.02,1.68,.02s1.07-.03,1.54-.05c.1,0,.13,.03,.13,.2,0,.18-.03,.22-.12,.22-.39,.03-.69,.17-1.04,.34-.32,.15-.64,.35-1.34,1.02l-.75,.7c-.15,.15-.17,.17-.32,.3,.8,1.16,1.74,2.46,2.53,3.49,.27,.34,.44,.59,.72,.79,.24,.15,.42,.15,.79,.18,.12,.02,.13,.03,.13,.2,0,.15-.02,.18-.17,.18-.42,0-.96-.05-1.34-.05-.44,0-.94,0-1.36,.02-.17-.3-.3-.52-.47-.79-.77-1.14-1.24-1.86-2.01-2.93l-.29,.25v1.04c0,.99,0,1.48,.12,1.76,.1,.25,.39,.27,.91,.32,.12,.02,.15,.05,.15,.2s-.03,.18-.15,.18c-.64-.03-1.22-.05-1.79-.05s-1.33,.02-1.93,.05c-.13,0-.17-.03-.17-.18s.03-.18,.15-.2c.49-.05,.75-.05,.87-.32,.13-.29,.12-.79,.12-1.74v-7.6c0-.6-.02-1.12-.1-1.42-.08-.27-.29-.37-.55-.35l-.39,.03c-.18,.02-.22,0-.23-.18-.02-.18,0-.22,.18-.25,.69-.12,1.88-.45,2.72-.74,.1,0,.2,.05,.2,.13-.05,1.24-.1,2.52-.1,4.11v4.63Z"/></g><line class="h" x1="151.33" y1="134.49" x2="119.64" y2="166.18"/><line class="h" x1="222.46" y1="134.49" x2="190.76" y2="166.18"/><line class="h" x1="188.71" y1="24.98" x2="157.02" y2="56.67"/></svg>