<svg xmlns="http://www.w3.org/2000/svg" viewBox="0 0 30 30"><defs><style>.cls-1{fill:#7e0f09;}</style></defs><title>linktotop</title><g id="レイヤー_1" data-name="レイヤー 1"><polygon class="cls-1" points="22.62 2 9.72 14.1 9.72 2 8.88 2 8.88 16.06 23.86 2 22.62 2"/><polygon class="cls-1" points="7.39 28 20.28 15.94 20.28 28 21.13 28 21.13 13.98 6.15 28 7.39 28"/><polygon class="cls-1" points="4.85 26.04 4.85 2 4 2 4 28 22.48 10.71 22.48 28 23.33 28 23.33 10.71 23.33 8.75 21.91 10.08 4.85 26.04"/><polygon class="cls-1" points="7.52 2 6.67 2 6.67 19.34 6.67 21.3 8.1 19.97 25.15 3.96 25.15 28 26 28 26 2 7.52 19.34 7.52 2"/></g></svg>