<svg id="layer1" xmlns="http://www.w3.org/2000/svg" viewBox="0 0 150 150"><defs><style>.cls-1{fill:#fff;}</style></defs><path class="cls-1" d="M24.47,106.91c0,3.55-2,5.57-5.94,5.57-.87,0-1.64,0-2.31-.06a.3.3,0,0,1-.28-.29v-10a.32.32,0,0,1,.28-.32c.85-.07,1.83-.11,2.81-.11,3.68,0,5.44,2,5.44,5.25m-6.83,4.15c.27,0,.66,0,1,0,2.64,0,4-1.3,4-4.16,0-2.42-1.19-3.9-3.56-3.9-.6,0-1.09,0-1.46.06Z"/><path class="cls-1" d="M31.74,102.28a1,1,0,0,1-1,1,1,1,0,0,1-1-1,1,1,0,0,1,1-1,1,1,0,0,1,1,1m-.43,2.42a.26.26,0,0,1,.3.25v7.19a.29.29,0,0,1-.3.28H30.2a.3.3,0,0,1-.29-.28V105a.32.32,0,0,1,.29-.3Z"/><path class="cls-1" d="M44.12,112.14a.3.3,0,0,1-.29.28H42.69a.28.28,0,0,1-.27-.28v-4.22c0-1.15-.32-2-1.41-2a2.31,2.31,0,0,0-1.92,1.19v5a.28.28,0,0,1-.29.28H37.69a.29.29,0,0,1-.29-.28v-5.21c0-.71,0-1.32,0-1.91a.3.3,0,0,1,.28-.3l.92,0a.29.29,0,0,1,.31.25l.12.84a3.31,3.31,0,0,1,2.54-1.23c1.52,0,2.59,1,2.59,3.19Z"/><path class="cls-1" d="M51.7,102.28a1,1,0,0,1-1,1,1,1,0,0,1-1-1,1,1,0,0,1,1-1,1,1,0,0,1,1,1m-.43,2.42a.25.25,0,0,1,.29.25v7.19a.28.28,0,0,1-.29.28H50.16a.3.3,0,0,1-.3-.28V105a.32.32,0,0,1,.3-.3Z"/><path class="cls-1" d="M64.08,112.14a.3.3,0,0,1-.3.28H62.65a.29.29,0,0,1-.28-.28v-4.22c0-1.15-.31-2-1.4-2a2.3,2.3,0,0,0-1.92,1.19v5a.28.28,0,0,1-.29.28H57.64a.3.3,0,0,1-.29-.28v-5.21c0-.71,0-1.32,0-1.91a.29.29,0,0,1,.28-.3l.91,0a.28.28,0,0,1,.31.25l.12.84a3.35,3.35,0,0,1,2.54-1.23c1.52,0,2.6,1,2.6,3.19Z"/><path class="cls-1" d="M70.61,115.65a.44.44,0,0,1-.25-.38l.07-.74a.22.22,0,0,1,.3-.18,6,6,0,0,0,2,.33c1.28,0,2.23-.63,2.23-2.52v-.77a2.74,2.74,0,0,1-2.3,1.18c-1.9,0-3.15-1.61-3.15-3.88,0-2.74,1.59-4.13,3.32-4.13A2.77,2.77,0,0,1,75,105.67l.11-.65a.35.35,0,0,1,.34-.28h.86a.28.28,0,0,1,.29.28c0,.65,0,1.42,0,2.17v4.89c0,2.71-1.42,4-3.71,4a6.35,6.35,0,0,1-2.26-.38M74.88,107a1.9,1.9,0,0,0-1.72-1.09c-1.08,0-2,.85-2,2.73,0,1.72.8,2.61,1.94,2.61a1.71,1.71,0,0,0,1.77-1.51Z"/><path class="cls-1" d="M90.58,112.47a4.39,4.39,0,0,1-1.43-.16,2.45,2.45,0,0,1-1.11-.68,2.48,2.48,0,0,1-.58-1,3.25,3.25,0,0,1-.08-1.08,3.74,3.74,0,0,1,.82-2,3.4,3.4,0,0,1,.66-.59c.24-.18.45-.32.62-.43a5.11,5.11,0,0,1-.66-1.43,3.55,3.55,0,0,1-.13-1.33,4.75,4.75,0,0,1,.21-1,1.86,1.86,0,0,1,.45-.7,2.35,2.35,0,0,1,.79-.49,2.31,2.31,0,0,1,1-.14,2.85,2.85,0,0,1,1,.26,2.58,2.58,0,0,1,.84.66,3.61,3.61,0,0,1,.57.91,2.05,2.05,0,0,1,.16.94,1.88,1.88,0,0,1-.19.76,4.39,4.39,0,0,1-.57.69,3.93,3.93,0,0,1-.92.7,8.51,8.51,0,0,1-1.2.5c.27.42.54.81.77,1.14s.49.68.75,1a6.87,6.87,0,0,1,.66.55c.21.19.45.38.72.58a2.58,2.58,0,0,0,.79-1,1,1,0,0,1,.23-.47.34.34,0,0,1,.24-.06.71.71,0,0,1,.3.1.75.75,0,0,1,.23.19.4.4,0,0,1,.08.27,1.4,1.4,0,0,1-.15.49,5.26,5.26,0,0,1-.87,1.15,4.62,4.62,0,0,0,.55.35,2,2,0,0,1,.52.41l0,.34-.12.28a.53.53,0,0,1-.46.18,8.3,8.3,0,0,1-.78-.41l-.75-.49a5.19,5.19,0,0,1-1.39.7,4.89,4.89,0,0,1-1.59.2M92.34,111l.32-.23a8.35,8.35,0,0,1-1.5-1.47A11.7,11.7,0,0,1,90,107.46a7,7,0,0,0-.75.6,2.35,2.35,0,0,0-.53.74,2.42,2.42,0,0,0-.23.76,2.35,2.35,0,0,0,0,.74,1.26,1.26,0,0,0,.46.69,1.81,1.81,0,0,0,.86.38,4.44,4.44,0,0,0,1,0,4.24,4.24,0,0,0,.85-.12,4.55,4.55,0,0,0,.73-.27m-.74-5.58a3.14,3.14,0,0,0,.71-.67,1.1,1.1,0,0,0,.28-.9,1.31,1.31,0,0,0-.42-.79,1.73,1.73,0,0,0-.64-.4,2.13,2.13,0,0,0-.7-.05,1,1,0,0,0-.7.33,1.45,1.45,0,0,0-.36.68,2,2,0,0,0,0,.86,2.76,2.76,0,0,0,.22.8c.08.19.2.45.33.74Z"/><path class="cls-1" d="M112.45,104.36a2.55,2.55,0,0,1-1.74,2.39,2.77,2.77,0,0,1,2.11,2.66c0,2.37-1.8,3.07-4.9,3.07-.77,0-1.43,0-1.94-.06a.31.31,0,0,1-.28-.29v-10a.33.33,0,0,1,.28-.32c.75-.06,1.68-.11,2.61-.11,2.34,0,3.86.76,3.86,2.7m-5.07,1.83h1.29c1.32,0,2-.61,2-1.63S110,103,108.78,103c-.6,0-1,0-1.4.06Zm0,4.91c.28,0,.65,0,1.05,0,1.47,0,2.59-.38,2.59-1.82,0-1.2-.94-1.8-2.23-1.8h-1.41Z"/><path class="cls-1" d="M123.81,112.42h-.7a.45.45,0,0,1-.4-.26l-.29-.69a3.07,3.07,0,0,1-2.42,1.1,2.09,2.09,0,0,1-2.21-2.14c0-1.54,1.29-2.57,4.53-1.7v-1.31c0-.89-.15-1.46-1.53-1.46a5.47,5.47,0,0,0-2,.37.22.22,0,0,1-.32-.17l-.18-.76a.39.39,0,0,1,.2-.4,6.41,6.41,0,0,1,2.46-.41c1.87,0,3,.77,3,2.46v3.5c0,.55,0,1.1.06,1.59a.28.28,0,0,1-.26.28m-1.47-2.65c-2.08-.67-2.85-.18-2.85.6a1,1,0,0,0,1.09,1,1.78,1.78,0,0,0,1.76-1.22Z"/><path class="cls-1" d="M131.49,112.14a.28.28,0,0,1-.29.28h-1.12a.3.3,0,0,1-.29-.28v-5c0-.83,0-1.52,0-2.17a.31.31,0,0,1,.29-.3l.91,0a.28.28,0,0,1,.31.25l.11,1.08a2.63,2.63,0,0,1,2.26-1.44.31.31,0,0,1,.3.27v1a.25.25,0,0,1-.3.24,2,2,0,0,0-2.14,1.16Z"/><rect class="cls-1" x="2.5" y="121.02" width="145" height="0.98"/><rect class="cls-1" x="2.5" y="92.78" width="145" height="0.98"/><path class="cls-1" d="M40.11,80.55c-7.77-.25-14.63-4-14.4-11.1.25-8,6.56-10.67,11-10.53,3.34.11,5,1.6,4.91,3.32,0,1.27-1.07,2.67-3.11,3.64a5.29,5.29,0,0,0-4.3-2.72c-3.63-.11-5.8,3-5.91,6.49C28.22,74,31.29,79,38.83,79.24c6.85.22,14.4-3.58,14.66-11.85.25-8-24.17-14-23.81-25.26C30,33,41.54,27.72,51,28a17.65,17.65,0,0,1,7.55,1.79,6.57,6.57,0,0,1,3.48-.92c2.65.08,4.52,1.23,4.49,2.09,0,.52-.61.91-2,1-.46-1.73-1.78-2-3.1-2.05a4.26,4.26,0,0,0-1.86.46,8.64,8.64,0,0,1,4,7.78c-.16,4.83-3.71,7.76-6.64,7.67C54.75,45.74,53,44,53.07,40.22a14.8,14.8,0,0,1,2.91-8,11.77,11.77,0,0,0-6.73-2.11c-6-.19-12.66,2.94-12.79,7.14C36.16,46.82,62.39,51.73,62,64.09c-.36,11.38-11.94,16.77-21.9,16.46M56.76,33a15.13,15.13,0,0,0-2.6,7.57c-.07,2.29,1,3.71,2.24,3.75s2.58-1.42,2.69-4.81A8.42,8.42,0,0,0,56.76,33"/><path class="cls-1" d="M88.57,67.75C85,73.68,79.93,77,75.82,76.89S68.5,72,68.76,63.77c.09-2.71,3.28-4.07,5.63-4a3.46,3.46,0,0,1,2,.61c-.22,1.44-.52,3.88-.55,5.15-.15,4.76,1.13,8.13,3.67,8.21,1.93.06,4.53-1.73,7.81-6.22a32.17,32.17,0,0,0,2.18-3.74l1.14.34c-.58,1.19-1.35,2.37-2.11,3.62"/><path class="cls-1" d="M106.33,60.81a7.29,7.29,0,0,1,2.76.63c0,.67-.1,1.27-.12,1.87-.23,7.36,1.69,11.7,4.59,11.79,2.24.07,5-1.89,7.81-5.79a32.69,32.69,0,0,0,2.17-3.74l1.14.34a28.25,28.25,0,0,1-2.11,3.62c-3.74,5.32-8.68,8.73-12.8,8.6s-7.53-4.64-7.91-13.83C98.94,66.8,96.53,76,95,77.86a5.26,5.26,0,0,1-1.82.3C89.33,78,86.91,68.48,87,65.34s2-6.52,6.31-6.38a9.26,9.26,0,0,1,2.71.5,52.45,52.45,0,0,0-1.9,12.39c-.08,2.35.08,3.2.32,3.21s1-1.9,1.36-2.86c2.31-6,4.3-11.58,10.52-11.39"/><path class="cls-1" d="M77.68,51.75A3.83,3.83,0,1,1,73.81,48a3.83,3.83,0,0,1,3.87,3.79"/></svg>