<svg xmlns="http://www.w3.org/2000/svg" viewBox="0 0 24 24"><title>share-facebook</title><g id="レイヤー_1" data-name="レイヤー 1"><path d="M22,20.88a1.13,1.13,0,0,1-.31.79,1.07,1.07,0,0,1-.81.33H15.79V14.23h2.59l.41-3h-3V9.32a1.66,1.66,0,0,1,.27-1.07,1.55,1.55,0,0,1,1.21-.4h1.6V5.13C18.25,5.07,17.48,5,16.55,5a3.91,3.91,0,0,0-2.81,1,3.92,3.92,0,0,0-1.07,3v2.23H10.08v3h2.59V22H3.12a1.07,1.07,0,0,1-.81-.33A1.13,1.13,0,0,1,2,20.88V3.12A1.06,1.06,0,0,1,3.12,2H20.88a1.13,1.13,0,0,1,.79.31,1.07,1.07,0,0,1,.33.81Z"/></g></svg>