<svg xmlns="http://www.w3.org/2000/svg" viewBox="0 0 24 24"><title>share-twitter</title><g id="レイヤー_1" data-name="レイヤー 1"><path d="M20.77,8.06a13,13,0,0,1-1.51,6A12.45,12.45,0,0,1,7.92,21,12.5,12.5,0,0,1,1,19c.31,0,.67,0,1.07,0a8.88,8.88,0,0,0,5.63-2,4.18,4.18,0,0,1-2.64-.88A4.6,4.6,0,0,1,3.49,14a7.88,7.88,0,0,0,.82,0,5.44,5.44,0,0,0,1.2-.13,4.53,4.53,0,0,1-2.58-1.6,4.43,4.43,0,0,1-1-2.86V9.32a4.31,4.31,0,0,0,2,.6A5,5,0,0,1,2.46,8.28a4.42,4.42,0,0,1,.09-4.46A12.34,12.34,0,0,0,6.65,7.2a12.41,12.41,0,0,0,5.18,1.38,6,6,0,0,1-.09-1,4.56,4.56,0,0,1,.6-2.27A4.36,4.36,0,0,1,14,3.61,4.43,4.43,0,0,1,18,3.39a5.14,5.14,0,0,1,1.48,1A9.11,9.11,0,0,0,22.4,3.35a4.55,4.55,0,0,1-2,2.51A9.65,9.65,0,0,0,23,5.12,9.92,9.92,0,0,1,20.72,7.5,2.41,2.41,0,0,1,20.77,8.06Z"/></g></svg>