<svg xmlns="http://www.w3.org/2000/svg" viewBox="0 0 24 24"><defs><style>.cls-1{fill:#fff;}</style></defs><title>sns-facebook</title><g id="レイヤー_1" data-name="レイヤー 1"><path class="cls-1" d="M21.6,20.53a1.08,1.08,0,0,1-.3.75,1,1,0,0,1-.77.32H15.64V14.14h2.49l.38-2.87H15.64V9.43a1.6,1.6,0,0,1,.26-1A1.47,1.47,0,0,1,17.06,8H18.6V5.4c-.6-.06-1.34-.09-2.23-.09a3.74,3.74,0,0,0-2.7,1,3.76,3.76,0,0,0-1,2.83v2.14H10.16v2.87h2.48V21.6H3.47a1,1,0,0,1-.77-.32,1.08,1.08,0,0,1-.3-.75V3.47A1,1,0,0,1,3.47,2.4H20.53a1.08,1.08,0,0,1,.75.3,1,1,0,0,1,.32.77Z"/></g></svg>