<svg xmlns="http://www.w3.org/2000/svg" viewBox="0 0 24 24"><defs><style>.cls-1{fill:#fff;}</style></defs><title>sns-instagram</title><g id="レイヤー_1" data-name="レイヤー 1"><path class="cls-1" d="M21.56,8c0,.8,0,2.13,0,4s0,3.19-.06,4a8.4,8.4,0,0,1-.37,2.12,5,5,0,0,1-3,3,8.4,8.4,0,0,1-2.12.37c-.82,0-2.15.06-4,.06s-3.19,0-4-.06a7.19,7.19,0,0,1-2.12-.41A4.6,4.6,0,0,1,4,20a5,5,0,0,1-1.18-1.86A8.4,8.4,0,0,1,2.46,16c0-.82-.06-2.15-.06-4s0-3.19.06-4a8.4,8.4,0,0,1,.37-2.12,5,5,0,0,1,3-3A8.4,8.4,0,0,1,8,2.46c.82,0,2.15-.06,4-.06s3.19,0,4,.06a8.4,8.4,0,0,1,2.12.37,5,5,0,0,1,3,3A8.9,8.9,0,0,1,21.56,8ZM19.5,17.66a8.86,8.86,0,0,0,.34-2.32c0-.63.05-1.51.05-2.65V11.31c0-1.17,0-2.05-.05-2.65a8.44,8.44,0,0,0-.34-2.32A3.1,3.1,0,0,0,17.66,4.5a8.44,8.44,0,0,0-2.32-.34c-.63,0-1.51,0-2.65,0H11.31c-1.14,0-2,0-2.65,0a8.86,8.86,0,0,0-2.32.34A3.1,3.1,0,0,0,4.5,6.34a8.44,8.44,0,0,0-.34,2.32c0,.63,0,1.51,0,2.65v1.38c0,1.14,0,2,0,2.65a8.86,8.86,0,0,0,.34,2.32A3.26,3.26,0,0,0,6.34,19.5a8.86,8.86,0,0,0,2.32.34c.63,0,1.51.05,2.65.05h1.38c1.17,0,2.05,0,2.65-.05a8.44,8.44,0,0,0,2.32-.34A3.26,3.26,0,0,0,19.5,17.66ZM12,7.07a4.69,4.69,0,0,1,2.46.67,4.86,4.86,0,0,1,1.8,1.8,4.85,4.85,0,0,1,0,4.92,4.86,4.86,0,0,1-1.8,1.8,4.85,4.85,0,0,1-4.92,0,4.86,4.86,0,0,1-1.8-1.8,4.85,4.85,0,0,1,0-4.92,4.86,4.86,0,0,1,1.8-1.8A4.69,4.69,0,0,1,12,7.07Zm0,8.14A3.21,3.21,0,0,0,15.21,12,3.21,3.21,0,0,0,12,8.79,3.21,3.21,0,0,0,8.79,12,3.21,3.21,0,0,0,12,15.21Zm6.3-8.35A1.15,1.15,0,1,0,17.14,8a1.05,1.05,0,0,0,.8-.34A1.37,1.37,0,0,0,18.3,6.86Z"/></g></svg>