<svg id="layer1" xmlns="http://www.w3.org/2000/svg" viewBox="0 0 500 250"><defs><style>.cls-1{fill:#fff;}.cls-2{fill:none;stroke:#fff;stroke-miterlimit:10;stroke-width:2px;}</style></defs><path class="cls-1" d="M191.26,155.63l7.57,7.36a13.78,13.78,0,0,0,3.18,2.48,6.93,6.93,0,0,0,2.64.75v.55h-9.77v-.55a2.14,2.14,0,0,0,1.26-.29.81.81,0,0,0,.39-.64,1.47,1.47,0,0,0-.14-.64,5.94,5.94,0,0,0-.95-1.05l-7.09-6.86v6.47a6.67,6.67,0,0,0,.19,2,1.39,1.39,0,0,0,.64.63,2.79,2.79,0,0,0,1.38.36h.7v.55H182.5v-.55h.73a2.19,2.19,0,0,0,1.84-.73,4.29,4.29,0,0,0,.37-2.28v-13a6.69,6.69,0,0,0-.2-2,1.37,1.37,0,0,0-.62-.62,2.88,2.88,0,0,0-1.39-.36h-.73v-.54h8.76v.54h-.7a3.06,3.06,0,0,0-1.38.34,1.31,1.31,0,0,0-.65.72,6.61,6.61,0,0,0-.18,2v6.15c.2-.19.89-.82,2.07-1.88a44.7,44.7,0,0,0,5.44-5.38,1.87,1.87,0,0,0,.41-1,.76.76,0,0,0-.32-.6,1.73,1.73,0,0,0-1.07-.26h-.47v-.54H202v.54a4.52,4.52,0,0,0-1.21.18,6.36,6.36,0,0,0-1.33.63,12.84,12.84,0,0,0-1.94,1.5q-.33.3-3.08,3Z"/><path class="cls-1" d="M226,146.69h7.16v.54h-.39a3.27,3.27,0,0,0-1.15.34,4.53,4.53,0,0,0-1.38,1,14.2,14.2,0,0,0-1.53,2.08l-5,7.62v5a3.94,3.94,0,0,0,.43,2.31,2.38,2.38,0,0,0,1.82.62h.66v.55H218v-.55h.72a2.11,2.11,0,0,0,1.85-.77,4.42,4.42,0,0,0,.34-2.16v-4.76l-5.64-8.41a17.67,17.67,0,0,0-1.36-1.85,5.3,5.3,0,0,0-1.47-.89,2.08,2.08,0,0,0-.88-.15v-.54h8.79v.54h-.46a2.68,2.68,0,0,0-1.31.33,1.05,1.05,0,0,0-.6,1,4.65,4.65,0,0,0,.93,1.92l4.28,6.47,4-6.19a4.46,4.46,0,0,0,.91-2.07,1.26,1.26,0,0,0-.22-.74,1.35,1.35,0,0,0-.63-.51,3.13,3.13,0,0,0-1.22-.19Z"/><path class="cls-1" d="M251.8,146.23a9.44,9.44,0,0,1,6.94,3,10.14,10.14,0,0,1,2.93,7.41,10.45,10.45,0,0,1-3,7.6,10,10,0,0,1-14.28.07,10.47,10.47,0,0,1-2.88-7.63,10.14,10.14,0,0,1,10.25-10.42Zm-.28,1.08a5.46,5.46,0,0,0-4.43,2c-1.38,1.66-2.07,4.08-2.07,7.28s.71,5.8,2.15,7.57a5.37,5.37,0,0,0,4.36,2,6,6,0,0,0,4.78-2.21q1.89-2.21,1.89-7,0-5.16-2.08-7.69A5.64,5.64,0,0,0,251.52,147.31Z"/><path class="cls-1" d="M288.46,146.69l.23,4.71h-.58a5.6,5.6,0,0,0-.45-1.78,3,3,0,0,0-1.25-1.27,4.47,4.47,0,0,0-2.05-.41h-2.9v15.35a4.07,4.07,0,0,0,.41,2.31,2.34,2.34,0,0,0,1.77.62h.72v.55h-8.72v-.55h.73a2.11,2.11,0,0,0,1.85-.77,4.46,4.46,0,0,0,.33-2.16V147.94h-2.47a6.89,6.89,0,0,0-2,.21,2.79,2.79,0,0,0-1.35,1.08,4.39,4.39,0,0,0-.67,2.17h-.57l.24-4.71Z"/><path class="cls-1" d="M307.64,146.23a9.43,9.43,0,0,1,6.93,3,10.14,10.14,0,0,1,2.93,7.41,10.44,10.44,0,0,1-2.95,7.6,10,10,0,0,1-14.28.07,10.43,10.43,0,0,1-2.89-7.63,10.14,10.14,0,0,1,10.26-10.42Zm-.29,1.08a5.44,5.44,0,0,0-4.42,2c-1.39,1.66-2.08,4.08-2.08,7.28s.72,5.8,2.15,7.57a5.38,5.38,0,0,0,4.36,2,6,6,0,0,0,4.79-2.21q1.88-2.21,1.88-7,0-5.16-2.07-7.69A5.68,5.68,0,0,0,307.35,147.31Z"/><path class="cls-1" d="M30.78,112.38a9.41,9.41,0,0,1-8.15-3.95c-.9-1.3-1.95-4-1.95-9.47V65.58h1.85V99c0,5.46,1.13,7.68,1.61,8.38a7.46,7.46,0,0,0,6.64,3.17,7.52,7.52,0,0,0,6.7-3.2c.48-.66,1.59-2.79,1.59-8.35V65.58h1.85V99c0,5.59-1.06,8.23-1.94,9.45A9.43,9.43,0,0,1,30.78,112.38Z"/><path class="cls-1" d="M30.78,122.58a20.41,20.41,0,0,1-15.26-6.46c-3.66-3.84-5.52-8.81-5.52-14.76V65.58h7.7V99c0,5.06.85,8.83,2.51,11.21a12.34,12.34,0,0,0,10.57,5.2,12.39,12.39,0,0,0,10.6-5.19c1.67-2.31,2.51-6.08,2.51-11.22V65.58H51.6v35.78a20.47,20.47,0,0,1-20.82,21.22Z"/><polygon class="cls-1" points="73.26 122.58 73.26 65.58 113.73 103.6 113.73 65.58 121.44 65.58 121.44 122.58 80.96 84.66 80.96 122.58 73.26 122.58"/><polygon class="cls-1" points="441.82 122.58 441.82 65.58 482.3 103.6 482.3 65.58 490 65.58 490 122.58 449.52 84.66 449.52 122.58 441.82 122.58"/><polygon class="cls-1" points="175.05 122.58 154.15 96.53 151.84 98.87 151.84 122.58 144.14 122.58 144.14 65.58 151.84 65.58 151.84 89.42 174.92 65.58 185.12 65.58 159.64 91.3 185.4 122.58 175.05 122.58"/><path class="cls-1" d="M308.18,112.67a17.23,17.23,0,0,1-12.47-5.28A17.75,17.75,0,0,1,290.3,94a17.71,17.71,0,0,1,5.25-13.09,18.09,18.09,0,0,1,25.67,0,18,18,0,0,1,5.2,13.23,18.07,18.07,0,0,1-5.27,13.23A17.35,17.35,0,0,1,308.18,112.67Zm.22-35.28a15.39,15.39,0,0,0-11.54,4.78A15.93,15.93,0,0,0,292.15,94,15.94,15.94,0,0,0,297,106a16,16,0,0,0,22.83,0,16.26,16.26,0,0,0,4.74-11.91,16.2,16.2,0,0,0-4.68-11.92A15.21,15.21,0,0,0,308.4,77.39Z"/><path class="cls-1" d="M308.07,122.58a28.15,28.15,0,0,1-19-7.38c-6.14-5.41-9.25-12.59-9.25-21.36a27.14,27.14,0,0,1,8.44-19.93,27.79,27.79,0,0,1,20.2-8.33,27.24,27.24,0,0,1,20,8.4,27.73,27.73,0,0,1,8.37,20.19,27.27,27.27,0,0,1-8.4,20.11A28.17,28.17,0,0,1,308.07,122.58Zm.33-50.06a20.25,20.25,0,0,0-15,6.23,20.84,20.84,0,0,0-6.1,15.2,20.85,20.85,0,0,0,6.33,15.6,20.82,20.82,0,0,0,29.59-.12,22.34,22.34,0,0,0,.08-30.68A20.07,20.07,0,0,0,308.4,72.52Z"/><polygon class="cls-1" points="347.82 65.58 356.18 65.58 371.46 102.06 387.32 66.3 402.07 102.07 418.31 65.58 426.66 65.58 401.73 122.53 387.17 87.26 371.53 122.58 347.82 65.58"/><polygon class="cls-1" points="382.35 65.58 371.59 89.34 361.44 65.58 359.42 65.58 371.54 93.94 384.39 65.58 382.35 65.58"/><polygon class="cls-1" points="413 65.58 402.24 89.28 392.26 65.58 390.25 65.58 402.18 93.91 415.04 65.58 413 65.58"/><polygon class="cls-1" points="477.47 65.58 477.47 92.1 449.23 65.58 446.51 65.58 479.32 96.4 479.32 65.58 477.47 65.58"/><polygon class="cls-1" points="252.44 65.58 224.2 92.1 224.2 65.58 222.35 65.58 222.35 96.4 255.16 65.58 252.44 65.58"/><polygon class="cls-1" points="108.91 65.58 108.91 92.1 80.67 65.58 77.95 65.58 110.76 96.4 110.76 65.58 108.91 65.58"/><polygon class="cls-1" points="85.79 122.58 85.79 96.14 114.01 122.58 116.74 122.58 83.93 91.85 83.93 122.58 85.79 122.58"/><polygon class="cls-1" points="191.68 122.58 166.16 91.61 191.94 65.58 189.32 65.58 163.65 91.49 189.27 122.58 191.68 122.58"/><polygon class="cls-1" points="376.81 122.58 387.01 99.55 396.52 122.58 398.53 122.58 387.07 94.83 374.78 122.58 376.81 122.58"/><polygon class="cls-1" points="454.35 122.58 454.35 96.14 482.58 122.58 485.3 122.58 452.5 91.85 452.5 122.58 454.35 122.58"/><polygon class="cls-1" points="168.17 65.58 156.66 77.47 156.66 65.58 154.81 65.58 154.81 82.06 170.76 65.58 168.17 65.58"/><polygon class="cls-1" points="156.66 122.58 156.66 107.4 168.85 122.58 171.23 122.58 154.81 102.12 154.81 122.58 156.66 122.58"/><polygon class="cls-1" points="219.09 122.58 247.32 96.14 247.32 122.58 249.17 122.58 249.17 91.85 216.37 122.58 219.09 122.58"/><polygon class="cls-1" points="213.52 118.29 213.52 65.58 211.67 65.58 211.67 122.58 252.15 84.66 252.15 122.58 254 122.58 254 84.66 254 80.38 250.88 83.3 213.52 118.29"/><polygon class="cls-1" points="219.37 65.58 217.52 65.58 217.52 103.6 217.52 107.9 220.64 104.97 258 69.87 258 122.58 259.85 122.58 259.85 65.58 219.37 103.6 219.37 65.58"/><path class="cls-1" d="M202.16,230.7H171.63l-.41-.78h7.34l2.38-13.41h-6.07l-.41-.75h6.62l1.74-9.82h-9.21l-.41-.79H194l2.28-2.62c.17-.21.27-.35.55-.35a1,1,0,0,1,.61.31l2.8,2.39a.85.85,0,0,1,.31.58.52.52,0,0,1-.58.48H187.73c.21.07.58.17.58.54s0,.38-1.12.92l-1.47,8.36h6l2-2a.86.86,0,0,1,.75-.31,1.46,1.46,0,0,1,.82.37l2.28,2.05a1.17,1.17,0,0,1,.41.72c0,.41-.82,1.16-1.47,1.7l-.81,11.67h.41l2.45-3a.69.69,0,0,1,.58-.34,1,1,0,0,1,.61.34l2.67,2.69a1,1,0,0,1,.34.62C202.78,230.57,202.47,230.7,202.16,230.7Zm-16.58-14.19-2.35,13.41h7.88l1-13.41Z"/><path class="cls-1" d="M222.18,204.3a48.81,48.81,0,0,1-2.56,5.29l.52.27a.46.46,0,0,1,.3.41c0,.41-.68.75-.88.85v20.1c0,1-1.95,1.4-2.46,1.4-1.26,0-1.26-.45-1.26-.89V215.28a19.15,19.15,0,0,1-3.38,3.45l-.24-.31a35.34,35.34,0,0,0,5-16.88l5.84,1.57c.2.06.44.13.44.4C223.48,204,223,204.13,222.18,204.3Zm22.21,9.79c-2.35.61-2.35,2.12-2.35,3.58,0,.34-.14.51-.44.51a9.77,9.77,0,0,1-2.63-.58,14.37,14.37,0,0,1-4.47-2.52,25.92,25.92,0,0,1-9.93,3.75v9.25c0,1-2.25,1.36-2.9,1.36-.41,0-.92-.07-.92-.78V207.51L225,208c.31,0,.65.1.65.44s-.1.41-1.09.89v2.8a11.72,11.72,0,0,0,2.42-5.36,36.27,36.27,0,0,0,.79-5.05l5.46.92c.13,0,.51.11.51.45s-.58.65-1.26.85c-.55,1.09-.86,1.64-1.3,2.42h6.92l1.71-2.15a.64.64,0,0,1,.55-.3,1,1,0,0,1,.64.3l2.05,1.85a.69.69,0,0,1,.34.57c0,.38-.34.48-.58.48h-2.08a.45.45,0,0,1,.07.31c0,.61-.61.75-1.09.85a18.2,18.2,0,0,1-2.63,4.4,18.73,18.73,0,0,0,7.34,1.1Zm-2.56,16.75c0,.21-.07.38-.27.38s-4-1.81-5.9-7.61v7.57c0,1-2.29,1.3-2.7,1.3s-1.26,0-1.26-.75v-5.08a21.19,21.19,0,0,1-9.69,4.87l-.1-.37a17.89,17.89,0,0,0,8-9.32h-4.64l-.41-.75h6.89v-4l4.37.37c.3,0,.61.07.61.45s-.31.51-1,.85v2.28h3l1.74-1.94c.24-.27.37-.31.54-.31s.34.07.65.31l1.95,1.64a.81.81,0,0,1,.34.58c0,.37-.31.47-.58.47h-7.41c2,2.87,5.43,4.47,8.74,5.33v.34C242.52,227.87,242.11,229.14,241.83,230.84Zm-12-22.58a21.07,21.07,0,0,1-5.25,5.11v4.71a17,17,0,0,0,7.85-5.08A14.66,14.66,0,0,1,229.82,208.26Zm.86-1.2a1.41,1.41,0,0,0-.17.31,9.34,9.34,0,0,0,3.2,3.55,17.62,17.62,0,0,0,1.37-3.86Z"/><path class="cls-1" d="M286.52,222H274c1.78,2.42,6.59,5.08,13,5.83l0,.34c-2.79,1-2.86,1.5-3,3.55,0,.17,0,.61-.45.61-2.35,0-7.81-3.44-10-8.8v8.22c0,.58-2.15,1-2.86,1-.34,0-1.2-.13-1.2-.65v-7.3c-4.33,4.47-10,7.13-12.93,7.61l-.1-.34A22.43,22.43,0,0,0,265.4,222H256l-.41-.79h14v-3.14l4.51.24c-.11-.1-.17-.17-.17-.24V217h-4.54v1.43c0,.65-1.88,1-2.56,1-.27,0-1.5,0-1.5-.85V211.8a74.45,74.45,0,0,1-5.49,6.25c-.17.88-.21,1.19-.65,1.19-.1,0-.21,0-.38-.27l-2.79-4.44,9.31-3.58v-6.68l3.58,1.26a23.84,23.84,0,0,0,.68-4.1l5,.72a.39.39,0,0,1,.38.41c0,.55-1,.72-1.3.78-.47.35-2.62,2-3.07,2.39h3.24l1.33-1.43a.8.8,0,0,1,.75-.38,1.55,1.55,0,0,1,1,.31l2.22,1.84a.74.74,0,0,1,.27.51c0,.38-.1.48-1.19,1.54v2.7a21.09,21.09,0,0,0,3.85-7.71l4.88,2.38a.57.57,0,0,1,.24.41c0,.58-.44.58-1.47.58-4.13,3-4.57,3.35-6.28,4.2,3.76.51,7.37,2.35,7.37,5.08a2.4,2.4,0,0,1-2.32,2.49c-1.87,0-2.32-1.6-2.59-2.62a6.87,6.87,0,0,0-3.34-4.54l-.34.13v6.52c0,.51-1.57,1.09-2.66,1.09a2.22,2.22,0,0,1-.76-.1c0,.55-.2.68-1.09,1.19v1.3h8.09l1.67-2.32a.62.62,0,0,1,.58-.31.82.82,0,0,1,.58.31l2.32,2a1.05,1.05,0,0,1,.31.62C287.1,221.87,286.82,222,286.52,222Zm-25.73-10.68c-2.18,0-2.28-2-2.32-3.18a6.83,6.83,0,0,0-1.91-4.64l.21-.34c2.83.55,6.48,2.66,6.48,5.67A2.41,2.41,0,0,1,260.79,211.33Zm13-4.81h-4.54v4.4h4.54Zm0,5.15h-4.54v4.5h4.54Z"/><path class="cls-1" d="M327.65,205.94v25.11c0,.85-2.21,1.36-3,1.36s-1.23-.14-1.23-.75V230.4H303.77v.82c0,.78-1.67,1.29-2.93,1.29-1,0-1.23-.3-1.23-.88V201.71l4.26,1.74h19.38l1.09-1.33a1.07,1.07,0,0,1,.89-.45,1,1,0,0,1,.68.24l2.6,2.05a.63.63,0,0,1,.27.44C328.78,204.74,328.51,205.15,327.65,205.94Zm-4.23,5.22H304.73l-.41-.75h7.37v-2.36h-6.38l-.41-.78h6.79v-2.7l4.43.41a.5.5,0,0,1,.51.48c0,.37-.3.55-.95.82v1h2l1.29-1.54c.17-.2.28-.34.55-.34s.34.14.61.34l1.54,1.23a.73.73,0,0,1,.34.61c0,.38-.34.48-.58.48h-5.73v2.36h3.17l1.13-1.57a.64.64,0,0,1,.54-.31c.14,0,.21,0,.65.27l2.25,1.26V204.2H303.77v25.45h19.65ZM320.49,228c-.89,0-1.16-.61-1.47-1.47a7.47,7.47,0,0,0-3.31-3.85v5.08c0,1.33-2.76,1.37-3,1.37-.65,0-1-.11-1-.79v-5.46a30.2,30.2,0,0,1-7.61,4.06l-.17-.3a24.88,24.88,0,0,0,3.82-3.55,17.8,17.8,0,0,0,2.73-4,4.4,4.4,0,0,1-2.7.92c-.95,0-1.05-.44-1.05-.89v-7.4l3.85,1.64h6.18l.95-1.16a.86.86,0,0,1,.72-.34,1.07,1.07,0,0,1,.75.27l2.11,1.64a.64.64,0,0,1,.31.54c0,.41-.51.92-.85,1.23v2.56c0,.51-.28,1-1.3,1.36L322,221a.69.69,0,0,1,.37.55c0,.17-.14.48-.71.48a3.39,3.39,0,0,1-.89-.14,10.33,10.33,0,0,1-1.44.58c1,.34,3.45,1.19,3.45,3.41A2.26,2.26,0,0,1,320.49,228Zm-3.69-13.85h-6.27v3.17h6.27Zm0,4.81v-.85h-.75c.21.06.34.17.34.37s-.17.51-.68.72v2.69l.58.07a10.65,10.65,0,0,0,1.57-2.25C317.38,219.69,316.8,219.48,316.8,219Z"/><line class="cls-2" x1="360.29" y1="207.91" x2="449.95" y2="207.91"/><line class="cls-2" x1="380.29" y1="217.75" x2="469.94" y2="217.75"/><line class="cls-2" x1="360.29" y1="227.59" x2="449.95" y2="227.59"/><rect class="cls-2" x="469.93" y="215.1" width="5.29" height="5.29" transform="translate(-15.56 397.94) rotate(-45)"/><line class="cls-2" x1="360.29" y1="217.75" x2="362.12" y2="217.75"/><line class="cls-2" x1="365.86" y1="217.75" x2="367.69" y2="217.75"/><line class="cls-2" x1="371.43" y1="217.75" x2="373.26" y2="217.75"/><line class="cls-2" x1="139.71" y1="207.91" x2="50.05" y2="207.91"/><line class="cls-2" x1="119.71" y1="217.75" x2="30.06" y2="217.75"/><line class="cls-2" x1="139.71" y1="227.59" x2="50.05" y2="227.59"/><rect class="cls-2" x="24.78" y="215.1" width="5.29" height="5.29" transform="translate(-107.15 391.12) rotate(-135)"/><line class="cls-2" x1="139.71" y1="217.75" x2="137.88" y2="217.75"/><line class="cls-2" x1="134.26" y1="217.75" x2="132.43" y2="217.75"/><line class="cls-2" x1="128.57" y1="217.75" x2="126.74" y2="217.75"/><path class="cls-1" d="M137.6,20a20.43,20.43,0,0,1,4.86,2.44l-1.69,2.49A19.53,19.53,0,0,0,136,22.28Zm-.69,14.37a80.61,80.61,0,0,0,4.6-7.89l2.25,2c-1.28,2.59-2.77,5.31-4,7.25a.81.81,0,0,1,.15.45.66.66,0,0,1-.15.42Zm5.28-16.11a19.47,19.47,0,0,0-4.66-2.79l1.62-2.22a18.44,18.44,0,0,1,4.78,2.57Zm11.93-4.09c-.08.23-.33.33-.7.33-.35.92-.82,2.06-1.35,3.13h6.53V36.47h-3V35.23h-8.07v1.42h-2.86v-19H149a36.47,36.47,0,0,0,1.29-4.5Zm1.49,6.23h-8.07v4.53h8.07Zm-8.07,12.05h8.07V27.71h-8.07Z"/><path class="cls-1" d="M175,22.45a31.43,31.43,0,0,0,5.26-.85,11.68,11.68,0,0,1,0,3.07,35.33,35.33,0,0,1-5.13.69c.05,1.13.12,2.27.17,3.34a18.55,18.55,0,0,1,6.26,2.89,6.36,6.36,0,0,1-1.5,3.26,14.18,14.18,0,0,0-4.61-3.06v.35c0,2.24-1.49,4-5,4s-6-1.54-6-4.13c0-2.24,2.22-3.89,6.08-3.89.57,0,1.14,0,1.72.08l-.13-2.64c-2.24.07-4.48.05-6.27-.05a10,10,0,0,1-.55-3.14,35.58,35.58,0,0,0,4.28.3c.75,0,1.57,0,2.44,0v-3c-2,0-3.93,0-5.23-.13a9.58,9.58,0,0,1-.52-3,25.27,25.27,0,0,0,3.88.3c.55,0,1.22,0,1.92,0l0-.64c0-1.25,0-1.82,0-2.52a12.79,12.79,0,0,1,3.28.27c-.07.85-.12,1.8-.17,2.77a27.63,27.63,0,0,0,4.21-.57,9.13,9.13,0,0,1,0,2.86,32,32,0,0,1-4.28.5c0,.77,0,1.54,0,2.34Zm-2.68,8.44a13.67,13.67,0,0,0-2.22-.2c-1.64,0-2.59.48-2.59,1.25s.67,1.34,2.44,1.34c1.47,0,2.37-.57,2.37-2.19Z"/><path class="cls-1" d="M206.63,29c0,3.71-3,7.09-8.64,7.09-3.56,0-5.53-1.86-5.53-4.08a3.6,3.6,0,0,1,3.83-3.51,5.09,5.09,0,0,1,5.23,3.86A3.79,3.79,0,0,0,203.47,29c0-2.19-1.82-3.64-4.81-3.64-4.33,0-6.75,3.07-8.54,5.66a9.67,9.67,0,0,1-2.29-2.52c1.69-1.89,4.6-4.88,6.3-6.57,1.52-1.52,3.06-3,3.81-3.86-1.4.2-3.76.5-6.05.7a14,14,0,0,1-.65-3.09,18.59,18.59,0,0,0,2.36,0c2.05-.12,7.13-.55,8.27-.8a8.57,8.57,0,0,1,1.37,2.32c-1.32,1.1-3.06,2.62-4.48,3.94-1,.94-1.84,1.76-2.34,2.34a7,7,0,0,1,3.14-.75C203.74,22.75,206.63,25,206.63,29Zm-7.85,4.2A2.36,2.36,0,0,0,196.52,31a1,1,0,0,0-1.15.92c0,.83.87,1.32,2.29,1.32C198.06,33.28,198.43,33.26,198.78,33.23Z"/><path class="cls-1" d="M216.24,36.65a29.2,29.2,0,0,0-5.31-5.43A12.59,12.59,0,0,1,213.37,29a28.47,28.47,0,0,1,5.38,5.43A9.31,9.31,0,0,1,216.24,36.65Z"/><path class="cls-1" d="M247,28.9a10.27,10.27,0,0,0,1-.77l2.47,2.12a.85.85,0,0,1-.45.12,1.32,1.32,0,0,1-.28,0c-1,.67-2.56,1.59-4,2.34a21.41,21.41,0,0,0,5.73,1.37,10.94,10.94,0,0,0-1.8,2.61c-5.38-.9-9-3.09-11.25-7h-2.64v3.58l5.08-.34V35.4c-3.54.37-7.25.75-9.64,1a.49.49,0,0,1-.45.4l-.89-3.07,2.93-.2V21.38c-1,.57-2,1.1-3,1.57A12.67,12.67,0,0,0,228,20.56,26,26,0,0,0,238.27,13l4,.2a.69.69,0,0,1-.62.44,26.14,26.14,0,0,0,10.33,6.58,15.86,15.86,0,0,0-1.89,2.66A32.78,32.78,0,0,1,247,21.31Zm-5.65-8.34h4.4a27.41,27.41,0,0,1-5.9-4.83,26.33,26.33,0,0,1-5.73,4.83h4.16V18l3.74.2c0,.25-.2.4-.67.48Zm-5.58,2.26V24H244v-1.2Zm0,3.29v1.32H244V26.11Zm5.68,3.59a10.09,10.09,0,0,0,1.79,1.64c.84-.47,1.77-1,2.64-1.64Z"/><path class="cls-1" d="M265.41,23.5a1.79,1.79,0,0,0-1.32-.55,1.69,1.69,0,0,0-1.12.6,63.09,63.09,0,0,1-5.53,5.9A7.59,7.59,0,0,1,254.63,27,25.06,25.06,0,0,0,257.07,25c1.54-1.39,2.94-3,4.26-4.43a3.64,3.64,0,0,1,2.61-1.3,4.09,4.09,0,0,1,2.87,1.12c1.29,1.1,2.49,2.32,4.08,3.74a72.13,72.13,0,0,0,7.25,5.8,5.84,5.84,0,0,1-2.37,2.92c-1.64-1.27-4.08-3.42-6.3-5.51ZM274.5,21A5.3,5.3,0,0,1,273,22.28a20.81,20.81,0,0,0-2.71-2.77,9.43,9.43,0,0,1,1.44-1.27A18.85,18.85,0,0,1,274.5,21ZM277,18.82a6.35,6.35,0,0,1-1.52,1.34,20,20,0,0,0-2.74-2.69,8.08,8.08,0,0,1,1.47-1.29A17.72,17.72,0,0,1,277,18.82Z"/><path class="cls-1" d="M300.25,29c0,3.71-3,7.09-8.64,7.09-3.56,0-5.53-1.86-5.53-4.08a3.6,3.6,0,0,1,3.83-3.51,5.09,5.09,0,0,1,5.23,3.86A3.79,3.79,0,0,0,297.09,29c0-2.19-1.82-3.64-4.81-3.64-4.33,0-6.75,3.07-8.54,5.66a10,10,0,0,1-2.29-2.52c1.69-1.89,4.6-4.88,6.3-6.57,1.52-1.52,3.06-3,3.81-3.86-1.4.2-3.76.5-6.05.7a14,14,0,0,1-.65-3.09,18.59,18.59,0,0,0,2.36,0c2-.12,7.13-.55,8.27-.8a8.32,8.32,0,0,1,1.37,2.32c-1.32,1.1-3.06,2.62-4.48,3.94-1,.94-1.84,1.76-2.34,2.34a7,7,0,0,1,3.14-.75C297.36,22.75,300.25,25,300.25,29Zm-7.85,4.2A2.35,2.35,0,0,0,290.14,31,1,1,0,0,0,289,32c0,.83.87,1.32,2.29,1.32C291.68,33.28,292.06,33.26,292.4,33.23Z"/><path class="cls-1" d="M309.86,36.65a29.2,29.2,0,0,0-5.31-5.43A12.59,12.59,0,0,1,307,29a28.18,28.18,0,0,1,5.38,5.43A9.31,9.31,0,0,1,309.86,36.65Z"/><path class="cls-1" d="M343.75,18.89l1.34.05c0,.2,0,.57,0,.87-.18,10.76-.33,14.42-1,15.47S342.5,36.6,340,36.52a7.18,7.18,0,0,0-.69-2.59c.77.08,1.42.1,1.81.1a.74.74,0,0,0,.73-.45c.42-.67.59-3.63.74-12.13h-1.29c0,4-.1,11-3.89,15.32a10.39,10.39,0,0,0-2.09-1.57v0c-2.44.32-4.81.59-6.45.77a.54.54,0,0,1-.42.4l-.92-2.74,3.91-.28V31.84h-3.27V29.65h3.27v-1.2h-3.22V21h3.24v-1h-3.51V17.72h3.51V16.8c-1,.1-2,.15-2.89.2a8.38,8.38,0,0,0-.52-1.65c-.42,1.32-.9,2.62-1.42,3.91l.85.25a.71.71,0,0,1-.65.43V36.72h-2.67V24.37a20.58,20.58,0,0,1-1.57,2.39,33.87,33.87,0,0,0-1.14-3.19,32.67,32.67,0,0,0,4.33-10.31l3.19,1a.61.61,0,0,1-.67.3l-.13.37a59.41,59.41,0,0,0,7.72-1.09l1.7,2.14c-.1.08-.13.08-.55.08-.87.17-1.92.32-3.06.47v1.17h3.58v1.17h1.22V13.26l3.14.18c0,.22-.2.37-.62.42v5ZM330.1,22.78V23.9h1.54V22.78Zm0,2.76v1.12h1.54V25.54Zm3.56-1.64h1.65V22.78h-1.65Zm0,2.76h1.65V25.54h-1.65Zm3.66,5.06A27.25,27.25,0,0,0,338.74,22v-.5h-1.32V19.94h-3.48v1h3.36v7.47h-3.39v1.2h3.41Zm-3.41,1.39,2.92-.25a7.13,7.13,0,0,0,.44-1h-3.36Z"/><path class="cls-1" d="M363,16.18a91.53,91.53,0,0,1-6.4,6.74c-.69.7-1.14,1.17-1.14,1.67,0,.72,1.24,1.82,2.86,3.32A42.28,42.28,0,0,1,364,34.13a8.59,8.59,0,0,1-2.91,2.52,35.72,35.72,0,0,0-5.1-6.23c-2.92-2.86-4.66-4.18-4.66-5.78,0-.84.7-1.69,1.67-2.66,1.64-1.65,5.45-5.16,7.54-8.42A8.64,8.64,0,0,1,363,16.18Z"/></svg>