<svg id="layer1" xmlns="http://www.w3.org/2000/svg" viewBox="0 0 50 50"><defs><style>.cls-1{fill:#d3b471;}</style></defs><title>top-location-heading</title><path class="cls-1" d="M17.75,37.89q-4.17-6.18-5.5-8.34a24.14,24.14,0,0,1-2.58-5.19A16,16,0,0,1,9,19.5a16.25,16.25,0,0,1,2.17-8.25,16.58,16.58,0,0,1,5.83-6,15.46,15.46,0,0,1,16,0,16.58,16.58,0,0,1,5.83,6A16.25,16.25,0,0,1,41,19.5a16,16,0,0,1-.67,4.86,24.14,24.14,0,0,1-2.58,5.19q-1.34,2.16-5.5,8.34l-5.58,8.25a2.05,2.05,0,0,1-3.34,0Q21.17,42.87,17.75,37.89Zm12-13.53a7,7,0,0,0,0-9.72,6.52,6.52,0,0,0-9.42,0,7,7,0,0,0,0,9.72,6.52,6.52,0,0,0,9.42,0Z"/></svg>