<svg xmlns="http://www.w3.org/2000/svg" viewBox="0 0 200 94"><defs><style>.cls-1{fill:#111;stroke:#111;stroke-width:0.25px;}</style></defs><title>top-funding</title><g id="レイヤー_1" data-name="レイヤー 1"><g id="アートワーク_4" data-name="アートワーク 4"><g id="グループ化_152" data-name="グループ化 152"><path id="パス_11" data-name="パス 11" class="cls-1" d="M36.62,20.06H50.08L48.67,37H46.26l1.26-15H39.19L42,54.55h2.79l1.28-15h2.4L47,56.47H39.71Z"/><path id="パス_12" data-name="パス 12" class="cls-1" d="M164.92,38.42V51.67a5,5,0,0,1-4.94,5,4.91,4.91,0,0,1-5-4.57c-.13-3-.08-6-.09-9q0-8.77,0-17.53a5.1,5.1,0,0,1,3.47-5.21,5,5,0,0,1,6.36,3.16,5.28,5.28,0,0,1,.27,1.57Zm-2.22,0V25.34a2.79,2.79,0,0,0-5.57-.4,3.85,3.85,0,0,0,0,.48V51.36c0,.16,0,.32,0,.48a2.78,2.78,0,0,0,2,2.5,2.49,2.49,0,0,0,2.89-.92,4.12,4.12,0,0,0,.64-2.05C162.73,47.06,162.7,42.74,162.7,38.43Z"/><path id="パス_13" data-name="パス 13" class="cls-1" d="M115.4,38.35V51.68a5,5,0,0,1-4.8,4.94,4.88,4.88,0,0,1-5.16-4.17c-.21-2.09-.15-4.22-.16-6.33q0-10.45,0-20.94a5.07,5.07,0,0,1,9.83-1.85,5,5,0,0,1,.29,1.62C115.41,29.42,115.4,33.89,115.4,38.35Zm-2.22,0V25.45a2.87,2.87,0,1,0-5.71-.48,2.09,2.09,0,0,0,0,.5q0,11.67,0,23.32c0,.93,0,1.86,0,2.78a2.82,2.82,0,0,0,2.79,2.87,2.6,2.6,0,0,0,.92-.14,2.9,2.9,0,0,0,2-3V38.38Z"/><path id="パス_14" data-name="パス 14" class="cls-1" d="M175.46,54.18l-5.18-23.85-.18,0a.52.52,0,0,0-.07.25c.09,1.23.27,2.46.27,3.69,0,7.06,0,14.12,0,21.19v1h-2.17V22.33l.45.38-.52-2.64h2.23c.37,1.68.75,3.37,1.11,5.06q2,9.47,4.06,18.92a3.2,3.2,0,0,1,.08.54v9.6Z"/><path id="パス_15" data-name="パス 15" class="cls-1" d="M75.25,38.89l-.35-.46-.15.06,3.86,18H76.36L72.2,37.19l2.49-.12a5.42,5.42,0,0,0,.54-.89,6.14,6.14,0,0,0,.62-2c.07-3,.05-6.09,0-9.13a2.75,2.75,0,0,0-2.48-3h-.49c-1.4,0-2.8,0-4.26,0v-2a49.79,49.79,0,0,1,5.73.05,4.27,4.27,0,0,1,3.56,4.33c0,3.46,0,6.93,0,10.39A4.36,4.36,0,0,1,75.25,38.89Z"/><path id="パス_16" data-name="パス 16" class="cls-1" d="M24.89,20.05h2.4L24.2,56.48H21.79Z"/><path id="パス_17" data-name="パス 17" class="cls-1" d="M124.09,56.48h-2.41l4.16-36.42h2.4Z"/><path id="パス_18" data-name="パス 18" class="cls-1" d="M132.28,20.05h2.41l4.15,36.41h-2.4Z"/><path id="パス_19" data-name="パス 19" class="cls-1" d="M35.26,56.49H32.85L29.77,20.08h2.4Z"/><path id="パス_20" data-name="パス 20" class="cls-1" d="M100.06,20h2.26V56.46h-2.26Z"/><path id="パス_21" data-name="パス 21" class="cls-1" d="M175.93,20.06h2.28V56.48h-2.28Z"/><path id="パス_22" data-name="パス 22" class="cls-1" d="M151.53,56.5h-2.1V20.09h2.1Z"/><path id="パス_23" data-name="パス 23" class="cls-1" d="M143.75,56.49h-2.12v-34h2.12Z"/><path id="パス_24" data-name="パス 24" class="cls-1" d="M59.63,50.93H57.35V20.06h2.28Z"/><path id="パス_25" data-name="パス 25" class="cls-1" d="M117.46,20.05h2.4c.16,1.28.31,2.56.46,3.83l1.05,9.19c.34,3,.57,5.94,1,8.88.51,3.2-.16,6.3-.47,9.44a25.62,25.62,0,0,1-.51,3.37Z"/><path id="パス_26" data-name="パス 26" class="cls-1" d="M130.47,56.48h-2.4l4-34.64h.15c.37,3.23.81,6.46,1.1,9.71a16.7,16.7,0,0,1-.32,3.3c-.4,3.53-.8,7.07-1.21,10.6S130.89,52.79,130.47,56.48Z"/><path id="パス_27" data-name="パス 27" class="cls-1" d="M92.4,22.3c.3,1.4.62,2.8.91,4.2q.54,2.51,1,5a3.27,3.27,0,0,1,.08.7q0,11.94,0,23.86c0,.11,0,.21,0,.38H92.28V22.34Z"/><path id="パス_28" data-name="パス 28" class="cls-1" d="M92.25,20.1a.83.83,0,0,1,.21-.06c2.05-.12,2-.11,2.45,1.86Q97.23,33,99.59,44a3.32,3.32,0,0,1,.09.55c0,3.25,0,6.5-.06,9.76Z"/><path id="パス_29" data-name="パス 29" class="cls-1" d="M68.62,56.47V39.61h2.12V56.47Z"/><path id="パス_30" data-name="パス 30" class="cls-1" d="M83.92,37H82V20.06h2Z"/><path id="パス_31" data-name="パス 31" class="cls-1" d="M68.63,22.44h2.13V36.78H68.63Z"/><path id="パス_32" data-name="パス 32" class="cls-1" d="M82,39.59h2V54.24H82Z"/><path id="パス_33" data-name="パス 33" class="cls-1" d="M43.22,39.19V37.37H54.89v1.82Z"/><path id="パス_34" data-name="パス 34" class="cls-1" d="M147.58,20.08v1.8h-9.76v-1.8Z"/><path id="パス_35" data-name="パス 35" class="cls-1" d="M89,37.38v1.8H82v-1.8Z"/><path id="パス_36" data-name="パス 36" class="cls-1" d="M89,54.68v1.8H82v-1.8Z"/><path id="パス_37" data-name="パス 37" class="cls-1" d="M84.49,21.87V20.06H89v1.81Z"/><path id="パス_38" data-name="パス 38" class="cls-1" d="M60,55a1.59,1.59,0,1,1-1.54-1.64A1.52,1.52,0,0,1,60,54.85Z"/><path id="パス_39" data-name="パス 39" class="cls-1" d="M68.62,39.21v-2h3.25l.42,2Z"/><path id="パス_40" data-name="パス 40" class="cls-1" d="M134.68,45l.18,1.83H132l.15-1.83Z"/></g></g><path d="M32.08,67.2c-.91,0-1.7,0-2.31.07-.18,0-.23-.08-.26-.28s-.1-1-.13-1.41a25,25,0,0,0,2.69.09h5a1.36,1.36,0,0,0,.77-.13.45.45,0,0,1,.24-.09.34.34,0,0,1,.24.1,5.11,5.11,0,0,1,1,1,.45.45,0,0,1,.11.27.38.38,0,0,1-.14.27,2,2,0,0,0-.32.55,16.56,16.56,0,0,1-2.72,4.55,15.54,15.54,0,0,1-4,3.33.67.67,0,0,1-.38.13.45.45,0,0,1-.35-.16,4.23,4.23,0,0,0-1.31-.76,13.55,13.55,0,0,0,4.58-3.51,11.55,11.55,0,0,0,2.37-4Zm9.68-2.69a1.51,1.51,0,0,1-3,0A1.48,1.48,0,0,1,40.25,63,1.49,1.49,0,0,1,41.76,64.51Zm-2.34,0a.83.83,0,1,0,.83-.82A.8.8,0,0,0,39.42,64.51Z"/><path d="M46.1,73.53v.83c0,.24-.06.26-.31.28s-.76,0-1.11,0-.3,0-.29-.21c0-.73,0-1.72,0-2.79V68.21c0-.76,0-1.51,0-2.33,0-.14.06-.19.16-.19.74,0,1.57,0,2.51,0H50.4c.91,0,2,0,2.63,0,.16,0,.2.07.18.28,0,.69,0,1.45,0,2.27V71.6c0,1.22,0,1.9.07,2.66,0,.2-.07.24-.27.24-.42,0-.86,0-1.28,0-.17,0-.19,0-.19-.22v-.75Zm5.43-6.32H46.08v4.84h5.45Z"/><path d="M57.94,68c.07-.1.14-.17.27-.14a9.86,9.86,0,0,1,2.69,1.37c.09.07.15.13.15.21a.36.36,0,0,1-.06.15,5.6,5.6,0,0,1-.61,1.07c-.07.08-.13.14-.18.14s-.1,0-.17-.09a12.47,12.47,0,0,0-2.83-1.52C57.55,68.66,57.77,68.25,57.94,68Zm2.27,5.19a23.14,23.14,0,0,0,3.84-2.42,25.09,25.09,0,0,0,4-3.91,7.27,7.27,0,0,0,.41,1.57.72.72,0,0,1,.07.27.41.41,0,0,1-.16.32,26.5,26.5,0,0,1-3.55,3.24,32.87,32.87,0,0,1-4.19,2.63,4.29,4.29,0,0,0-.81.48.35.35,0,0,1-.23.11.38.38,0,0,1-.28-.17,9.08,9.08,0,0,1-1-1.43A6.54,6.54,0,0,0,60.21,73.22Zm-.57-8.41c.09-.17.18-.2.35-.12a9.82,9.82,0,0,1,2.63,1.56.23.23,0,0,1,.11.18.33.33,0,0,1,0,.18,6,6,0,0,1-.72,1,.16.16,0,0,1-.14.09.34.34,0,0,1-.21-.1,13.33,13.33,0,0,0-2.72-1.72C59.13,65.56,59.4,65.17,59.64,64.81Zm6.41-.44c.07-.05.13,0,.21,0a6.4,6.4,0,0,1,1.33,1.5.13.13,0,0,1,0,.22l-.59.44a.15.15,0,0,1-.24,0,6.8,6.8,0,0,0-1.41-1.63Zm1.25-.91c.08-.06.12,0,.21,0a5.8,5.8,0,0,1,1.33,1.44.16.16,0,0,1,0,.25l-.56.44c-.12.08-.18,0-.24,0A6.72,6.72,0,0,0,66.6,64Z"/><path d="M77.52,73.46H79c.72,0,1.5,0,2.26,0,.12,0,.18.08.19.26a6.76,6.76,0,0,1,0,.9c0,.18-.07.27-.24.25l-2.19,0h-4.4c-.84,0-1.47,0-2.06.06-.17,0-.24-.08-.27-.3a6.59,6.59,0,0,1-.07-1.13c.81.06,1.5.06,2.4.06H76V69.93h-.77c-.58,0-1.08,0-1.73,0-.12,0-.19-.07-.22-.28a10.63,10.63,0,0,1-.08-1.13c.6.06,1.34.06,1.94.06h3.11c.63,0,1.28,0,1.89,0,.17,0,.21.07.23.24s0,.59,0,.87-.07.28-.28.27l-1.82,0h-.77Z"/><path d="M93.37,66.16a1.38,1.38,0,0,0,.7-.16.28.28,0,0,1,.18-.06.37.37,0,0,1,.22.09,6.54,6.54,0,0,1,1,.75.46.46,0,0,1,.19.32.43.43,0,0,1-.17.3A1.55,1.55,0,0,0,95,68a19.56,19.56,0,0,1-2.78,4.33,17.86,17.86,0,0,1-4.26,3.49.4.4,0,0,1-.22.07.49.49,0,0,1-.32-.16,3.66,3.66,0,0,0-1.33-.64,16.32,16.32,0,0,0,4.66-3.57,14.35,14.35,0,0,0,2.59-4l-3.39.09a20.06,20.06,0,0,1-2.64,2.88.43.43,0,0,1-.3.15.37.37,0,0,1-.21-.08A3.73,3.73,0,0,0,85.44,70a16.47,16.47,0,0,0,3.77-4.16A5.8,5.8,0,0,0,90,63.92a6.62,6.62,0,0,1,1.64.75.28.28,0,0,1,.14.23.27.27,0,0,1-.15.24,1.6,1.6,0,0,0-.35.38l-.47.7Z"/><path d="M103.23,68a19.59,19.59,0,0,1,4.46,1.91.26.26,0,0,1,.15.36,7.71,7.71,0,0,1-.6,1.22c-.06.1-.11.15-.18.15a.22.22,0,0,1-.16-.07,15.83,15.83,0,0,0-3.68-1.79v3.1c0,.91,0,1.73.06,2.74,0,.17-.06.21-.26.21a8.55,8.55,0,0,1-1.24,0c-.2,0-.27,0-.27-.21,0-1,.06-1.86.06-2.76V65.94a11.35,11.35,0,0,0-.14-2.07,10.49,10.49,0,0,1,1.75.22c.19,0,.26.13.26.24a.71.71,0,0,1-.11.32,3.58,3.58,0,0,0-.1,1.32Z"/><path d="M113,69.6c.68-.7,1.37-1.42,2-2.12s.82-.74,1.26-.74a1.63,1.63,0,0,1,1.22.57,44.7,44.7,0,0,0,6.27,4.56.24.24,0,0,1,.13.37,7.53,7.53,0,0,1-.73,1.22c-.07.1-.14.16-.21.16a.27.27,0,0,1-.16-.06,65,65,0,0,1-6.2-4.89.34.34,0,0,0-.23-.1.31.31,0,0,0-.22.12c-.69.71-1.32,1.47-2.28,2.53a4,4,0,0,0-.56.72.33.33,0,0,1-.25.18.29.29,0,0,1-.2-.1,16.86,16.86,0,0,1-1.3-1.23A6.64,6.64,0,0,0,113,69.6Zm9.9-3.24a1.52,1.52,0,1,1-1.51-1.5A1.49,1.49,0,0,1,122.88,66.36Zm-2.34,0a.83.83,0,1,0,1.65,0,.83.83,0,0,0-1.65,0Z"/><path d="M130.5,70.84a11.32,11.32,0,0,0-2.06.17c-.16,0-.27-.08-.32-.29a16.47,16.47,0,0,1-.21-1.7,18,18,0,0,0,3,.17h4.51c1.06,0,2.14,0,3.22,0,.21,0,.25,0,.25.19a9.69,9.69,0,0,1,0,1.32c0,.17,0,.22-.25.21l-3.12,0Z"/><path d="M143.41,68c.07-.1.14-.17.27-.14a9.86,9.86,0,0,1,2.69,1.37c.09.07.15.13.15.21a.36.36,0,0,1-.06.15,5.6,5.6,0,0,1-.61,1.07c-.07.08-.13.14-.18.14s-.1,0-.17-.09a12.47,12.47,0,0,0-2.83-1.52C143,68.66,143.24,68.25,143.41,68Zm2.27,5.19a23.14,23.14,0,0,0,3.84-2.42,25.09,25.09,0,0,0,4-3.91,7.27,7.27,0,0,0,.41,1.57.72.72,0,0,1,.07.27.41.41,0,0,1-.16.32,26.5,26.5,0,0,1-3.55,3.24,32.87,32.87,0,0,1-4.19,2.63,4.29,4.29,0,0,0-.81.48.35.35,0,0,1-.23.11.38.38,0,0,1-.28-.17,9.72,9.72,0,0,1-1-1.43A6.49,6.49,0,0,0,145.68,73.22Zm-.57-8.41c.09-.17.18-.2.35-.12a9.82,9.82,0,0,1,2.63,1.56.23.23,0,0,1,.11.18.33.33,0,0,1,0,.18,6,6,0,0,1-.72,1,.16.16,0,0,1-.14.09.34.34,0,0,1-.21-.1,13.33,13.33,0,0,0-2.72-1.72C144.6,65.56,144.87,65.17,145.11,64.81Zm6.41-.44c.07-.05.13,0,.21,0a6.4,6.4,0,0,1,1.33,1.5.13.13,0,0,1,0,.22l-.59.44a.15.15,0,0,1-.24,0,6.8,6.8,0,0,0-1.41-1.63Zm1.25-.91c.08-.06.12,0,.21,0a5.8,5.8,0,0,1,1.33,1.44c.05.09.07.17,0,.25l-.56.44c-.12.08-.19,0-.24,0a6.72,6.72,0,0,0-1.4-1.62Z"/><path d="M159.17,69.33c.47-.36,1.48-1.23,2.51-2.17a1.76,1.76,0,0,1,1.22-.59,1.69,1.69,0,0,1,1.22.52c1,.84,1.65,1.4,3,2.41a33.66,33.66,0,0,0,3.3,2.06c.14,0,.21.16.14.29a5.73,5.73,0,0,1-.69,1.32c-.07.1-.12.14-.18.14a.37.37,0,0,1-.19-.07c-.68-.39-2.2-1.52-3-2.16-1-.76-2-1.65-2.94-2.48a.91.91,0,0,0-.62-.32c-.15,0-.29.13-.47.29-.69.69-1.7,1.66-2.36,2.31a3.59,3.59,0,0,0-.5.62.31.31,0,0,1-.25.17.35.35,0,0,1-.27-.13,13.35,13.35,0,0,1-1.15-1.45A4.68,4.68,0,0,0,159.17,69.33Z"/></g></svg>