<svg xmlns="http://www.w3.org/2000/svg" viewBox="0 0 46 52"><defs><style>.cls-1{fill:#7e0f09;}</style></defs><title>top-about-title</title><g id="レイヤー_1" data-name="レイヤー 1"><polygon class="cls-1" points="38.23 0 12.44 24.2 12.44 0 10.75 0 10.75 28.12 40.71 0 38.23 0"/><polygon class="cls-1" points="7.78 52 33.56 27.88 33.56 52 35.25 52 35.25 23.97 5.29 52 7.78 52"/><polygon class="cls-1" points="2.69 48.09 2.69 0 1 0 1 52 37.97 17.41 37.97 52 39.66 52 39.66 17.41 39.66 13.5 36.81 16.16 2.69 48.09"/><polygon class="cls-1" points="8.04 0 6.34 0 6.34 34.69 6.34 38.61 9.19 35.94 43.31 3.92 43.31 52 45 52 45 0 8.04 34.69 8.04 0"/></g></svg>