<?xml version="1.0" encoding="UTF-8"?><svg id="layer1" xmlns="http://www.w3.org/2000/svg" viewBox="0 0 500 250"><defs><style>.cls-1{fill:#fff;}</style></defs><g><path class="cls-1" d="M191.26,189.63l7.58,7.36c1.24,1.21,2.3,2.04,3.18,2.48,.88,.44,1.76,.69,2.64,.75v.55h-9.77v-.55c.59,0,1.01-.1,1.27-.29s.39-.41,.39-.64-.05-.45-.14-.64c-.1-.19-.41-.54-.95-1.05l-7.09-6.86v6.47c0,1.02,.07,1.69,.2,2.01,.1,.25,.31,.46,.64,.64,.43,.24,.89,.36,1.38,.36h.7v.55h-8.76v-.55h.73c.85,0,1.46-.24,1.85-.73,.24-.32,.36-1.08,.36-2.28v-12.97c0-1.02-.07-1.69-.2-2.03-.1-.24-.31-.44-.62-.62-.44-.24-.91-.36-1.39-.36h-.73v-.55h8.76v.55h-.7c-.47,0-.93,.11-1.38,.34-.31,.16-.53,.4-.65,.71-.12,.32-.18,.97-.18,1.95v6.15c.2-.19,.89-.81,2.08-1.88,3-2.69,4.81-4.48,5.44-5.38,.27-.39,.41-.74,.41-1.04,0-.23-.11-.43-.32-.6-.21-.17-.57-.26-1.08-.26h-.47v-.55h7.55v.55c-.44,.01-.85,.07-1.21,.18-.36,.11-.81,.32-1.33,.63-.53,.31-1.17,.81-1.94,1.5-.22,.2-1.25,1.21-3.08,3.04l-3.14,3.05Z"/><path class="cls-1" d="M226.01,180.69h7.17v.55h-.39c-.26,0-.65,.11-1.15,.34-.51,.23-.96,.55-1.38,.98-.41,.42-.92,1.12-1.53,2.07l-4.95,7.63v5.04c0,1.23,.14,2,.42,2.31,.38,.41,.99,.62,1.82,.62h.67v.55h-8.73v-.55h.73c.87,0,1.48-.26,1.85-.77,.22-.32,.33-1.04,.33-2.16v-4.75l-5.64-8.41c-.67-.99-1.12-1.6-1.36-1.85-.24-.25-.73-.54-1.48-.89-.2-.1-.5-.15-.88-.15v-.55h8.79v.55h-.45c-.47,0-.91,.11-1.31,.33-.4,.22-.6,.54-.6,.98,0,.36,.31,1,.92,1.93l4.29,6.47,4.03-6.19c.61-.93,.91-1.62,.91-2.07,0-.28-.07-.52-.22-.74-.15-.22-.36-.39-.63-.51-.27-.12-.68-.19-1.23-.19v-.55Z"/><path class="cls-1" d="M251.8,180.23c2.67,0,4.98,.99,6.93,2.97,1.95,1.98,2.93,4.45,2.93,7.41s-.98,5.58-2.95,7.6c-1.97,2.01-4.35,3.02-7.15,3.02s-5.2-.98-7.13-2.95c-1.92-1.96-2.89-4.51-2.89-7.63s1.11-5.79,3.33-7.8c1.93-1.75,4.24-2.62,6.92-2.62Zm-.29,1.08c-1.84,0-3.31,.67-4.42,2-1.38,1.66-2.08,4.09-2.08,7.29s.72,5.8,2.15,7.57c1.1,1.34,2.56,2.01,4.36,2.01,1.93,0,3.52-.74,4.78-2.21,1.26-1.47,1.89-3.79,1.89-6.96,0-3.44-.69-6-2.08-7.69-1.11-1.34-2.65-2.01-4.61-2.01Z"/><path class="cls-1" d="M288.46,180.69l.23,4.71h-.58c-.11-.83-.26-1.42-.45-1.78-.31-.57-.73-.99-1.25-1.27-.52-.27-1.2-.41-2.05-.41h-2.89v15.34c0,1.23,.14,2,.41,2.31,.38,.41,.97,.62,1.77,.62h.71v.55h-8.71v-.55h.73c.87,0,1.48-.26,1.85-.77,.22-.32,.33-1.04,.33-2.16v-15.34h-2.47c-.96,0-1.64,.07-2.05,.21-.53,.19-.97,.55-1.35,1.08-.37,.53-.6,1.25-.67,2.16h-.58l.24-4.71h16.77Z"/><path class="cls-1" d="M307.64,180.23c2.67,0,4.98,.99,6.93,2.97,1.95,1.98,2.93,4.45,2.93,7.41s-.98,5.58-2.95,7.6c-1.97,2.01-4.35,3.02-7.15,3.02s-5.2-.98-7.13-2.95c-1.92-1.96-2.89-4.51-2.89-7.63s1.11-5.79,3.33-7.8c1.93-1.75,4.24-2.62,6.92-2.62Zm-.29,1.08c-1.84,0-3.31,.67-4.42,2-1.38,1.66-2.08,4.09-2.08,7.29s.72,5.8,2.15,7.57c1.1,1.34,2.56,2.01,4.36,2.01,1.93,0,3.52-.74,4.78-2.21,1.26-1.47,1.89-3.79,1.89-6.96,0-3.44-.69-6-2.08-7.69-1.11-1.34-2.65-2.01-4.61-2.01Z"/></g><path class="cls-1" d="M30.78,146.38c-3.55,0-6.21-1.29-8.14-3.94-.9-1.3-1.96-3.99-1.96-9.47v-33.38h1.85v33.38c0,5.46,1.13,7.68,1.61,8.39,1.59,2.18,3.64,3.16,6.64,3.16s5.1-.99,6.7-3.2c.48-.66,1.59-2.79,1.59-8.35v-33.38h1.85v33.38c0,5.59-1.06,8.23-1.94,9.45-1.93,2.67-4.61,3.97-8.2,3.97Z"/><path class="cls-1" d="M30.78,156.58c-6.02,0-11.15-2.17-15.25-6.46-3.67-3.84-5.52-8.81-5.52-14.76v-35.79h7.7v33.38c0,5.06,.84,8.83,2.51,11.21,2.5,3.45,6.05,5.2,10.57,5.2s8.1-1.75,10.6-5.2c1.67-2.3,2.51-6.08,2.51-11.22v-33.38h7.7v35.79c0,5.95-1.86,10.91-5.52,14.76-4.13,4.29-9.27,6.46-15.29,6.46Z"/><polygon class="cls-1" points="73.26 156.58 73.26 99.58 113.73 137.6 113.73 99.58 121.44 99.58 121.44 156.58 80.96 118.67 80.96 156.58 73.26 156.58"/><polygon class="cls-1" points="441.82 156.58 441.82 99.58 482.3 137.6 482.3 99.58 490 99.58 490 156.58 449.53 118.67 449.53 156.58 441.82 156.58"/><polygon class="cls-1" points="175.05 156.58 154.15 130.54 151.84 132.87 151.84 156.58 144.14 156.58 144.14 99.58 151.84 99.58 151.84 123.43 174.92 99.58 185.12 99.58 159.64 125.31 185.4 156.58 175.05 156.58"/><path class="cls-1" d="M308.18,146.67c-4.74,0-8.82-1.73-12.47-5.28-3.64-3.52-5.41-7.92-5.41-13.44s1.72-9.53,5.25-13.09c3.52-3.59,7.72-5.34,12.85-5.34s9.34,1.75,12.82,5.34c3.5,3.57,5.21,7.9,5.21,13.23s-1.72,9.58-5.27,13.22c-3.55,3.6-7.79,5.35-12.97,5.35Zm.21-35.28c-4.61,0-8.38,1.56-11.53,4.78-3.17,3.2-4.71,7.05-4.71,11.78,0,4.98,1.58,8.94,4.84,12.09,3.29,3.2,6.95,4.76,11.18,4.76,4.66,0,8.47-1.57,11.65-4.79,3.19-3.27,4.74-7.17,4.74-11.91s-1.53-8.71-4.67-11.92c-3.12-3.22-6.88-4.78-11.5-4.78Z"/><path class="cls-1" d="M308.07,156.58c-7.01,0-13.39-2.48-18.97-7.38-6.13-5.4-9.24-12.59-9.24-21.36,0-7.7,2.84-14.4,8.44-19.93,5.58-5.53,12.38-8.33,20.2-8.33s14.45,2.83,19.98,8.4c5.55,5.58,8.37,12.37,8.37,20.19s-2.83,14.63-8.4,20.11c-5.6,5.51-12.46,8.3-20.38,8.3Zm.32-50.05c-5.88,0-10.91,2.1-14.96,6.23-4.05,4.08-6.1,9.2-6.1,15.19s2.13,11.54,6.33,15.6c4.17,4.06,9.06,6.11,14.53,6.11,5.93,0,11-2.1,15.07-6.23,4.08-4.18,6.14-9.34,6.14-15.34s-2.04-11.23-6.07-15.34c-4-4.13-9.03-6.23-14.93-6.23Z"/><polygon class="cls-1" points="347.82 99.58 356.18 99.58 371.46 136.07 387.33 100.31 402.07 136.07 418.31 99.58 426.66 99.58 401.73 156.53 387.17 121.26 371.53 156.58 347.82 99.58"/><g><polygon class="cls-1" points="382.35 99.58 371.59 123.34 361.44 99.58 359.42 99.58 371.54 127.95 384.39 99.58 382.35 99.58"/><polygon class="cls-1" points="413 99.58 402.24 123.29 392.26 99.58 390.25 99.58 402.18 127.92 415.04 99.58 413 99.58"/></g><polygon class="cls-1" points="477.47 99.58 477.47 126.11 449.23 99.58 446.51 99.58 479.32 130.4 479.32 99.58 477.47 99.58"/><polygon class="cls-1" points="252.44 99.58 224.2 126.11 224.2 99.58 222.35 99.58 222.35 130.4 255.16 99.58 252.44 99.58"/><polygon class="cls-1" points="108.91 99.58 108.91 126.11 80.67 99.58 77.95 99.58 110.76 130.4 110.76 99.58 108.91 99.58"/><polygon class="cls-1" points="85.79 156.58 85.79 130.14 114.01 156.58 116.74 156.58 83.93 125.85 83.93 156.58 85.79 156.58"/><polygon class="cls-1" points="191.68 156.58 166.16 125.61 191.94 99.58 189.32 99.58 163.65 125.49 189.27 156.58 191.68 156.58"/><polygon class="cls-1" points="376.81 156.58 387.02 133.55 396.52 156.58 398.53 156.58 387.07 128.83 374.78 156.58 376.81 156.58"/><polygon class="cls-1" points="454.35 156.58 454.35 130.14 482.58 156.58 485.3 156.58 452.5 125.85 452.5 156.58 454.35 156.58"/><polygon class="cls-1" points="168.17 99.58 156.66 111.47 156.66 99.58 154.81 99.58 154.81 116.07 170.76 99.58 168.17 99.58"/><polygon class="cls-1" points="156.66 156.58 156.66 141.4 168.85 156.58 171.23 156.58 154.81 136.12 154.81 156.58 156.66 156.58"/><polygon class="cls-1" points="219.09 156.58 247.32 130.14 247.32 156.58 249.17 156.58 249.17 125.85 216.37 156.58 219.09 156.58"/><g><polygon class="cls-1" points="213.52 152.29 213.52 99.58 211.67 99.58 211.67 156.58 252.15 118.67 252.15 156.58 254 156.58 254 118.67 254 114.38 250.88 117.3 213.52 152.29"/><polygon class="cls-1" points="219.37 99.58 217.52 99.58 217.52 137.6 217.52 141.9 220.64 138.97 258 103.88 258 156.58 259.85 156.58 259.85 99.58 219.37 137.6 219.37 99.58"/></g><g><path class="cls-1" d="M137.6,54.01c1.62,.57,3.76,1.59,4.86,2.44l-1.69,2.49c-.97-.87-3.09-1.99-4.73-2.66l1.57-2.27Zm-.7,14.37c1.29-1.89,3.14-5.01,4.61-7.89l2.24,1.97c-1.27,2.59-2.76,5.31-3.96,7.25,.1,.15,.15,.3,.15,.45s-.05,.3-.15,.42l-2.89-2.19Zm5.28-16.11c-.97-.9-3.04-2.09-4.66-2.79l1.62-2.22c1.62,.6,3.74,1.67,4.78,2.56l-1.74,2.44Zm11.93-4.08c-.07,.22-.32,.32-.7,.32-.35,.92-.82,2.07-1.34,3.14h6.53v18.83h-2.99v-1.24h-8.07v1.42h-2.86v-19h4.31c.5-1.42,1.02-3.14,1.29-4.51l3.83,1.05Zm1.5,6.23h-8.07v4.53h8.07v-4.53Zm-8.07,12.05h8.07v-4.76h-8.07v4.76Z"/><path class="cls-1" d="M175,56.45c1.84-.17,3.69-.42,5.26-.85,.15,.9,.12,2.27,0,3.06-1.39,.32-3.19,.55-5.13,.7,.05,1.12,.12,2.27,.17,3.34,2.52,.65,4.66,1.72,6.25,2.89-.13,1.02-.75,2.54-1.49,3.26-1.24-1.27-2.84-2.32-4.61-3.06v.35c0,2.24-1.49,3.98-5.06,3.98s-5.98-1.54-5.98-4.13c0-2.24,2.22-3.89,6.08-3.89,.57,0,1.15,.02,1.72,.07l-.12-2.64c-2.24,.07-4.48,.05-6.28-.05-.3-.82-.55-2.07-.55-3.14,1.37,.17,3.01,.3,4.28,.3,.75,0,1.57,0,2.44-.05v-3.01c-2.02,.02-3.94-.02-5.23-.12-.3-.72-.5-2.02-.52-2.96,.75,.15,2.52,.3,3.89,.3,.55,0,1.22,0,1.92-.02l.02-.65c.03-1.25,0-1.82-.05-2.52,1-.07,2.47,.07,3.29,.27-.07,.85-.12,1.79-.17,2.76,1.47-.1,2.96-.27,4.21-.57,.15,.85,.12,2.07-.03,2.86-1.2,.25-2.71,.4-4.28,.5-.03,.77-.03,1.54-.03,2.34v.67Zm-2.69,8.44c-.72-.12-1.47-.2-2.22-.2-1.64,0-2.59,.47-2.59,1.24,0,.72,.67,1.34,2.44,1.34,1.47,0,2.37-.57,2.37-2.19v-.2Z"/><path class="cls-1" d="M206.63,63.03c0,3.71-3.04,7.1-8.64,7.1-3.56,0-5.53-1.87-5.53-4.08,0-1.92,1.57-3.51,3.83-3.51,2.89,0,4.71,1.74,5.23,3.86,1.27-.75,1.94-1.94,1.94-3.39,0-2.19-1.82-3.64-4.81-3.64-4.33,0-6.75,3.06-8.54,5.65-.77-.57-1.79-1.67-2.29-2.52,1.69-1.89,4.61-4.88,6.3-6.57,1.52-1.52,3.06-3.01,3.81-3.86-1.39,.2-3.76,.5-6.05,.7-.27-.77-.57-2.14-.65-3.09,.72,.05,1.64,.07,2.37,.02,2.04-.12,7.12-.55,8.27-.8,.47,.5,1.1,1.59,1.37,2.32-1.32,1.1-3.06,2.61-4.48,3.93-1,.95-1.84,1.77-2.34,2.34,.97-.52,2.24-.75,3.14-.75,4.18,0,7.07,2.24,7.07,6.28Zm-7.84,4.21c-.25-1.29-1.05-2.19-2.27-2.19-.72,0-1.15,.45-1.15,.92,0,.82,.87,1.32,2.29,1.32,.4,0,.77-.02,1.12-.05Z"/><path class="cls-1" d="M216.24,70.65c-1.32-1.79-3.31-3.89-5.3-5.43,.67-.8,1.67-1.72,2.44-2.22,1.89,1.39,4.13,3.71,5.38,5.43-.52,.75-1.74,1.79-2.52,2.22Z"/><path class="cls-1" d="M246.99,62.9c.35-.25,.7-.52,.97-.77l2.47,2.12c-.1,.07-.27,.12-.45,.12-.1,0-.17,0-.27-.02-1.02,.67-2.57,1.59-3.99,2.34,1.62,.67,3.54,1.12,5.73,1.37-.62,.62-1.42,1.82-1.79,2.62-5.38-.9-9.02-3.09-11.26-6.97h-2.64v3.59c1.64-.1,3.39-.22,5.08-.35v2.47c-3.54,.37-7.25,.75-9.64,.95-.03,.22-.22,.37-.45,.4l-.9-3.06,2.94-.2v-12.1c-1,.57-2.02,1.1-3.04,1.57-.37-.67-1.12-1.82-1.72-2.39,4.18-1.74,8.29-4.88,10.24-7.57l3.96,.2c-.05,.22-.3,.4-.62,.45,2.39,2.74,6.67,5.33,10.34,6.57-.7,.75-1.39,1.79-1.89,2.66-1-.45-2.04-.97-3.06-1.57v7.6Zm-5.65-8.34h4.41c-2.32-1.47-4.51-3.19-5.9-4.83-1.32,1.59-3.39,3.31-5.73,4.83h4.16v-2.56l3.74,.2c-.02,.25-.2,.4-.67,.47v1.89Zm-5.58,2.27v1.2h8.22v-1.2h-8.22Zm0,3.29v1.32h8.22v-1.32h-8.22Zm5.68,3.59c.52,.6,1.1,1.15,1.79,1.64,.85-.47,1.77-1.05,2.64-1.64h-4.43Z"/><path class="cls-1" d="M265.41,57.5c-.55-.5-1-.55-1.32-.55s-.75,.2-1.12,.6c-1.15,1.27-3.74,4.43-5.53,5.9-.97-.45-2.24-1.54-2.81-2.47,.87-.62,1.74-1.29,2.44-1.94,1.54-1.4,2.94-3.04,4.26-4.43,.8-.82,1.64-1.29,2.62-1.29,1.05,0,1.87,.27,2.86,1.12,1.3,1.1,2.49,2.32,4.08,3.74,2.24,1.97,4.41,3.86,7.25,5.8-.3,1.02-1.44,2.44-2.37,2.91-1.64-1.27-4.08-3.41-6.3-5.5l-4.06-3.89Zm9.09-2.54c-.27,.37-.95,1.02-1.52,1.32-.7-.85-1.82-2.04-2.71-2.76,.4-.45,1.07-1.02,1.44-1.27,.8,.6,2.14,1.89,2.79,2.71Zm2.52-2.14c-.3,.37-.95,1.02-1.52,1.34-.7-.82-1.79-1.97-2.74-2.69,.4-.45,1.07-1.05,1.47-1.29,.8,.57,2.12,1.82,2.79,2.64Z"/><path class="cls-1" d="M300.25,63.03c0,3.71-3.04,7.1-8.64,7.1-3.56,0-5.53-1.87-5.53-4.08,0-1.92,1.57-3.51,3.84-3.51,2.89,0,4.71,1.74,5.23,3.86,1.27-.75,1.94-1.94,1.94-3.39,0-2.19-1.82-3.64-4.81-3.64-4.33,0-6.75,3.06-8.54,5.65-.77-.57-1.79-1.67-2.29-2.52,1.69-1.89,4.61-4.88,6.3-6.57,1.52-1.52,3.06-3.01,3.81-3.86-1.39,.2-3.76,.5-6.05,.7-.27-.77-.57-2.14-.65-3.09,.72,.05,1.64,.07,2.37,.02,2.04-.12,7.12-.55,8.27-.8,.47,.5,1.1,1.59,1.37,2.32-1.32,1.1-3.06,2.61-4.48,3.93-1,.95-1.84,1.77-2.34,2.34,.97-.52,2.24-.75,3.14-.75,4.18,0,7.07,2.24,7.07,6.28Zm-7.85,4.21c-.25-1.29-1.05-2.19-2.27-2.19-.72,0-1.15,.45-1.15,.92,0,.82,.87,1.32,2.29,1.32,.4,0,.77-.02,1.12-.05Z"/><path class="cls-1" d="M309.86,70.65c-1.32-1.79-3.31-3.89-5.3-5.43,.67-.8,1.67-1.72,2.44-2.22,1.89,1.39,4.13,3.71,5.38,5.43-.52,.75-1.74,1.79-2.52,2.22Z"/><path class="cls-1" d="M343.75,52.89l1.34,.05c0,.2,0,.57-.02,.87-.17,10.76-.32,14.42-1.02,15.47-.7,1.15-1.54,1.32-4.08,1.24-.05-.75-.3-1.87-.7-2.59,.77,.07,1.42,.1,1.82,.1,.32,0,.52-.1,.72-.45,.42-.67,.6-3.64,.75-12.13h-1.29c0,4.03-.1,10.96-3.89,15.32-.47-.47-1.44-1.24-2.09-1.57v-.02c-2.44,.32-4.81,.6-6.45,.77-.05,.22-.22,.35-.42,.4l-.92-2.74,3.91-.27v-1.49h-3.26v-2.19h3.26v-1.2h-3.21v-7.47h3.24v-1.05h-3.51v-2.22h3.51v-.92c-.97,.1-1.97,.15-2.89,.2-.07-.45-.3-1.12-.52-1.64-.42,1.32-.9,2.62-1.42,3.91l.85,.25c-.07,.2-.25,.37-.65,.42v16.79h-2.66v-12.35c-.5,.87-1.02,1.67-1.57,2.39-.2-.77-.82-2.42-1.15-3.19,1.69-2.32,3.34-6.38,4.33-10.31l3.19,1.02c-.1,.2-.3,.32-.67,.3l-.12,.37c2.74-.22,5.78-.65,7.72-1.1l1.69,2.14c-.1,.07-.13,.07-.55,.07-.87,.17-1.92,.32-3.06,.47v1.17h3.59v1.17h1.22v-5.63l3.14,.17c-.03,.22-.2,.37-.62,.42v5.03h2.49Zm-13.65,3.89v1.12h1.54v-1.12h-1.54Zm0,2.76v1.12h1.54v-1.12h-1.54Zm3.56-1.64h1.64v-1.12h-1.64v1.12Zm0,2.76h1.64v-1.12h-1.64v1.12Zm3.66,5.06c1.25-3.16,1.42-6.85,1.42-9.76v-.5h-1.32v-1.52h-3.49v1.05h3.36v7.47h-3.39v1.2h3.41v2.07Zm-3.41,1.4l2.91-.25c.17-.32,.32-.67,.45-1.02h-3.36v1.27Z"/><path class="cls-1" d="M362.99,50.18c-1.72,2.19-5.18,5.53-6.4,6.75-.7,.7-1.15,1.17-1.15,1.67,0,.72,1.24,1.82,2.86,3.31,2.19,2.02,4.41,4.43,5.65,6.23-.6,.82-1.72,1.94-2.91,2.52-1.35-2.07-2.84-3.98-5.11-6.23-2.91-2.86-4.66-4.18-4.66-5.78,0-.85,.7-1.69,1.67-2.66,1.64-1.64,5.45-5.16,7.55-8.42,1,.62,2.02,1.82,2.49,2.62Z"/></g></svg>