<?xml version="1.0" encoding="UTF-8"?><svg id="layer1" xmlns="http://www.w3.org/2000/svg" viewBox="0 0 500 250"><defs><style>.cls-1{fill:#fff;}</style></defs><g><path class="cls-1" d="M191.26,189.63l7.58,7.36c1.24,1.21,2.3,2.04,3.18,2.48,.88,.44,1.76,.69,2.64,.75v.55h-9.77v-.55c.59,0,1.01-.1,1.27-.29s.39-.41,.39-.64-.05-.45-.14-.64c-.1-.19-.41-.54-.95-1.05l-7.09-6.86v6.47c0,1.02,.07,1.69,.2,2.01,.1,.25,.31,.46,.64,.64,.43,.24,.89,.36,1.38,.36h.7v.55h-8.76v-.55h.73c.85,0,1.46-.24,1.85-.73,.24-.32,.36-1.08,.36-2.28v-12.97c0-1.02-.07-1.69-.2-2.03-.1-.24-.31-.44-.62-.62-.44-.24-.91-.36-1.39-.36h-.73v-.55h8.76v.55h-.7c-.47,0-.93,.11-1.38,.34-.31,.16-.53,.4-.65,.71-.12,.32-.18,.97-.18,1.95v6.15c.2-.19,.89-.81,2.08-1.88,3-2.69,4.81-4.48,5.44-5.38,.27-.39,.41-.74,.41-1.04,0-.23-.11-.43-.32-.6-.21-.17-.57-.26-1.08-.26h-.47v-.55h7.55v.55c-.44,.01-.85,.07-1.21,.18-.36,.11-.81,.32-1.33,.63-.53,.31-1.17,.81-1.94,1.5-.22,.2-1.25,1.21-3.08,3.04l-3.14,3.05Z"/><path class="cls-1" d="M226.01,180.69h7.17v.55h-.39c-.26,0-.65,.11-1.15,.34-.51,.23-.96,.55-1.38,.98-.41,.42-.92,1.12-1.53,2.07l-4.95,7.63v5.04c0,1.23,.14,2,.42,2.31,.38,.41,.99,.62,1.82,.62h.67v.55h-8.73v-.55h.73c.87,0,1.48-.26,1.85-.77,.22-.32,.33-1.04,.33-2.16v-4.75l-5.64-8.41c-.67-.99-1.12-1.6-1.36-1.85-.24-.25-.73-.54-1.48-.89-.2-.1-.5-.15-.88-.15v-.55h8.79v.55h-.45c-.47,0-.91,.11-1.31,.33-.4,.22-.6,.54-.6,.98,0,.36,.31,1,.92,1.93l4.29,6.47,4.03-6.19c.61-.93,.91-1.62,.91-2.07,0-.28-.07-.52-.22-.74-.15-.22-.36-.39-.63-.51-.27-.12-.68-.19-1.23-.19v-.55Z"/><path class="cls-1" d="M251.8,180.23c2.67,0,4.98,.99,6.93,2.97,1.95,1.98,2.93,4.45,2.93,7.41s-.98,5.58-2.95,7.6c-1.97,2.01-4.35,3.02-7.15,3.02s-5.2-.98-7.13-2.95c-1.92-1.96-2.89-4.51-2.89-7.63s1.11-5.79,3.33-7.8c1.93-1.75,4.24-2.62,6.92-2.62Zm-.29,1.08c-1.84,0-3.31,.67-4.42,2-1.38,1.66-2.08,4.09-2.08,7.29s.72,5.8,2.15,7.57c1.1,1.34,2.56,2.01,4.36,2.01,1.93,0,3.52-.74,4.78-2.21,1.26-1.47,1.89-3.79,1.89-6.96,0-3.44-.69-6-2.08-7.69-1.11-1.34-2.65-2.01-4.61-2.01Z"/><path class="cls-1" d="M288.46,180.69l.23,4.71h-.58c-.11-.83-.26-1.42-.45-1.78-.31-.57-.73-.99-1.25-1.27-.52-.27-1.2-.41-2.05-.41h-2.89v15.34c0,1.23,.14,2,.41,2.31,.38,.41,.97,.62,1.77,.62h.71v.55h-8.71v-.55h.73c.87,0,1.48-.26,1.85-.77,.22-.32,.33-1.04,.33-2.16v-15.34h-2.47c-.96,0-1.64,.07-2.05,.21-.53,.19-.97,.55-1.35,1.08-.37,.53-.6,1.25-.67,2.16h-.58l.24-4.71h16.77Z"/><path class="cls-1" d="M307.64,180.23c2.67,0,4.98,.99,6.93,2.97,1.95,1.98,2.93,4.45,2.93,7.41s-.98,5.58-2.95,7.6c-1.97,2.01-4.35,3.02-7.15,3.02s-5.2-.98-7.13-2.95c-1.92-1.96-2.89-4.51-2.89-7.63s1.11-5.79,3.33-7.8c1.93-1.75,4.24-2.62,6.92-2.62Zm-.29,1.08c-1.84,0-3.31,.67-4.42,2-1.38,1.66-2.08,4.09-2.08,7.29s.72,5.8,2.15,7.57c1.1,1.34,2.56,2.01,4.36,2.01,1.93,0,3.52-.74,4.78-2.21,1.26-1.47,1.89-3.79,1.89-6.96,0-3.44-.69-6-2.08-7.69-1.11-1.34-2.65-2.01-4.61-2.01Z"/></g><path class="cls-1" d="M30.78,146.38c-3.55,0-6.21-1.29-8.14-3.94-.9-1.3-1.96-3.99-1.96-9.47v-33.38h1.85v33.38c0,5.46,1.13,7.68,1.61,8.39,1.59,2.18,3.64,3.16,6.64,3.16s5.1-.99,6.7-3.2c.48-.66,1.59-2.79,1.59-8.35v-33.38h1.85v33.38c0,5.59-1.06,8.23-1.94,9.45-1.93,2.67-4.61,3.97-8.2,3.97Z"/><path class="cls-1" d="M30.78,156.58c-6.02,0-11.15-2.17-15.25-6.46-3.67-3.84-5.52-8.81-5.52-14.76v-35.79h7.7v33.38c0,5.06,.84,8.83,2.51,11.21,2.5,3.45,6.05,5.2,10.57,5.2s8.1-1.75,10.6-5.2c1.67-2.3,2.51-6.08,2.51-11.22v-33.38h7.7v35.79c0,5.95-1.86,10.91-5.52,14.76-4.13,4.29-9.27,6.46-15.29,6.46Z"/><polygon class="cls-1" points="73.26 156.58 73.26 99.58 113.73 137.6 113.73 99.58 121.44 99.58 121.44 156.58 80.96 118.67 80.96 156.58 73.26 156.58"/><polygon class="cls-1" points="441.82 156.58 441.82 99.58 482.3 137.6 482.3 99.58 490 99.58 490 156.58 449.53 118.67 449.53 156.58 441.82 156.58"/><polygon class="cls-1" points="175.05 156.58 154.15 130.54 151.84 132.87 151.84 156.58 144.14 156.58 144.14 99.58 151.84 99.58 151.84 123.43 174.92 99.58 185.12 99.58 159.64 125.31 185.4 156.58 175.05 156.58"/><path class="cls-1" d="M308.18,146.67c-4.74,0-8.82-1.73-12.47-5.28-3.64-3.52-5.41-7.92-5.41-13.44s1.72-9.53,5.25-13.09c3.52-3.59,7.72-5.34,12.85-5.34s9.34,1.75,12.82,5.34c3.5,3.57,5.21,7.9,5.21,13.23s-1.72,9.58-5.27,13.22c-3.55,3.6-7.79,5.35-12.97,5.35Zm.21-35.28c-4.61,0-8.38,1.56-11.53,4.78-3.17,3.2-4.71,7.05-4.71,11.78,0,4.98,1.58,8.94,4.84,12.09,3.29,3.2,6.95,4.76,11.18,4.76,4.66,0,8.47-1.57,11.65-4.79,3.19-3.27,4.74-7.17,4.74-11.91s-1.53-8.71-4.67-11.92c-3.12-3.22-6.88-4.78-11.5-4.78Z"/><path class="cls-1" d="M308.07,156.58c-7.01,0-13.39-2.48-18.97-7.38-6.13-5.4-9.24-12.59-9.24-21.36,0-7.7,2.84-14.4,8.44-19.93,5.58-5.53,12.38-8.33,20.2-8.33s14.45,2.83,19.98,8.4c5.55,5.58,8.37,12.37,8.37,20.19s-2.83,14.63-8.4,20.11c-5.6,5.51-12.46,8.3-20.38,8.3Zm.32-50.05c-5.88,0-10.91,2.1-14.96,6.23-4.05,4.08-6.1,9.2-6.1,15.19s2.13,11.54,6.33,15.6c4.17,4.06,9.06,6.11,14.53,6.11,5.93,0,11-2.1,15.07-6.23,4.08-4.18,6.14-9.34,6.14-15.34s-2.04-11.23-6.07-15.34c-4-4.13-9.03-6.23-14.93-6.23Z"/><polygon class="cls-1" points="347.82 99.58 356.18 99.58 371.46 136.07 387.33 100.31 402.07 136.07 418.31 99.58 426.66 99.58 401.73 156.53 387.17 121.26 371.53 156.58 347.82 99.58"/><g><polygon class="cls-1" points="382.35 99.58 371.59 123.34 361.44 99.58 359.42 99.58 371.54 127.95 384.39 99.58 382.35 99.58"/><polygon class="cls-1" points="413 99.58 402.24 123.29 392.26 99.58 390.25 99.58 402.18 127.92 415.04 99.58 413 99.58"/></g><polygon class="cls-1" points="477.47 99.58 477.47 126.11 449.23 99.58 446.51 99.58 479.32 130.4 479.32 99.58 477.47 99.58"/><polygon class="cls-1" points="252.44 99.58 224.2 126.11 224.2 99.58 222.35 99.58 222.35 130.4 255.16 99.58 252.44 99.58"/><polygon class="cls-1" points="108.91 99.58 108.91 126.11 80.67 99.58 77.95 99.58 110.76 130.4 110.76 99.58 108.91 99.58"/><polygon class="cls-1" points="85.79 156.58 85.79 130.14 114.01 156.58 116.74 156.58 83.93 125.85 83.93 156.58 85.79 156.58"/><polygon class="cls-1" points="191.68 156.58 166.16 125.61 191.94 99.58 189.32 99.58 163.65 125.49 189.27 156.58 191.68 156.58"/><polygon class="cls-1" points="376.81 156.58 387.02 133.55 396.52 156.58 398.53 156.58 387.07 128.83 374.78 156.58 376.81 156.58"/><polygon class="cls-1" points="454.35 156.58 454.35 130.14 482.58 156.58 485.3 156.58 452.5 125.85 452.5 156.58 454.35 156.58"/><polygon class="cls-1" points="168.17 99.58 156.66 111.47 156.66 99.58 154.81 99.58 154.81 116.07 170.76 99.58 168.17 99.58"/><polygon class="cls-1" points="156.66 156.58 156.66 141.4 168.85 156.58 171.23 156.58 154.81 136.12 154.81 156.58 156.66 156.58"/><polygon class="cls-1" points="219.09 156.58 247.32 130.14 247.32 156.58 249.17 156.58 249.17 125.85 216.37 156.58 219.09 156.58"/><g><polygon class="cls-1" points="213.52 152.29 213.52 99.58 211.67 99.58 211.67 156.58 252.15 118.67 252.15 156.58 254 156.58 254 118.67 254 114.38 250.88 117.3 213.52 152.29"/><polygon class="cls-1" points="219.37 99.58 217.52 99.58 217.52 137.6 217.52 141.9 220.64 138.97 258 103.88 258 156.58 259.85 156.58 259.85 99.58 219.37 137.6 219.37 99.58"/></g><g><path class="cls-1" d="M159.72,61.31c1.3,.46,3.02,1.28,3.9,1.96l-1.36,2c-.78-.7-2.48-1.6-3.8-2.14l1.26-1.82Zm-.56,11.54c1.04-1.52,2.52-4.02,3.7-6.34l1.8,1.58c-1.02,2.08-2.22,4.26-3.18,5.82,.08,.12,.12,.24,.12,.36s-.04,.24-.12,.34l-2.32-1.76Zm4.24-12.94c-.78-.72-2.44-1.68-3.74-2.24l1.3-1.78c1.3,.48,3,1.34,3.84,2.06l-1.4,1.96Zm9.58-3.28c-.06,.18-.26,.26-.56,.26-.28,.74-.66,1.66-1.08,2.52h5.24v15.12h-2.4v-1h-6.48v1.14h-2.3v-15.26h3.46c.4-1.14,.82-2.52,1.04-3.62l3.08,.84Zm1.2,5h-6.48v3.64h6.48v-3.64Zm-6.48,9.68h6.48v-3.82h-6.48v3.82Z"/><path class="cls-1" d="M189.76,63.27c1.48-.14,2.96-.34,4.22-.68,.12,.72,.1,1.82,0,2.46-1.12,.26-2.56,.44-4.12,.56,.04,.9,.1,1.82,.14,2.68,2.02,.52,3.74,1.38,5.02,2.32-.1,.82-.6,2.04-1.2,2.62-1-1.02-2.28-1.86-3.7-2.46v.28c0,1.8-1.2,3.2-4.06,3.2s-4.8-1.24-4.8-3.32c0-1.8,1.78-3.12,4.88-3.12,.46,0,.92,.02,1.38,.06l-.1-2.12c-1.8,.06-3.6,.04-5.04-.04-.24-.66-.44-1.66-.44-2.52,1.1,.14,2.42,.24,3.44,.24,.6,0,1.26,0,1.96-.04v-2.42c-1.62,.02-3.16-.02-4.2-.1-.24-.58-.4-1.62-.42-2.38,.6,.12,2.02,.24,3.12,.24,.44,0,.98,0,1.54-.02l.02-.52c.02-1,0-1.46-.04-2.02,.8-.06,1.98,.06,2.64,.22-.06,.68-.1,1.44-.14,2.22,1.18-.08,2.38-.22,3.38-.46,.12,.68,.1,1.66-.02,2.3-.96,.2-2.18,.32-3.44,.4-.02,.62-.02,1.24-.02,1.88v.54Zm-2.16,6.78c-.58-.1-1.18-.16-1.78-.16-1.32,0-2.08,.38-2.08,1,0,.58,.54,1.08,1.96,1.08,1.18,0,1.9-.46,1.9-1.76v-.16Z"/><path class="cls-1" d="M215.16,68.55c0,2.98-2.44,5.7-6.94,5.7-2.86,0-4.44-1.5-4.44-3.28,0-1.54,1.26-2.82,3.08-2.82,2.32,0,3.78,1.4,4.2,3.1,1.02-.6,1.56-1.56,1.56-2.72,0-1.76-1.46-2.92-3.86-2.92-3.48,0-5.42,2.46-6.86,4.54-.62-.46-1.44-1.34-1.84-2.02,1.36-1.52,3.7-3.92,5.06-5.28,1.22-1.22,2.46-2.42,3.06-3.1-1.12,.16-3.02,.4-4.86,.56-.22-.62-.46-1.72-.52-2.48,.58,.04,1.32,.06,1.9,.02,1.64-.1,5.72-.44,6.64-.64,.38,.4,.88,1.28,1.1,1.86-1.06,.88-2.46,2.1-3.6,3.16-.8,.76-1.48,1.42-1.88,1.88,.78-.42,1.8-.6,2.52-.6,3.36,0,5.68,1.8,5.68,5.04Zm-6.3,3.38c-.2-1.04-.84-1.76-1.82-1.76-.58,0-.92,.36-.92,.74,0,.66,.7,1.06,1.84,1.06,.32,0,.62-.02,.9-.04Z"/><path class="cls-1" d="M222.88,74.67c-1.06-1.44-2.66-3.12-4.26-4.36,.54-.64,1.34-1.38,1.96-1.78,1.52,1.12,3.32,2.98,4.32,4.36-.42,.6-1.4,1.44-2.02,1.78Z"/><path class="cls-1" d="M247.58,68.45c.28-.2,.56-.42,.78-.62l1.98,1.7c-.08,.06-.22,.1-.36,.1-.08,0-.14,0-.22-.02-.82,.54-2.06,1.28-3.2,1.88,1.3,.54,2.84,.9,4.6,1.1-.5,.5-1.14,1.46-1.44,2.1-4.32-.72-7.24-2.48-9.04-5.6h-2.12v2.88c1.32-.08,2.72-.18,4.08-.28v1.98c-2.84,.3-5.82,.6-7.74,.76-.02,.18-.18,.3-.36,.32l-.72-2.46,2.36-.16v-9.72c-.8,.46-1.62,.88-2.44,1.26-.3-.54-.9-1.46-1.38-1.92,3.36-1.4,6.66-3.92,8.22-6.08l3.18,.16c-.04,.18-.24,.32-.5,.36,1.92,2.2,5.36,4.28,8.3,5.28-.56,.6-1.12,1.44-1.52,2.14-.8-.36-1.64-.78-2.46-1.26v6.1Zm-4.54-6.7h3.54c-1.86-1.18-3.62-2.56-4.74-3.88-1.06,1.28-2.72,2.66-4.6,3.88h3.34v-2.06l3,.16c-.02,.2-.16,.32-.54,.38v1.52Zm-4.48,1.82v.96h6.6v-.96h-6.6Zm0,2.64v1.06h6.6v-1.06h-6.6Zm4.56,2.88c.42,.48,.88,.92,1.44,1.32,.68-.38,1.42-.84,2.12-1.32h-3.56Z"/><path class="cls-1" d="M262.38,64.11c-.44-.4-.8-.44-1.06-.44s-.6,.16-.9,.48c-.92,1.02-3,3.56-4.44,4.74-.78-.36-1.8-1.24-2.26-1.98,.7-.5,1.4-1.04,1.96-1.56,1.24-1.12,2.36-2.44,3.42-3.56,.64-.66,1.32-1.04,2.1-1.04,.84,0,1.5,.22,2.3,.9,1.04,.88,2,1.86,3.28,3,1.8,1.58,3.54,3.1,5.82,4.66-.24,.82-1.16,1.96-1.9,2.34-1.32-1.02-3.28-2.74-5.06-4.42l-3.26-3.12Zm7.3-2.04c-.22,.3-.76,.82-1.22,1.06-.56-.68-1.46-1.64-2.18-2.22,.32-.36,.86-.82,1.16-1.02,.64,.48,1.72,1.52,2.24,2.18Zm2.02-1.72c-.24,.3-.76,.82-1.22,1.08-.56-.66-1.44-1.58-2.2-2.16,.32-.36,.86-.84,1.18-1.04,.64,.46,1.7,1.46,2.24,2.12Z"/><path class="cls-1" d="M290.36,68.55c0,2.98-2.44,5.7-6.94,5.7-2.86,0-4.44-1.5-4.44-3.28,0-1.54,1.26-2.82,3.08-2.82,2.32,0,3.78,1.4,4.2,3.1,1.02-.6,1.56-1.56,1.56-2.72,0-1.76-1.46-2.92-3.86-2.92-3.48,0-5.42,2.46-6.86,4.54-.62-.46-1.44-1.34-1.84-2.02,1.36-1.52,3.7-3.92,5.06-5.28,1.22-1.22,2.46-2.42,3.06-3.1-1.12,.16-3.02,.4-4.86,.56-.22-.62-.46-1.72-.52-2.48,.58,.04,1.32,.06,1.9,.02,1.64-.1,5.72-.44,6.64-.64,.38,.4,.88,1.28,1.1,1.86-1.06,.88-2.46,2.1-3.6,3.16-.8,.76-1.48,1.42-1.88,1.88,.78-.42,1.8-.6,2.52-.6,3.36,0,5.68,1.8,5.68,5.04Zm-6.3,3.38c-.2-1.04-.84-1.76-1.82-1.76-.58,0-.92,.36-.92,.74,0,.66,.7,1.06,1.84,1.06,.32,0,.62-.02,.9-.04Z"/><path class="cls-1" d="M298.08,74.67c-1.06-1.44-2.66-3.12-4.26-4.36,.54-.64,1.34-1.38,1.96-1.78,1.52,1.12,3.32,2.98,4.32,4.36-.42,.6-1.4,1.44-2.02,1.78Z"/><path class="cls-1" d="M325.3,60.41l1.08,.04c0,.16,0,.46-.02,.7-.14,8.64-.26,11.58-.82,12.42-.56,.92-1.24,1.06-3.28,1-.04-.6-.24-1.5-.56-2.08,.62,.06,1.14,.08,1.46,.08,.26,0,.42-.08,.58-.36,.34-.54,.48-2.92,.6-9.74h-1.04c0,3.24-.08,8.8-3.12,12.3-.38-.38-1.16-1-1.68-1.26v-.02c-1.96,.26-3.86,.48-5.18,.62-.04,.18-.18,.28-.34,.32l-.74-2.2,3.14-.22v-1.2h-2.62v-1.76h2.62v-.96h-2.58v-6h2.6v-.84h-2.82v-1.78h2.82v-.74c-.78,.08-1.58,.12-2.32,.16-.06-.36-.24-.9-.42-1.32-.34,1.06-.72,2.1-1.14,3.14l.68,.2c-.06,.16-.2,.3-.52,.34v13.48h-2.14v-9.92c-.4,.7-.82,1.34-1.26,1.92-.16-.62-.66-1.94-.92-2.56,1.36-1.86,2.68-5.12,3.48-8.28l2.56,.82c-.08,.16-.24,.26-.54,.24l-.1,.3c2.2-.18,4.64-.52,6.2-.88l1.36,1.72c-.08,.06-.1,.06-.44,.06-.7,.14-1.54,.26-2.46,.38v.94h2.88v.94h.98v-4.52l2.52,.14c-.02,.18-.16,.3-.5,.34v4.04h2Zm-10.96,3.12v.9h1.24v-.9h-1.24Zm0,2.22v.9h1.24v-.9h-1.24Zm2.86-1.32h1.32v-.9h-1.32v.9Zm0,2.22h1.32v-.9h-1.32v.9Zm2.94,4.06c1-2.54,1.14-5.5,1.14-7.84v-.4h-1.06v-1.22h-2.8v.84h2.7v6h-2.72v.96h2.74v1.66Zm-2.74,1.12l2.34-.2c.14-.26,.26-.54,.36-.82h-2.7v1.02Z"/><path class="cls-1" d="M340.76,58.23c-1.38,1.76-4.16,4.44-5.14,5.42-.56,.56-.92,.94-.92,1.34,0,.58,1,1.46,2.3,2.66,1.76,1.62,3.54,3.56,4.54,5-.48,.66-1.38,1.56-2.34,2.02-1.08-1.66-2.28-3.2-4.1-5-2.34-2.3-3.74-3.36-3.74-4.64,0-.68,.56-1.36,1.34-2.14,1.32-1.32,4.38-4.14,6.06-6.76,.8,.5,1.62,1.46,2,2.1Z"/></g></svg>