<svg id="layer1" xmlns="http://www.w3.org/2000/svg" viewBox="0 0 50 50"><defs><style>.cls-1{fill:#d3b471;}</style></defs><title>top-blog-heading</title><path class="cls-1" d="M45,3a1,1,0,0,0-.3,0c-3.38,1.25-6.78,2.43-9.78,4.53A66,66,0,0,0,14.26,30.35,15,15,0,0,0,13,33.57c-.48,1.76.26,2.64,2,2.24a20,20,0,0,0,5-1.74,16.06,16.06,0,0,0,3.61-3c.78-.8.56-1.51-.44-1.89a9.77,9.77,0,0,0-2.23-.51c-1-.12-1.93-.14-2.89-.2a4.51,4.51,0,0,1,3.95-.6c2.85.9,2.85.92,4.77-1.47l.14-.18c.42-.66.85-1.32,1.27-2a15.38,15.38,0,0,0-2.63-.89,38.48,38.48,0,0,0-3.88-.22,1.39,1.39,0,0,1,1-.53,40.27,40.27,0,0,1,5.15-.05,4.6,4.6,0,0,0,4.32-1.87,3.86,3.86,0,0,0,.42-1.24,8.08,8.08,0,0,0-1.16-.34c-1.61-.22-3.22-.4-4.63-.58a48,48,0,0,0,6.81-1.05,6.84,6.84,0,0,0,4.82-4.8c-2,.58-4,1.09-5.89,0a2.23,2.23,0,0,1,.9-.18A12.79,12.79,0,0,0,39.53,11c1.75-1.06,1.93-1.55,1-3.38,1.71.13,2.46-1,3.08-2.33A23.28,23.28,0,0,1,45,3ZM7,47c1.26-3.59,2.34-7.27,3.84-10.75a72.51,72.51,0,0,1,5.22-10.1A64.24,64.24,0,0,1,23,17a66.39,66.39,0,0,1,8.37-7.62C34.32,7.12,37.6,5.25,41,3A51.65,51.65,0,0,0,17.23,21,54.28,54.28,0,0,0,7,47Z"/><path class="cls-1" d="M45,3a23.28,23.28,0,0,0-1.39,2.26C43,6.64,42.24,7.75,40.53,7.62c.93,1.83.75,2.32-1,3.38a12.79,12.79,0,0,1-6.19,1.51,2.23,2.23,0,0,0-.9.18c1.92,1.06,3.87.55,5.89,0a6.84,6.84,0,0,1-4.82,4.8,48,48,0,0,1-6.81,1.05c1.41.18,3,.36,4.63.58a8.08,8.08,0,0,1,1.16.34,3.86,3.86,0,0,1-.42,1.24,4.6,4.6,0,0,1-4.32,1.87,40.27,40.27,0,0,0-5.15.05,1.39,1.39,0,0,0-1,.53,38.48,38.48,0,0,1,3.88.22,15.38,15.38,0,0,1,2.63.89c-.42.67-.85,1.33-1.27,2l-.14.18c-1.92,2.39-1.92,2.37-4.77,1.47a4.51,4.51,0,0,0-3.95.6c1,.06,1.93.08,2.89.2a9.77,9.77,0,0,1,2.23.51c1,.38,1.22,1.09.44,1.89a16.06,16.06,0,0,1-3.61,3,20,20,0,0,1-5,1.74c-1.76.4-2.5-.48-2-2.24a15,15,0,0,1,1.31-3.22A66,66,0,0,1,34.92,7.54c3-2.1,6.4-3.28,9.78-4.53A1,1,0,0,1,45,3Z"/><path class="cls-1" d="M7,47A54.28,54.28,0,0,1,17.23,21,51.65,51.65,0,0,1,41,3c-3.41,2.23-6.69,4.1-9.65,6.39A66.39,66.39,0,0,0,23,17a64.24,64.24,0,0,0-6.93,9.12,72.51,72.51,0,0,0-5.22,10.1C9.34,39.73,8.26,43.41,7,47Z"/></svg>