<svg xmlns="http://www.w3.org/2000/svg" viewBox="0 0 28 28"><defs><style>.cls-1{fill:#7e0f09;}</style></defs><title>top-n-active</title><g id="レイヤー_1" data-name="レイヤー 1"><polygon class="cls-1" points="22.31 0 8.24 13.03 8.24 0 7.32 0 7.32 15.14 23.66 0 22.31 0"/><polygon class="cls-1" points="5.7 28 19.76 15.01 19.76 28 20.68 28 20.68 12.91 4.34 28 5.7 28"/><polygon class="cls-1" points="2.92 25.89 2.92 0 2 0 2 28 22.16 9.38 22.16 28 23.09 28 23.09 9.38 23.09 7.27 21.53 8.7 2.92 25.89"/><polygon class="cls-1" points="5.84 0 4.91 0 4.91 18.68 4.91 20.79 6.47 19.35 25.08 2.11 25.08 28 26 28 26 0 5.84 18.68 5.84 0"/></g></svg>